ISO-10303-21;
HEADER;
/* Generated by software containing ST-Developer
 * from STEP Tools, Inc. (www.steptools.com) 
 */
/* OPTION: using custom renumber hook */

FILE_DESCRIPTION(
/* description */ ('STEP AP242 Edition 2',
'CAx-IF Rec.Pracs.---Representation and Presentation of Product Manufa
cturing Information (PMI)---4.0---2014-10-13',
'CAx-IF Rec.Pracs.---3D Tessellated Geometry---0.4---2014-09-14','2;1',
'CAx-IF Rec.Pracs.---User Defined Attributes---1.5---2016-08-15'),
/* implementation_level */ '2;1');

FILE_NAME(
/* name */ 'Backplate',
/* time_stamp */ '2026-08-03T01:24:03Z',
/* author */ (''),
/* organization */ (''),
/* preprocessor_version */ 'ST-DEVELOPER v20',
/* originating_system */ 'ONSHAPE BY PTC INC, 1.218',
/* authorisation */ '  ');

FILE_SCHEMA (('AP242_MANAGED_MODEL_BASED_3D_ENGINEERING_MIM_LF { 1 0 10303 442 3 1 4 }'));
ENDSEC;

DATA;
#10=SHAPE_REPRESENTATION_RELATIONSHIP('','',#719,#11);
#11=ADVANCED_BREP_SHAPE_REPRESENTATION('',(#717),#1195);
#12=PLANE('',#727);
#13=PLANE('',#731);
#14=PLANE('',#735);
#15=PLANE('',#739);
#16=PLANE('',#746);
#17=PLANE('',#750);
#18=PLANE('',#754);
#19=PLANE('',#758);
#20=PLANE('',#762);
#21=PLANE('',#763);
#22=PLANE('',#764);
#23=PLANE('',#765);
#24=PLANE('',#766);
#25=PLANE('',#767);
#26=PLANE('',#768);
#27=PLANE('',#769);
#28=PLANE('',#770);
#29=PLANE('',#771);
#30=PLANE('',#772);
#31=PLANE('',#776);
#32=PLANE('',#780);
#33=PLANE('',#783);
#34=PLANE('',#786);
#35=PLANE('',#789);
#36=LINE('',#1004,#100);
#37=LINE('',#1008,#101);
#38=LINE('',#1010,#102);
#39=LINE('',#1012,#103);
#40=LINE('',#1014,#104);
#41=LINE('',#1018,#105);
#42=LINE('',#1022,#106);
#43=LINE('',#1024,#107);
#44=LINE('',#1026,#108);
#45=LINE('',#1030,#109);
#46=LINE('',#1034,#110);
#47=LINE('',#1036,#111);
#48=LINE('',#1038,#112);
#49=LINE('',#1042,#113);
#50=LINE('',#1046,#114);
#51=LINE('',#1048,#115);
#52=LINE('',#1050,#116);
#53=LINE('',#1054,#117);
#54=LINE('',#1061,#118);
#55=LINE('',#1065,#119);
#56=LINE('',#1067,#120);
#57=LINE('',#1069,#121);
#58=LINE('',#1071,#122);
#59=LINE('',#1075,#123);
#60=LINE('',#1079,#124);
#61=LINE('',#1081,#125);
#62=LINE('',#1083,#126);
#63=LINE('',#1087,#127);
#64=LINE('',#1091,#128);
#65=LINE('',#1093,#129);
#66=LINE('',#1095,#130);
#67=LINE('',#1099,#131);
#68=LINE('',#1103,#132);
#69=LINE('',#1105,#133);
#70=LINE('',#1107,#134);
#71=LINE('',#1111,#135);
#72=LINE('',#1115,#136);
#73=LINE('',#1118,#137);
#74=LINE('',#1120,#138);
#75=LINE('',#1122,#139);
#76=LINE('',#1124,#140);
#77=LINE('',#1126,#141);
#78=LINE('',#1128,#142);
#79=LINE('',#1130,#143);
#80=LINE('',#1132,#144);
#81=LINE('',#1134,#145);
#82=LINE('',#1136,#146);
#83=LINE('',#1139,#147);
#84=LINE('',#1141,#148);
#85=LINE('',#1143,#149);
#86=LINE('',#1145,#150);
#87=LINE('',#1147,#151);
#88=LINE('',#1149,#152);
#89=LINE('',#1151,#153);
#90=LINE('',#1153,#154);
#91=LINE('',#1155,#155);
#92=LINE('',#1157,#156);
#93=LINE('',#1158,#157);
#94=LINE('',#1160,#158);
#95=LINE('',#1161,#159);
#96=LINE('',#1163,#160);
#97=LINE('',#1164,#161);
#98=LINE('',#1166,#162);
#99=LINE('',#1167,#163);
#100=VECTOR('',#802,1.);
#101=VECTOR('',#805,1.);
#102=VECTOR('',#808,1.);
#103=VECTOR('',#809,1.);
#104=VECTOR('',#810,1.);
#105=VECTOR('',#815,1.);
#106=VECTOR('',#820,1.);
#107=VECTOR('',#821,1.);
#108=VECTOR('',#822,1.);
#109=VECTOR('',#827,1.);
#110=VECTOR('',#832,1.);
#111=VECTOR('',#833,1.);
#112=VECTOR('',#834,1.);
#113=VECTOR('',#839,1.);
#114=VECTOR('',#844,1.);
#115=VECTOR('',#845,1.);
#116=VECTOR('',#846,1.);
#117=VECTOR('',#851,1.);
#118=VECTOR('',#858,1.);
#119=VECTOR('',#861,1.);
#120=VECTOR('',#864,1.);
#121=VECTOR('',#865,1.);
#122=VECTOR('',#866,1.);
#123=VECTOR('',#871,1.);
#124=VECTOR('',#876,1.);
#125=VECTOR('',#877,1.);
#126=VECTOR('',#878,1.);
#127=VECTOR('',#883,1.);
#128=VECTOR('',#888,1.);
#129=VECTOR('',#889,1.);
#130=VECTOR('',#890,1.);
#131=VECTOR('',#895,1.);
#132=VECTOR('',#900,1.);
#133=VECTOR('',#901,1.);
#134=VECTOR('',#902,1.);
#135=VECTOR('',#907,1.);
#136=VECTOR('',#912,1.);
#137=VECTOR('',#913,1.);
#138=VECTOR('',#914,1.);
#139=VECTOR('',#915,1.);
#140=VECTOR('',#918,1.);
#141=VECTOR('',#919,1.);
#142=VECTOR('',#920,1.);
#143=VECTOR('',#923,1.);
#144=VECTOR('',#924,1.);
#145=VECTOR('',#925,1.);
#146=VECTOR('',#928,1.);
#147=VECTOR('',#929,1.);
#148=VECTOR('',#930,1.);
#149=VECTOR('',#931,1.);
#150=VECTOR('',#934,1.);
#151=VECTOR('',#935,1.);
#152=VECTOR('',#936,1.);
#153=VECTOR('',#939,1.);
#154=VECTOR('',#940,1.);
#155=VECTOR('',#941,1.);
#156=VECTOR('',#944,1.);
#157=VECTOR('',#945,1.);
#158=VECTOR('',#948,1.);
#159=VECTOR('',#949,1.);
#160=VECTOR('',#952,1.);
#161=VECTOR('',#953,1.);
#162=VECTOR('',#956,1.);
#163=VECTOR('',#957,1.);
#164=ORIENTED_EDGE('',*,*,#352,.F.);
#165=ORIENTED_EDGE('',*,*,#353,.T.);
#166=ORIENTED_EDGE('',*,*,#354,.F.);
#167=ORIENTED_EDGE('',*,*,#355,.F.);
#168=ORIENTED_EDGE('',*,*,#356,.T.);
#169=ORIENTED_EDGE('',*,*,#357,.T.);
#170=ORIENTED_EDGE('',*,*,#358,.T.);
#171=ORIENTED_EDGE('',*,*,#359,.F.);
#172=ORIENTED_EDGE('',*,*,#360,.F.);
#173=ORIENTED_EDGE('',*,*,#355,.T.);
#174=ORIENTED_EDGE('',*,*,#361,.F.);
#175=ORIENTED_EDGE('',*,*,#362,.F.);
#176=ORIENTED_EDGE('',*,*,#363,.T.);
#177=ORIENTED_EDGE('',*,*,#359,.T.);
#178=ORIENTED_EDGE('',*,*,#364,.T.);
#179=ORIENTED_EDGE('',*,*,#365,.F.);
#180=ORIENTED_EDGE('',*,*,#366,.F.);
#181=ORIENTED_EDGE('',*,*,#362,.T.);
#182=ORIENTED_EDGE('',*,*,#367,.F.);
#183=ORIENTED_EDGE('',*,*,#368,.F.);
#184=ORIENTED_EDGE('',*,*,#369,.T.);
#185=ORIENTED_EDGE('',*,*,#365,.T.);
#186=ORIENTED_EDGE('',*,*,#370,.F.);
#187=ORIENTED_EDGE('',*,*,#371,.F.);
#188=ORIENTED_EDGE('',*,*,#372,.T.);
#189=ORIENTED_EDGE('',*,*,#368,.T.);
#190=ORIENTED_EDGE('',*,*,#373,.F.);
#191=ORIENTED_EDGE('',*,*,#374,.F.);
#192=ORIENTED_EDGE('',*,*,#375,.T.);
#193=ORIENTED_EDGE('',*,*,#371,.T.);
#194=ORIENTED_EDGE('',*,*,#376,.F.);
#195=ORIENTED_EDGE('',*,*,#377,.F.);
#196=ORIENTED_EDGE('',*,*,#378,.T.);
#197=ORIENTED_EDGE('',*,*,#374,.T.);
#198=ORIENTED_EDGE('',*,*,#379,.F.);
#199=ORIENTED_EDGE('',*,*,#380,.F.);
#200=ORIENTED_EDGE('',*,*,#381,.T.);
#201=ORIENTED_EDGE('',*,*,#377,.T.);
#202=ORIENTED_EDGE('',*,*,#382,.T.);
#203=ORIENTED_EDGE('',*,*,#383,.F.);
#204=ORIENTED_EDGE('',*,*,#384,.F.);
#205=ORIENTED_EDGE('',*,*,#385,.T.);
#206=ORIENTED_EDGE('',*,*,#386,.T.);
#207=ORIENTED_EDGE('',*,*,#387,.F.);
#208=ORIENTED_EDGE('',*,*,#388,.F.);
#209=ORIENTED_EDGE('',*,*,#383,.T.);
#210=ORIENTED_EDGE('',*,*,#389,.F.);
#211=ORIENTED_EDGE('',*,*,#390,.F.);
#212=ORIENTED_EDGE('',*,*,#391,.T.);
#213=ORIENTED_EDGE('',*,*,#387,.T.);
#214=ORIENTED_EDGE('',*,*,#392,.F.);
#215=ORIENTED_EDGE('',*,*,#393,.F.);
#216=ORIENTED_EDGE('',*,*,#394,.T.);
#217=ORIENTED_EDGE('',*,*,#390,.T.);
#218=ORIENTED_EDGE('',*,*,#395,.T.);
#219=ORIENTED_EDGE('',*,*,#396,.F.);
#220=ORIENTED_EDGE('',*,*,#397,.F.);
#221=ORIENTED_EDGE('',*,*,#393,.T.);
#222=ORIENTED_EDGE('',*,*,#398,.F.);
#223=ORIENTED_EDGE('',*,*,#399,.F.);
#224=ORIENTED_EDGE('',*,*,#400,.T.);
#225=ORIENTED_EDGE('',*,*,#396,.T.);
#226=ORIENTED_EDGE('',*,*,#401,.T.);
#227=ORIENTED_EDGE('',*,*,#402,.F.);
#228=ORIENTED_EDGE('',*,*,#403,.F.);
#229=ORIENTED_EDGE('',*,*,#399,.T.);
#230=ORIENTED_EDGE('',*,*,#404,.T.);
#231=ORIENTED_EDGE('',*,*,#405,.F.);
#232=ORIENTED_EDGE('',*,*,#406,.F.);
#233=ORIENTED_EDGE('',*,*,#402,.T.);
#234=ORIENTED_EDGE('',*,*,#407,.T.);
#235=ORIENTED_EDGE('',*,*,#408,.F.);
#236=ORIENTED_EDGE('',*,*,#409,.F.);
#237=ORIENTED_EDGE('',*,*,#405,.T.);
#238=ORIENTED_EDGE('',*,*,#410,.F.);
#239=ORIENTED_EDGE('',*,*,#411,.F.);
#240=ORIENTED_EDGE('',*,*,#412,.T.);
#241=ORIENTED_EDGE('',*,*,#413,.T.);
#242=ORIENTED_EDGE('',*,*,#414,.F.);
#243=ORIENTED_EDGE('',*,*,#415,.F.);
#244=ORIENTED_EDGE('',*,*,#416,.T.);
#245=ORIENTED_EDGE('',*,*,#411,.T.);
#246=ORIENTED_EDGE('',*,*,#417,.T.);
#247=ORIENTED_EDGE('',*,*,#418,.F.);
#248=ORIENTED_EDGE('',*,*,#419,.F.);
#249=ORIENTED_EDGE('',*,*,#415,.T.);
#250=ORIENTED_EDGE('',*,*,#420,.F.);
#251=ORIENTED_EDGE('',*,*,#421,.F.);
#252=ORIENTED_EDGE('',*,*,#422,.T.);
#253=ORIENTED_EDGE('',*,*,#423,.T.);
#254=ORIENTED_EDGE('',*,*,#424,.T.);
#255=ORIENTED_EDGE('',*,*,#425,.F.);
#256=ORIENTED_EDGE('',*,*,#426,.F.);
#257=ORIENTED_EDGE('',*,*,#421,.T.);
#258=ORIENTED_EDGE('',*,*,#427,.T.);
#259=ORIENTED_EDGE('',*,*,#428,.F.);
#260=ORIENTED_EDGE('',*,*,#429,.F.);
#261=ORIENTED_EDGE('',*,*,#425,.T.);
#262=ORIENTED_EDGE('',*,*,#430,.T.);
#263=ORIENTED_EDGE('',*,*,#357,.F.);
#264=ORIENTED_EDGE('',*,*,#431,.F.);
#265=ORIENTED_EDGE('',*,*,#380,.T.);
#266=ORIENTED_EDGE('',*,*,#432,.T.);
#267=ORIENTED_EDGE('',*,*,#385,.F.);
#268=ORIENTED_EDGE('',*,*,#433,.F.);
#269=ORIENTED_EDGE('',*,*,#408,.T.);
#270=ORIENTED_EDGE('',*,*,#434,.T.);
#271=ORIENTED_EDGE('',*,*,#413,.F.);
#272=ORIENTED_EDGE('',*,*,#435,.F.);
#273=ORIENTED_EDGE('',*,*,#418,.T.);
#274=ORIENTED_EDGE('',*,*,#436,.F.);
#275=ORIENTED_EDGE('',*,*,#423,.F.);
#276=ORIENTED_EDGE('',*,*,#437,.T.);
#277=ORIENTED_EDGE('',*,*,#428,.T.);
#278=ORIENTED_EDGE('',*,*,#438,.F.);
#279=ORIENTED_EDGE('',*,*,#439,.F.);
#280=ORIENTED_EDGE('',*,*,#422,.F.);
#281=ORIENTED_EDGE('',*,*,#426,.T.);
#282=ORIENTED_EDGE('',*,*,#429,.T.);
#283=ORIENTED_EDGE('',*,*,#437,.F.);
#284=ORIENTED_EDGE('',*,*,#412,.F.);
#285=ORIENTED_EDGE('',*,*,#416,.F.);
#286=ORIENTED_EDGE('',*,*,#419,.T.);
#287=ORIENTED_EDGE('',*,*,#435,.T.);
#288=ORIENTED_EDGE('',*,*,#384,.T.);
#289=ORIENTED_EDGE('',*,*,#388,.T.);
#290=ORIENTED_EDGE('',*,*,#391,.F.);
#291=ORIENTED_EDGE('',*,*,#394,.F.);
#292=ORIENTED_EDGE('',*,*,#397,.T.);
#293=ORIENTED_EDGE('',*,*,#400,.F.);
#294=ORIENTED_EDGE('',*,*,#403,.T.);
#295=ORIENTED_EDGE('',*,*,#406,.T.);
#296=ORIENTED_EDGE('',*,*,#409,.T.);
#297=ORIENTED_EDGE('',*,*,#433,.T.);
#298=ORIENTED_EDGE('',*,*,#356,.F.);
#299=ORIENTED_EDGE('',*,*,#360,.T.);
#300=ORIENTED_EDGE('',*,*,#363,.F.);
#301=ORIENTED_EDGE('',*,*,#366,.T.);
#302=ORIENTED_EDGE('',*,*,#369,.F.);
#303=ORIENTED_EDGE('',*,*,#372,.F.);
#304=ORIENTED_EDGE('',*,*,#375,.F.);
#305=ORIENTED_EDGE('',*,*,#378,.F.);
#306=ORIENTED_EDGE('',*,*,#381,.F.);
#307=ORIENTED_EDGE('',*,*,#431,.T.);
#308=ORIENTED_EDGE('',*,*,#440,.F.);
#309=ORIENTED_EDGE('',*,*,#420,.T.);
#310=ORIENTED_EDGE('',*,*,#436,.T.);
#311=ORIENTED_EDGE('',*,*,#427,.F.);
#312=ORIENTED_EDGE('',*,*,#424,.F.);
#313=ORIENTED_EDGE('',*,*,#410,.T.);
#314=ORIENTED_EDGE('',*,*,#434,.F.);
#315=ORIENTED_EDGE('',*,*,#417,.F.);
#316=ORIENTED_EDGE('',*,*,#414,.T.);
#317=ORIENTED_EDGE('',*,*,#382,.F.);
#318=ORIENTED_EDGE('',*,*,#432,.F.);
#319=ORIENTED_EDGE('',*,*,#407,.F.);
#320=ORIENTED_EDGE('',*,*,#404,.F.);
#321=ORIENTED_EDGE('',*,*,#401,.F.);
#322=ORIENTED_EDGE('',*,*,#398,.T.);
#323=ORIENTED_EDGE('',*,*,#395,.F.);
#324=ORIENTED_EDGE('',*,*,#392,.T.);
#325=ORIENTED_EDGE('',*,*,#389,.T.);
#326=ORIENTED_EDGE('',*,*,#386,.F.);
#327=ORIENTED_EDGE('',*,*,#354,.T.);
#328=ORIENTED_EDGE('',*,*,#430,.F.);
#329=ORIENTED_EDGE('',*,*,#379,.T.);
#330=ORIENTED_EDGE('',*,*,#376,.T.);
#331=ORIENTED_EDGE('',*,*,#373,.T.);
#332=ORIENTED_EDGE('',*,*,#370,.T.);
#333=ORIENTED_EDGE('',*,*,#367,.T.);
#334=ORIENTED_EDGE('',*,*,#364,.F.);
#335=ORIENTED_EDGE('',*,*,#361,.T.);
#336=ORIENTED_EDGE('',*,*,#358,.F.);
#337=ORIENTED_EDGE('',*,*,#441,.T.);
#338=ORIENTED_EDGE('',*,*,#442,.T.);
#339=ORIENTED_EDGE('',*,*,#441,.F.);
#340=ORIENTED_EDGE('',*,*,#442,.F.);
#341=ORIENTED_EDGE('',*,*,#352,.T.);
#342=ORIENTED_EDGE('',*,*,#440,.T.);
#343=ORIENTED_EDGE('',*,*,#443,.F.);
#344=ORIENTED_EDGE('',*,*,#443,.T.);
#345=ORIENTED_EDGE('',*,*,#353,.F.);
#346=ORIENTED_EDGE('',*,*,#444,.F.);
#347=ORIENTED_EDGE('',*,*,#439,.T.);
#348=ORIENTED_EDGE('',*,*,#444,.T.);
#349=ORIENTED_EDGE('',*,*,#445,.F.);
#350=ORIENTED_EDGE('',*,*,#438,.T.);
#351=ORIENTED_EDGE('',*,*,#445,.T.);
#352=EDGE_CURVE('',#446,#446,#512,.T.);
#353=EDGE_CURVE('',#447,#447,#513,.T.);
#354=EDGE_CURVE('',#448,#449,#514,.T.);
#355=EDGE_CURVE('',#450,#448,#36,.T.);
#356=EDGE_CURVE('',#450,#451,#515,.T.);
#357=EDGE_CURVE('',#451,#449,#37,.T.);
#358=EDGE_CURVE('',#448,#452,#38,.T.);
#359=EDGE_CURVE('',#453,#452,#39,.T.);
#360=EDGE_CURVE('',#450,#453,#40,.T.);
#361=EDGE_CURVE('',#454,#452,#516,.T.);
#362=EDGE_CURVE('',#455,#454,#41,.T.);
#363=EDGE_CURVE('',#455,#453,#517,.T.);
#364=EDGE_CURVE('',#454,#456,#42,.T.);
#365=EDGE_CURVE('',#457,#456,#43,.T.);
#366=EDGE_CURVE('',#455,#457,#44,.T.);
#367=EDGE_CURVE('',#458,#456,#518,.T.);
#368=EDGE_CURVE('',#459,#458,#45,.T.);
#369=EDGE_CURVE('',#459,#457,#519,.T.);
#370=EDGE_CURVE('',#460,#458,#46,.T.);
#371=EDGE_CURVE('',#461,#460,#47,.T.);
#372=EDGE_CURVE('',#461,#459,#48,.T.);
#373=EDGE_CURVE('',#462,#460,#520,.T.);
#374=EDGE_CURVE('',#463,#462,#49,.T.);
#375=EDGE_CURVE('',#463,#461,#521,.T.);
#376=EDGE_CURVE('',#464,#462,#50,.T.);
#377=EDGE_CURVE('',#465,#464,#51,.T.);
#378=EDGE_CURVE('',#465,#463,#52,.T.);
#379=EDGE_CURVE('',#466,#464,#522,.T.);
#380=EDGE_CURVE('',#467,#466,#53,.T.);
#381=EDGE_CURVE('',#467,#465,#523,.T.);
#382=EDGE_CURVE('',#468,#469,#524,.T.);
#383=EDGE_CURVE('',#470,#469,#54,.T.);
#384=EDGE_CURVE('',#471,#470,#525,.T.);
#385=EDGE_CURVE('',#471,#468,#55,.T.);
#386=EDGE_CURVE('',#469,#472,#56,.T.);
#387=EDGE_CURVE('',#473,#472,#57,.T.);
#388=EDGE_CURVE('',#470,#473,#58,.T.);
#389=EDGE_CURVE('',#474,#472,#526,.T.);
#390=EDGE_CURVE('',#475,#474,#59,.T.);
#391=EDGE_CURVE('',#475,#473,#527,.T.);
#392=EDGE_CURVE('',#476,#474,#60,.T.);
#393=EDGE_CURVE('',#477,#476,#61,.T.);
#394=EDGE_CURVE('',#477,#475,#62,.T.);
#395=EDGE_CURVE('',#476,#478,#528,.T.);
#396=EDGE_CURVE('',#479,#478,#63,.T.);
#397=EDGE_CURVE('',#477,#479,#529,.T.);
#398=EDGE_CURVE('',#480,#478,#64,.T.);
#399=EDGE_CURVE('',#481,#480,#65,.T.);
#400=EDGE_CURVE('',#481,#479,#66,.T.);
#401=EDGE_CURVE('',#480,#482,#530,.T.);
#402=EDGE_CURVE('',#483,#482,#67,.T.);
#403=EDGE_CURVE('',#481,#483,#531,.T.);
#404=EDGE_CURVE('',#482,#484,#68,.T.);
#405=EDGE_CURVE('',#485,#484,#69,.T.);
#406=EDGE_CURVE('',#483,#485,#70,.T.);
#407=EDGE_CURVE('',#484,#486,#532,.T.);
#408=EDGE_CURVE('',#487,#486,#71,.T.);
#409=EDGE_CURVE('',#485,#487,#533,.T.);
#410=EDGE_CURVE('',#488,#489,#72,.T.);
#411=EDGE_CURVE('',#490,#488,#73,.T.);
#412=EDGE_CURVE('',#490,#491,#74,.T.);
#413=EDGE_CURVE('',#491,#489,#75,.T.);
#414=EDGE_CURVE('',#492,#488,#76,.T.);
#415=EDGE_CURVE('',#493,#492,#77,.T.);
#416=EDGE_CURVE('',#493,#490,#78,.T.);
#417=EDGE_CURVE('',#492,#494,#79,.T.);
#418=EDGE_CURVE('',#495,#494,#80,.T.);
#419=EDGE_CURVE('',#493,#495,#81,.T.);
#420=EDGE_CURVE('',#496,#497,#82,.T.);
#421=EDGE_CURVE('',#498,#496,#83,.T.);
#422=EDGE_CURVE('',#498,#499,#84,.T.);
#423=EDGE_CURVE('',#499,#497,#85,.T.);
#424=EDGE_CURVE('',#496,#500,#86,.T.);
#425=EDGE_CURVE('',#501,#500,#87,.T.);
#426=EDGE_CURVE('',#498,#501,#88,.T.);
#427=EDGE_CURVE('',#500,#502,#89,.T.);
#428=EDGE_CURVE('',#503,#502,#90,.T.);
#429=EDGE_CURVE('',#501,#503,#91,.T.);
#430=EDGE_CURVE('',#466,#449,#92,.T.);
#431=EDGE_CURVE('',#467,#451,#93,.T.);
#432=EDGE_CURVE('',#486,#468,#94,.T.);
#433=EDGE_CURVE('',#487,#471,#95,.T.);
#434=EDGE_CURVE('',#494,#489,#96,.T.);
#435=EDGE_CURVE('',#495,#491,#97,.T.);
#436=EDGE_CURVE('',#497,#502,#98,.T.);
#437=EDGE_CURVE('',#499,#503,#99,.T.);
#438=EDGE_CURVE('',#504,#504,#534,.T.);
#439=EDGE_CURVE('',#505,#505,#535,.T.);
#440=EDGE_CURVE('',#506,#506,#536,.T.);
#441=EDGE_CURVE('',#507,#507,#537,.T.);
#442=EDGE_CURVE('',#508,#508,#538,.T.);
#443=EDGE_CURVE('',#509,#509,#539,.T.);
#444=EDGE_CURVE('',#510,#510,#540,.T.);
#445=EDGE_CURVE('',#511,#511,#541,.T.);
#446=VERTEX_POINT('',#997);
#447=VERTEX_POINT('',#999);
#448=VERTEX_POINT('',#1002);
#449=VERTEX_POINT('',#1003);
#450=VERTEX_POINT('',#1005);
#451=VERTEX_POINT('',#1007);
#452=VERTEX_POINT('',#1011);
#453=VERTEX_POINT('',#1013);
#454=VERTEX_POINT('',#1017);
#455=VERTEX_POINT('',#1019);
#456=VERTEX_POINT('',#1023);
#457=VERTEX_POINT('',#1025);
#458=VERTEX_POINT('',#1029);
#459=VERTEX_POINT('',#1031);
#460=VERTEX_POINT('',#1035);
#461=VERTEX_POINT('',#1037);
#462=VERTEX_POINT('',#1041);
#463=VERTEX_POINT('',#1043);
#464=VERTEX_POINT('',#1047);
#465=VERTEX_POINT('',#1049);
#466=VERTEX_POINT('',#1053);
#467=VERTEX_POINT('',#1055);
#468=VERTEX_POINT('',#1059);
#469=VERTEX_POINT('',#1060);
#470=VERTEX_POINT('',#1062);
#471=VERTEX_POINT('',#1064);
#472=VERTEX_POINT('',#1068);
#473=VERTEX_POINT('',#1070);
#474=VERTEX_POINT('',#1074);
#475=VERTEX_POINT('',#1076);
#476=VERTEX_POINT('',#1080);
#477=VERTEX_POINT('',#1082);
#478=VERTEX_POINT('',#1086);
#479=VERTEX_POINT('',#1088);
#480=VERTEX_POINT('',#1092);
#481=VERTEX_POINT('',#1094);
#482=VERTEX_POINT('',#1098);
#483=VERTEX_POINT('',#1100);
#484=VERTEX_POINT('',#1104);
#485=VERTEX_POINT('',#1106);
#486=VERTEX_POINT('',#1110);
#487=VERTEX_POINT('',#1112);
#488=VERTEX_POINT('',#1116);
#489=VERTEX_POINT('',#1117);
#490=VERTEX_POINT('',#1119);
#491=VERTEX_POINT('',#1121);
#492=VERTEX_POINT('',#1125);
#493=VERTEX_POINT('',#1127);
#494=VERTEX_POINT('',#1131);
#495=VERTEX_POINT('',#1133);
#496=VERTEX_POINT('',#1137);
#497=VERTEX_POINT('',#1138);
#498=VERTEX_POINT('',#1140);
#499=VERTEX_POINT('',#1142);
#500=VERTEX_POINT('',#1146);
#501=VERTEX_POINT('',#1148);
#502=VERTEX_POINT('',#1152);
#503=VERTEX_POINT('',#1154);
#504=VERTEX_POINT('',#1170);
#505=VERTEX_POINT('',#1172);
#506=VERTEX_POINT('',#1174);
#507=VERTEX_POINT('',#1177);
#508=VERTEX_POINT('',#1180);
#509=VERTEX_POINT('',#1184);
#510=VERTEX_POINT('',#1188);
#511=VERTEX_POINT('',#1192);
#512=CIRCLE('',#722,0.01125);
#513=CIRCLE('',#723,0.01125);
#514=CIRCLE('',#725,0.01524);
#515=CIRCLE('',#726,0.01524);
#516=CIRCLE('',#729,0.01524);
#517=CIRCLE('',#730,0.01524);
#518=CIRCLE('',#733,0.01524);
#519=CIRCLE('',#734,0.01524);
#520=CIRCLE('',#737,0.01524);
#521=CIRCLE('',#738,0.01524);
#522=CIRCLE('',#741,0.01524);
#523=CIRCLE('',#742,0.01524);
#524=CIRCLE('',#744,0.00635);
#525=CIRCLE('',#745,0.00635);
#526=CIRCLE('',#748,0.00635);
#527=CIRCLE('',#749,0.00635);
#528=CIRCLE('',#752,0.00762);
#529=CIRCLE('',#753,0.00762);
#530=CIRCLE('',#756,0.01524);
#531=CIRCLE('',#757,0.01524);
#532=CIRCLE('',#760,0.00635);
#533=CIRCLE('',#761,0.00635);
#534=CIRCLE('',#773,0.00254);
#535=CIRCLE('',#774,0.00254);
#536=CIRCLE('',#775,0.01075);
#537=CIRCLE('',#777,0.01075);
#538=CIRCLE('',#779,0.01075);
#539=CIRCLE('',#782,0.01075);
#540=CIRCLE('',#785,0.00254);
#541=CIRCLE('',#788,0.00254);
#542=EDGE_LOOP('',(#164));
#543=EDGE_LOOP('',(#165));
#544=EDGE_LOOP('',(#166,#167,#168,#169));
#545=EDGE_LOOP('',(#170,#171,#172,#173));
#546=EDGE_LOOP('',(#174,#175,#176,#177));
#547=EDGE_LOOP('',(#178,#179,#180,#181));
#548=EDGE_LOOP('',(#182,#183,#184,#185));
#549=EDGE_LOOP('',(#186,#187,#188,#189));
#550=EDGE_LOOP('',(#190,#191,#192,#193));
#551=EDGE_LOOP('',(#194,#195,#196,#197));
#552=EDGE_LOOP('',(#198,#199,#200,#201));
#553=EDGE_LOOP('',(#202,#203,#204,#205));
#554=EDGE_LOOP('',(#206,#207,#208,#209));
#555=EDGE_LOOP('',(#210,#211,#212,#213));
#556=EDGE_LOOP('',(#214,#215,#216,#217));
#557=EDGE_LOOP('',(#218,#219,#220,#221));
#558=EDGE_LOOP('',(#222,#223,#224,#225));
#559=EDGE_LOOP('',(#226,#227,#228,#229));
#560=EDGE_LOOP('',(#230,#231,#232,#233));
#561=EDGE_LOOP('',(#234,#235,#236,#237));
#562=EDGE_LOOP('',(#238,#239,#240,#241));
#563=EDGE_LOOP('',(#242,#243,#244,#245));
#564=EDGE_LOOP('',(#246,#247,#248,#249));
#565=EDGE_LOOP('',(#250,#251,#252,#253));
#566=EDGE_LOOP('',(#254,#255,#256,#257));
#567=EDGE_LOOP('',(#258,#259,#260,#261));
#568=EDGE_LOOP('',(#262,#263,#264,#265));
#569=EDGE_LOOP('',(#266,#267,#268,#269));
#570=EDGE_LOOP('',(#270,#271,#272,#273));
#571=EDGE_LOOP('',(#274,#275,#276,#277));
#572=EDGE_LOOP('',(#278));
#573=EDGE_LOOP('',(#279));
#574=EDGE_LOOP('',(#280,#281,#282,#283));
#575=EDGE_LOOP('',(#284,#285,#286,#287));
#576=EDGE_LOOP('',(#288,#289,#290,#291,#292,#293,#294,#295,#296,#297));
#577=EDGE_LOOP('',(#298,#299,#300,#301,#302,#303,#304,#305,#306,#307));
#578=EDGE_LOOP('',(#308));
#579=EDGE_LOOP('',(#309,#310,#311,#312));
#580=EDGE_LOOP('',(#313,#314,#315,#316));
#581=EDGE_LOOP('',(#317,#318,#319,#320,#321,#322,#323,#324,#325,#326));
#582=EDGE_LOOP('',(#327,#328,#329,#330,#331,#332,#333,#334,#335,#336));
#583=EDGE_LOOP('',(#337));
#584=EDGE_LOOP('',(#338));
#585=EDGE_LOOP('',(#339));
#586=EDGE_LOOP('',(#340));
#587=EDGE_LOOP('',(#341));
#588=EDGE_LOOP('',(#342));
#589=EDGE_LOOP('',(#343));
#590=EDGE_LOOP('',(#344));
#591=EDGE_LOOP('',(#345));
#592=EDGE_LOOP('',(#346));
#593=EDGE_LOOP('',(#347));
#594=EDGE_LOOP('',(#348));
#595=EDGE_LOOP('',(#349));
#596=EDGE_LOOP('',(#350));
#597=EDGE_LOOP('',(#351));
#598=FACE_BOUND('',#542,.T.);
#599=FACE_BOUND('',#543,.T.);
#600=FACE_BOUND('',#544,.T.);
#601=FACE_BOUND('',#545,.T.);
#602=FACE_BOUND('',#546,.T.);
#603=FACE_BOUND('',#547,.T.);
#604=FACE_BOUND('',#548,.T.);
#605=FACE_BOUND('',#549,.T.);
#606=FACE_BOUND('',#550,.T.);
#607=FACE_BOUND('',#551,.T.);
#608=FACE_BOUND('',#552,.T.);
#609=FACE_BOUND('',#553,.T.);
#610=FACE_BOUND('',#554,.T.);
#611=FACE_BOUND('',#555,.T.);
#612=FACE_BOUND('',#556,.T.);
#613=FACE_BOUND('',#557,.T.);
#614=FACE_BOUND('',#558,.T.);
#615=FACE_BOUND('',#559,.T.);
#616=FACE_BOUND('',#560,.T.);
#617=FACE_BOUND('',#561,.T.);
#618=FACE_BOUND('',#562,.T.);
#619=FACE_BOUND('',#563,.T.);
#620=FACE_BOUND('',#564,.T.);
#621=FACE_BOUND('',#565,.T.);
#622=FACE_BOUND('',#566,.T.);
#623=FACE_BOUND('',#567,.T.);
#624=FACE_BOUND('',#568,.T.);
#625=FACE_BOUND('',#569,.T.);
#626=FACE_BOUND('',#570,.T.);
#627=FACE_BOUND('',#571,.T.);
#628=FACE_BOUND('',#572,.T.);
#629=FACE_BOUND('',#573,.T.);
#630=FACE_BOUND('',#574,.T.);
#631=FACE_BOUND('',#575,.T.);
#632=FACE_BOUND('',#576,.T.);
#633=FACE_BOUND('',#577,.T.);
#634=FACE_BOUND('',#578,.T.);
#635=FACE_BOUND('',#579,.T.);
#636=FACE_BOUND('',#580,.T.);
#637=FACE_BOUND('',#581,.T.);
#638=FACE_BOUND('',#582,.T.);
#639=FACE_BOUND('',#583,.T.);
#640=FACE_BOUND('',#584,.T.);
#641=FACE_BOUND('',#585,.T.);
#642=FACE_BOUND('',#586,.T.);
#643=FACE_BOUND('',#587,.T.);
#644=FACE_BOUND('',#588,.T.);
#645=FACE_BOUND('',#589,.T.);
#646=FACE_BOUND('',#590,.T.);
#647=FACE_BOUND('',#591,.T.);
#648=FACE_BOUND('',#592,.T.);
#649=FACE_BOUND('',#593,.T.);
#650=FACE_BOUND('',#594,.T.);
#651=FACE_BOUND('',#595,.T.);
#652=FACE_BOUND('',#596,.T.);
#653=FACE_BOUND('',#597,.T.);
#654=CYLINDRICAL_SURFACE('',#721,0.01125);
#655=CYLINDRICAL_SURFACE('',#724,0.01524);
#656=CYLINDRICAL_SURFACE('',#728,0.01524);
#657=CYLINDRICAL_SURFACE('',#732,0.01524);
#658=CYLINDRICAL_SURFACE('',#736,0.01524);
#659=CYLINDRICAL_SURFACE('',#740,0.01524);
#660=CYLINDRICAL_SURFACE('',#743,0.00635);
#661=CYLINDRICAL_SURFACE('',#747,0.00635);
#662=CYLINDRICAL_SURFACE('',#751,0.00762);
#663=CYLINDRICAL_SURFACE('',#755,0.01524);
#664=CYLINDRICAL_SURFACE('',#759,0.00635);
#665=CYLINDRICAL_SURFACE('',#778,0.01075);
#666=CYLINDRICAL_SURFACE('',#781,0.01075);
#667=CYLINDRICAL_SURFACE('',#784,0.00254);
#668=CYLINDRICAL_SURFACE('',#787,0.00254);
#669=ADVANCED_FACE('',(#598,#599),#654,.F.);
#670=ADVANCED_FACE('',(#600),#655,.F.);
#671=ADVANCED_FACE('',(#601),#12,.F.);
#672=ADVANCED_FACE('',(#602),#656,.F.);
#673=ADVANCED_FACE('',(#603),#13,.F.);
#674=ADVANCED_FACE('',(#604),#657,.F.);
#675=ADVANCED_FACE('',(#605),#14,.T.);
#676=ADVANCED_FACE('',(#606),#658,.F.);
#677=ADVANCED_FACE('',(#607),#15,.T.);
#678=ADVANCED_FACE('',(#608),#659,.F.);
#679=ADVANCED_FACE('',(#609),#660,.T.);
#680=ADVANCED_FACE('',(#610),#16,.F.);
#681=ADVANCED_FACE('',(#611),#661,.T.);
#682=ADVANCED_FACE('',(#612),#17,.T.);
#683=ADVANCED_FACE('',(#613),#662,.T.);
#684=ADVANCED_FACE('',(#614),#18,.T.);
#685=ADVANCED_FACE('',(#615),#663,.T.);
#686=ADVANCED_FACE('',(#616),#19,.F.);
#687=ADVANCED_FACE('',(#617),#664,.T.);
#688=ADVANCED_FACE('',(#618),#20,.T.);
#689=ADVANCED_FACE('',(#619),#21,.T.);
#690=ADVANCED_FACE('',(#620),#22,.F.);
#691=ADVANCED_FACE('',(#621),#23,.T.);
#692=ADVANCED_FACE('',(#622),#24,.F.);
#693=ADVANCED_FACE('',(#623),#25,.F.);
#694=ADVANCED_FACE('',(#624),#26,.F.);
#695=ADVANCED_FACE('',(#625),#27,.F.);
#696=ADVANCED_FACE('',(#626),#28,.F.);
#697=ADVANCED_FACE('',(#627),#29,.T.);
#698=ADVANCED_FACE('',(#628,#629,#630,#631,#632,#633,#634),#30,.T.);
#699=ADVANCED_FACE('',(#635,#636,#637,#638,#639),#31,.F.);
#700=ADVANCED_FACE('',(#640,#641),#665,.F.);
#701=ADVANCED_FACE('',(#642,#643),#32,.T.);
#702=ADVANCED_FACE('',(#644,#645),#666,.F.);
#703=ADVANCED_FACE('',(#646,#647),#33,.F.);
#704=ADVANCED_FACE('',(#648,#649),#667,.T.);
#705=ADVANCED_FACE('',(#650),#34,.T.);
#706=ADVANCED_FACE('',(#651,#652),#668,.T.);
#707=ADVANCED_FACE('',(#653),#35,.T.);
#708=CLOSED_SHELL('',(#669,#670,#671,#672,#673,#674,#675,#676,#677,#678,
#679,#680,#681,#682,#683,#684,#685,#686,#687,#688,#689,#690,#691,#692,#693,
#694,#695,#696,#697,#698,#699,#700,#701,#702,#703,#704,#705,#706,#707));
#709=STYLED_ITEM('',(#710),#717);
#710=PRESENTATION_STYLE_ASSIGNMENT((#711));
#711=SURFACE_STYLE_USAGE(.BOTH.,#712);
#712=SURFACE_SIDE_STYLE('',(#713));
#713=SURFACE_STYLE_FILL_AREA(#714);
#714=FILL_AREA_STYLE('',(#715));
#715=FILL_AREA_STYLE_COLOUR('',#716);
#716=COLOUR_RGB('',0.917647058823529,0.917647058823529,0.917647058823529);
#717=MANIFOLD_SOLID_BREP('Part 1',#708);
#718=SHAPE_DEFINITION_REPRESENTATION(#1200,#719);
#719=SHAPE_REPRESENTATION('Part 1',(#720),#1195);
#720=AXIS2_PLACEMENT_3D('',#994,#790,#791);
#721=AXIS2_PLACEMENT_3D('',#995,#792,#793);
#722=AXIS2_PLACEMENT_3D('',#996,#794,#795);
#723=AXIS2_PLACEMENT_3D('',#998,#796,#797);
#724=AXIS2_PLACEMENT_3D('',#1000,#798,#799);
#725=AXIS2_PLACEMENT_3D('',#1001,#800,#801);
#726=AXIS2_PLACEMENT_3D('',#1006,#803,#804);
#727=AXIS2_PLACEMENT_3D('',#1009,#806,#807);
#728=AXIS2_PLACEMENT_3D('',#1015,#811,#812);
#729=AXIS2_PLACEMENT_3D('',#1016,#813,#814);
#730=AXIS2_PLACEMENT_3D('',#1020,#816,#817);
#731=AXIS2_PLACEMENT_3D('',#1021,#818,#819);
#732=AXIS2_PLACEMENT_3D('',#1027,#823,#824);
#733=AXIS2_PLACEMENT_3D('',#1028,#825,#826);
#734=AXIS2_PLACEMENT_3D('',#1032,#828,#829);
#735=AXIS2_PLACEMENT_3D('',#1033,#830,#831);
#736=AXIS2_PLACEMENT_3D('',#1039,#835,#836);
#737=AXIS2_PLACEMENT_3D('',#1040,#837,#838);
#738=AXIS2_PLACEMENT_3D('',#1044,#840,#841);
#739=AXIS2_PLACEMENT_3D('',#1045,#842,#843);
#740=AXIS2_PLACEMENT_3D('',#1051,#847,#848);
#741=AXIS2_PLACEMENT_3D('',#1052,#849,#850);
#742=AXIS2_PLACEMENT_3D('',#1056,#852,#853);
#743=AXIS2_PLACEMENT_3D('',#1057,#854,#855);
#744=AXIS2_PLACEMENT_3D('',#1058,#856,#857);
#745=AXIS2_PLACEMENT_3D('',#1063,#859,#860);
#746=AXIS2_PLACEMENT_3D('',#1066,#862,#863);
#747=AXIS2_PLACEMENT_3D('',#1072,#867,#868);
#748=AXIS2_PLACEMENT_3D('',#1073,#869,#870);
#749=AXIS2_PLACEMENT_3D('',#1077,#872,#873);
#750=AXIS2_PLACEMENT_3D('',#1078,#874,#875);
#751=AXIS2_PLACEMENT_3D('',#1084,#879,#880);
#752=AXIS2_PLACEMENT_3D('',#1085,#881,#882);
#753=AXIS2_PLACEMENT_3D('',#1089,#884,#885);
#754=AXIS2_PLACEMENT_3D('',#1090,#886,#887);
#755=AXIS2_PLACEMENT_3D('',#1096,#891,#892);
#756=AXIS2_PLACEMENT_3D('',#1097,#893,#894);
#757=AXIS2_PLACEMENT_3D('',#1101,#896,#897);
#758=AXIS2_PLACEMENT_3D('',#1102,#898,#899);
#759=AXIS2_PLACEMENT_3D('',#1108,#903,#904);
#760=AXIS2_PLACEMENT_3D('',#1109,#905,#906);
#761=AXIS2_PLACEMENT_3D('',#1113,#908,#909);
#762=AXIS2_PLACEMENT_3D('',#1114,#910,#911);
#763=AXIS2_PLACEMENT_3D('',#1123,#916,#917);
#764=AXIS2_PLACEMENT_3D('',#1129,#921,#922);
#765=AXIS2_PLACEMENT_3D('',#1135,#926,#927);
#766=AXIS2_PLACEMENT_3D('',#1144,#932,#933);
#767=AXIS2_PLACEMENT_3D('',#1150,#937,#938);
#768=AXIS2_PLACEMENT_3D('',#1156,#942,#943);
#769=AXIS2_PLACEMENT_3D('',#1159,#946,#947);
#770=AXIS2_PLACEMENT_3D('',#1162,#950,#951);
#771=AXIS2_PLACEMENT_3D('',#1165,#954,#955);
#772=AXIS2_PLACEMENT_3D('',#1168,#958,#959);
#773=AXIS2_PLACEMENT_3D('',#1169,#960,#961);
#774=AXIS2_PLACEMENT_3D('',#1171,#962,#963);
#775=AXIS2_PLACEMENT_3D('',#1173,#964,#965);
#776=AXIS2_PLACEMENT_3D('',#1175,#966,#967);
#777=AXIS2_PLACEMENT_3D('',#1176,#968,#969);
#778=AXIS2_PLACEMENT_3D('',#1178,#970,#971);
#779=AXIS2_PLACEMENT_3D('',#1179,#972,#973);
#780=AXIS2_PLACEMENT_3D('',#1181,#974,#975);
#781=AXIS2_PLACEMENT_3D('',#1182,#976,#977);
#782=AXIS2_PLACEMENT_3D('',#1183,#978,#979);
#783=AXIS2_PLACEMENT_3D('',#1185,#980,#981);
#784=AXIS2_PLACEMENT_3D('',#1186,#982,#983);
#785=AXIS2_PLACEMENT_3D('',#1187,#984,#985);
#786=AXIS2_PLACEMENT_3D('',#1189,#986,#987);
#787=AXIS2_PLACEMENT_3D('',#1190,#988,#989);
#788=AXIS2_PLACEMENT_3D('',#1191,#990,#991);
#789=AXIS2_PLACEMENT_3D('',#1193,#992,#993);
#790=DIRECTION('',(0.,0.,1.));
#791=DIRECTION('',(1.,0.,0.));
#792=DIRECTION('',(0.,0.,-1.));
#793=DIRECTION('',(-1.,0.,0.));
#794=DIRECTION('',(0.,0.,1.));
#795=DIRECTION('',(1.,0.,0.));
#796=DIRECTION('',(0.,0.,1.));
#797=DIRECTION('',(1.,0.,0.));
#798=DIRECTION('',(0.,0.,-1.));
#799=DIRECTION('',(-1.,0.,0.));
#800=DIRECTION('',(0.,0.,1.));
#801=DIRECTION('',(1.,0.,0.));
#802=DIRECTION('',(0.,0.,-1.));
#803=DIRECTION('',(0.,0.,1.));
#804=DIRECTION('',(1.,0.,0.));
#805=DIRECTION('',(0.,0.,-1.));
#806=DIRECTION('',(1.,0.,0.));
#807=DIRECTION('',(0.,0.,-1.));
#808=DIRECTION('',(0.,-1.,0.));
#809=DIRECTION('',(0.,0.,-1.));
#810=DIRECTION('',(0.,-1.,0.));
#811=DIRECTION('',(0.,0.,-1.));
#812=DIRECTION('',(-1.,0.,0.));
#813=DIRECTION('',(0.,0.,1.));
#814=DIRECTION('',(1.,0.,0.));
#815=DIRECTION('',(0.,0.,-1.));
#816=DIRECTION('',(0.,0.,1.));
#817=DIRECTION('',(1.,0.,0.));
#818=DIRECTION('',(0.438298477254103,-0.898829485963125,0.));
#819=DIRECTION('',(0.898829485963125,0.438298477254103,0.));
#820=DIRECTION('',(-0.898829485963125,-0.438298477254103,0.));
#821=DIRECTION('',(0.,0.,-1.));
#822=DIRECTION('',(-0.898829485963125,-0.438298477254103,0.));
#823=DIRECTION('',(0.,0.,-1.));
#824=DIRECTION('',(-1.,0.,0.));
#825=DIRECTION('',(0.,0.,1.));
#826=DIRECTION('',(1.,0.,0.));
#827=DIRECTION('',(0.,0.,-1.));
#828=DIRECTION('',(0.,0.,1.));
#829=DIRECTION('',(1.,0.,0.));
#830=DIRECTION('',(0.438298477254103,0.898829485963125,0.));
#831=DIRECTION('',(-0.898829485963125,0.438298477254103,0.));
#832=DIRECTION('',(0.898829485963125,-0.438298477254103,0.));
#833=DIRECTION('',(0.,0.,-1.));
#834=DIRECTION('',(0.898829485963125,-0.438298477254103,0.));
#835=DIRECTION('',(0.,0.,-1.));
#836=DIRECTION('',(-1.,0.,0.));
#837=DIRECTION('',(0.,0.,1.));
#838=DIRECTION('',(1.,0.,0.));
#839=DIRECTION('',(0.,0.,-1.));
#840=DIRECTION('',(0.,0.,1.));
#841=DIRECTION('',(1.,0.,0.));
#842=DIRECTION('',(1.,0.,0.));
#843=DIRECTION('',(0.,0.,-1.));
#844=DIRECTION('',(0.,-1.,0.));
#845=DIRECTION('',(0.,0.,-1.));
#846=DIRECTION('',(0.,-1.,0.));
#847=DIRECTION('',(0.,0.,-1.));
#848=DIRECTION('',(-1.,0.,0.));
#849=DIRECTION('',(0.,0.,1.));
#850=DIRECTION('',(1.,0.,0.));
#851=DIRECTION('',(0.,0.,-1.));
#852=DIRECTION('',(0.,0.,1.));
#853=DIRECTION('',(1.,0.,0.));
#854=DIRECTION('',(0.,0.,-1.));
#855=DIRECTION('',(-1.,0.,0.));
#856=DIRECTION('',(0.,0.,1.));
#857=DIRECTION('',(1.,0.,0.));
#858=DIRECTION('',(0.,0.,-1.));
#859=DIRECTION('',(0.,0.,1.));
#860=DIRECTION('',(1.,0.,0.));
#861=DIRECTION('',(0.,0.,-1.));
#862=DIRECTION('',(0.,-1.,0.));
#863=DIRECTION('',(0.,0.,-1.));
#864=DIRECTION('',(-1.,0.,0.));
#865=DIRECTION('',(0.,0.,-1.));
#866=DIRECTION('',(-1.,0.,0.));
#867=DIRECTION('',(0.,0.,-1.));
#868=DIRECTION('',(-1.,0.,0.));
#869=DIRECTION('',(0.,0.,-1.));
#870=DIRECTION('',(1.,0.,0.));
#871=DIRECTION('',(0.,0.,-1.));
#872=DIRECTION('',(0.,0.,-1.));
#873=DIRECTION('',(1.,0.,0.));
#874=DIRECTION('',(-1.,0.,0.));
#875=DIRECTION('',(0.,0.,1.));
#876=DIRECTION('',(0.,1.,0.));
#877=DIRECTION('',(0.,0.,-1.));
#878=DIRECTION('',(0.,1.,0.));
#879=DIRECTION('',(0.,0.,-1.));
#880=DIRECTION('',(-1.,0.,0.));
#881=DIRECTION('',(0.,0.,1.));
#882=DIRECTION('',(1.,0.,0.));
#883=DIRECTION('',(0.,0.,-1.));
#884=DIRECTION('',(0.,0.,1.));
#885=DIRECTION('',(1.,0.,0.));
#886=DIRECTION('',(-0.699504912718635,-0.714627789189936,0.));
#887=DIRECTION('',(0.714627789189936,-0.699504912718635,0.));
#888=DIRECTION('',(-0.714627789189936,0.699504912718635,0.));
#889=DIRECTION('',(0.,0.,-1.));
#890=DIRECTION('',(-0.714627789189936,0.699504912718635,0.));
#891=DIRECTION('',(0.,0.,-1.));
#892=DIRECTION('',(-1.,0.,0.));
#893=DIRECTION('',(0.,0.,1.));
#894=DIRECTION('',(1.,0.,0.));
#895=DIRECTION('',(0.,0.,-1.));
#896=DIRECTION('',(0.,0.,1.));
#897=DIRECTION('',(1.,0.,0.));
#898=DIRECTION('',(-0.699504912718635,0.714627789189936,0.));
#899=DIRECTION('',(-0.714627789189936,-0.699504912718635,0.));
#900=DIRECTION('',(0.714627789189936,0.699504912718635,0.));
#901=DIRECTION('',(0.,0.,-1.));
#902=DIRECTION('',(0.714627789189936,0.699504912718635,0.));
#903=DIRECTION('',(0.,0.,-1.));
#904=DIRECTION('',(-1.,0.,0.));
#905=DIRECTION('',(0.,0.,1.));
#906=DIRECTION('',(1.,0.,0.));
#907=DIRECTION('',(0.,0.,-1.));
#908=DIRECTION('',(0.,0.,1.));
#909=DIRECTION('',(1.,0.,0.));
#910=DIRECTION('',(1.,0.,0.));
#911=DIRECTION('',(0.,0.,-1.));
#912=DIRECTION('',(0.,-1.,0.));
#913=DIRECTION('',(0.,0.,-1.));
#914=DIRECTION('',(0.,-1.,0.));
#915=DIRECTION('',(0.,0.,-1.));
#916=DIRECTION('',(0.,-1.,0.));
#917=DIRECTION('',(0.,0.,-1.));
#918=DIRECTION('',(-1.,0.,0.));
#919=DIRECTION('',(0.,0.,-1.));
#920=DIRECTION('',(-1.,0.,0.));
#921=DIRECTION('',(1.,0.,0.));
#922=DIRECTION('',(0.,0.,-1.));
#923=DIRECTION('',(0.,-1.,0.));
#924=DIRECTION('',(0.,0.,-1.));
#925=DIRECTION('',(0.,-1.,0.));
#926=DIRECTION('',(1.,0.,0.));
#927=DIRECTION('',(0.,0.,-1.));
#928=DIRECTION('',(0.,-1.,0.));
#929=DIRECTION('',(0.,0.,-1.));
#930=DIRECTION('',(0.,-1.,0.));
#931=DIRECTION('',(0.,0.,-1.));
#932=DIRECTION('',(0.,1.,0.));
#933=DIRECTION('',(0.,0.,1.));
#934=DIRECTION('',(1.,0.,0.));
#935=DIRECTION('',(0.,0.,-1.));
#936=DIRECTION('',(1.,0.,0.));
#937=DIRECTION('',(1.,0.,0.));
#938=DIRECTION('',(0.,0.,-1.));
#939=DIRECTION('',(0.,-1.,0.));
#940=DIRECTION('',(0.,0.,-1.));
#941=DIRECTION('',(0.,-1.,0.));
#942=DIRECTION('',(0.,1.,0.));
#943=DIRECTION('',(0.,0.,1.));
#944=DIRECTION('',(1.,0.,0.));
#945=DIRECTION('',(1.,0.,0.));
#946=DIRECTION('',(-1.,0.,0.));
#947=DIRECTION('',(0.,0.,1.));
#948=DIRECTION('',(0.,1.,0.));
#949=DIRECTION('',(0.,1.,0.));
#950=DIRECTION('',(0.,-1.,0.));
#951=DIRECTION('',(0.,0.,-1.));
#952=DIRECTION('',(-1.,0.,0.));
#953=DIRECTION('',(-1.,0.,0.));
#954=DIRECTION('',(0.,1.,0.));
#955=DIRECTION('',(0.,0.,1.));
#956=DIRECTION('',(1.,0.,0.));
#957=DIRECTION('',(1.,0.,0.));
#958=DIRECTION('',(0.,0.,1.));
#959=DIRECTION('',(1.,0.,0.));
#960=DIRECTION('',(0.,0.,1.));
#961=DIRECTION('',(1.,0.,0.));
#962=DIRECTION('',(0.,0.,1.));
#963=DIRECTION('',(1.,0.,0.));
#964=DIRECTION('',(0.,0.,1.));
#965=DIRECTION('',(1.,0.,0.));
#966=DIRECTION('',(0.,0.,1.));
#967=DIRECTION('',(1.,0.,0.));
#968=DIRECTION('',(0.,0.,1.));
#969=DIRECTION('',(1.,0.,0.));
#970=DIRECTION('',(0.,0.,-1.));
#971=DIRECTION('',(-1.,0.,0.));
#972=DIRECTION('',(0.,0.,1.));
#973=DIRECTION('',(1.,0.,0.));
#974=DIRECTION('',(0.,0.,1.));
#975=DIRECTION('',(1.,0.,0.));
#976=DIRECTION('',(0.,0.,-1.));
#977=DIRECTION('',(-1.,0.,0.));
#978=DIRECTION('',(0.,0.,1.));
#979=DIRECTION('',(1.,0.,0.));
#980=DIRECTION('',(0.,0.,1.));
#981=DIRECTION('',(1.,0.,0.));
#982=DIRECTION('',(0.,0.,-1.));
#983=DIRECTION('',(-1.,0.,0.));
#984=DIRECTION('',(0.,0.,1.));
#985=DIRECTION('',(1.,0.,0.));
#986=DIRECTION('',(0.,0.,1.));
#987=DIRECTION('',(1.,0.,0.));
#988=DIRECTION('',(0.,0.,-1.));
#989=DIRECTION('',(-1.,0.,0.));
#990=DIRECTION('',(0.,0.,1.));
#991=DIRECTION('',(1.,0.,0.));
#992=DIRECTION('',(0.,0.,1.));
#993=DIRECTION('',(1.,0.,0.));
#994=CARTESIAN_POINT('',(0.,0.,0.));
#995=CARTESIAN_POINT('',(-3.46944695195361E-18,6.88863824520385E-19,0.013));
#996=CARTESIAN_POINT('',(-3.46944695195361E-18,6.88863824520385E-19,0.003));
#997=CARTESIAN_POINT('',(0.01125,6.88863824520385E-19,0.003));
#998=CARTESIAN_POINT('',(-3.46944695195361E-18,6.88863824520385E-19,0.01));
#999=CARTESIAN_POINT('',(0.01125,6.88863824520385E-19,0.01));
#1000=CARTESIAN_POINT('',(0.020701,0.058166,0.013));
#1001=CARTESIAN_POINT('',(0.020701,0.058166,0.));
#1002=CARTESIAN_POINT('',(0.035941,0.058166,0.));
#1003=CARTESIAN_POINT('',(0.020701,0.073406,0.));
#1004=CARTESIAN_POINT('',(0.035941,0.058166,0.013));
#1005=CARTESIAN_POINT('',(0.035941,0.058166,0.013));
#1006=CARTESIAN_POINT('',(0.020701,0.058166,0.013));
#1007=CARTESIAN_POINT('',(0.020701,0.073406,0.013));
#1008=CARTESIAN_POINT('',(0.020701,0.073406,0.013));
#1009=CARTESIAN_POINT('',(0.035941,0.0514979327916656,0.013));
#1010=CARTESIAN_POINT('',(0.035941,0.0514979327916656,0.));
#1011=CARTESIAN_POINT('',(0.035941,0.0448298655833312,0.));
#1012=CARTESIAN_POINT('',(0.035941,0.0448298655833312,0.013));
#1013=CARTESIAN_POINT('',(0.035941,0.0448298655833312,0.013));
#1014=CARTESIAN_POINT('',(0.035941,0.0514979327916656,0.013));
#1015=CARTESIAN_POINT('',(0.020701,0.0448298655833312,0.013));
#1016=CARTESIAN_POINT('',(0.020701,0.0448298655833312,0.));
#1017=CARTESIAN_POINT('',(0.0273806687933526,0.0311317042172532,0.));
#1018=CARTESIAN_POINT('',(0.0273806687933526,0.0311317042172532,0.013));
#1019=CARTESIAN_POINT('',(0.0273806687933526,0.0311317042172532,0.013));
#1020=CARTESIAN_POINT('',(0.020701,0.0448298655833312,0.013));
#1021=CARTESIAN_POINT('',(0.0170301687933526,0.0260844639345677,0.013));
#1022=CARTESIAN_POINT('',(0.0170301687933526,0.0260844639345677,0.));
#1023=CARTESIAN_POINT('',(0.00667966879335252,0.0210372236518821,0.));
#1024=CARTESIAN_POINT('',(0.00667966879335252,0.0210372236518821,0.013));
#1025=CARTESIAN_POINT('',(0.00667966879335252,0.0210372236518821,0.013));
#1026=CARTESIAN_POINT('',(0.0170301687933526,0.0260844639345677,0.013));
#1027=CARTESIAN_POINT('',(-1.7347234759768E-18,0.0347353850179602,0.013));
#1028=CARTESIAN_POINT('',(-1.7347234759768E-18,0.0347353850179602,0.));
#1029=CARTESIAN_POINT('',(-0.00667966879335251,0.0210372236518821,0.));
#1030=CARTESIAN_POINT('',(-0.00667966879335251,0.0210372236518821,0.013));
#1031=CARTESIAN_POINT('',(-0.00667966879335251,0.0210372236518821,0.013));
#1032=CARTESIAN_POINT('',(-1.7347234759768E-18,0.0347353850179602,0.013));
#1033=CARTESIAN_POINT('',(-0.0170301687933525,0.0260844639345677,0.013));
#1034=CARTESIAN_POINT('',(-0.0170301687933525,0.0260844639345677,0.));
#1035=CARTESIAN_POINT('',(-0.0273806687933525,0.0311317042172532,0.));
#1036=CARTESIAN_POINT('',(-0.0273806687933525,0.0311317042172532,0.013));
#1037=CARTESIAN_POINT('',(-0.0273806687933525,0.0311317042172532,0.013));
#1038=CARTESIAN_POINT('',(-0.0170301687933525,0.0260844639345677,0.013));
#1039=CARTESIAN_POINT('',(-0.020701,0.0448298655833312,0.013));
#1040=CARTESIAN_POINT('',(-0.020701,0.0448298655833312,0.));
#1041=CARTESIAN_POINT('',(-0.035941,0.0448298655833312,0.));
#1042=CARTESIAN_POINT('',(-0.035941,0.0448298655833312,0.013));
#1043=CARTESIAN_POINT('',(-0.035941,0.0448298655833312,0.013));
#1044=CARTESIAN_POINT('',(-0.020701,0.0448298655833312,0.013));
#1045=CARTESIAN_POINT('',(-0.035941,0.0514979327916656,0.013));
#1046=CARTESIAN_POINT('',(-0.035941,0.0514979327916656,0.));
#1047=CARTESIAN_POINT('',(-0.035941,0.058166,0.));
#1048=CARTESIAN_POINT('',(-0.035941,0.058166,0.013));
#1049=CARTESIAN_POINT('',(-0.035941,0.058166,0.013));
#1050=CARTESIAN_POINT('',(-0.035941,0.0514979327916656,0.013));
#1051=CARTESIAN_POINT('',(-0.020701,0.058166,0.013));
#1052=CARTESIAN_POINT('',(-0.020701,0.058166,0.));
#1053=CARTESIAN_POINT('',(-0.020701,0.073406,0.));
#1054=CARTESIAN_POINT('',(-0.020701,0.073406,0.013));
#1055=CARTESIAN_POINT('',(-0.020701,0.073406,0.013));
#1056=CARTESIAN_POINT('',(-0.020701,0.058166,0.013));
#1057=CARTESIAN_POINT('',(0.042291,0.079756,0.013));
#1058=CARTESIAN_POINT('',(0.042291,0.079756,0.));
#1059=CARTESIAN_POINT('',(0.048641,0.079756,0.));
#1060=CARTESIAN_POINT('',(0.042291,0.086106,0.));
#1061=CARTESIAN_POINT('',(0.042291,0.086106,0.013));
#1062=CARTESIAN_POINT('',(0.042291,0.086106,0.013));
#1063=CARTESIAN_POINT('',(0.042291,0.079756,0.013));
#1064=CARTESIAN_POINT('',(0.048641,0.079756,0.013));
#1065=CARTESIAN_POINT('',(0.048641,0.079756,0.013));
#1066=CARTESIAN_POINT('',(0.,0.086106,0.013));
#1067=CARTESIAN_POINT('',(0.,0.086106,0.));
#1068=CARTESIAN_POINT('',(-0.042291,0.086106,0.));
#1069=CARTESIAN_POINT('',(-0.042291,0.086106,0.013));
#1070=CARTESIAN_POINT('',(-0.042291,0.086106,0.013));
#1071=CARTESIAN_POINT('',(0.,0.086106,0.013));
#1072=CARTESIAN_POINT('',(-0.042291,0.079756,0.013));
#1073=CARTESIAN_POINT('',(-0.042291,0.079756,0.));
#1074=CARTESIAN_POINT('',(-0.048641,0.079756,0.));
#1075=CARTESIAN_POINT('',(-0.048641,0.079756,0.013));
#1076=CARTESIAN_POINT('',(-0.048641,0.079756,0.013));
#1077=CARTESIAN_POINT('',(-0.042291,0.079756,0.013));
#1078=CARTESIAN_POINT('',(-0.048641,0.054623012259123,0.013));
#1079=CARTESIAN_POINT('',(-0.048641,0.054623012259123,0.));
#1080=CARTESIAN_POINT('',(-0.048641,0.0294900245182459,0.));
#1081=CARTESIAN_POINT('',(-0.048641,0.0294900245182459,0.013));
#1082=CARTESIAN_POINT('',(-0.048641,0.0294900245182459,0.013));
#1083=CARTESIAN_POINT('',(-0.048641,0.054623012259123,0.013));
#1084=CARTESIAN_POINT('',(-0.041021,0.0294900245182459,0.013));
#1085=CARTESIAN_POINT('',(-0.041021,0.0294900245182459,0.));
#1086=CARTESIAN_POINT('',(-0.046351227434916,0.0240445607646186,0.));
#1087=CARTESIAN_POINT('',(-0.046351227434916,0.0240445607646186,0.013));
#1088=CARTESIAN_POINT('',(-0.046351227434916,0.0240445607646186,0.013));
#1089=CARTESIAN_POINT('',(-0.041021,0.0294900245182459,0.013));
#1090=CARTESIAN_POINT('',(-0.028505841152374,0.00657681662868201,0.013));
#1091=CARTESIAN_POINT('',(-0.028505841152374,0.00657681662868201,0.));
#1092=CARTESIAN_POINT('',(-0.010660454869832,-0.0108909275072546,0.));
#1093=CARTESIAN_POINT('',(-0.010660454869832,-0.0108909275072546,0.013));
#1094=CARTESIAN_POINT('',(-0.010660454869832,-0.0108909275072546,0.013));
#1095=CARTESIAN_POINT('',(-0.028505841152374,0.00657681662868201,0.013));
#1096=CARTESIAN_POINT('',(-4.33680868994202E-18,-8.67361737988404E-19,0.013));
#1097=CARTESIAN_POINT('',(-4.33680868994202E-18,-8.67361737988404E-19,0.));
#1098=CARTESIAN_POINT('',(0.010660454869832,-0.0108909275072546,0.));
#1099=CARTESIAN_POINT('',(0.010660454869832,-0.0108909275072546,0.013));
#1100=CARTESIAN_POINT('',(0.010660454869832,-0.0108909275072546,0.013));
#1101=CARTESIAN_POINT('',(-4.33680868994202E-18,-8.67361737988404E-19,0.013));
#1102=CARTESIAN_POINT('',(0.0286966555327977,0.00676359301569465,0.013));
#1103=CARTESIAN_POINT('',(0.0286966555327977,0.00676359301569465,0.));
#1104=CARTESIAN_POINT('',(0.0467328561957633,0.0244181135386439,0.));
#1105=CARTESIAN_POINT('',(0.0467328561957633,0.0244181135386439,0.013));
#1106=CARTESIAN_POINT('',(0.0467328561957633,0.0244181135386439,0.013));
#1107=CARTESIAN_POINT('',(0.0286966555327977,0.00676359301569465,0.013));
#1108=CARTESIAN_POINT('',(0.042291,0.028956,0.013));
#1109=CARTESIAN_POINT('',(0.042291,0.028956,0.));
#1110=CARTESIAN_POINT('',(0.048641,0.028956,0.));
#1111=CARTESIAN_POINT('',(0.048641,0.028956,0.013));
#1112=CARTESIAN_POINT('',(0.048641,0.028956,0.013));
#1113=CARTESIAN_POINT('',(0.042291,0.028956,0.013));
#1114=CARTESIAN_POINT('',(0.0350374182583388,0.0760212784858175,0.013));
#1115=CARTESIAN_POINT('',(0.0350374182583388,0.0760212784858175,0.));
#1116=CARTESIAN_POINT('',(0.0350374182583388,0.0798312784858175,0.));
#1117=CARTESIAN_POINT('',(0.0350374182583388,0.0722112784858175,0.));
#1118=CARTESIAN_POINT('',(0.0350374182583388,0.0798312784858175,0.013));
#1119=CARTESIAN_POINT('',(0.0350374182583388,0.0798312784858175,0.013));
#1120=CARTESIAN_POINT('',(0.0350374182583388,0.0760212784858175,0.013));
#1121=CARTESIAN_POINT('',(0.0350374182583388,0.0722112784858175,0.013));
#1122=CARTESIAN_POINT('',(0.0350374182583388,0.0722112784858175,0.013));
#1123=CARTESIAN_POINT('',(0.0388474182583388,0.0798312784858175,0.013));
#1124=CARTESIAN_POINT('',(0.0388474182583388,0.0798312784858175,0.));
#1125=CARTESIAN_POINT('',(0.0426574182583388,0.0798312784858175,0.));
#1126=CARTESIAN_POINT('',(0.0426574182583388,0.0798312784858175,0.013));
#1127=CARTESIAN_POINT('',(0.0426574182583388,0.0798312784858175,0.013));
#1128=CARTESIAN_POINT('',(0.0388474182583388,0.0798312784858175,0.013));
#1129=CARTESIAN_POINT('',(0.0426574182583388,0.0760212784858175,0.013));
#1130=CARTESIAN_POINT('',(0.0426574182583388,0.0760212784858175,0.));
#1131=CARTESIAN_POINT('',(0.0426574182583388,0.0722112784858175,0.));
#1132=CARTESIAN_POINT('',(0.0426574182583388,0.0722112784858175,0.013));
#1133=CARTESIAN_POINT('',(0.0426574182583388,0.0722112784858175,0.013));
#1134=CARTESIAN_POINT('',(0.0426574182583388,0.0760212784858175,0.013));
#1135=CARTESIAN_POINT('',(-0.0426574182583388,0.0760212784858175,0.013));
#1136=CARTESIAN_POINT('',(-0.0426574182583388,0.0760212784858175,0.));
#1137=CARTESIAN_POINT('',(-0.0426574182583388,0.0798312784858175,0.));
#1138=CARTESIAN_POINT('',(-0.0426574182583388,0.0722112784858175,0.));
#1139=CARTESIAN_POINT('',(-0.0426574182583388,0.0798312784858175,0.013));
#1140=CARTESIAN_POINT('',(-0.0426574182583388,0.0798312784858175,0.013));
#1141=CARTESIAN_POINT('',(-0.0426574182583388,0.0760212784858175,0.013));
#1142=CARTESIAN_POINT('',(-0.0426574182583388,0.0722112784858175,0.013));
#1143=CARTESIAN_POINT('',(-0.0426574182583388,0.0722112784858175,0.013));
#1144=CARTESIAN_POINT('',(-0.0388474182583388,0.0798312784858175,0.013));
#1145=CARTESIAN_POINT('',(-0.0388474182583388,0.0798312784858175,0.));
#1146=CARTESIAN_POINT('',(-0.0350374182583388,0.0798312784858175,0.));
#1147=CARTESIAN_POINT('',(-0.0350374182583388,0.0798312784858175,0.013));
#1148=CARTESIAN_POINT('',(-0.0350374182583388,0.0798312784858175,0.013));
#1149=CARTESIAN_POINT('',(-0.0388474182583388,0.0798312784858175,0.013));
#1150=CARTESIAN_POINT('',(-0.0350374182583388,0.0760212784858175,0.013));
#1151=CARTESIAN_POINT('',(-0.0350374182583388,0.0760212784858175,0.));
#1152=CARTESIAN_POINT('',(-0.0350374182583388,0.0722112784858175,0.));
#1153=CARTESIAN_POINT('',(-0.0350374182583388,0.0722112784858175,0.013));
#1154=CARTESIAN_POINT('',(-0.0350374182583388,0.0722112784858175,0.013));
#1155=CARTESIAN_POINT('',(-0.0350374182583388,0.0760212784858175,0.013));
#1156=CARTESIAN_POINT('',(-3.46944695195361E-18,0.073406,0.013));
#1157=CARTESIAN_POINT('',(-3.46944695195361E-18,0.073406,0.));
#1158=CARTESIAN_POINT('',(-3.46944695195361E-18,0.073406,0.013));
#1159=CARTESIAN_POINT('',(0.048641,0.054356,0.013));
#1160=CARTESIAN_POINT('',(0.048641,0.054356,0.));
#1161=CARTESIAN_POINT('',(0.048641,0.054356,0.013));
#1162=CARTESIAN_POINT('',(0.0388474182583388,0.0722112784858175,0.013));
#1163=CARTESIAN_POINT('',(0.0388474182583388,0.0722112784858175,0.));
#1164=CARTESIAN_POINT('',(0.0388474182583388,0.0722112784858175,0.013));
#1165=CARTESIAN_POINT('',(-0.0388474182583388,0.0722112784858175,0.013));
#1166=CARTESIAN_POINT('',(-0.0388474182583388,0.0722112784858175,0.));
#1167=CARTESIAN_POINT('',(-0.0388474182583388,0.0722112784858175,0.013));
#1168=CARTESIAN_POINT('',(0.,0.0319892593462613,0.013));
#1169=CARTESIAN_POINT('',(-0.042291,0.028956,0.013));
#1170=CARTESIAN_POINT('',(-0.039751,0.028956,0.013));
#1171=CARTESIAN_POINT('',(0.042291,0.028956,0.013));
#1172=CARTESIAN_POINT('',(0.044831,0.028956,0.013));
#1173=CARTESIAN_POINT('',(-3.46944695195361E-18,6.58247654541702E-19,0.013));
#1174=CARTESIAN_POINT('',(0.01075,6.58247654541702E-19,0.013));
#1175=CARTESIAN_POINT('',(0.,0.0319892593462613,0.));
#1176=CARTESIAN_POINT('',(-3.46944695195361E-18,6.58247654541702E-19,0.));
#1177=CARTESIAN_POINT('',(0.01075,6.58247654541702E-19,0.));
#1178=CARTESIAN_POINT('',(-3.46944695195361E-18,6.58247654541702E-19,0.003));
#1179=CARTESIAN_POINT('',(-3.46944695195361E-18,6.58247654541702E-19,0.003));
#1180=CARTESIAN_POINT('',(0.01075,6.58247654541702E-19,0.003));
#1181=CARTESIAN_POINT('',(0.,0.0319892593462613,0.003));
#1182=CARTESIAN_POINT('',(-3.46944695195361E-18,6.58247654541702E-19,0.013));
#1183=CARTESIAN_POINT('',(-3.46944695195361E-18,6.58247654541702E-19,0.01));
#1184=CARTESIAN_POINT('',(0.01075,6.58247654541702E-19,0.01));
#1185=CARTESIAN_POINT('',(0.,0.0319892593462613,0.01));
#1186=CARTESIAN_POINT('',(0.042291,0.028956,0.029));
#1187=CARTESIAN_POINT('',(0.042291,0.028956,0.029));
#1188=CARTESIAN_POINT('',(0.044831,0.028956,0.029));
#1189=CARTESIAN_POINT('',(0.,0.0319892593462613,0.029));
#1190=CARTESIAN_POINT('',(-0.042291,0.028956,0.029));
#1191=CARTESIAN_POINT('',(-0.042291,0.028956,0.029));
#1192=CARTESIAN_POINT('',(-0.039751,0.028956,0.029));
#1193=CARTESIAN_POINT('',(0.,0.0319892593462613,0.029));
#1194=MECHANICAL_DESIGN_GEOMETRIC_PRESENTATION_REPRESENTATION('',(#709),
#1195);
#1195=(
GEOMETRIC_REPRESENTATION_CONTEXT(3)
GLOBAL_UNCERTAINTY_ASSIGNED_CONTEXT((#1196))
GLOBAL_UNIT_ASSIGNED_CONTEXT((#1199,#1198,#1197))
REPRESENTATION_CONTEXT('Part 1','TOP_LEVEL_ASSEMBLY_PART')
);
#1196=UNCERTAINTY_MEASURE_WITH_UNIT(LENGTH_MEASURE(1.E-8),#1199,
'DISTANCE_ACCURACY_VALUE','Maximum Tolerance applied to model');
#1197=(
NAMED_UNIT(*)
SI_UNIT($,.STERADIAN.)
SOLID_ANGLE_UNIT()
);
#1198=(
NAMED_UNIT(*)
PLANE_ANGLE_UNIT()
SI_UNIT($,.RADIAN.)
);
#1199=(
LENGTH_UNIT()
NAMED_UNIT(*)
SI_UNIT($,.METRE.)
);
#1200=PRODUCT_DEFINITION_SHAPE('','',#1201);
#1201=PRODUCT_DEFINITION('','',#1203,#1202);
#1202=PRODUCT_DEFINITION_CONTEXT('',#1209,'design');
#1203=PRODUCT_DEFINITION_FORMATION_WITH_SPECIFIED_SOURCE('','',#1205,
 .NOT_KNOWN.);
#1204=PRODUCT_RELATED_PRODUCT_CATEGORY('','',(#1205));
#1205=PRODUCT('Part 1','Part 1','Part 1',(#1207));
#1206=PRODUCT_CATEGORY('','');
#1207=PRODUCT_CONTEXT('',#1209,'mechanical');
#1208=APPLICATION_PROTOCOL_DEFINITION('international standard',
'ap242_managed_model_based_3d_engineering',2020,#1209);
#1209=APPLICATION_CONTEXT('managed model based 3d engineering');
ENDSEC;
END-ISO-10303-21;
