ISO-10303-21;
HEADER;
/* Generated by software containing ST-Developer
 * from STEP Tools, Inc. (www.steptools.com) 
 */
/* OPTION: using custom renumber hook */

FILE_DESCRIPTION(
/* description */ ('STEP AP242 Edition 2',
'CAx-IF Rec.Pracs.---Representation and Presentation of Product Manufa
cturing Information (PMI)---4.0---2014-10-13',
'CAx-IF Rec.Pracs.---3D Tessellated Geometry---0.4---2014-09-14','2;1',
'CAx-IF Rec.Pracs.---User Defined Attributes---1.5---2016-08-15'),
/* implementation_level */ '2;1');

FILE_NAME(
/* name */ '6a6fee0f9649816d243280ed',
/* time_stamp */ '2026-08-03T01:25:35Z',
/* author */ (''),
/* organization */ (''),
/* preprocessor_version */ 'ST-DEVELOPER v20',
/* originating_system */ 'ONSHAPE BY PTC INC, 1.218',
/* authorisation */ '  ');

FILE_SCHEMA (('AP242_MANAGED_MODEL_BASED_3D_ENGINEERING_MIM_LF { 1 0 10303 442 3 1 4 }'));
ENDSEC;

DATA;
#10=CONTEXT_DEPENDENT_SHAPE_REPRESENTATION(#14,#496);
#11=CONTEXT_DEPENDENT_SHAPE_REPRESENTATION(#15,#497);
#12=NEXT_ASSEMBLY_USAGE_OCCURRENCE('NAUO1','Part 1','Part 1',#498,#499,
'');
#13=NEXT_ASSEMBLY_USAGE_OCCURRENCE('NAUO2','Part 1','Part 1',#498,#499,
'');
#14=(
REPRESENTATION_RELATIONSHIP(' ',' ',#297,#296)
REPRESENTATION_RELATIONSHIP_WITH_TRANSFORMATION(#16)
SHAPE_REPRESENTATION_RELATIONSHIP()
);
#15=(
REPRESENTATION_RELATIONSHIP(' ',' ',#297,#296)
REPRESENTATION_RELATIONSHIP_WITH_TRANSFORMATION(#17)
SHAPE_REPRESENTATION_RELATIONSHIP()
);
#16=ITEM_DEFINED_TRANSFORMATION(' ',' ',#298,#324);
#17=ITEM_DEFINED_TRANSFORMATION(' ',' ',#298,#325);
#18=SHAPE_REPRESENTATION_RELATIONSHIP('','',#297,#19);
#19=ADVANCED_BREP_SHAPE_REPRESENTATION('',(#293),#488);
#20=CIRCLE('',#301,0.004699);
#21=CIRCLE('',#302,0.004699);
#22=CIRCLE('',#305,0.004699);
#23=CIRCLE('',#306,0.004699);
#24=CIRCLE('',#308,0.00375);
#25=CIRCLE('',#309,0.00375);
#26=CIRCLE('',#312,0.00254);
#27=CIRCLE('',#314,0.00254);
#28=CYLINDRICAL_SURFACE('',#300,0.004699);
#29=CYLINDRICAL_SURFACE('',#304,0.004699);
#30=CYLINDRICAL_SURFACE('',#307,0.00375);
#31=CYLINDRICAL_SURFACE('',#313,0.00254);
#32=ORIENTED_EDGE('',*,*,#100,.T.);
#33=ORIENTED_EDGE('',*,*,#101,.F.);
#34=ORIENTED_EDGE('',*,*,#102,.F.);
#35=ORIENTED_EDGE('',*,*,#103,.T.);
#36=ORIENTED_EDGE('',*,*,#104,.T.);
#37=ORIENTED_EDGE('',*,*,#105,.F.);
#38=ORIENTED_EDGE('',*,*,#106,.F.);
#39=ORIENTED_EDGE('',*,*,#101,.T.);
#40=ORIENTED_EDGE('',*,*,#107,.T.);
#41=ORIENTED_EDGE('',*,*,#108,.F.);
#42=ORIENTED_EDGE('',*,*,#109,.F.);
#43=ORIENTED_EDGE('',*,*,#105,.T.);
#44=ORIENTED_EDGE('',*,*,#110,.T.);
#45=ORIENTED_EDGE('',*,*,#103,.F.);
#46=ORIENTED_EDGE('',*,*,#111,.F.);
#47=ORIENTED_EDGE('',*,*,#108,.T.);
#48=ORIENTED_EDGE('',*,*,#112,.F.);
#49=ORIENTED_EDGE('',*,*,#113,.T.);
#50=ORIENTED_EDGE('',*,*,#102,.T.);
#51=ORIENTED_EDGE('',*,*,#106,.T.);
#52=ORIENTED_EDGE('',*,*,#109,.T.);
#53=ORIENTED_EDGE('',*,*,#111,.T.);
#54=ORIENTED_EDGE('',*,*,#113,.F.);
#55=ORIENTED_EDGE('',*,*,#114,.T.);
#56=ORIENTED_EDGE('',*,*,#100,.F.);
#57=ORIENTED_EDGE('',*,*,#110,.F.);
#58=ORIENTED_EDGE('',*,*,#107,.F.);
#59=ORIENTED_EDGE('',*,*,#104,.F.);
#60=ORIENTED_EDGE('',*,*,#115,.T.);
#61=ORIENTED_EDGE('',*,*,#114,.F.);
#62=ORIENTED_EDGE('',*,*,#115,.F.);
#63=ORIENTED_EDGE('',*,*,#116,.F.);
#64=ORIENTED_EDGE('',*,*,#117,.F.);
#65=ORIENTED_EDGE('',*,*,#118,.F.);
#66=ORIENTED_EDGE('',*,*,#119,.F.);
#67=ORIENTED_EDGE('',*,*,#120,.F.);
#68=ORIENTED_EDGE('',*,*,#121,.F.);
#69=ORIENTED_EDGE('',*,*,#112,.T.);
#70=ORIENTED_EDGE('',*,*,#116,.T.);
#71=ORIENTED_EDGE('',*,*,#122,.F.);
#72=ORIENTED_EDGE('',*,*,#123,.F.);
#73=ORIENTED_EDGE('',*,*,#124,.T.);
#74=ORIENTED_EDGE('',*,*,#121,.T.);
#75=ORIENTED_EDGE('',*,*,#125,.F.);
#76=ORIENTED_EDGE('',*,*,#126,.F.);
#77=ORIENTED_EDGE('',*,*,#122,.T.);
#78=ORIENTED_EDGE('',*,*,#120,.T.);
#79=ORIENTED_EDGE('',*,*,#127,.F.);
#80=ORIENTED_EDGE('',*,*,#128,.F.);
#81=ORIENTED_EDGE('',*,*,#125,.T.);
#82=ORIENTED_EDGE('',*,*,#119,.T.);
#83=ORIENTED_EDGE('',*,*,#129,.F.);
#84=ORIENTED_EDGE('',*,*,#130,.F.);
#85=ORIENTED_EDGE('',*,*,#127,.T.);
#86=ORIENTED_EDGE('',*,*,#118,.T.);
#87=ORIENTED_EDGE('',*,*,#131,.F.);
#88=ORIENTED_EDGE('',*,*,#132,.F.);
#89=ORIENTED_EDGE('',*,*,#129,.T.);
#90=ORIENTED_EDGE('',*,*,#117,.T.);
#91=ORIENTED_EDGE('',*,*,#124,.F.);
#92=ORIENTED_EDGE('',*,*,#133,.F.);
#93=ORIENTED_EDGE('',*,*,#131,.T.);
#94=ORIENTED_EDGE('',*,*,#123,.T.);
#95=ORIENTED_EDGE('',*,*,#126,.T.);
#96=ORIENTED_EDGE('',*,*,#128,.T.);
#97=ORIENTED_EDGE('',*,*,#130,.T.);
#98=ORIENTED_EDGE('',*,*,#132,.T.);
#99=ORIENTED_EDGE('',*,*,#133,.T.);
#100=EDGE_CURVE('',#134,#135,#158,.T.);
#101=EDGE_CURVE('',#136,#135,#159,.T.);
#102=EDGE_CURVE('',#137,#136,#160,.T.);
#103=EDGE_CURVE('',#137,#134,#161,.T.);
#104=EDGE_CURVE('',#135,#138,#20,.T.);
#105=EDGE_CURVE('',#139,#138,#162,.T.);
#106=EDGE_CURVE('',#136,#139,#21,.T.);
#107=EDGE_CURVE('',#138,#140,#163,.T.);
#108=EDGE_CURVE('',#141,#140,#164,.T.);
#109=EDGE_CURVE('',#139,#141,#165,.T.);
#110=EDGE_CURVE('',#140,#134,#22,.T.);
#111=EDGE_CURVE('',#141,#137,#23,.T.);
#112=EDGE_CURVE('',#142,#142,#24,.T.);
#113=EDGE_CURVE('',#143,#143,#25,.T.);
#114=EDGE_CURVE('',#144,#144,#26,.T.);
#115=EDGE_CURVE('',#145,#145,#27,.T.);
#116=EDGE_CURVE('',#146,#147,#166,.T.);
#117=EDGE_CURVE('',#148,#146,#167,.T.);
#118=EDGE_CURVE('',#149,#148,#168,.T.);
#119=EDGE_CURVE('',#150,#149,#169,.T.);
#120=EDGE_CURVE('',#151,#150,#170,.T.);
#121=EDGE_CURVE('',#147,#151,#171,.T.);
#122=EDGE_CURVE('',#152,#147,#172,.T.);
#123=EDGE_CURVE('',#153,#152,#173,.T.);
#124=EDGE_CURVE('',#153,#146,#174,.T.);
#125=EDGE_CURVE('',#154,#151,#175,.T.);
#126=EDGE_CURVE('',#152,#154,#176,.T.);
#127=EDGE_CURVE('',#155,#150,#177,.T.);
#128=EDGE_CURVE('',#154,#155,#178,.T.);
#129=EDGE_CURVE('',#156,#149,#179,.T.);
#130=EDGE_CURVE('',#155,#156,#180,.T.);
#131=EDGE_CURVE('',#157,#148,#181,.T.);
#132=EDGE_CURVE('',#156,#157,#182,.T.);
#133=EDGE_CURVE('',#157,#153,#183,.T.);
#134=VERTEX_POINT('',#411);
#135=VERTEX_POINT('',#412);
#136=VERTEX_POINT('',#414);
#137=VERTEX_POINT('',#416);
#138=VERTEX_POINT('',#420);
#139=VERTEX_POINT('',#422);
#140=VERTEX_POINT('',#426);
#141=VERTEX_POINT('',#428);
#142=VERTEX_POINT('',#435);
#143=VERTEX_POINT('',#437);
#144=VERTEX_POINT('',#441);
#145=VERTEX_POINT('',#444);
#146=VERTEX_POINT('',#448);
#147=VERTEX_POINT('',#449);
#148=VERTEX_POINT('',#451);
#149=VERTEX_POINT('',#453);
#150=VERTEX_POINT('',#455);
#151=VERTEX_POINT('',#457);
#152=VERTEX_POINT('',#461);
#153=VERTEX_POINT('',#463);
#154=VERTEX_POINT('',#467);
#155=VERTEX_POINT('',#471);
#156=VERTEX_POINT('',#475);
#157=VERTEX_POINT('',#479);
#158=LINE('',#410,#184);
#159=LINE('',#413,#185);
#160=LINE('',#415,#186);
#161=LINE('',#417,#187);
#162=LINE('',#421,#188);
#163=LINE('',#425,#189);
#164=LINE('',#427,#190);
#165=LINE('',#429,#191);
#166=LINE('',#447,#192);
#167=LINE('',#450,#193);
#168=LINE('',#452,#194);
#169=LINE('',#454,#195);
#170=LINE('',#456,#196);
#171=LINE('',#458,#197);
#172=LINE('',#460,#198);
#173=LINE('',#462,#199);
#174=LINE('',#464,#200);
#175=LINE('',#466,#201);
#176=LINE('',#468,#202);
#177=LINE('',#470,#203);
#178=LINE('',#472,#204);
#179=LINE('',#474,#205);
#180=LINE('',#476,#206);
#181=LINE('',#478,#207);
#182=LINE('',#480,#208);
#183=LINE('',#482,#209);
#184=VECTOR('',#330,1.);
#185=VECTOR('',#331,1.);
#186=VECTOR('',#332,1.);
#187=VECTOR('',#333,1.);
#188=VECTOR('',#338,1.);
#189=VECTOR('',#343,1.);
#190=VECTOR('',#344,1.);
#191=VECTOR('',#345,1.);
#192=VECTOR('',#372,1.);
#193=VECTOR('',#373,1.);
#194=VECTOR('',#374,1.);
#195=VECTOR('',#375,1.);
#196=VECTOR('',#376,1.);
#197=VECTOR('',#377,1.);
#198=VECTOR('',#380,1.);
#199=VECTOR('',#381,1.);
#200=VECTOR('',#382,1.);
#201=VECTOR('',#385,1.);
#202=VECTOR('',#386,1.);
#203=VECTOR('',#389,1.);
#204=VECTOR('',#390,1.);
#205=VECTOR('',#393,1.);
#206=VECTOR('',#394,1.);
#207=VECTOR('',#397,1.);
#208=VECTOR('',#398,1.);
#209=VECTOR('',#401,1.);
#210=EDGE_LOOP('',(#32,#33,#34,#35));
#211=EDGE_LOOP('',(#36,#37,#38,#39));
#212=EDGE_LOOP('',(#40,#41,#42,#43));
#213=EDGE_LOOP('',(#44,#45,#46,#47));
#214=EDGE_LOOP('',(#48));
#215=EDGE_LOOP('',(#49));
#216=EDGE_LOOP('',(#50,#51,#52,#53));
#217=EDGE_LOOP('',(#54));
#218=EDGE_LOOP('',(#55));
#219=EDGE_LOOP('',(#56,#57,#58,#59));
#220=EDGE_LOOP('',(#60));
#221=EDGE_LOOP('',(#61));
#222=EDGE_LOOP('',(#62));
#223=EDGE_LOOP('',(#63,#64,#65,#66,#67,#68));
#224=EDGE_LOOP('',(#69));
#225=EDGE_LOOP('',(#70,#71,#72,#73));
#226=EDGE_LOOP('',(#74,#75,#76,#77));
#227=EDGE_LOOP('',(#78,#79,#80,#81));
#228=EDGE_LOOP('',(#82,#83,#84,#85));
#229=EDGE_LOOP('',(#86,#87,#88,#89));
#230=EDGE_LOOP('',(#90,#91,#92,#93));
#231=EDGE_LOOP('',(#94,#95,#96,#97,#98,#99));
#232=FACE_BOUND('',#210,.T.);
#233=FACE_BOUND('',#211,.T.);
#234=FACE_BOUND('',#212,.T.);
#235=FACE_BOUND('',#213,.T.);
#236=FACE_BOUND('',#214,.T.);
#237=FACE_BOUND('',#215,.T.);
#238=FACE_BOUND('',#216,.T.);
#239=FACE_BOUND('',#217,.T.);
#240=FACE_BOUND('',#218,.T.);
#241=FACE_BOUND('',#219,.T.);
#242=FACE_BOUND('',#220,.T.);
#243=FACE_BOUND('',#221,.T.);
#244=FACE_BOUND('',#222,.T.);
#245=FACE_BOUND('',#223,.T.);
#246=FACE_BOUND('',#224,.T.);
#247=FACE_BOUND('',#225,.T.);
#248=FACE_BOUND('',#226,.T.);
#249=FACE_BOUND('',#227,.T.);
#250=FACE_BOUND('',#228,.T.);
#251=FACE_BOUND('',#229,.T.);
#252=FACE_BOUND('',#230,.T.);
#253=FACE_BOUND('',#231,.T.);
#254=PLANE('',#299);
#255=PLANE('',#303);
#256=PLANE('',#310);
#257=PLANE('',#311);
#258=PLANE('',#315);
#259=PLANE('',#316);
#260=PLANE('',#317);
#261=PLANE('',#318);
#262=PLANE('',#319);
#263=PLANE('',#320);
#264=PLANE('',#321);
#265=PLANE('',#322);
#266=PLANE('',#323);
#267=ADVANCED_FACE('',(#232),#254,.F.);
#268=ADVANCED_FACE('',(#233),#28,.T.);
#269=ADVANCED_FACE('',(#234),#255,.F.);
#270=ADVANCED_FACE('',(#235),#29,.T.);
#271=ADVANCED_FACE('',(#236,#237),#30,.F.);
#272=ADVANCED_FACE('',(#238,#239),#256,.T.);
#273=ADVANCED_FACE('',(#240,#241),#257,.F.);
#274=ADVANCED_FACE('',(#242,#243),#31,.T.);
#275=ADVANCED_FACE('',(#244),#258,.F.);
#276=ADVANCED_FACE('',(#245,#246),#259,.T.);
#277=ADVANCED_FACE('',(#247),#260,.F.);
#278=ADVANCED_FACE('',(#248),#261,.F.);
#279=ADVANCED_FACE('',(#249),#262,.F.);
#280=ADVANCED_FACE('',(#250),#263,.F.);
#281=ADVANCED_FACE('',(#251),#264,.F.);
#282=ADVANCED_FACE('',(#252),#265,.F.);
#283=ADVANCED_FACE('',(#253),#266,.T.);
#284=CLOSED_SHELL('',(#267,#268,#269,#270,#271,#272,#273,#274,#275,#276,
#277,#278,#279,#280,#281,#282,#283));
#285=STYLED_ITEM('',(#286),#293);
#286=PRESENTATION_STYLE_ASSIGNMENT((#287));
#287=SURFACE_STYLE_USAGE(.BOTH.,#288);
#288=SURFACE_SIDE_STYLE('',(#289));
#289=SURFACE_STYLE_FILL_AREA(#290);
#290=FILL_AREA_STYLE('',(#291));
#291=FILL_AREA_STYLE_COLOUR('',#292);
#292=COLOUR_RGB('',0.917647058823529,0.917647058823529,0.917647058823529);
#293=MANIFOLD_SOLID_BREP('Part 1',#284);
#294=SHAPE_DEFINITION_REPRESENTATION(#494,#296);
#295=SHAPE_DEFINITION_REPRESENTATION(#495,#297);
#296=SHAPE_REPRESENTATION('Offset Shaft',(#298,#324,#325),#487);
#297=SHAPE_REPRESENTATION('Part 1',(#298),#488);
#298=AXIS2_PLACEMENT_3D('',#408,#326,#327);
#299=AXIS2_PLACEMENT_3D('',#409,#328,#329);
#300=AXIS2_PLACEMENT_3D('',#418,#334,#335);
#301=AXIS2_PLACEMENT_3D('',#419,#336,#337);
#302=AXIS2_PLACEMENT_3D('',#423,#339,#340);
#303=AXIS2_PLACEMENT_3D('',#424,#341,#342);
#304=AXIS2_PLACEMENT_3D('',#430,#346,#347);
#305=AXIS2_PLACEMENT_3D('',#431,#348,#349);
#306=AXIS2_PLACEMENT_3D('',#432,#350,#351);
#307=AXIS2_PLACEMENT_3D('',#433,#352,#353);
#308=AXIS2_PLACEMENT_3D('',#434,#354,#355);
#309=AXIS2_PLACEMENT_3D('',#436,#356,#357);
#310=AXIS2_PLACEMENT_3D('',#438,#358,#359);
#311=AXIS2_PLACEMENT_3D('',#439,#360,#361);
#312=AXIS2_PLACEMENT_3D('',#440,#362,#363);
#313=AXIS2_PLACEMENT_3D('',#442,#364,#365);
#314=AXIS2_PLACEMENT_3D('',#443,#366,#367);
#315=AXIS2_PLACEMENT_3D('',#445,#368,#369);
#316=AXIS2_PLACEMENT_3D('',#446,#370,#371);
#317=AXIS2_PLACEMENT_3D('',#459,#378,#379);
#318=AXIS2_PLACEMENT_3D('',#465,#383,#384);
#319=AXIS2_PLACEMENT_3D('',#469,#387,#388);
#320=AXIS2_PLACEMENT_3D('',#473,#391,#392);
#321=AXIS2_PLACEMENT_3D('',#477,#395,#396);
#322=AXIS2_PLACEMENT_3D('',#481,#399,#400);
#323=AXIS2_PLACEMENT_3D('',#483,#402,#403);
#324=AXIS2_PLACEMENT_3D('',#484,#404,#405);
#325=AXIS2_PLACEMENT_3D('',#485,#406,#407);
#326=DIRECTION('',(0.,0.,1.));
#327=DIRECTION('',(1.,0.,0.));
#328=DIRECTION('',(1.,1.55218636003651E-16,0.));
#329=DIRECTION('',(-1.55218636003651E-16,1.,0.));
#330=DIRECTION('',(1.55218636003651E-16,-1.,0.));
#331=DIRECTION('',(0.,0.,-1.));
#332=DIRECTION('',(1.55218636003651E-16,-1.,0.));
#333=DIRECTION('',(0.,0.,-1.));
#334=DIRECTION('',(0.,0.,-1.));
#335=DIRECTION('',(-1.,0.,0.));
#336=DIRECTION('',(0.,0.,1.));
#337=DIRECTION('',(1.,0.,0.));
#338=DIRECTION('',(0.,0.,-1.));
#339=DIRECTION('',(0.,0.,1.));
#340=DIRECTION('',(1.,0.,0.));
#341=DIRECTION('',(-1.,0.,0.));
#342=DIRECTION('',(0.,0.,1.));
#343=DIRECTION('',(0.,1.,0.));
#344=DIRECTION('',(0.,0.,-1.));
#345=DIRECTION('',(0.,1.,0.));
#346=DIRECTION('',(0.,0.,-1.));
#347=DIRECTION('',(-1.,0.,0.));
#348=DIRECTION('',(0.,0.,1.));
#349=DIRECTION('',(1.,0.,0.));
#350=DIRECTION('',(0.,0.,1.));
#351=DIRECTION('',(1.,0.,0.));
#352=DIRECTION('',(0.,0.,-1.));
#353=DIRECTION('',(-1.,0.,0.));
#354=DIRECTION('',(0.,0.,1.));
#355=DIRECTION('',(1.,0.,0.));
#356=DIRECTION('',(0.,0.,1.));
#357=DIRECTION('',(1.,0.,0.));
#358=DIRECTION('',(0.,0.,1.));
#359=DIRECTION('',(1.,0.,0.));
#360=DIRECTION('',(0.,0.,1.));
#361=DIRECTION('',(1.,0.,0.));
#362=DIRECTION('',(0.,0.,1.));
#363=DIRECTION('',(1.,0.,0.));
#364=DIRECTION('',(0.,0.,1.));
#365=DIRECTION('',(1.,0.,0.));
#366=DIRECTION('',(0.,0.,1.));
#367=DIRECTION('',(1.,0.,0.));
#368=DIRECTION('',(0.,0.,1.));
#369=DIRECTION('',(1.,0.,0.));
#370=DIRECTION('',(0.,0.,1.));
#371=DIRECTION('',(1.,0.,0.));
#372=DIRECTION('',(-0.5,0.866025403784439,0.));
#373=DIRECTION('',(0.5,0.866025403784439,0.));
#374=DIRECTION('',(1.,0.,0.));
#375=DIRECTION('',(0.5,-0.866025403784439,0.));
#376=DIRECTION('',(-0.5,-0.866025403784439,0.));
#377=DIRECTION('',(-1.,-3.00462919747432E-16,0.));
#378=DIRECTION('',(0.866025403784438,0.5,0.));
#379=DIRECTION('',(-0.5,0.866025403784439,0.));
#380=DIRECTION('',(0.,0.,1.));
#381=DIRECTION('',(-0.5,0.866025403784439,0.));
#382=DIRECTION('',(0.,0.,1.));
#383=DIRECTION('',(-3.00462919747432E-16,1.,0.));
#384=DIRECTION('',(-1.,-3.00462919747432E-16,0.));
#385=DIRECTION('',(0.,0.,1.));
#386=DIRECTION('',(-1.,-3.00462919747432E-16,0.));
#387=DIRECTION('',(-0.866025403784439,0.5,0.));
#388=DIRECTION('',(-0.5,-0.866025403784439,0.));
#389=DIRECTION('',(0.,0.,1.));
#390=DIRECTION('',(-0.5,-0.866025403784439,0.));
#391=DIRECTION('',(-0.866025403784438,-0.5,0.));
#392=DIRECTION('',(0.5,-0.866025403784439,0.));
#393=DIRECTION('',(0.,0.,1.));
#394=DIRECTION('',(0.5,-0.866025403784439,0.));
#395=DIRECTION('',(0.,-1.,0.));
#396=DIRECTION('',(0.,0.,-1.));
#397=DIRECTION('',(0.,0.,1.));
#398=DIRECTION('',(1.,0.,0.));
#399=DIRECTION('',(0.866025403784438,-0.5,0.));
#400=DIRECTION('',(0.5,0.866025403784439,0.));
#401=DIRECTION('',(0.5,0.866025403784439,0.));
#402=DIRECTION('',(0.,0.,1.));
#403=DIRECTION('',(1.,0.,0.));
#404=DIRECTION('',(0.,0.,1.));
#405=DIRECTION('',(1.,0.,0.));
#406=DIRECTION('',(0.,0.,-1.));
#407=DIRECTION('',(-1.,0.,0.));
#408=CARTESIAN_POINT('',(0.,0.,0.));
#409=CARTESIAN_POINT('',(-0.004699,0.011176,0.004));
#410=CARTESIAN_POINT('',(-0.004699,0.011176,0.));
#411=CARTESIAN_POINT('',(-0.004699,0.022352,0.));
#412=CARTESIAN_POINT('',(-0.004699,0.,0.));
#413=CARTESIAN_POINT('',(-0.004699,0.,0.004));
#414=CARTESIAN_POINT('',(-0.004699,0.,0.004));
#415=CARTESIAN_POINT('',(-0.004699,0.011176,0.004));
#416=CARTESIAN_POINT('',(-0.004699,0.022352,0.004));
#417=CARTESIAN_POINT('',(-0.004699,0.022352,0.004));
#418=CARTESIAN_POINT('',(0.,2.87730765459671E-19,0.004));
#419=CARTESIAN_POINT('',(0.,2.87730765459671E-19,0.));
#420=CARTESIAN_POINT('',(0.004699,0.,0.));
#421=CARTESIAN_POINT('',(0.004699,0.,0.004));
#422=CARTESIAN_POINT('',(0.004699,0.,0.004));
#423=CARTESIAN_POINT('',(0.,2.87730765459671E-19,0.004));
#424=CARTESIAN_POINT('',(0.004699,0.011176,0.004));
#425=CARTESIAN_POINT('',(0.004699,0.011176,0.));
#426=CARTESIAN_POINT('',(0.004699,0.022352,0.));
#427=CARTESIAN_POINT('',(0.004699,0.022352,0.004));
#428=CARTESIAN_POINT('',(0.004699,0.022352,0.004));
#429=CARTESIAN_POINT('',(0.004699,0.011176,0.004));
#430=CARTESIAN_POINT('',(0.,0.022352,0.004));
#431=CARTESIAN_POINT('',(0.,0.022352,0.));
#432=CARTESIAN_POINT('',(0.,0.022352,0.004));
#433=CARTESIAN_POINT('',(0.,2.29621274840129E-19,0.004));
#434=CARTESIAN_POINT('',(0.,2.29621274840129E-19,0.0025));
#435=CARTESIAN_POINT('',(0.00375,2.29621274840129E-19,0.0025));
#436=CARTESIAN_POINT('',(0.,2.29621274840129E-19,0.004));
#437=CARTESIAN_POINT('',(0.00375,2.29621274840129E-19,0.004));
#438=CARTESIAN_POINT('',(-1.7347234759768E-18,0.011176,0.004));
#439=CARTESIAN_POINT('',(-1.7347234759768E-18,0.011176,0.));
#440=CARTESIAN_POINT('',(0.,0.022352,0.));
#441=CARTESIAN_POINT('',(0.00254,0.022352,0.));
#442=CARTESIAN_POINT('',(0.,0.022352,-0.004));
#443=CARTESIAN_POINT('',(0.,0.022352,-0.004));
#444=CARTESIAN_POINT('',(0.00254,0.022352,-0.004));
#445=CARTESIAN_POINT('',(-1.7347234759768E-18,0.011176,-0.004));
#446=CARTESIAN_POINT('',(-1.7347234759768E-18,0.011176,0.0025));
#447=CARTESIAN_POINT('',(0.0021650635094611,0.00125,0.0025));
#448=CARTESIAN_POINT('',(0.00288675134594814,-3.46944695195361E-18,0.0025));
#449=CARTESIAN_POINT('',(0.00144337567297406,0.0025,0.0025));
#450=CARTESIAN_POINT('',(0.0021650635094611,-0.00125,0.0025));
#451=CARTESIAN_POINT('',(0.00144337567297407,-0.0025,0.0025));
#452=CARTESIAN_POINT('',(-8.67361737988404E-19,-0.0025,0.0025));
#453=CARTESIAN_POINT('',(-0.00144337567297407,-0.0025,0.0025));
#454=CARTESIAN_POINT('',(-0.0021650635094611,-0.00125,0.0025));
#455=CARTESIAN_POINT('',(-0.00288675134594813,0.,0.0025));
#456=CARTESIAN_POINT('',(-0.00216506350946109,0.00125,0.0025));
#457=CARTESIAN_POINT('',(-0.00144337567297406,0.0025,0.0025));
#458=CARTESIAN_POINT('',(2.16840434497101E-19,0.0025,0.0025));
#459=CARTESIAN_POINT('',(0.0021650635094611,0.00125,0.001));
#460=CARTESIAN_POINT('',(0.00144337567297406,0.0025,0.001));
#461=CARTESIAN_POINT('',(0.00144337567297406,0.0025,0.001));
#462=CARTESIAN_POINT('',(0.0021650635094611,0.00125,0.001));
#463=CARTESIAN_POINT('',(0.00288675134594814,-3.46944695195361E-18,0.001));
#464=CARTESIAN_POINT('',(0.00288675134594814,-3.46944695195361E-18,0.001));
#465=CARTESIAN_POINT('',(2.16840434497101E-19,0.0025,0.001));
#466=CARTESIAN_POINT('',(-0.00144337567297406,0.0025,0.001));
#467=CARTESIAN_POINT('',(-0.00144337567297406,0.0025,0.001));
#468=CARTESIAN_POINT('',(2.16840434497101E-19,0.0025,0.001));
#469=CARTESIAN_POINT('',(-0.00216506350946109,0.00125,0.001));
#470=CARTESIAN_POINT('',(-0.00288675134594813,0.,0.001));
#471=CARTESIAN_POINT('',(-0.00288675134594813,0.,0.001));
#472=CARTESIAN_POINT('',(-0.00216506350946109,0.00125,0.001));
#473=CARTESIAN_POINT('',(-0.0021650635094611,-0.00125,0.001));
#474=CARTESIAN_POINT('',(-0.00144337567297407,-0.0025,0.001));
#475=CARTESIAN_POINT('',(-0.00144337567297407,-0.0025,0.001));
#476=CARTESIAN_POINT('',(-0.0021650635094611,-0.00125,0.001));
#477=CARTESIAN_POINT('',(-8.67361737988404E-19,-0.0025,0.001));
#478=CARTESIAN_POINT('',(0.00144337567297407,-0.0025,0.001));
#479=CARTESIAN_POINT('',(0.00144337567297407,-0.0025,0.001));
#480=CARTESIAN_POINT('',(-8.67361737988404E-19,-0.0025,0.001));
#481=CARTESIAN_POINT('',(0.0021650635094611,-0.00125,0.001));
#482=CARTESIAN_POINT('',(0.0021650635094611,-0.00125,0.001));
#483=CARTESIAN_POINT('',(0.,0.,0.001));
#484=CARTESIAN_POINT('',(0.0101941796019673,-0.00150288699662685,0.00568125071004033));
#485=CARTESIAN_POINT('',(0.0101941796019673,-0.00150288699662686,-0.00231874928995967));
#486=MECHANICAL_DESIGN_GEOMETRIC_PRESENTATION_REPRESENTATION('',(#285),
#487);
#487=(
GEOMETRIC_REPRESENTATION_CONTEXT(3)
GLOBAL_UNCERTAINTY_ASSIGNED_CONTEXT((#489))
GLOBAL_UNIT_ASSIGNED_CONTEXT((#493,#492,#491))
REPRESENTATION_CONTEXT('Offset Shaft','TOP_LEVEL_ASSEMBLY_PART')
);
#488=(
GEOMETRIC_REPRESENTATION_CONTEXT(3)
GLOBAL_UNCERTAINTY_ASSIGNED_CONTEXT((#490))
GLOBAL_UNIT_ASSIGNED_CONTEXT((#493,#492,#491))
REPRESENTATION_CONTEXT('Part 1','COMPONENT_PART')
);
#489=UNCERTAINTY_MEASURE_WITH_UNIT(LENGTH_MEASURE(1.E-8),#493,
'DISTANCE_ACCURACY_VALUE','Maximum Tolerance applied to model');
#490=UNCERTAINTY_MEASURE_WITH_UNIT(LENGTH_MEASURE(1.E-8),#493,
'DISTANCE_ACCURACY_VALUE','Maximum Tolerance applied to model');
#491=(
NAMED_UNIT(*)
SI_UNIT($,.STERADIAN.)
SOLID_ANGLE_UNIT()
);
#492=(
NAMED_UNIT(*)
PLANE_ANGLE_UNIT()
SI_UNIT($,.RADIAN.)
);
#493=(
LENGTH_UNIT()
NAMED_UNIT(*)
SI_UNIT($,.METRE.)
);
#494=PRODUCT_DEFINITION_SHAPE('','',#498);
#495=PRODUCT_DEFINITION_SHAPE('','',#499);
#496=PRODUCT_DEFINITION_SHAPE(' ','NAUO PRDDFN',#12);
#497=PRODUCT_DEFINITION_SHAPE(' ','NAUO PRDDFN',#13);
#498=PRODUCT_DEFINITION('','',#502,#500);
#499=PRODUCT_DEFINITION('','',#503,#501);
#500=PRODUCT_DEFINITION_CONTEXT('',#513,'design');
#501=PRODUCT_DEFINITION_CONTEXT('',#513,'design');
#502=PRODUCT_DEFINITION_FORMATION_WITH_SPECIFIED_SOURCE('','',#506,
 .NOT_KNOWN.);
#503=PRODUCT_DEFINITION_FORMATION_WITH_SPECIFIED_SOURCE('','',#507,
 .NOT_KNOWN.);
#504=PRODUCT_RELATED_PRODUCT_CATEGORY('','',(#506));
#505=PRODUCT_RELATED_PRODUCT_CATEGORY('','',(#507));
#506=PRODUCT('Offset Shaft','Offset Shaft','Offset Shaft',(#510));
#507=PRODUCT('Part 1','Part 1','Part 1',(#511));
#508=PRODUCT_CATEGORY('','');
#509=PRODUCT_CATEGORY('','');
#510=PRODUCT_CONTEXT('',#513,'mechanical');
#511=PRODUCT_CONTEXT('',#513,'mechanical');
#512=APPLICATION_PROTOCOL_DEFINITION('international standard',
'ap242_managed_model_based_3d_engineering',2020,#513);
#513=APPLICATION_CONTEXT('managed model based 3d engineering');
ENDSEC;
END-ISO-10303-21;
