ISO-10303-21;
HEADER;
/* Generated by software containing ST-Developer
 * from STEP Tools, Inc. (www.steptools.com) 
 */
/* OPTION: using custom renumber hook */

FILE_DESCRIPTION(
/* description */ ('STEP AP242 Edition 2',
'CAx-IF Rec.Pracs.---Representation and Presentation of Product Manufa
cturing Information (PMI)---4.0---2014-10-13',
'CAx-IF Rec.Pracs.---3D Tessellated Geometry---0.4---2014-09-14','2;1',
'CAx-IF Rec.Pracs.---User Defined Attributes---1.5---2016-08-15'),
/* implementation_level */ '2;1');

FILE_NAME(
/* name */ 'Power Beam',
/* time_stamp */ '2026-08-03T01:24:19Z',
/* author */ (''),
/* organization */ (''),
/* preprocessor_version */ 'ST-DEVELOPER v20',
/* originating_system */ 'ONSHAPE BY PTC INC, 1.218',
/* authorisation */ '  ');

FILE_SCHEMA (('AP242_MANAGED_MODEL_BASED_3D_ENGINEERING_MIM_LF { 1 0 10303 442 3 1 4 }'));
ENDSEC;

DATA;
#10=SHAPE_REPRESENTATION_RELATIONSHIP('','',#311,#11);
#11=ADVANCED_BREP_SHAPE_REPRESENTATION('',(#309),#491);
#12=CYLINDRICAL_SURFACE('',#315,0.004);
#13=LINE('',#412,#49);
#14=LINE('',#415,#50);
#15=LINE('',#417,#51);
#16=LINE('',#419,#52);
#17=LINE('',#421,#53);
#18=LINE('',#423,#54);
#19=LINE('',#428,#55);
#20=LINE('',#431,#56);
#21=LINE('',#433,#57);
#22=LINE('',#435,#58);
#23=LINE('',#437,#59);
#24=LINE('',#439,#60);
#25=LINE('',#441,#61);
#26=LINE('',#443,#62);
#27=LINE('',#445,#63);
#28=LINE('',#447,#64);
#29=LINE('',#449,#65);
#30=LINE('',#451,#66);
#31=LINE('',#453,#67);
#32=LINE('',#455,#68);
#33=LINE('',#457,#69);
#34=LINE('',#459,#70);
#35=LINE('',#461,#71);
#36=LINE('',#463,#72);
#37=LINE('',#466,#73);
#38=LINE('',#468,#74);
#39=LINE('',#470,#75);
#40=LINE('',#472,#76);
#41=LINE('',#474,#77);
#42=LINE('',#476,#78);
#43=LINE('',#478,#79);
#44=LINE('',#480,#80);
#45=LINE('',#482,#81);
#46=LINE('',#484,#82);
#47=LINE('',#486,#83);
#48=LINE('',#488,#84);
#49=VECTOR('',#338,1.);
#50=VECTOR('',#339,1.);
#51=VECTOR('',#340,1.);
#52=VECTOR('',#341,1.);
#53=VECTOR('',#342,1.);
#54=VECTOR('',#343,1.);
#55=VECTOR('',#350,1.);
#56=VECTOR('',#351,1.);
#57=VECTOR('',#352,1.);
#58=VECTOR('',#353,1.);
#59=VECTOR('',#354,1.);
#60=VECTOR('',#355,1.);
#61=VECTOR('',#358,1.);
#62=VECTOR('',#359,1.);
#63=VECTOR('',#360,1.);
#64=VECTOR('',#363,1.);
#65=VECTOR('',#364,1.);
#66=VECTOR('',#367,1.);
#67=VECTOR('',#368,1.);
#68=VECTOR('',#371,1.);
#69=VECTOR('',#372,1.);
#70=VECTOR('',#375,1.);
#71=VECTOR('',#376,1.);
#72=VECTOR('',#379,1.);
#73=VECTOR('',#384,1.);
#74=VECTOR('',#385,1.);
#75=VECTOR('',#386,1.);
#76=VECTOR('',#389,1.);
#77=VECTOR('',#390,1.);
#78=VECTOR('',#393,1.);
#79=VECTOR('',#394,1.);
#80=VECTOR('',#397,1.);
#81=VECTOR('',#398,1.);
#82=VECTOR('',#401,1.);
#83=VECTOR('',#402,1.);
#84=VECTOR('',#405,1.);
#85=ORIENTED_EDGE('',*,*,#161,.T.);
#86=ORIENTED_EDGE('',*,*,#162,.T.);
#87=ORIENTED_EDGE('',*,*,#163,.T.);
#88=ORIENTED_EDGE('',*,*,#164,.T.);
#89=ORIENTED_EDGE('',*,*,#165,.T.);
#90=ORIENTED_EDGE('',*,*,#166,.T.);
#91=ORIENTED_EDGE('',*,*,#167,.T.);
#92=ORIENTED_EDGE('',*,*,#161,.F.);
#93=ORIENTED_EDGE('',*,*,#168,.T.);
#94=ORIENTED_EDGE('',*,*,#169,.T.);
#95=ORIENTED_EDGE('',*,*,#170,.T.);
#96=ORIENTED_EDGE('',*,*,#171,.T.);
#97=ORIENTED_EDGE('',*,*,#172,.T.);
#98=ORIENTED_EDGE('',*,*,#173,.T.);
#99=ORIENTED_EDGE('',*,*,#174,.T.);
#100=ORIENTED_EDGE('',*,*,#168,.F.);
#101=ORIENTED_EDGE('',*,*,#170,.F.);
#102=ORIENTED_EDGE('',*,*,#175,.T.);
#103=ORIENTED_EDGE('',*,*,#176,.F.);
#104=ORIENTED_EDGE('',*,*,#177,.F.);
#105=ORIENTED_EDGE('',*,*,#169,.F.);
#106=ORIENTED_EDGE('',*,*,#178,.T.);
#107=ORIENTED_EDGE('',*,*,#179,.F.);
#108=ORIENTED_EDGE('',*,*,#175,.F.);
#109=ORIENTED_EDGE('',*,*,#174,.F.);
#110=ORIENTED_EDGE('',*,*,#180,.T.);
#111=ORIENTED_EDGE('',*,*,#181,.F.);
#112=ORIENTED_EDGE('',*,*,#178,.F.);
#113=ORIENTED_EDGE('',*,*,#173,.F.);
#114=ORIENTED_EDGE('',*,*,#182,.T.);
#115=ORIENTED_EDGE('',*,*,#183,.F.);
#116=ORIENTED_EDGE('',*,*,#180,.F.);
#117=ORIENTED_EDGE('',*,*,#172,.F.);
#118=ORIENTED_EDGE('',*,*,#184,.T.);
#119=ORIENTED_EDGE('',*,*,#185,.F.);
#120=ORIENTED_EDGE('',*,*,#182,.F.);
#121=ORIENTED_EDGE('',*,*,#171,.F.);
#122=ORIENTED_EDGE('',*,*,#177,.T.);
#123=ORIENTED_EDGE('',*,*,#186,.F.);
#124=ORIENTED_EDGE('',*,*,#184,.F.);
#125=ORIENTED_EDGE('',*,*,#176,.T.);
#126=ORIENTED_EDGE('',*,*,#179,.T.);
#127=ORIENTED_EDGE('',*,*,#181,.T.);
#128=ORIENTED_EDGE('',*,*,#183,.T.);
#129=ORIENTED_EDGE('',*,*,#185,.T.);
#130=ORIENTED_EDGE('',*,*,#186,.T.);
#131=ORIENTED_EDGE('',*,*,#163,.F.);
#132=ORIENTED_EDGE('',*,*,#187,.F.);
#133=ORIENTED_EDGE('',*,*,#188,.F.);
#134=ORIENTED_EDGE('',*,*,#189,.T.);
#135=ORIENTED_EDGE('',*,*,#162,.F.);
#136=ORIENTED_EDGE('',*,*,#190,.F.);
#137=ORIENTED_EDGE('',*,*,#191,.F.);
#138=ORIENTED_EDGE('',*,*,#187,.T.);
#139=ORIENTED_EDGE('',*,*,#167,.F.);
#140=ORIENTED_EDGE('',*,*,#192,.F.);
#141=ORIENTED_EDGE('',*,*,#193,.F.);
#142=ORIENTED_EDGE('',*,*,#190,.T.);
#143=ORIENTED_EDGE('',*,*,#166,.F.);
#144=ORIENTED_EDGE('',*,*,#194,.F.);
#145=ORIENTED_EDGE('',*,*,#195,.F.);
#146=ORIENTED_EDGE('',*,*,#192,.T.);
#147=ORIENTED_EDGE('',*,*,#165,.F.);
#148=ORIENTED_EDGE('',*,*,#196,.F.);
#149=ORIENTED_EDGE('',*,*,#197,.F.);
#150=ORIENTED_EDGE('',*,*,#194,.T.);
#151=ORIENTED_EDGE('',*,*,#164,.F.);
#152=ORIENTED_EDGE('',*,*,#189,.F.);
#153=ORIENTED_EDGE('',*,*,#198,.F.);
#154=ORIENTED_EDGE('',*,*,#196,.T.);
#155=ORIENTED_EDGE('',*,*,#188,.T.);
#156=ORIENTED_EDGE('',*,*,#191,.T.);
#157=ORIENTED_EDGE('',*,*,#193,.T.);
#158=ORIENTED_EDGE('',*,*,#195,.T.);
#159=ORIENTED_EDGE('',*,*,#197,.T.);
#160=ORIENTED_EDGE('',*,*,#198,.T.);
#161=EDGE_CURVE('',#199,#199,#225,.T.);
#162=EDGE_CURVE('',#200,#201,#13,.T.);
#163=EDGE_CURVE('',#201,#202,#14,.T.);
#164=EDGE_CURVE('',#202,#203,#15,.T.);
#165=EDGE_CURVE('',#203,#204,#16,.T.);
#166=EDGE_CURVE('',#204,#205,#17,.T.);
#167=EDGE_CURVE('',#205,#200,#18,.T.);
#168=EDGE_CURVE('',#206,#206,#226,.T.);
#169=EDGE_CURVE('',#207,#208,#19,.T.);
#170=EDGE_CURVE('',#208,#209,#20,.T.);
#171=EDGE_CURVE('',#209,#210,#21,.T.);
#172=EDGE_CURVE('',#210,#211,#22,.T.);
#173=EDGE_CURVE('',#211,#212,#23,.T.);
#174=EDGE_CURVE('',#212,#207,#24,.T.);
#175=EDGE_CURVE('',#208,#213,#25,.T.);
#176=EDGE_CURVE('',#214,#213,#26,.T.);
#177=EDGE_CURVE('',#209,#214,#27,.T.);
#178=EDGE_CURVE('',#207,#215,#28,.T.);
#179=EDGE_CURVE('',#213,#215,#29,.T.);
#180=EDGE_CURVE('',#212,#216,#30,.T.);
#181=EDGE_CURVE('',#215,#216,#31,.T.);
#182=EDGE_CURVE('',#211,#217,#32,.T.);
#183=EDGE_CURVE('',#216,#217,#33,.T.);
#184=EDGE_CURVE('',#210,#218,#34,.T.);
#185=EDGE_CURVE('',#217,#218,#35,.T.);
#186=EDGE_CURVE('',#218,#214,#36,.T.);
#187=EDGE_CURVE('',#219,#201,#37,.T.);
#188=EDGE_CURVE('',#220,#219,#38,.T.);
#189=EDGE_CURVE('',#220,#202,#39,.T.);
#190=EDGE_CURVE('',#221,#200,#40,.T.);
#191=EDGE_CURVE('',#219,#221,#41,.T.);
#192=EDGE_CURVE('',#222,#205,#42,.T.);
#193=EDGE_CURVE('',#221,#222,#43,.T.);
#194=EDGE_CURVE('',#223,#204,#44,.T.);
#195=EDGE_CURVE('',#222,#223,#45,.T.);
#196=EDGE_CURVE('',#224,#203,#46,.T.);
#197=EDGE_CURVE('',#223,#224,#47,.T.);
#198=EDGE_CURVE('',#224,#220,#48,.T.);
#199=VERTEX_POINT('',#411);
#200=VERTEX_POINT('',#413);
#201=VERTEX_POINT('',#414);
#202=VERTEX_POINT('',#416);
#203=VERTEX_POINT('',#418);
#204=VERTEX_POINT('',#420);
#205=VERTEX_POINT('',#422);
#206=VERTEX_POINT('',#426);
#207=VERTEX_POINT('',#429);
#208=VERTEX_POINT('',#430);
#209=VERTEX_POINT('',#432);
#210=VERTEX_POINT('',#434);
#211=VERTEX_POINT('',#436);
#212=VERTEX_POINT('',#438);
#213=VERTEX_POINT('',#442);
#214=VERTEX_POINT('',#444);
#215=VERTEX_POINT('',#448);
#216=VERTEX_POINT('',#452);
#217=VERTEX_POINT('',#456);
#218=VERTEX_POINT('',#460);
#219=VERTEX_POINT('',#467);
#220=VERTEX_POINT('',#469);
#221=VERTEX_POINT('',#473);
#222=VERTEX_POINT('',#477);
#223=VERTEX_POINT('',#481);
#224=VERTEX_POINT('',#485);
#225=CIRCLE('',#314,0.004);
#226=CIRCLE('',#316,0.004);
#227=EDGE_LOOP('',(#85));
#228=EDGE_LOOP('',(#86,#87,#88,#89,#90,#91));
#229=EDGE_LOOP('',(#92));
#230=EDGE_LOOP('',(#93));
#231=EDGE_LOOP('',(#94,#95,#96,#97,#98,#99));
#232=EDGE_LOOP('',(#100));
#233=EDGE_LOOP('',(#101,#102,#103,#104));
#234=EDGE_LOOP('',(#105,#106,#107,#108));
#235=EDGE_LOOP('',(#109,#110,#111,#112));
#236=EDGE_LOOP('',(#113,#114,#115,#116));
#237=EDGE_LOOP('',(#117,#118,#119,#120));
#238=EDGE_LOOP('',(#121,#122,#123,#124));
#239=EDGE_LOOP('',(#125,#126,#127,#128,#129,#130));
#240=EDGE_LOOP('',(#131,#132,#133,#134));
#241=EDGE_LOOP('',(#135,#136,#137,#138));
#242=EDGE_LOOP('',(#139,#140,#141,#142));
#243=EDGE_LOOP('',(#143,#144,#145,#146));
#244=EDGE_LOOP('',(#147,#148,#149,#150));
#245=EDGE_LOOP('',(#151,#152,#153,#154));
#246=EDGE_LOOP('',(#155,#156,#157,#158,#159,#160));
#247=FACE_BOUND('',#227,.T.);
#248=FACE_BOUND('',#228,.T.);
#249=FACE_BOUND('',#229,.T.);
#250=FACE_BOUND('',#230,.T.);
#251=FACE_BOUND('',#231,.T.);
#252=FACE_BOUND('',#232,.T.);
#253=FACE_BOUND('',#233,.T.);
#254=FACE_BOUND('',#234,.T.);
#255=FACE_BOUND('',#235,.T.);
#256=FACE_BOUND('',#236,.T.);
#257=FACE_BOUND('',#237,.T.);
#258=FACE_BOUND('',#238,.T.);
#259=FACE_BOUND('',#239,.T.);
#260=FACE_BOUND('',#240,.T.);
#261=FACE_BOUND('',#241,.T.);
#262=FACE_BOUND('',#242,.T.);
#263=FACE_BOUND('',#243,.T.);
#264=FACE_BOUND('',#244,.T.);
#265=FACE_BOUND('',#245,.T.);
#266=FACE_BOUND('',#246,.T.);
#267=PLANE('',#313);
#268=PLANE('',#317);
#269=PLANE('',#318);
#270=PLANE('',#319);
#271=PLANE('',#320);
#272=PLANE('',#321);
#273=PLANE('',#322);
#274=PLANE('',#323);
#275=PLANE('',#324);
#276=PLANE('',#325);
#277=PLANE('',#326);
#278=PLANE('',#327);
#279=PLANE('',#328);
#280=PLANE('',#329);
#281=PLANE('',#330);
#282=PLANE('',#331);
#283=ADVANCED_FACE('',(#247,#248),#267,.T.);
#284=ADVANCED_FACE('',(#249,#250),#12,.T.);
#285=ADVANCED_FACE('',(#251,#252),#268,.F.);
#286=ADVANCED_FACE('',(#253),#269,.T.);
#287=ADVANCED_FACE('',(#254),#270,.T.);
#288=ADVANCED_FACE('',(#255),#271,.T.);
#289=ADVANCED_FACE('',(#256),#272,.T.);
#290=ADVANCED_FACE('',(#257),#273,.T.);
#291=ADVANCED_FACE('',(#258),#274,.T.);
#292=ADVANCED_FACE('',(#259),#275,.T.);
#293=ADVANCED_FACE('',(#260),#276,.F.);
#294=ADVANCED_FACE('',(#261),#277,.F.);
#295=ADVANCED_FACE('',(#262),#278,.F.);
#296=ADVANCED_FACE('',(#263),#279,.F.);
#297=ADVANCED_FACE('',(#264),#280,.F.);
#298=ADVANCED_FACE('',(#265),#281,.F.);
#299=ADVANCED_FACE('',(#266),#282,.T.);
#300=CLOSED_SHELL('',(#283,#284,#285,#286,#287,#288,#289,#290,#291,#292,
#293,#294,#295,#296,#297,#298,#299));
#301=STYLED_ITEM('',(#302),#309);
#302=PRESENTATION_STYLE_ASSIGNMENT((#303));
#303=SURFACE_STYLE_USAGE(.BOTH.,#304);
#304=SURFACE_SIDE_STYLE('',(#305));
#305=SURFACE_STYLE_FILL_AREA(#306);
#306=FILL_AREA_STYLE('',(#307));
#307=FILL_AREA_STYLE_COLOUR('',#308);
#308=COLOUR_RGB('',0.917647058823529,0.917647058823529,0.917647058823529);
#309=MANIFOLD_SOLID_BREP('Part 1',#300);
#310=SHAPE_DEFINITION_REPRESENTATION(#496,#311);
#311=SHAPE_REPRESENTATION('Part 1',(#312),#491);
#312=AXIS2_PLACEMENT_3D('',#408,#332,#333);
#313=AXIS2_PLACEMENT_3D('',#409,#334,#335);
#314=AXIS2_PLACEMENT_3D('',#410,#336,#337);
#315=AXIS2_PLACEMENT_3D('',#424,#344,#345);
#316=AXIS2_PLACEMENT_3D('',#425,#346,#347);
#317=AXIS2_PLACEMENT_3D('',#427,#348,#349);
#318=AXIS2_PLACEMENT_3D('',#440,#356,#357);
#319=AXIS2_PLACEMENT_3D('',#446,#361,#362);
#320=AXIS2_PLACEMENT_3D('',#450,#365,#366);
#321=AXIS2_PLACEMENT_3D('',#454,#369,#370);
#322=AXIS2_PLACEMENT_3D('',#458,#373,#374);
#323=AXIS2_PLACEMENT_3D('',#462,#377,#378);
#324=AXIS2_PLACEMENT_3D('',#464,#380,#381);
#325=AXIS2_PLACEMENT_3D('',#465,#382,#383);
#326=AXIS2_PLACEMENT_3D('',#471,#387,#388);
#327=AXIS2_PLACEMENT_3D('',#475,#391,#392);
#328=AXIS2_PLACEMENT_3D('',#479,#395,#396);
#329=AXIS2_PLACEMENT_3D('',#483,#399,#400);
#330=AXIS2_PLACEMENT_3D('',#487,#403,#404);
#331=AXIS2_PLACEMENT_3D('',#489,#406,#407);
#332=DIRECTION('',(0.,0.,1.));
#333=DIRECTION('',(1.,0.,0.));
#334=DIRECTION('',(0.,-1.,0.));
#335=DIRECTION('',(1.,0.,0.));
#336=DIRECTION('',(0.,-1.,0.));
#337=DIRECTION('',(0.,0.,-1.));
#338=DIRECTION('',(1.,0.,0.));
#339=DIRECTION('',(0.5,0.,-0.866025403784439));
#340=DIRECTION('',(-0.5,0.,-0.866025403784439));
#341=DIRECTION('',(-1.,0.,0.));
#342=DIRECTION('',(-0.5,0.,0.866025403784439));
#343=DIRECTION('',(0.5,0.,0.866025403784439));
#344=DIRECTION('',(0.,1.,0.));
#345=DIRECTION('',(0.,0.,1.));
#346=DIRECTION('',(0.,-1.,0.));
#347=DIRECTION('',(0.,0.,-1.));
#348=DIRECTION('',(0.,-1.,0.));
#349=DIRECTION('',(1.,0.,0.));
#350=DIRECTION('',(-1.,0.,0.));
#351=DIRECTION('',(-0.5,0.,-0.866025403784439));
#352=DIRECTION('',(0.5,0.,-0.866025403784439));
#353=DIRECTION('',(1.,0.,0.));
#354=DIRECTION('',(0.5,0.,0.866025403784439));
#355=DIRECTION('',(-0.5,0.,0.866025403784439));
#356=DIRECTION('',(-0.866025403784438,0.,0.5));
#357=DIRECTION('',(0.5,0.,0.866025403784439));
#358=DIRECTION('',(0.,1.,0.));
#359=DIRECTION('',(0.5,0.,0.866025403784439));
#360=DIRECTION('',(0.,1.,0.));
#361=DIRECTION('',(0.,0.,1.));
#362=DIRECTION('',(1.,0.,0.));
#363=DIRECTION('',(0.,1.,0.));
#364=DIRECTION('',(1.,0.,0.));
#365=DIRECTION('',(0.866025403784438,0.,0.5));
#366=DIRECTION('',(0.5,0.,-0.866025403784439));
#367=DIRECTION('',(0.,1.,0.));
#368=DIRECTION('',(0.5,0.,-0.866025403784439));
#369=DIRECTION('',(0.866025403784439,0.,-0.5));
#370=DIRECTION('',(-0.5,0.,-0.866025403784439));
#371=DIRECTION('',(0.,1.,0.));
#372=DIRECTION('',(-0.5,0.,-0.866025403784439));
#373=DIRECTION('',(0.,0.,-1.));
#374=DIRECTION('',(-1.,0.,0.));
#375=DIRECTION('',(0.,1.,0.));
#376=DIRECTION('',(-1.,0.,0.));
#377=DIRECTION('',(-0.866025403784439,0.,-0.5));
#378=DIRECTION('',(-0.5,0.,0.866025403784439));
#379=DIRECTION('',(-0.5,0.,0.866025403784438));
#380=DIRECTION('',(0.,1.,0.));
#381=DIRECTION('',(-1.,0.,0.));
#382=DIRECTION('',(-0.866025403784438,0.,-0.5));
#383=DIRECTION('',(-0.5,0.,0.866025403784439));
#384=DIRECTION('',(0.,1.,0.));
#385=DIRECTION('',(-0.5,0.,0.866025403784439));
#386=DIRECTION('',(0.,1.,0.));
#387=DIRECTION('',(0.,0.,-1.));
#388=DIRECTION('',(-1.,0.,0.));
#389=DIRECTION('',(0.,1.,0.));
#390=DIRECTION('',(-1.,0.,0.));
#391=DIRECTION('',(0.866025403784438,0.,-0.5));
#392=DIRECTION('',(-0.5,0.,-0.866025403784439));
#393=DIRECTION('',(0.,1.,0.));
#394=DIRECTION('',(-0.5,0.,-0.866025403784439));
#395=DIRECTION('',(0.866025403784439,0.,0.5));
#396=DIRECTION('',(0.5,0.,-0.866025403784439));
#397=DIRECTION('',(0.,1.,0.));
#398=DIRECTION('',(0.5,0.,-0.866025403784439));
#399=DIRECTION('',(0.,0.,1.));
#400=DIRECTION('',(1.,0.,0.));
#401=DIRECTION('',(0.,1.,0.));
#402=DIRECTION('',(1.,0.,0.));
#403=DIRECTION('',(-0.866025403784438,0.,0.5));
#404=DIRECTION('',(0.5,0.,0.866025403784439));
#405=DIRECTION('',(0.5,0.,0.866025403784438));
#406=DIRECTION('',(0.,-1.,0.));
#407=DIRECTION('',(1.,0.,0.));
#408=CARTESIAN_POINT('',(0.,0.,0.));
#409=CARTESIAN_POINT('',(0.,-0.016,0.));
#410=CARTESIAN_POINT('',(0.,-0.016,2.4492935982947E-19));
#411=CARTESIAN_POINT('',(0.,-0.016,-0.004));
#412=CARTESIAN_POINT('',(0.,-0.016,0.00235));
#413=CARTESIAN_POINT('',(-0.00135677313259562,-0.016,0.00235));
#414=CARTESIAN_POINT('',(0.00135677313259562,-0.016,0.00235));
#415=CARTESIAN_POINT('',(0.00203515969889343,-0.016,0.001175));
#416=CARTESIAN_POINT('',(0.00271354626519124,-0.016,1.3010426069826E-18));
#417=CARTESIAN_POINT('',(0.00203515969889343,-0.016,-0.001175));
#418=CARTESIAN_POINT('',(0.00135677313259562,-0.016,-0.00235));
#419=CARTESIAN_POINT('',(0.,-0.016,-0.00235));
#420=CARTESIAN_POINT('',(-0.00135677313259562,-0.016,-0.00235));
#421=CARTESIAN_POINT('',(-0.00203515969889343,-0.016,-0.001175));
#422=CARTESIAN_POINT('',(-0.00271354626519124,-0.016,1.95156391047391E-18));
#423=CARTESIAN_POINT('',(-0.00203515969889343,-0.016,0.001175));
#424=CARTESIAN_POINT('',(0.,-0.016,2.4492935982947E-19));
#425=CARTESIAN_POINT('',(0.,0.,2.4492935982947E-19));
#426=CARTESIAN_POINT('',(0.,0.,-0.004));
#427=CARTESIAN_POINT('',(0.,0.,0.));
#428=CARTESIAN_POINT('',(0.,0.,0.00235));
#429=CARTESIAN_POINT('',(0.00135677313259562,0.,0.00235));
#430=CARTESIAN_POINT('',(-0.00135677313259562,0.,0.00235));
#431=CARTESIAN_POINT('',(-0.00203515969889343,0.,0.001175));
#432=CARTESIAN_POINT('',(-0.00271354626519124,0.,4.33680868994202E-19));
#433=CARTESIAN_POINT('',(-0.00203515969889343,0.,-0.001175));
#434=CARTESIAN_POINT('',(-0.00135677313259562,0.,-0.00235));
#435=CARTESIAN_POINT('',(0.,0.,-0.00235));
#436=CARTESIAN_POINT('',(0.00135677313259562,0.,-0.00235));
#437=CARTESIAN_POINT('',(0.00203515969889343,0.,-0.001175));
#438=CARTESIAN_POINT('',(0.00271354626519124,0.,1.51788304147971E-18));
#439=CARTESIAN_POINT('',(0.00203515969889343,0.,0.001175));
#440=CARTESIAN_POINT('',(-0.00203515969889343,-0.0015,0.001175));
#441=CARTESIAN_POINT('',(-0.00135677313259562,-0.0015,0.00235));
#442=CARTESIAN_POINT('',(-0.00135677313259562,0.0015,0.00235));
#443=CARTESIAN_POINT('',(-0.00203515969889343,0.0015,0.001175));
#444=CARTESIAN_POINT('',(-0.00271354626519124,0.0015,4.33680868994202E-19));
#445=CARTESIAN_POINT('',(-0.00271354626519124,-0.0015,4.33680868994202E-19));
#446=CARTESIAN_POINT('',(0.,-0.0015,0.00235));
#447=CARTESIAN_POINT('',(0.00135677313259562,-0.0015,0.00235));
#448=CARTESIAN_POINT('',(0.00135677313259562,0.0015,0.00235));
#449=CARTESIAN_POINT('',(0.,0.0015,0.00235));
#450=CARTESIAN_POINT('',(0.00203515969889343,-0.0015,0.001175));
#451=CARTESIAN_POINT('',(0.00271354626519124,-0.0015,1.51788304147971E-18));
#452=CARTESIAN_POINT('',(0.00271354626519124,0.0015,1.51788304147971E-18));
#453=CARTESIAN_POINT('',(0.00203515969889343,0.0015,0.001175));
#454=CARTESIAN_POINT('',(0.00203515969889343,-0.0015,-0.001175));
#455=CARTESIAN_POINT('',(0.00135677313259562,-0.0015,-0.00235));
#456=CARTESIAN_POINT('',(0.00135677313259562,0.0015,-0.00235));
#457=CARTESIAN_POINT('',(0.00203515969889343,0.0015,-0.001175));
#458=CARTESIAN_POINT('',(2.16840434497101E-19,-0.0015,-0.00235));
#459=CARTESIAN_POINT('',(-0.00135677313259562,-0.0015,-0.00235));
#460=CARTESIAN_POINT('',(-0.00135677313259562,0.0015,-0.00235));
#461=CARTESIAN_POINT('',(2.16840434497101E-19,0.0015,-0.00235));
#462=CARTESIAN_POINT('',(-0.00203515969889343,-0.0015,-0.001175));
#463=CARTESIAN_POINT('',(-0.00203515969889343,0.0015,-0.001175));
#464=CARTESIAN_POINT('',(0.,0.0015,0.));
#465=CARTESIAN_POINT('',(0.00203515969889343,-0.0175,0.001175));
#466=CARTESIAN_POINT('',(0.00135677313259562,-0.0175,0.00235));
#467=CARTESIAN_POINT('',(0.00135677313259562,-0.0175,0.00235));
#468=CARTESIAN_POINT('',(0.00203515969889343,-0.0175,0.001175));
#469=CARTESIAN_POINT('',(0.00271354626519124,-0.0175,1.3010426069826E-18));
#470=CARTESIAN_POINT('',(0.00271354626519124,-0.0175,1.3010426069826E-18));
#471=CARTESIAN_POINT('',(0.,-0.0175,0.00235));
#472=CARTESIAN_POINT('',(-0.00135677313259562,-0.0175,0.00235));
#473=CARTESIAN_POINT('',(-0.00135677313259562,-0.0175,0.00235));
#474=CARTESIAN_POINT('',(0.,-0.0175,0.00235));
#475=CARTESIAN_POINT('',(-0.00203515969889343,-0.0175,0.001175));
#476=CARTESIAN_POINT('',(-0.00271354626519124,-0.0175,1.95156391047391E-18));
#477=CARTESIAN_POINT('',(-0.00271354626519124,-0.0175,1.95156391047391E-18));
#478=CARTESIAN_POINT('',(-0.00203515969889343,-0.0175,0.001175));
#479=CARTESIAN_POINT('',(-0.00203515969889343,-0.0175,-0.001175));
#480=CARTESIAN_POINT('',(-0.00135677313259562,-0.0175,-0.00235));
#481=CARTESIAN_POINT('',(-0.00135677313259562,-0.0175,-0.00235));
#482=CARTESIAN_POINT('',(-0.00203515969889343,-0.0175,-0.001175));
#483=CARTESIAN_POINT('',(-2.16840434497101E-19,-0.0175,-0.00235));
#484=CARTESIAN_POINT('',(0.00135677313259562,-0.0175,-0.00235));
#485=CARTESIAN_POINT('',(0.00135677313259562,-0.0175,-0.00235));
#486=CARTESIAN_POINT('',(-2.16840434497101E-19,-0.0175,-0.00235));
#487=CARTESIAN_POINT('',(0.00203515969889343,-0.0175,-0.001175));
#488=CARTESIAN_POINT('',(0.00203515969889343,-0.0175,-0.001175));
#489=CARTESIAN_POINT('',(0.,-0.0175,0.));
#490=MECHANICAL_DESIGN_GEOMETRIC_PRESENTATION_REPRESENTATION('',(#301),
#491);
#491=(
GEOMETRIC_REPRESENTATION_CONTEXT(3)
GLOBAL_UNCERTAINTY_ASSIGNED_CONTEXT((#492))
GLOBAL_UNIT_ASSIGNED_CONTEXT((#495,#494,#493))
REPRESENTATION_CONTEXT('Part 1','TOP_LEVEL_ASSEMBLY_PART')
);
#492=UNCERTAINTY_MEASURE_WITH_UNIT(LENGTH_MEASURE(1.E-8),#495,
'DISTANCE_ACCURACY_VALUE','Maximum Tolerance applied to model');
#493=(
NAMED_UNIT(*)
SI_UNIT($,.STERADIAN.)
SOLID_ANGLE_UNIT()
);
#494=(
NAMED_UNIT(*)
PLANE_ANGLE_UNIT()
SI_UNIT($,.RADIAN.)
);
#495=(
LENGTH_UNIT()
NAMED_UNIT(*)
SI_UNIT($,.METRE.)
);
#496=PRODUCT_DEFINITION_SHAPE('','',#497);
#497=PRODUCT_DEFINITION('','',#499,#498);
#498=PRODUCT_DEFINITION_CONTEXT('',#505,'design');
#499=PRODUCT_DEFINITION_FORMATION_WITH_SPECIFIED_SOURCE('','',#501,
 .NOT_KNOWN.);
#500=PRODUCT_RELATED_PRODUCT_CATEGORY('','',(#501));
#501=PRODUCT('Part 1','Part 1','Part 1',(#503));
#502=PRODUCT_CATEGORY('','');
#503=PRODUCT_CONTEXT('',#505,'mechanical');
#504=APPLICATION_PROTOCOL_DEFINITION('international standard',
'ap242_managed_model_based_3d_engineering',2020,#505);
#505=APPLICATION_CONTEXT('managed model based 3d engineering');
ENDSEC;
END-ISO-10303-21;
