ISO-10303-21;
HEADER;
/* Generated by software containing ST-Developer
 * from STEP Tools, Inc. (www.steptools.com) 
 */
/* OPTION: using custom renumber hook */

FILE_DESCRIPTION(
/* description */ ('STEP AP242 Edition 2',
'CAx-IF Rec.Pracs.---Representation and Presentation of Product Manufa
cturing Information (PMI)---4.0---2014-10-13',
'CAx-IF Rec.Pracs.---3D Tessellated Geometry---0.4---2014-09-14','2;1',
'CAx-IF Rec.Pracs.---User Defined Attributes---1.5---2016-08-15'),
/* implementation_level */ '2;1');

FILE_NAME(
/* name */ 'Power Beam for Motors',
/* time_stamp */ '2026-08-03T01:25:09Z',
/* author */ (''),
/* organization */ (''),
/* preprocessor_version */ 'ST-DEVELOPER v20',
/* originating_system */ 'ONSHAPE BY PTC INC, 1.218',
/* authorisation */ '  ');

FILE_SCHEMA (('AP242_MANAGED_MODEL_BASED_3D_ENGINEERING_MIM_LF { 1 0 10303 442 3 1 4 }'));
ENDSEC;

DATA;
#10=SHAPE_REPRESENTATION_RELATIONSHIP('','',#133,#11);
#11=ADVANCED_BREP_SHAPE_REPRESENTATION('',(#131),#221);
#12=CYLINDRICAL_SURFACE('',#139,0.004);
#13=CYLINDRICAL_SURFACE('',#143,0.003);
#14=CYLINDRICAL_SURFACE('',#146,0.003);
#15=LINE('',#191,#23);
#16=LINE('',#196,#24);
#17=LINE('',#204,#25);
#18=LINE('',#206,#26);
#19=LINE('',#208,#27);
#20=LINE('',#210,#28);
#21=LINE('',#214,#29);
#22=LINE('',#216,#30);
#23=VECTOR('',#155,1.);
#24=VECTOR('',#158,1.);
#25=VECTOR('',#169,1.);
#26=VECTOR('',#170,1.);
#27=VECTOR('',#171,1.);
#28=VECTOR('',#174,1.);
#29=VECTOR('',#179,1.);
#30=VECTOR('',#180,1.);
#31=ORIENTED_EDGE('',*,*,#59,.F.);
#32=ORIENTED_EDGE('',*,*,#60,.T.);
#33=ORIENTED_EDGE('',*,*,#61,.F.);
#34=ORIENTED_EDGE('',*,*,#62,.F.);
#35=ORIENTED_EDGE('',*,*,#63,.F.);
#36=ORIENTED_EDGE('',*,*,#64,.F.);
#37=ORIENTED_EDGE('',*,*,#59,.T.);
#38=ORIENTED_EDGE('',*,*,#64,.T.);
#39=ORIENTED_EDGE('',*,*,#60,.F.);
#40=ORIENTED_EDGE('',*,*,#65,.F.);
#41=ORIENTED_EDGE('',*,*,#66,.T.);
#42=ORIENTED_EDGE('',*,*,#67,.T.);
#43=ORIENTED_EDGE('',*,*,#63,.T.);
#44=ORIENTED_EDGE('',*,*,#68,.F.);
#45=ORIENTED_EDGE('',*,*,#69,.F.);
#46=ORIENTED_EDGE('',*,*,#65,.T.);
#47=ORIENTED_EDGE('',*,*,#62,.T.);
#48=ORIENTED_EDGE('',*,*,#70,.F.);
#49=ORIENTED_EDGE('',*,*,#71,.F.);
#50=ORIENTED_EDGE('',*,*,#68,.T.);
#51=ORIENTED_EDGE('',*,*,#61,.T.);
#52=ORIENTED_EDGE('',*,*,#67,.F.);
#53=ORIENTED_EDGE('',*,*,#72,.F.);
#54=ORIENTED_EDGE('',*,*,#70,.T.);
#55=ORIENTED_EDGE('',*,*,#66,.F.);
#56=ORIENTED_EDGE('',*,*,#69,.T.);
#57=ORIENTED_EDGE('',*,*,#71,.T.);
#58=ORIENTED_EDGE('',*,*,#72,.T.);
#59=EDGE_CURVE('',#73,#73,#83,.T.);
#60=EDGE_CURVE('',#74,#75,#15,.T.);
#61=EDGE_CURVE('',#76,#75,#84,.T.);
#62=EDGE_CURVE('',#77,#76,#16,.T.);
#63=EDGE_CURVE('',#74,#77,#85,.T.);
#64=EDGE_CURVE('',#78,#78,#86,.T.);
#65=EDGE_CURVE('',#79,#74,#17,.T.);
#66=EDGE_CURVE('',#79,#80,#18,.T.);
#67=EDGE_CURVE('',#80,#75,#19,.T.);
#68=EDGE_CURVE('',#81,#77,#20,.T.);
#69=EDGE_CURVE('',#79,#81,#87,.T.);
#70=EDGE_CURVE('',#82,#76,#21,.T.);
#71=EDGE_CURVE('',#81,#82,#22,.T.);
#72=EDGE_CURVE('',#82,#80,#88,.T.);
#73=VERTEX_POINT('',#190);
#74=VERTEX_POINT('',#192);
#75=VERTEX_POINT('',#193);
#76=VERTEX_POINT('',#195);
#77=VERTEX_POINT('',#197);
#78=VERTEX_POINT('',#201);
#79=VERTEX_POINT('',#205);
#80=VERTEX_POINT('',#207);
#81=VERTEX_POINT('',#211);
#82=VERTEX_POINT('',#215);
#83=CIRCLE('',#136,0.004);
#84=CIRCLE('',#137,0.003);
#85=CIRCLE('',#138,0.003);
#86=CIRCLE('',#140,0.004);
#87=CIRCLE('',#144,0.003);
#88=CIRCLE('',#147,0.003);
#89=EDGE_LOOP('',(#31));
#90=EDGE_LOOP('',(#32,#33,#34,#35));
#91=EDGE_LOOP('',(#36));
#92=EDGE_LOOP('',(#37));
#93=EDGE_LOOP('',(#38));
#94=EDGE_LOOP('',(#39,#40,#41,#42));
#95=EDGE_LOOP('',(#43,#44,#45,#46));
#96=EDGE_LOOP('',(#47,#48,#49,#50));
#97=EDGE_LOOP('',(#51,#52,#53,#54));
#98=EDGE_LOOP('',(#55,#56,#57,#58));
#99=FACE_BOUND('',#89,.T.);
#100=FACE_BOUND('',#90,.T.);
#101=FACE_BOUND('',#91,.T.);
#102=FACE_BOUND('',#92,.T.);
#103=FACE_BOUND('',#93,.T.);
#104=FACE_BOUND('',#94,.T.);
#105=FACE_BOUND('',#95,.T.);
#106=FACE_BOUND('',#96,.T.);
#107=FACE_BOUND('',#97,.T.);
#108=FACE_BOUND('',#98,.T.);
#109=PLANE('',#135);
#110=PLANE('',#141);
#111=PLANE('',#142);
#112=PLANE('',#145);
#113=PLANE('',#148);
#114=ADVANCED_FACE('',(#99,#100),#109,.F.);
#115=ADVANCED_FACE('',(#101,#102),#12,.T.);
#116=ADVANCED_FACE('',(#103),#110,.T.);
#117=ADVANCED_FACE('',(#104),#111,.T.);
#118=ADVANCED_FACE('',(#105),#13,.F.);
#119=ADVANCED_FACE('',(#106),#112,.F.);
#120=ADVANCED_FACE('',(#107),#14,.F.);
#121=ADVANCED_FACE('',(#108),#113,.T.);
#122=CLOSED_SHELL('',(#114,#115,#116,#117,#118,#119,#120,#121));
#123=STYLED_ITEM('',(#124),#131);
#124=PRESENTATION_STYLE_ASSIGNMENT((#125));
#125=SURFACE_STYLE_USAGE(.BOTH.,#126);
#126=SURFACE_SIDE_STYLE('',(#127));
#127=SURFACE_STYLE_FILL_AREA(#128);
#128=FILL_AREA_STYLE('',(#129));
#129=FILL_AREA_STYLE_COLOUR('',#130);
#130=COLOUR_RGB('',0.917647058823529,0.917647058823529,0.917647058823529);
#131=MANIFOLD_SOLID_BREP('Part 1',#122);
#132=SHAPE_DEFINITION_REPRESENTATION(#226,#133);
#133=SHAPE_REPRESENTATION('Part 1',(#134),#221);
#134=AXIS2_PLACEMENT_3D('',#187,#149,#150);
#135=AXIS2_PLACEMENT_3D('',#188,#151,#152);
#136=AXIS2_PLACEMENT_3D('',#189,#153,#154);
#137=AXIS2_PLACEMENT_3D('',#194,#156,#157);
#138=AXIS2_PLACEMENT_3D('',#198,#159,#160);
#139=AXIS2_PLACEMENT_3D('',#199,#161,#162);
#140=AXIS2_PLACEMENT_3D('',#200,#163,#164);
#141=AXIS2_PLACEMENT_3D('',#202,#165,#166);
#142=AXIS2_PLACEMENT_3D('',#203,#167,#168);
#143=AXIS2_PLACEMENT_3D('',#209,#172,#173);
#144=AXIS2_PLACEMENT_3D('',#212,#175,#176);
#145=AXIS2_PLACEMENT_3D('',#213,#177,#178);
#146=AXIS2_PLACEMENT_3D('',#217,#181,#182);
#147=AXIS2_PLACEMENT_3D('',#218,#183,#184);
#148=AXIS2_PLACEMENT_3D('',#219,#185,#186);
#149=DIRECTION('',(0.,0.,1.));
#150=DIRECTION('',(1.,0.,0.));
#151=DIRECTION('',(0.,-1.,0.));
#152=DIRECTION('',(1.,0.,0.));
#153=DIRECTION('',(0.,-1.,0.));
#154=DIRECTION('',(0.,0.,-1.));
#155=DIRECTION('',(-1.,0.,0.));
#156=DIRECTION('',(0.,1.,0.));
#157=DIRECTION('',(0.,0.,1.));
#158=DIRECTION('',(-1.,0.,0.));
#159=DIRECTION('',(0.,1.,0.));
#160=DIRECTION('',(0.,0.,1.));
#161=DIRECTION('',(0.,1.,0.));
#162=DIRECTION('',(0.,0.,1.));
#163=DIRECTION('',(0.,-1.,0.));
#164=DIRECTION('',(0.,0.,-1.));
#165=DIRECTION('',(0.,-1.,0.));
#166=DIRECTION('',(1.,0.,0.));
#167=DIRECTION('',(0.,0.,-1.));
#168=DIRECTION('',(-1.,0.,0.));
#169=DIRECTION('',(0.,1.,0.));
#170=DIRECTION('',(-1.,0.,0.));
#171=DIRECTION('',(0.,1.,0.));
#172=DIRECTION('',(0.,1.,0.));
#173=DIRECTION('',(0.,0.,1.));
#174=DIRECTION('',(0.,1.,0.));
#175=DIRECTION('',(0.,1.,0.));
#176=DIRECTION('',(0.,0.,1.));
#177=DIRECTION('',(0.,0.,-1.));
#178=DIRECTION('',(-1.,0.,0.));
#179=DIRECTION('',(0.,1.,0.));
#180=DIRECTION('',(-1.,0.,0.));
#181=DIRECTION('',(0.,1.,0.));
#182=DIRECTION('',(0.,0.,1.));
#183=DIRECTION('',(0.,1.,0.));
#184=DIRECTION('',(0.,0.,1.));
#185=DIRECTION('',(0.,1.,0.));
#186=DIRECTION('',(-1.,0.,0.));
#187=CARTESIAN_POINT('',(0.,0.,0.));
#188=CARTESIAN_POINT('',(0.,0.,0.));
#189=CARTESIAN_POINT('',(0.,0.,2.4492935982947E-19));
#190=CARTESIAN_POINT('',(0.,0.,-0.004));
#191=CARTESIAN_POINT('',(0.,0.,0.0023495));
#192=CARTESIAN_POINT('',(0.00186543553895599,0.,0.0023495));
#193=CARTESIAN_POINT('',(-0.00186543553895599,0.,0.0023495));
#194=CARTESIAN_POINT('',(2.16840434497101E-19,0.,-1.0842021724855E-18));
#195=CARTESIAN_POINT('',(-0.00186543553895599,0.,-0.0023495));
#196=CARTESIAN_POINT('',(0.,0.,-0.0023495));
#197=CARTESIAN_POINT('',(0.00186543553895599,0.,-0.0023495));
#198=CARTESIAN_POINT('',(-1.0842021724855E-19,0.,4.33680868994202E-19));
#199=CARTESIAN_POINT('',(0.,-0.016,2.4492935982947E-19));
#200=CARTESIAN_POINT('',(0.,-0.016,2.4492935982947E-19));
#201=CARTESIAN_POINT('',(0.,-0.016,-0.004));
#202=CARTESIAN_POINT('',(0.,-0.016,0.));
#203=CARTESIAN_POINT('',(0.,-0.015,0.0023495));
#204=CARTESIAN_POINT('',(0.00186543553895599,-0.015,0.0023495));
#205=CARTESIAN_POINT('',(0.00186543553895599,-0.015,0.0023495));
#206=CARTESIAN_POINT('',(0.,-0.015,0.0023495));
#207=CARTESIAN_POINT('',(-0.00186543553895599,-0.015,0.0023495));
#208=CARTESIAN_POINT('',(-0.00186543553895599,-0.015,0.0023495));
#209=CARTESIAN_POINT('',(-1.0842021724855E-19,-0.015,4.33680868994202E-19));
#210=CARTESIAN_POINT('',(0.00186543553895599,-0.015,-0.0023495));
#211=CARTESIAN_POINT('',(0.00186543553895599,-0.015,-0.0023495));
#212=CARTESIAN_POINT('',(-1.0842021724855E-19,-0.015,4.33680868994202E-19));
#213=CARTESIAN_POINT('',(0.,-0.015,-0.0023495));
#214=CARTESIAN_POINT('',(-0.00186543553895599,-0.015,-0.0023495));
#215=CARTESIAN_POINT('',(-0.00186543553895599,-0.015,-0.0023495));
#216=CARTESIAN_POINT('',(0.,-0.015,-0.0023495));
#217=CARTESIAN_POINT('',(2.16840434497101E-19,-0.015,-1.0842021724855E-18));
#218=CARTESIAN_POINT('',(2.16840434497101E-19,-0.015,-1.0842021724855E-18));
#219=CARTESIAN_POINT('',(0.,-0.015,0.));
#220=MECHANICAL_DESIGN_GEOMETRIC_PRESENTATION_REPRESENTATION('',(#123),
#221);
#221=(
GEOMETRIC_REPRESENTATION_CONTEXT(3)
GLOBAL_UNCERTAINTY_ASSIGNED_CONTEXT((#222))
GLOBAL_UNIT_ASSIGNED_CONTEXT((#225,#224,#223))
REPRESENTATION_CONTEXT('Part 1','TOP_LEVEL_ASSEMBLY_PART')
);
#222=UNCERTAINTY_MEASURE_WITH_UNIT(LENGTH_MEASURE(1.E-8),#225,
'DISTANCE_ACCURACY_VALUE','Maximum Tolerance applied to model');
#223=(
NAMED_UNIT(*)
SI_UNIT($,.STERADIAN.)
SOLID_ANGLE_UNIT()
);
#224=(
NAMED_UNIT(*)
PLANE_ANGLE_UNIT()
SI_UNIT($,.RADIAN.)
);
#225=(
LENGTH_UNIT()
NAMED_UNIT(*)
SI_UNIT($,.METRE.)
);
#226=PRODUCT_DEFINITION_SHAPE('','',#227);
#227=PRODUCT_DEFINITION('','',#229,#228);
#228=PRODUCT_DEFINITION_CONTEXT('',#235,'design');
#229=PRODUCT_DEFINITION_FORMATION_WITH_SPECIFIED_SOURCE('','',#231,
 .NOT_KNOWN.);
#230=PRODUCT_RELATED_PRODUCT_CATEGORY('','',(#231));
#231=PRODUCT('Part 1','Part 1','Part 1',(#233));
#232=PRODUCT_CATEGORY('','');
#233=PRODUCT_CONTEXT('',#235,'mechanical');
#234=APPLICATION_PROTOCOL_DEFINITION('international standard',
'ap242_managed_model_based_3d_engineering',2020,#235);
#235=APPLICATION_CONTEXT('managed model based 3d engineering');
ENDSEC;
END-ISO-10303-21;
