ISO-10303-21;
HEADER;
/* Generated by software containing ST-Developer
 * from STEP Tools, Inc. (www.steptools.com) 
 */
/* OPTION: using custom renumber hook */

FILE_DESCRIPTION(
/* description */ ('STEP AP242 Edition 2',
'CAx-IF Rec.Pracs.---Representation and Presentation of Product Manufa
cturing Information (PMI)---4.0---2014-10-13',
'CAx-IF Rec.Pracs.---3D Tessellated Geometry---0.4---2014-09-14','2;1',
'CAx-IF Rec.Pracs.---User Defined Attributes---1.5---2016-08-15'),
/* implementation_level */ '2;1');

FILE_NAME(
/* name */ 'Leg Part 1',
/* time_stamp */ '2026-08-03T01:16:53Z',
/* author */ (''),
/* organization */ (''),
/* preprocessor_version */ 'ST-DEVELOPER v20',
/* originating_system */ 'ONSHAPE BY PTC INC, 1.218',
/* authorisation */ '  ');

FILE_SCHEMA (('AP242_MANAGED_MODEL_BASED_3D_ENGINEERING_MIM_LF { 1 0 10303 442 3 1 4 }'));
ENDSEC;

DATA;
#10=SHAPE_REPRESENTATION_RELATIONSHIP('','',#547,#11);
#11=ADVANCED_BREP_SHAPE_REPRESENTATION('',(#545),#911);
#12=PLANE('',#552);
#13=PLANE('',#556);
#14=PLANE('',#563);
#15=PLANE('',#567);
#16=PLANE('',#571);
#17=PLANE('',#572);
#18=PLANE('',#573);
#19=PLANE('',#574);
#20=PLANE('',#578);
#21=PLANE('',#592);
#22=PLANE('',#595);
#23=PLANE('',#596);
#24=PLANE('',#597);
#25=PLANE('',#598);
#26=LINE('',#763,#74);
#27=LINE('',#767,#75);
#28=LINE('',#769,#76);
#29=LINE('',#772,#77);
#30=LINE('',#774,#78);
#31=LINE('',#776,#79);
#32=LINE('',#777,#80);
#33=LINE('',#779,#81);
#34=LINE('',#785,#82);
#35=LINE('',#788,#83);
#36=LINE('',#790,#84);
#37=LINE('',#792,#85);
#38=LINE('',#793,#86);
#39=LINE('',#799,#87);
#40=LINE('',#801,#88);
#41=LINE('',#806,#89);
#42=LINE('',#810,#90);
#43=LINE('',#813,#91);
#44=LINE('',#815,#92);
#45=LINE('',#817,#93);
#46=LINE('',#819,#94);
#47=LINE('',#820,#95);
#48=LINE('',#822,#96);
#49=LINE('',#828,#97);
#50=LINE('',#830,#98);
#51=LINE('',#832,#99);
#52=LINE('',#834,#100);
#53=LINE('',#840,#101);
#54=LINE('',#842,#102);
#55=LINE('',#844,#103);
#56=LINE('',#845,#104);
#57=LINE('',#847,#105);
#58=LINE('',#849,#106);
#59=LINE('',#851,#107);
#60=LINE('',#853,#108);
#61=LINE('',#854,#109);
#62=LINE('',#857,#110);
#63=LINE('',#858,#111);
#64=LINE('',#872,#112);
#65=LINE('',#875,#113);
#66=LINE('',#878,#114);
#67=LINE('',#881,#115);
#68=LINE('',#887,#116);
#69=LINE('',#889,#117);
#70=LINE('',#893,#118);
#71=LINE('',#897,#119);
#72=LINE('',#899,#120);
#73=LINE('',#903,#121);
#74=VECTOR('',#608,1.);
#75=VECTOR('',#611,1.);
#76=VECTOR('',#614,1.);
#77=VECTOR('',#615,1.);
#78=VECTOR('',#616,1.);
#79=VECTOR('',#617,1.);
#80=VECTOR('',#618,1.);
#81=VECTOR('',#621,1.);
#82=VECTOR('',#628,1.);
#83=VECTOR('',#629,1.);
#84=VECTOR('',#630,1.);
#85=VECTOR('',#631,1.);
#86=VECTOR('',#632,1.);
#87=VECTOR('',#639,1.);
#88=VECTOR('',#642,1.);
#89=VECTOR('',#645,1.);
#90=VECTOR('',#650,1.);
#91=VECTOR('',#651,1.);
#92=VECTOR('',#652,1.);
#93=VECTOR('',#653,1.);
#94=VECTOR('',#654,1.);
#95=VECTOR('',#655,1.);
#96=VECTOR('',#656,1.);
#97=VECTOR('',#663,1.);
#98=VECTOR('',#666,1.);
#99=VECTOR('',#667,1.);
#100=VECTOR('',#668,1.);
#101=VECTOR('',#675,1.);
#102=VECTOR('',#678,1.);
#103=VECTOR('',#679,1.);
#104=VECTOR('',#680,1.);
#105=VECTOR('',#681,1.);
#106=VECTOR('',#682,1.);
#107=VECTOR('',#683,1.);
#108=VECTOR('',#686,1.);
#109=VECTOR('',#687,1.);
#110=VECTOR('',#692,1.);
#111=VECTOR('',#693,1.);
#112=VECTOR('',#708,1.);
#113=VECTOR('',#711,1.);
#114=VECTOR('',#714,1.);
#115=VECTOR('',#717,1.);
#116=VECTOR('',#724,1.);
#117=VECTOR('',#727,1.);
#118=VECTOR('',#732,1.);
#119=VECTOR('',#737,1.);
#120=VECTOR('',#738,1.);
#121=VECTOR('',#745,1.);
#122=ORIENTED_EDGE('',*,*,#270,.T.);
#123=ORIENTED_EDGE('',*,*,#271,.F.);
#124=ORIENTED_EDGE('',*,*,#272,.F.);
#125=ORIENTED_EDGE('',*,*,#273,.T.);
#126=ORIENTED_EDGE('',*,*,#274,.T.);
#127=ORIENTED_EDGE('',*,*,#275,.T.);
#128=ORIENTED_EDGE('',*,*,#276,.T.);
#129=ORIENTED_EDGE('',*,*,#277,.T.);
#130=ORIENTED_EDGE('',*,*,#273,.F.);
#131=ORIENTED_EDGE('',*,*,#278,.F.);
#132=ORIENTED_EDGE('',*,*,#279,.T.);
#133=ORIENTED_EDGE('',*,*,#280,.T.);
#134=ORIENTED_EDGE('',*,*,#274,.F.);
#135=ORIENTED_EDGE('',*,*,#281,.F.);
#136=ORIENTED_EDGE('',*,*,#282,.T.);
#137=ORIENTED_EDGE('',*,*,#283,.F.);
#138=ORIENTED_EDGE('',*,*,#284,.F.);
#139=ORIENTED_EDGE('',*,*,#285,.T.);
#140=ORIENTED_EDGE('',*,*,#279,.F.);
#141=ORIENTED_EDGE('',*,*,#286,.F.);
#142=ORIENTED_EDGE('',*,*,#287,.T.);
#143=ORIENTED_EDGE('',*,*,#282,.F.);
#144=ORIENTED_EDGE('',*,*,#288,.F.);
#145=ORIENTED_EDGE('',*,*,#289,.T.);
#146=ORIENTED_EDGE('',*,*,#290,.T.);
#147=ORIENTED_EDGE('',*,*,#291,.F.);
#148=ORIENTED_EDGE('',*,*,#292,.F.);
#149=ORIENTED_EDGE('',*,*,#293,.T.);
#150=ORIENTED_EDGE('',*,*,#294,.F.);
#151=ORIENTED_EDGE('',*,*,#295,.F.);
#152=ORIENTED_EDGE('',*,*,#296,.T.);
#153=ORIENTED_EDGE('',*,*,#297,.F.);
#154=ORIENTED_EDGE('',*,*,#298,.F.);
#155=ORIENTED_EDGE('',*,*,#290,.F.);
#156=ORIENTED_EDGE('',*,*,#299,.T.);
#157=ORIENTED_EDGE('',*,*,#300,.T.);
#158=ORIENTED_EDGE('',*,*,#301,.F.);
#159=ORIENTED_EDGE('',*,*,#300,.F.);
#160=ORIENTED_EDGE('',*,*,#302,.T.);
#161=ORIENTED_EDGE('',*,*,#303,.T.);
#162=ORIENTED_EDGE('',*,*,#304,.T.);
#163=ORIENTED_EDGE('',*,*,#303,.F.);
#164=ORIENTED_EDGE('',*,*,#305,.F.);
#165=ORIENTED_EDGE('',*,*,#306,.T.);
#166=ORIENTED_EDGE('',*,*,#307,.F.);
#167=ORIENTED_EDGE('',*,*,#306,.F.);
#168=ORIENTED_EDGE('',*,*,#308,.T.);
#169=ORIENTED_EDGE('',*,*,#309,.T.);
#170=ORIENTED_EDGE('',*,*,#310,.F.);
#171=ORIENTED_EDGE('',*,*,#309,.F.);
#172=ORIENTED_EDGE('',*,*,#311,.T.);
#173=ORIENTED_EDGE('',*,*,#292,.T.);
#174=ORIENTED_EDGE('',*,*,#312,.F.);
#175=ORIENTED_EDGE('',*,*,#313,.T.);
#176=ORIENTED_EDGE('',*,*,#314,.T.);
#177=ORIENTED_EDGE('',*,*,#315,.T.);
#178=ORIENTED_EDGE('',*,*,#316,.F.);
#179=ORIENTED_EDGE('',*,*,#289,.F.);
#180=ORIENTED_EDGE('',*,*,#317,.T.);
#181=ORIENTED_EDGE('',*,*,#271,.T.);
#182=ORIENTED_EDGE('',*,*,#293,.F.);
#183=ORIENTED_EDGE('',*,*,#311,.F.);
#184=ORIENTED_EDGE('',*,*,#308,.F.);
#185=ORIENTED_EDGE('',*,*,#305,.T.);
#186=ORIENTED_EDGE('',*,*,#302,.F.);
#187=ORIENTED_EDGE('',*,*,#299,.F.);
#188=ORIENTED_EDGE('',*,*,#272,.T.);
#189=ORIENTED_EDGE('',*,*,#317,.F.);
#190=ORIENTED_EDGE('',*,*,#288,.T.);
#191=ORIENTED_EDGE('',*,*,#286,.T.);
#192=ORIENTED_EDGE('',*,*,#281,.T.);
#193=ORIENTED_EDGE('',*,*,#278,.T.);
#194=ORIENTED_EDGE('',*,*,#318,.F.);
#195=ORIENTED_EDGE('',*,*,#287,.F.);
#196=ORIENTED_EDGE('',*,*,#316,.T.);
#197=ORIENTED_EDGE('',*,*,#270,.F.);
#198=ORIENTED_EDGE('',*,*,#319,.T.);
#199=ORIENTED_EDGE('',*,*,#294,.T.);
#200=ORIENTED_EDGE('',*,*,#301,.T.);
#201=ORIENTED_EDGE('',*,*,#304,.F.);
#202=ORIENTED_EDGE('',*,*,#307,.T.);
#203=ORIENTED_EDGE('',*,*,#310,.T.);
#204=ORIENTED_EDGE('',*,*,#320,.F.);
#205=ORIENTED_EDGE('',*,*,#321,.F.);
#206=ORIENTED_EDGE('',*,*,#322,.F.);
#207=ORIENTED_EDGE('',*,*,#323,.F.);
#208=ORIENTED_EDGE('',*,*,#324,.F.);
#209=ORIENTED_EDGE('',*,*,#325,.F.);
#210=ORIENTED_EDGE('',*,*,#326,.F.);
#211=ORIENTED_EDGE('',*,*,#327,.T.);
#212=ORIENTED_EDGE('',*,*,#328,.F.);
#213=ORIENTED_EDGE('',*,*,#329,.T.);
#214=ORIENTED_EDGE('',*,*,#330,.T.);
#215=ORIENTED_EDGE('',*,*,#314,.F.);
#216=ORIENTED_EDGE('',*,*,#331,.F.);
#217=ORIENTED_EDGE('',*,*,#332,.T.);
#218=ORIENTED_EDGE('',*,*,#333,.F.);
#219=ORIENTED_EDGE('',*,*,#296,.F.);
#220=ORIENTED_EDGE('',*,*,#327,.F.);
#221=ORIENTED_EDGE('',*,*,#276,.F.);
#222=ORIENTED_EDGE('',*,*,#334,.T.);
#223=ORIENTED_EDGE('',*,*,#335,.T.);
#224=ORIENTED_EDGE('',*,*,#329,.F.);
#225=ORIENTED_EDGE('',*,*,#336,.F.);
#226=ORIENTED_EDGE('',*,*,#337,.T.);
#227=ORIENTED_EDGE('',*,*,#284,.T.);
#228=ORIENTED_EDGE('',*,*,#333,.T.);
#229=ORIENTED_EDGE('',*,*,#338,.F.);
#230=ORIENTED_EDGE('',*,*,#339,.F.);
#231=ORIENTED_EDGE('',*,*,#297,.T.);
#232=ORIENTED_EDGE('',*,*,#332,.F.);
#233=ORIENTED_EDGE('',*,*,#340,.F.);
#234=ORIENTED_EDGE('',*,*,#341,.T.);
#235=ORIENTED_EDGE('',*,*,#338,.T.);
#236=ORIENTED_EDGE('',*,*,#331,.T.);
#237=ORIENTED_EDGE('',*,*,#313,.F.);
#238=ORIENTED_EDGE('',*,*,#342,.F.);
#239=ORIENTED_EDGE('',*,*,#340,.T.);
#240=ORIENTED_EDGE('',*,*,#328,.T.);
#241=ORIENTED_EDGE('',*,*,#335,.F.);
#242=ORIENTED_EDGE('',*,*,#343,.F.);
#243=ORIENTED_EDGE('',*,*,#336,.T.);
#244=ORIENTED_EDGE('',*,*,#291,.T.);
#245=ORIENTED_EDGE('',*,*,#298,.T.);
#246=ORIENTED_EDGE('',*,*,#339,.T.);
#247=ORIENTED_EDGE('',*,*,#341,.F.);
#248=ORIENTED_EDGE('',*,*,#342,.T.);
#249=ORIENTED_EDGE('',*,*,#312,.T.);
#250=ORIENTED_EDGE('',*,*,#334,.F.);
#251=ORIENTED_EDGE('',*,*,#275,.F.);
#252=ORIENTED_EDGE('',*,*,#280,.F.);
#253=ORIENTED_EDGE('',*,*,#285,.F.);
#254=ORIENTED_EDGE('',*,*,#337,.F.);
#255=ORIENTED_EDGE('',*,*,#343,.T.);
#256=ORIENTED_EDGE('',*,*,#319,.F.);
#257=ORIENTED_EDGE('',*,*,#277,.F.);
#258=ORIENTED_EDGE('',*,*,#326,.T.);
#259=ORIENTED_EDGE('',*,*,#295,.T.);
#260=ORIENTED_EDGE('',*,*,#318,.T.);
#261=ORIENTED_EDGE('',*,*,#315,.F.);
#262=ORIENTED_EDGE('',*,*,#330,.F.);
#263=ORIENTED_EDGE('',*,*,#283,.T.);
#264=ORIENTED_EDGE('',*,*,#325,.T.);
#265=ORIENTED_EDGE('',*,*,#320,.T.);
#266=ORIENTED_EDGE('',*,*,#324,.T.);
#267=ORIENTED_EDGE('',*,*,#321,.T.);
#268=ORIENTED_EDGE('',*,*,#323,.T.);
#269=ORIENTED_EDGE('',*,*,#322,.T.);
#270=EDGE_CURVE('',#344,#345,#394,.T.);
#271=EDGE_CURVE('',#346,#345,#26,.T.);
#272=EDGE_CURVE('',#347,#346,#395,.T.);
#273=EDGE_CURVE('',#347,#344,#27,.T.);
#274=EDGE_CURVE('',#348,#349,#28,.T.);
#275=EDGE_CURVE('',#349,#350,#29,.T.);
#276=EDGE_CURVE('',#350,#351,#30,.T.);
#277=EDGE_CURVE('',#351,#344,#31,.T.);
#278=EDGE_CURVE('',#348,#347,#32,.T.);
#279=EDGE_CURVE('',#352,#353,#33,.T.);
#280=EDGE_CURVE('',#353,#349,#396,.T.);
#281=EDGE_CURVE('',#352,#348,#397,.T.);
#282=EDGE_CURVE('',#354,#355,#34,.T.);
#283=EDGE_CURVE('',#356,#355,#35,.T.);
#284=EDGE_CURVE('',#357,#356,#36,.T.);
#285=EDGE_CURVE('',#357,#353,#37,.T.);
#286=EDGE_CURVE('',#354,#352,#38,.T.);
#287=EDGE_CURVE('',#358,#355,#398,.T.);
#288=EDGE_CURVE('',#359,#354,#399,.T.);
#289=EDGE_CURVE('',#359,#358,#39,.T.);
#290=EDGE_CURVE('',#360,#361,#40,.T.);
#291=EDGE_CURVE('',#362,#361,#400,.T.);
#292=EDGE_CURVE('',#363,#362,#41,.T.);
#293=EDGE_CURVE('',#363,#360,#401,.T.);
#294=EDGE_CURVE('',#364,#365,#42,.T.);
#295=EDGE_CURVE('',#366,#364,#43,.T.);
#296=EDGE_CURVE('',#366,#367,#44,.T.);
#297=EDGE_CURVE('',#368,#367,#45,.T.);
#298=EDGE_CURVE('',#361,#368,#46,.T.);
#299=EDGE_CURVE('',#360,#369,#47,.T.);
#300=EDGE_CURVE('',#369,#365,#48,.T.);
#301=EDGE_CURVE('',#365,#370,#402,.T.);
#302=EDGE_CURVE('',#369,#371,#403,.T.);
#303=EDGE_CURVE('',#371,#370,#49,.T.);
#304=EDGE_CURVE('',#372,#370,#50,.T.);
#305=EDGE_CURVE('',#373,#371,#51,.T.);
#306=EDGE_CURVE('',#373,#372,#52,.T.);
#307=EDGE_CURVE('',#372,#374,#404,.T.);
#308=EDGE_CURVE('',#373,#375,#405,.T.);
#309=EDGE_CURVE('',#375,#374,#53,.T.);
#310=EDGE_CURVE('',#374,#376,#54,.T.);
#311=EDGE_CURVE('',#375,#363,#55,.T.);
#312=EDGE_CURVE('',#377,#362,#56,.T.);
#313=EDGE_CURVE('',#377,#378,#57,.T.);
#314=EDGE_CURVE('',#378,#379,#58,.T.);
#315=EDGE_CURVE('',#379,#376,#59,.T.);
#316=EDGE_CURVE('',#358,#345,#60,.T.);
#317=EDGE_CURVE('',#359,#346,#61,.T.);
#318=EDGE_CURVE('',#355,#376,#62,.T.);
#319=EDGE_CURVE('',#344,#364,#63,.T.);
#320=EDGE_CURVE('',#380,#380,#406,.T.);
#321=EDGE_CURVE('',#381,#381,#407,.T.);
#322=EDGE_CURVE('',#382,#382,#408,.T.);
#323=EDGE_CURVE('',#383,#383,#409,.F.);
#324=EDGE_CURVE('',#384,#384,#410,.F.);
#325=EDGE_CURVE('',#385,#385,#411,.F.);
#326=EDGE_CURVE('',#351,#366,#64,.T.);
#327=EDGE_CURVE('',#351,#386,#412,.T.);
#328=EDGE_CURVE('',#387,#386,#65,.T.);
#329=EDGE_CURVE('',#387,#356,#413,.T.);
#330=EDGE_CURVE('',#356,#379,#66,.T.);
#331=EDGE_CURVE('',#388,#378,#414,.T.);
#332=EDGE_CURVE('',#388,#389,#67,.T.);
#333=EDGE_CURVE('',#367,#389,#415,.T.);
#334=EDGE_CURVE('',#350,#390,#416,.T.);
#335=EDGE_CURVE('',#390,#386,#68,.T.);
#336=EDGE_CURVE('',#391,#387,#69,.T.);
#337=EDGE_CURVE('',#391,#357,#417,.T.);
#338=EDGE_CURVE('',#392,#389,#70,.T.);
#339=EDGE_CURVE('',#368,#392,#418,.T.);
#340=EDGE_CURVE('',#393,#388,#71,.T.);
#341=EDGE_CURVE('',#393,#392,#72,.T.);
#342=EDGE_CURVE('',#393,#377,#419,.T.);
#343=EDGE_CURVE('',#391,#390,#73,.T.);
#344=VERTEX_POINT('',#761);
#345=VERTEX_POINT('',#762);
#346=VERTEX_POINT('',#764);
#347=VERTEX_POINT('',#766);
#348=VERTEX_POINT('',#770);
#349=VERTEX_POINT('',#771);
#350=VERTEX_POINT('',#773);
#351=VERTEX_POINT('',#775);
#352=VERTEX_POINT('',#780);
#353=VERTEX_POINT('',#781);
#354=VERTEX_POINT('',#786);
#355=VERTEX_POINT('',#787);
#356=VERTEX_POINT('',#789);
#357=VERTEX_POINT('',#791);
#358=VERTEX_POINT('',#796);
#359=VERTEX_POINT('',#798);
#360=VERTEX_POINT('',#802);
#361=VERTEX_POINT('',#803);
#362=VERTEX_POINT('',#805);
#363=VERTEX_POINT('',#807);
#364=VERTEX_POINT('',#811);
#365=VERTEX_POINT('',#812);
#366=VERTEX_POINT('',#814);
#367=VERTEX_POINT('',#816);
#368=VERTEX_POINT('',#818);
#369=VERTEX_POINT('',#821);
#370=VERTEX_POINT('',#825);
#371=VERTEX_POINT('',#827);
#372=VERTEX_POINT('',#831);
#373=VERTEX_POINT('',#833);
#374=VERTEX_POINT('',#837);
#375=VERTEX_POINT('',#839);
#376=VERTEX_POINT('',#843);
#377=VERTEX_POINT('',#846);
#378=VERTEX_POINT('',#848);
#379=VERTEX_POINT('',#850);
#380=VERTEX_POINT('',#860);
#381=VERTEX_POINT('',#862);
#382=VERTEX_POINT('',#864);
#383=VERTEX_POINT('',#867);
#384=VERTEX_POINT('',#869);
#385=VERTEX_POINT('',#871);
#386=VERTEX_POINT('',#874);
#387=VERTEX_POINT('',#876);
#388=VERTEX_POINT('',#880);
#389=VERTEX_POINT('',#882);
#390=VERTEX_POINT('',#886);
#391=VERTEX_POINT('',#890);
#392=VERTEX_POINT('',#894);
#393=VERTEX_POINT('',#898);
#394=CIRCLE('',#550,0.000762);
#395=CIRCLE('',#551,0.000762);
#396=CIRCLE('',#554,0.000762);
#397=CIRCLE('',#555,0.000762);
#398=CIRCLE('',#558,0.000762);
#399=CIRCLE('',#559,0.000762);
#400=CIRCLE('',#561,0.0042291);
#401=CIRCLE('',#562,0.0042291);
#402=CIRCLE('',#565,0.00381);
#403=CIRCLE('',#566,0.00381);
#404=CIRCLE('',#569,0.00381);
#405=CIRCLE('',#570,0.00381);
#406=CIRCLE('',#575,0.00254);
#407=CIRCLE('',#576,0.00254);
#408=CIRCLE('',#577,0.00254);
#409=CIRCLE('',#579,0.00254);
#410=CIRCLE('',#580,0.00254);
#411=CIRCLE('',#581,0.00254);
#412=CIRCLE('',#582,0.000762);
#413=CIRCLE('',#583,0.000762);
#414=CIRCLE('',#584,0.00381);
#415=CIRCLE('',#585,0.00381);
#416=CIRCLE('',#587,0.000762);
#417=CIRCLE('',#589,0.000762);
#418=CIRCLE('',#591,0.00381);
#419=CIRCLE('',#594,0.00381);
#420=EDGE_LOOP('',(#122,#123,#124,#125));
#421=EDGE_LOOP('',(#126,#127,#128,#129,#130,#131));
#422=EDGE_LOOP('',(#132,#133,#134,#135));
#423=EDGE_LOOP('',(#136,#137,#138,#139,#140,#141));
#424=EDGE_LOOP('',(#142,#143,#144,#145));
#425=EDGE_LOOP('',(#146,#147,#148,#149));
#426=EDGE_LOOP('',(#150,#151,#152,#153,#154,#155,#156,#157));
#427=EDGE_LOOP('',(#158,#159,#160,#161));
#428=EDGE_LOOP('',(#162,#163,#164,#165));
#429=EDGE_LOOP('',(#166,#167,#168,#169));
#430=EDGE_LOOP('',(#170,#171,#172,#173,#174,#175,#176,#177));
#431=EDGE_LOOP('',(#178,#179,#180,#181));
#432=EDGE_LOOP('',(#182,#183,#184,#185,#186,#187));
#433=EDGE_LOOP('',(#188,#189,#190,#191,#192,#193));
#434=EDGE_LOOP('',(#194,#195,#196,#197,#198,#199,#200,#201,#202,#203));
#435=EDGE_LOOP('',(#204));
#436=EDGE_LOOP('',(#205));
#437=EDGE_LOOP('',(#206));
#438=EDGE_LOOP('',(#207));
#439=EDGE_LOOP('',(#208));
#440=EDGE_LOOP('',(#209));
#441=EDGE_LOOP('',(#210,#211,#212,#213,#214,#215,#216,#217,#218,#219));
#442=EDGE_LOOP('',(#220,#221,#222,#223));
#443=EDGE_LOOP('',(#224,#225,#226,#227));
#444=EDGE_LOOP('',(#228,#229,#230,#231));
#445=EDGE_LOOP('',(#232,#233,#234,#235));
#446=EDGE_LOOP('',(#236,#237,#238,#239));
#447=EDGE_LOOP('',(#240,#241,#242,#243));
#448=EDGE_LOOP('',(#244,#245,#246,#247,#248,#249));
#449=EDGE_LOOP('',(#250,#251,#252,#253,#254,#255));
#450=EDGE_LOOP('',(#256,#257,#258,#259));
#451=EDGE_LOOP('',(#260,#261,#262,#263));
#452=EDGE_LOOP('',(#264));
#453=EDGE_LOOP('',(#265));
#454=EDGE_LOOP('',(#266));
#455=EDGE_LOOP('',(#267));
#456=EDGE_LOOP('',(#268));
#457=EDGE_LOOP('',(#269));
#458=FACE_BOUND('',#420,.T.);
#459=FACE_BOUND('',#421,.T.);
#460=FACE_BOUND('',#422,.T.);
#461=FACE_BOUND('',#423,.T.);
#462=FACE_BOUND('',#424,.T.);
#463=FACE_BOUND('',#425,.T.);
#464=FACE_BOUND('',#426,.T.);
#465=FACE_BOUND('',#427,.T.);
#466=FACE_BOUND('',#428,.T.);
#467=FACE_BOUND('',#429,.T.);
#468=FACE_BOUND('',#430,.T.);
#469=FACE_BOUND('',#431,.T.);
#470=FACE_BOUND('',#432,.T.);
#471=FACE_BOUND('',#433,.T.);
#472=FACE_BOUND('',#434,.T.);
#473=FACE_BOUND('',#435,.T.);
#474=FACE_BOUND('',#436,.T.);
#475=FACE_BOUND('',#437,.T.);
#476=FACE_BOUND('',#438,.T.);
#477=FACE_BOUND('',#439,.T.);
#478=FACE_BOUND('',#440,.T.);
#479=FACE_BOUND('',#441,.T.);
#480=FACE_BOUND('',#442,.T.);
#481=FACE_BOUND('',#443,.T.);
#482=FACE_BOUND('',#444,.T.);
#483=FACE_BOUND('',#445,.T.);
#484=FACE_BOUND('',#446,.T.);
#485=FACE_BOUND('',#447,.T.);
#486=FACE_BOUND('',#448,.T.);
#487=FACE_BOUND('',#449,.T.);
#488=FACE_BOUND('',#450,.T.);
#489=FACE_BOUND('',#451,.T.);
#490=FACE_BOUND('',#452,.T.);
#491=FACE_BOUND('',#453,.T.);
#492=FACE_BOUND('',#454,.T.);
#493=FACE_BOUND('',#455,.T.);
#494=FACE_BOUND('',#456,.T.);
#495=FACE_BOUND('',#457,.T.);
#496=CYLINDRICAL_SURFACE('',#549,0.000762);
#497=CYLINDRICAL_SURFACE('',#553,0.000762);
#498=CYLINDRICAL_SURFACE('',#557,0.000762);
#499=CYLINDRICAL_SURFACE('',#560,0.0042291);
#500=CYLINDRICAL_SURFACE('',#564,0.00381);
#501=CYLINDRICAL_SURFACE('',#568,0.00381);
#502=CYLINDRICAL_SURFACE('',#586,0.000762);
#503=CYLINDRICAL_SURFACE('',#588,0.000762);
#504=CYLINDRICAL_SURFACE('',#590,0.00381);
#505=CYLINDRICAL_SURFACE('',#593,0.00381);
#506=CYLINDRICAL_SURFACE('',#599,0.00254);
#507=CYLINDRICAL_SURFACE('',#600,0.00254);
#508=CYLINDRICAL_SURFACE('',#601,0.00254);
#509=ADVANCED_FACE('',(#458),#496,.F.);
#510=ADVANCED_FACE('',(#459),#12,.F.);
#511=ADVANCED_FACE('',(#460),#497,.F.);
#512=ADVANCED_FACE('',(#461),#13,.F.);
#513=ADVANCED_FACE('',(#462),#498,.F.);
#514=ADVANCED_FACE('',(#463),#499,.T.);
#515=ADVANCED_FACE('',(#464),#14,.T.);
#516=ADVANCED_FACE('',(#465),#500,.T.);
#517=ADVANCED_FACE('',(#466),#15,.F.);
#518=ADVANCED_FACE('',(#467),#501,.T.);
#519=ADVANCED_FACE('',(#468),#16,.T.);
#520=ADVANCED_FACE('',(#469),#17,.T.);
#521=ADVANCED_FACE('',(#470,#471),#18,.F.);
#522=ADVANCED_FACE('',(#472,#473,#474,#475),#19,.T.);
#523=ADVANCED_FACE('',(#476,#477,#478,#479),#20,.F.);
#524=ADVANCED_FACE('',(#480),#502,.F.);
#525=ADVANCED_FACE('',(#481),#503,.F.);
#526=ADVANCED_FACE('',(#482),#504,.T.);
#527=ADVANCED_FACE('',(#483),#21,.T.);
#528=ADVANCED_FACE('',(#484),#505,.T.);
#529=ADVANCED_FACE('',(#485),#22,.F.);
#530=ADVANCED_FACE('',(#486,#487),#23,.T.);
#531=ADVANCED_FACE('',(#488),#24,.T.);
#532=ADVANCED_FACE('',(#489),#25,.F.);
#533=ADVANCED_FACE('',(#490,#491),#506,.T.);
#534=ADVANCED_FACE('',(#492,#493),#507,.T.);
#535=ADVANCED_FACE('',(#494,#495),#508,.T.);
#536=CLOSED_SHELL('',(#509,#510,#511,#512,#513,#514,#515,#516,#517,#518,
#519,#520,#521,#522,#523,#524,#525,#526,#527,#528,#529,#530,#531,#532,#533,
#534,#535));
#537=STYLED_ITEM('',(#538),#545);
#538=PRESENTATION_STYLE_ASSIGNMENT((#539));
#539=SURFACE_STYLE_USAGE(.BOTH.,#540);
#540=SURFACE_SIDE_STYLE('',(#541));
#541=SURFACE_STYLE_FILL_AREA(#542);
#542=FILL_AREA_STYLE('',(#543));
#543=FILL_AREA_STYLE_COLOUR('',#544);
#544=COLOUR_RGB('',1.,0.274509803921568,0.274509803921568);
#545=MANIFOLD_SOLID_BREP('Part 1',#536);
#546=SHAPE_DEFINITION_REPRESENTATION(#916,#547);
#547=SHAPE_REPRESENTATION('Part 1',(#548),#911);
#548=AXIS2_PLACEMENT_3D('',#758,#602,#603);
#549=AXIS2_PLACEMENT_3D('',#759,#604,#605);
#550=AXIS2_PLACEMENT_3D('',#760,#606,#607);
#551=AXIS2_PLACEMENT_3D('',#765,#609,#610);
#552=AXIS2_PLACEMENT_3D('',#768,#612,#613);
#553=AXIS2_PLACEMENT_3D('',#778,#619,#620);
#554=AXIS2_PLACEMENT_3D('',#782,#622,#623);
#555=AXIS2_PLACEMENT_3D('',#783,#624,#625);
#556=AXIS2_PLACEMENT_3D('',#784,#626,#627);
#557=AXIS2_PLACEMENT_3D('',#794,#633,#634);
#558=AXIS2_PLACEMENT_3D('',#795,#635,#636);
#559=AXIS2_PLACEMENT_3D('',#797,#637,#638);
#560=AXIS2_PLACEMENT_3D('',#800,#640,#641);
#561=AXIS2_PLACEMENT_3D('',#804,#643,#644);
#562=AXIS2_PLACEMENT_3D('',#808,#646,#647);
#563=AXIS2_PLACEMENT_3D('',#809,#648,#649);
#564=AXIS2_PLACEMENT_3D('',#823,#657,#658);
#565=AXIS2_PLACEMENT_3D('',#824,#659,#660);
#566=AXIS2_PLACEMENT_3D('',#826,#661,#662);
#567=AXIS2_PLACEMENT_3D('',#829,#664,#665);
#568=AXIS2_PLACEMENT_3D('',#835,#669,#670);
#569=AXIS2_PLACEMENT_3D('',#836,#671,#672);
#570=AXIS2_PLACEMENT_3D('',#838,#673,#674);
#571=AXIS2_PLACEMENT_3D('',#841,#676,#677);
#572=AXIS2_PLACEMENT_3D('',#852,#684,#685);
#573=AXIS2_PLACEMENT_3D('',#855,#688,#689);
#574=AXIS2_PLACEMENT_3D('',#856,#690,#691);
#575=AXIS2_PLACEMENT_3D('',#859,#694,#695);
#576=AXIS2_PLACEMENT_3D('',#861,#696,#697);
#577=AXIS2_PLACEMENT_3D('',#863,#698,#699);
#578=AXIS2_PLACEMENT_3D('',#865,#700,#701);
#579=AXIS2_PLACEMENT_3D('',#866,#702,#703);
#580=AXIS2_PLACEMENT_3D('',#868,#704,#705);
#581=AXIS2_PLACEMENT_3D('',#870,#706,#707);
#582=AXIS2_PLACEMENT_3D('',#873,#709,#710);
#583=AXIS2_PLACEMENT_3D('',#877,#712,#713);
#584=AXIS2_PLACEMENT_3D('',#879,#715,#716);
#585=AXIS2_PLACEMENT_3D('',#883,#718,#719);
#586=AXIS2_PLACEMENT_3D('',#884,#720,#721);
#587=AXIS2_PLACEMENT_3D('',#885,#722,#723);
#588=AXIS2_PLACEMENT_3D('',#888,#725,#726);
#589=AXIS2_PLACEMENT_3D('',#891,#728,#729);
#590=AXIS2_PLACEMENT_3D('',#892,#730,#731);
#591=AXIS2_PLACEMENT_3D('',#895,#733,#734);
#592=AXIS2_PLACEMENT_3D('',#896,#735,#736);
#593=AXIS2_PLACEMENT_3D('',#900,#739,#740);
#594=AXIS2_PLACEMENT_3D('',#901,#741,#742);
#595=AXIS2_PLACEMENT_3D('',#902,#743,#744);
#596=AXIS2_PLACEMENT_3D('',#904,#746,#747);
#597=AXIS2_PLACEMENT_3D('',#905,#748,#749);
#598=AXIS2_PLACEMENT_3D('',#906,#750,#751);
#599=AXIS2_PLACEMENT_3D('',#907,#752,#753);
#600=AXIS2_PLACEMENT_3D('',#908,#754,#755);
#601=AXIS2_PLACEMENT_3D('',#909,#756,#757);
#602=DIRECTION('',(0.,0.,1.));
#603=DIRECTION('',(1.,0.,0.));
#604=DIRECTION('',(0.,0.,1.));
#605=DIRECTION('',(1.,0.,0.));
#606=DIRECTION('',(0.,0.,1.));
#607=DIRECTION('',(1.,0.,0.));
#608=DIRECTION('',(0.,0.,1.));
#609=DIRECTION('',(0.,0.,1.));
#610=DIRECTION('',(1.,0.,0.));
#611=DIRECTION('',(0.,0.,1.));
#612=DIRECTION('',(0.987381651146551,-0.158358690885947,0.));
#613=DIRECTION('',(0.158358690885947,0.987381651146551,0.));
#614=DIRECTION('',(0.,0.,1.));
#615=DIRECTION('',(0.158358690885947,0.987381651146551,0.));
#616=DIRECTION('',(0.,0.,-1.));
#617=DIRECTION('',(0.,0.,-1.));
#618=DIRECTION('',(0.158358690885947,0.987381651146551,0.));
#619=DIRECTION('',(0.,0.,1.));
#620=DIRECTION('',(1.,0.,0.));
#621=DIRECTION('',(0.,0.,1.));
#622=DIRECTION('',(0.,0.,1.));
#623=DIRECTION('',(1.,0.,0.));
#624=DIRECTION('',(0.,0.,1.));
#625=DIRECTION('',(1.,0.,0.));
#626=DIRECTION('',(-0.70461822124631,-0.709586613661565,0.));
#627=DIRECTION('',(0.709586613661565,-0.70461822124631,0.));
#628=DIRECTION('',(0.,0.,1.));
#629=DIRECTION('',(0.,0.,-1.));
#630=DIRECTION('',(0.,0.,-1.));
#631=DIRECTION('',(0.709586613661565,-0.70461822124631,0.));
#632=DIRECTION('',(0.709586613661565,-0.70461822124631,0.));
#633=DIRECTION('',(0.,0.,1.));
#634=DIRECTION('',(1.,0.,0.));
#635=DIRECTION('',(0.,0.,1.));
#636=DIRECTION('',(1.,0.,0.));
#637=DIRECTION('',(0.,0.,1.));
#638=DIRECTION('',(1.,0.,0.));
#639=DIRECTION('',(0.,0.,1.));
#640=DIRECTION('',(0.,0.,1.));
#641=DIRECTION('',(1.,0.,0.));
#642=DIRECTION('',(0.,0.,1.));
#643=DIRECTION('',(0.,0.,1.));
#644=DIRECTION('',(1.,0.,0.));
#645=DIRECTION('',(0.,0.,1.));
#646=DIRECTION('',(0.,0.,1.));
#647=DIRECTION('',(1.,0.,0.));
#648=DIRECTION('',(0.989418725093632,-0.145088202256738,0.));
#649=DIRECTION('',(0.145088202256738,0.989418725093632,0.));
#650=DIRECTION('',(0.145088202256738,0.989418725093632,0.));
#651=DIRECTION('',(0.,0.,-1.));
#652=DIRECTION('',(0.145088202256738,0.989418725093632,0.));
#653=DIRECTION('',(0.,0.,-1.));
#654=DIRECTION('',(0.145088202256738,0.989418725093632,0.));
#655=DIRECTION('',(0.145088202256738,0.989418725093632,0.));
#656=DIRECTION('',(0.,0.,1.));
#657=DIRECTION('',(0.,0.,1.));
#658=DIRECTION('',(1.,0.,0.));
#659=DIRECTION('',(0.,0.,1.));
#660=DIRECTION('',(1.,0.,0.));
#661=DIRECTION('',(0.,0.,1.));
#662=DIRECTION('',(1.,0.,0.));
#663=DIRECTION('',(0.,0.,1.));
#664=DIRECTION('',(0.0352819523705213,-0.9993773981019,0.));
#665=DIRECTION('',(0.999377398101901,0.0352819523705213,0.));
#666=DIRECTION('',(0.9993773981019,0.0352819523705213,0.));
#667=DIRECTION('',(0.9993773981019,0.0352819523705213,0.));
#668=DIRECTION('',(0.,0.,1.));
#669=DIRECTION('',(0.,0.,1.));
#670=DIRECTION('',(1.,0.,0.));
#671=DIRECTION('',(0.,0.,1.));
#672=DIRECTION('',(1.,0.,0.));
#673=DIRECTION('',(0.,0.,1.));
#674=DIRECTION('',(1.,0.,0.));
#675=DIRECTION('',(0.,0.,1.));
#676=DIRECTION('',(-0.711660798032486,-0.702523244130587,0.));
#677=DIRECTION('',(0.702523244130587,-0.711660798032487,0.));
#678=DIRECTION('',(0.702523244130587,-0.711660798032487,0.));
#679=DIRECTION('',(0.702523244130587,-0.711660798032487,0.));
#680=DIRECTION('',(0.702523244130587,-0.711660798032487,0.));
#681=DIRECTION('',(0.,0.,-1.));
#682=DIRECTION('',(0.702523244130587,-0.711660798032487,0.));
#683=DIRECTION('',(0.,0.,-1.));
#684=DIRECTION('',(0.0352819523705215,-0.9993773981019,0.));
#685=DIRECTION('',(0.999377398101901,0.0352819523705215,0.));
#686=DIRECTION('',(0.9993773981019,0.0352819523705215,0.));
#687=DIRECTION('',(0.9993773981019,0.0352819523705215,0.));
#688=DIRECTION('',(0.,0.,1.));
#689=DIRECTION('',(1.,0.,0.));
#690=DIRECTION('',(0.,0.,1.));
#691=DIRECTION('',(1.,0.,0.));
#692=DIRECTION('',(-0.084781808667533,-0.996399540806328,0.));
#693=DIRECTION('',(0.654509915752018,-0.756053417545537,0.));
#694=DIRECTION('',(0.,0.,1.));
#695=DIRECTION('',(1.,0.,0.));
#696=DIRECTION('',(0.,0.,1.));
#697=DIRECTION('',(1.,0.,0.));
#698=DIRECTION('',(0.,0.,1.));
#699=DIRECTION('',(1.,0.,0.));
#700=DIRECTION('',(0.,0.,1.));
#701=DIRECTION('',(1.,0.,0.));
#702=DIRECTION('',(0.,0.,1.));
#703=DIRECTION('',(1.,0.,0.));
#704=DIRECTION('',(0.,0.,1.));
#705=DIRECTION('',(1.,0.,0.));
#706=DIRECTION('',(0.,0.,1.));
#707=DIRECTION('',(1.,0.,0.));
#708=DIRECTION('',(0.654509915752018,-0.756053417545537,0.));
#709=DIRECTION('',(0.,0.,1.));
#710=DIRECTION('',(1.,0.,0.));
#711=DIRECTION('',(0.9993773981019,0.0352819523705215,0.));
#712=DIRECTION('',(0.,0.,1.));
#713=DIRECTION('',(1.,0.,0.));
#714=DIRECTION('',(-0.084781808667533,-0.996399540806328,0.));
#715=DIRECTION('',(0.,0.,1.));
#716=DIRECTION('',(1.,0.,0.));
#717=DIRECTION('',(0.9993773981019,0.0352819523705213,0.));
#718=DIRECTION('',(0.,0.,1.));
#719=DIRECTION('',(1.,0.,0.));
#720=DIRECTION('',(0.,0.,-1.));
#721=DIRECTION('',(-1.,0.,0.));
#722=DIRECTION('',(0.,0.,1.));
#723=DIRECTION('',(1.,0.,0.));
#724=DIRECTION('',(0.,0.,-1.));
#725=DIRECTION('',(0.,0.,-1.));
#726=DIRECTION('',(-1.,0.,0.));
#727=DIRECTION('',(0.,0.,-1.));
#728=DIRECTION('',(0.,0.,1.));
#729=DIRECTION('',(1.,0.,0.));
#730=DIRECTION('',(0.,0.,-1.));
#731=DIRECTION('',(-1.,0.,0.));
#732=DIRECTION('',(0.,0.,-1.));
#733=DIRECTION('',(0.,0.,1.));
#734=DIRECTION('',(1.,0.,0.));
#735=DIRECTION('',(-0.0352819523705213,0.9993773981019,0.));
#736=DIRECTION('',(-0.999377398101901,-0.0352819523705213,0.));
#737=DIRECTION('',(0.,0.,-1.));
#738=DIRECTION('',(0.9993773981019,0.0352819523705213,0.));
#739=DIRECTION('',(0.,0.,-1.));
#740=DIRECTION('',(-1.,0.,0.));
#741=DIRECTION('',(0.,0.,1.));
#742=DIRECTION('',(1.,0.,0.));
#743=DIRECTION('',(-0.0352819523705215,0.9993773981019,0.));
#744=DIRECTION('',(-0.999377398101901,-0.0352819523705215,0.));
#745=DIRECTION('',(0.9993773981019,0.0352819523705215,0.));
#746=DIRECTION('',(0.,0.,1.));
#747=DIRECTION('',(1.,0.,0.));
#748=DIRECTION('',(0.756053417545537,0.654509915752018,0.));
#749=DIRECTION('',(-0.654509915752018,0.756053417545538,0.));
#750=DIRECTION('',(0.996399540806328,-0.084781808667533,0.));
#751=DIRECTION('',(0.084781808667533,0.996399540806328,0.));
#752=DIRECTION('',(0.,0.,-1.));
#753=DIRECTION('',(-1.,0.,0.));
#754=DIRECTION('',(0.,0.,-1.));
#755=DIRECTION('',(-1.,0.,0.));
#756=DIRECTION('',(0.,0.,-1.));
#757=DIRECTION('',(-1.,0.,0.));
#758=CARTESIAN_POINT('',(0.,0.,0.));
#759=CARTESIAN_POINT('',(-0.0109961072541843,-0.0212232811983532,-0.003));
#760=CARTESIAN_POINT('',(-0.0109961072541843,-0.0212232811983532,0.));
#761=CARTESIAN_POINT('',(-0.0102437224360107,-0.0213439505208083,0.));
#762=CARTESIAN_POINT('',(-0.0110229921018907,-0.0204617556209996,0.));
#763=CARTESIAN_POINT('',(-0.0110229921018907,-0.0204617556209996,-0.003));
#764=CARTESIAN_POINT('',(-0.0110229921018907,-0.0204617556209996,-0.003));
#765=CARTESIAN_POINT('',(-0.0109961072541843,-0.0212232811983532,-0.003));
#766=CARTESIAN_POINT('',(-0.0102437224360107,-0.0213439505208083,-0.003));
#767=CARTESIAN_POINT('',(-0.0102437224360107,-0.0213439505208083,-0.003));
#768=CARTESIAN_POINT('',(-0.0115715386605583,-0.0296230122437751,-0.003));
#769=CARTESIAN_POINT('',(-0.0128993548851058,-0.037902073966742,-0.003));
#770=CARTESIAN_POINT('',(-0.0128993548851058,-0.037902073966742,-0.003));
#771=CARTESIAN_POINT('',(-0.0128993548851058,-0.037902073966742,0.01));
#772=CARTESIAN_POINT('',(-0.0115715386605583,-0.0296230122437751,0.01));
#773=CARTESIAN_POINT('',(-0.0102437224360107,-0.0213439505208083,0.01));
#774=CARTESIAN_POINT('',(-0.0102437224360107,-0.0213439505208083,0.01));
#775=CARTESIAN_POINT('',(-0.0102437224360107,-0.0213439505208083,0.007));
#776=CARTESIAN_POINT('',(-0.0102437224360107,-0.0213439505208083,0.007));
#777=CARTESIAN_POINT('',(-0.0115715386605583,-0.0296230122437751,-0.003));
#778=CARTESIAN_POINT('',(-0.0136517397032795,-0.0377814046442869,-0.003));
#779=CARTESIAN_POINT('',(-0.0141886587878692,-0.0383221096438969,-0.003));
#780=CARTESIAN_POINT('',(-0.0141886587878692,-0.0383221096438969,-0.003));
#781=CARTESIAN_POINT('',(-0.0141886587878692,-0.0383221096438969,0.01));
#782=CARTESIAN_POINT('',(-0.0136517397032795,-0.0377814046442869,0.01));
#783=CARTESIAN_POINT('',(-0.0136517397032795,-0.0377814046442869,-0.003));
#784=CARTESIAN_POINT('',(-0.0221942676715547,-0.0303725545324945,-0.003));
#785=CARTESIAN_POINT('',(-0.03019987655524,-0.022422999421092,-0.003));
#786=CARTESIAN_POINT('',(-0.03019987655524,-0.022422999421092,-0.003));
#787=CARTESIAN_POINT('',(-0.03019987655524,-0.022422999421092,0.));
#788=CARTESIAN_POINT('',(-0.03019987655524,-0.022422999421092,0.007));
#789=CARTESIAN_POINT('',(-0.03019987655524,-0.022422999421092,0.007));
#790=CARTESIAN_POINT('',(-0.03019987655524,-0.022422999421092,0.01));
#791=CARTESIAN_POINT('',(-0.03019987655524,-0.022422999421092,0.01));
#792=CARTESIAN_POINT('',(-0.0221942676715547,-0.0303725545324945,0.01));
#793=CARTESIAN_POINT('',(-0.0221942676715547,-0.0303725545324945,-0.003));
#794=CARTESIAN_POINT('',(-0.0296629574706503,-0.0218822944214818,-0.003));
#795=CARTESIAN_POINT('',(-0.0296629574706503,-0.0218822944214818,0.));
#796=CARTESIAN_POINT('',(-0.0296898423183568,-0.0211207688441282,0.));
#797=CARTESIAN_POINT('',(-0.0296629574706503,-0.0218822944214818,-0.003));
#798=CARTESIAN_POINT('',(-0.0296898423183568,-0.0211207688441282,-0.003));
#799=CARTESIAN_POINT('',(-0.0296898423183568,-0.0211207688441282,-0.003));
#800=CARTESIAN_POINT('',(-0.0105488502267248,-0.047305756335224,-0.003));
#801=CARTESIAN_POINT('',(-0.00636449949643136,-0.0479193488513882,-0.003));
#802=CARTESIAN_POINT('',(-0.00636449949643136,-0.0479193488513882,-0.003));
#803=CARTESIAN_POINT('',(-0.00636449949643136,-0.0479193488513882,0.01));
#804=CARTESIAN_POINT('',(-0.0105488502267248,-0.047305756335224,0.01));
#805=CARTESIAN_POINT('',(-0.013558534907684,-0.0502767973869766,0.01));
#806=CARTESIAN_POINT('',(-0.013558534907684,-0.0502767973869766,-0.003));
#807=CARTESIAN_POINT('',(-0.013558534907684,-0.0502767973869766,-0.003));
#808=CARTESIAN_POINT('',(-0.0105488502267248,-0.047305756335224,-0.003));
#809=CARTESIAN_POINT('',(-0.00271669280358393,-0.023043389322725,-0.003));
#810=CARTESIAN_POINT('',(-0.00271669280358393,-0.023043389322725,0.));
#811=CARTESIAN_POINT('',(-0.00359390169197015,-0.029025453243071,0.));
#812=CARTESIAN_POINT('',(-0.00183948391519771,-0.0170613254023789,0.));
#813=CARTESIAN_POINT('',(-0.00359390169197015,-0.029025453243071,0.007));
#814=CARTESIAN_POINT('',(-0.00359390169197015,-0.029025453243071,0.007));
#815=CARTESIAN_POINT('',(-0.00271669280358393,-0.023043389322725,0.007));
#816=CARTESIAN_POINT('',(-0.00183948391519771,-0.0170613254023789,0.007));
#817=CARTESIAN_POINT('',(-0.00183948391519771,-0.0170613254023789,0.01));
#818=CARTESIAN_POINT('',(-0.00183948391519771,-0.0170613254023789,0.01));
#819=CARTESIAN_POINT('',(-0.00271669280358393,-0.023043389322725,0.01));
#820=CARTESIAN_POINT('',(-0.00271669280358393,-0.023043389322725,-0.003));
#821=CARTESIAN_POINT('',(-0.00183948391519771,-0.0170613254023789,-0.003));
#822=CARTESIAN_POINT('',(-0.00183948391519771,-0.0170613254023789,-0.003));
#823=CARTESIAN_POINT('',(-0.00560140800606607,-0.0164579787901034,-0.003));
#824=CARTESIAN_POINT('',(-0.00560140800606607,-0.0164579787901034,0.));
#825=CARTESIAN_POINT('',(-0.00573583224459787,-0.0126503509033352,0.));
#826=CARTESIAN_POINT('',(-0.00560140800606607,-0.0164579787901034,-0.003));
#827=CARTESIAN_POINT('',(-0.00573583224459787,-0.0126503509033352,-0.003));
#828=CARTESIAN_POINT('',(-0.00573583224459787,-0.0126503509033352,-0.003));
#829=CARTESIAN_POINT('',(-0.0144299159193855,-0.0129572862479826,-0.003));
#830=CARTESIAN_POINT('',(-0.0144299159193855,-0.0129572862479826,0.));
#831=CARTESIAN_POINT('',(-0.0405121669437477,-0.0138780922819246,0.));
#832=CARTESIAN_POINT('',(-0.0144299159193855,-0.0129572862479826,-0.003));
#833=CARTESIAN_POINT('',(-0.0405121669437477,-0.0138780922819246,-0.003));
#834=CARTESIAN_POINT('',(-0.0405121669437477,-0.0138780922819246,-0.003));
#835=CARTESIAN_POINT('',(-0.040377742705216,-0.0176857201686929,-0.003));
#836=CARTESIAN_POINT('',(-0.040377742705216,-0.0176857201686929,0.));
#837=CARTESIAN_POINT('',(-0.0430623381281644,-0.0203892451667434,0.));
#838=CARTESIAN_POINT('',(-0.040377742705216,-0.0176857201686929,-0.003));
#839=CARTESIAN_POINT('',(-0.0430623381281644,-0.0203892451667434,-0.003));
#840=CARTESIAN_POINT('',(-0.0430623381281644,-0.0203892451667434,-0.003));
#841=CARTESIAN_POINT('',(-0.0370617989297333,-0.0264678319612138,-0.003));
#842=CARTESIAN_POINT('',(-0.0370617989297333,-0.0264678319612138,0.));
#843=CARTESIAN_POINT('',(-0.0310612597313022,-0.0325464187556843,0.));
#844=CARTESIAN_POINT('',(-0.0370617989297333,-0.0264678319612138,-0.003));
#845=CARTESIAN_POINT('',(-0.0370617989297333,-0.0264678319612138,0.01));
#846=CARTESIAN_POINT('',(-0.0430623381281644,-0.0203892451667434,0.01));
#847=CARTESIAN_POINT('',(-0.0430623381281644,-0.0203892451667434,0.01));
#848=CARTESIAN_POINT('',(-0.0430623381281644,-0.0203892451667434,0.007));
#849=CARTESIAN_POINT('',(-0.0370617989297333,-0.0264678319612138,0.007));
#850=CARTESIAN_POINT('',(-0.0310612597313022,-0.0325464187556843,0.007));
#851=CARTESIAN_POINT('',(-0.0310612597313022,-0.0325464187556843,0.007));
#852=CARTESIAN_POINT('',(-0.0262724967177332,-0.0210001231051473,-0.003));
#853=CARTESIAN_POINT('',(-0.0262724967177332,-0.0210001231051473,0.));
#854=CARTESIAN_POINT('',(-0.0262724967177332,-0.0210001231051473,-0.003));
#855=CARTESIAN_POINT('',(-0.022989575355641,-0.0320914175626637,-0.003));
#856=CARTESIAN_POINT('',(-0.022989575355641,-0.0320914175626637,0.));
#857=CARTESIAN_POINT('',(-0.0306305681432711,-0.0274847090883882,0.));
#858=CARTESIAN_POINT('',(-0.00691881206399041,-0.0251847018819397,0.));
#859=CARTESIAN_POINT('',(-0.040377742705216,-0.0176857201686929,0.));
#860=CARTESIAN_POINT('',(-0.037837742705216,-0.0176857201686929,0.));
#861=CARTESIAN_POINT('',(-0.022989575355641,-0.0170718494793981,0.));
#862=CARTESIAN_POINT('',(-0.020449575355641,-0.0170718494793981,0.));
#863=CARTESIAN_POINT('',(-0.00560140800606616,-0.0164579787901034,0.));
#864=CARTESIAN_POINT('',(-0.00306140800606616,-0.0164579787901034,0.));
#865=CARTESIAN_POINT('',(-0.022989575355641,-0.0320914175626637,0.007));
#866=CARTESIAN_POINT('',(-0.00560140800606616,-0.0164579787901034,0.007));
#867=CARTESIAN_POINT('',(-0.00306140800606616,-0.0164579787901034,0.007));
#868=CARTESIAN_POINT('',(-0.022989575355641,-0.0170718494793981,0.007));
#869=CARTESIAN_POINT('',(-0.020449575355641,-0.0170718494793981,0.007));
#870=CARTESIAN_POINT('',(-0.040377742705216,-0.0176857201686929,0.007));
#871=CARTESIAN_POINT('',(-0.037837742705216,-0.0176857201686929,0.007));
#872=CARTESIAN_POINT('',(-0.00691881206399041,-0.0251847018819397,0.007));
#873=CARTESIAN_POINT('',(-0.0109961072541843,-0.0212232811983532,0.007));
#874=CARTESIAN_POINT('',(-0.0110229921018907,-0.0204617556209996,0.007));
#875=CARTESIAN_POINT('',(-0.0262724967177332,-0.0210001231051473,0.007));
#876=CARTESIAN_POINT('',(-0.0296898423183568,-0.0211207688441282,0.007));
#877=CARTESIAN_POINT('',(-0.0296629574706503,-0.0218822944214818,0.007));
#878=CARTESIAN_POINT('',(-0.0306305681432711,-0.0274847090883882,0.007));
#879=CARTESIAN_POINT('',(-0.040377742705216,-0.0176857201686929,0.007));
#880=CARTESIAN_POINT('',(-0.0405121669437477,-0.0138780922819246,0.007));
#881=CARTESIAN_POINT('',(-0.0144299159193855,-0.0129572862479826,0.007));
#882=CARTESIAN_POINT('',(-0.00573583224459787,-0.0126503509033352,0.007));
#883=CARTESIAN_POINT('',(-0.00560140800606607,-0.0164579787901034,0.007));
#884=CARTESIAN_POINT('',(-0.0109961072541843,-0.0212232811983532,0.01));
#885=CARTESIAN_POINT('',(-0.0109961072541843,-0.0212232811983532,0.01));
#886=CARTESIAN_POINT('',(-0.0110229921018907,-0.0204617556209996,0.01));
#887=CARTESIAN_POINT('',(-0.0110229921018907,-0.0204617556209996,0.01));
#888=CARTESIAN_POINT('',(-0.0296629574706503,-0.0218822944214818,0.01));
#889=CARTESIAN_POINT('',(-0.0296898423183568,-0.0211207688441282,0.01));
#890=CARTESIAN_POINT('',(-0.0296898423183568,-0.0211207688441282,0.01));
#891=CARTESIAN_POINT('',(-0.0296629574706503,-0.0218822944214818,0.01));
#892=CARTESIAN_POINT('',(-0.00560140800606607,-0.0164579787901034,0.01));
#893=CARTESIAN_POINT('',(-0.00573583224459787,-0.0126503509033352,0.01));
#894=CARTESIAN_POINT('',(-0.00573583224459787,-0.0126503509033352,0.01));
#895=CARTESIAN_POINT('',(-0.00560140800606607,-0.0164579787901034,0.01));
#896=CARTESIAN_POINT('',(-0.0144299159193855,-0.0129572862479826,0.01));
#897=CARTESIAN_POINT('',(-0.0405121669437477,-0.0138780922819246,0.01));
#898=CARTESIAN_POINT('',(-0.0405121669437477,-0.0138780922819246,0.01));
#899=CARTESIAN_POINT('',(-0.0144299159193855,-0.0129572862479826,0.01));
#900=CARTESIAN_POINT('',(-0.040377742705216,-0.0176857201686929,0.01));
#901=CARTESIAN_POINT('',(-0.040377742705216,-0.0176857201686929,0.01));
#902=CARTESIAN_POINT('',(-0.0262724967177332,-0.0210001231051473,0.01));
#903=CARTESIAN_POINT('',(-0.0262724967177332,-0.0210001231051473,0.01));
#904=CARTESIAN_POINT('',(-0.022989575355641,-0.0320914175626637,0.01));
#905=CARTESIAN_POINT('',(-0.00691881206399041,-0.0251847018819397,0.007));
#906=CARTESIAN_POINT('',(-0.0306305681432711,-0.0274847090883882,0.007));
#907=CARTESIAN_POINT('',(-0.040377742705216,-0.0176857201686929,0.007));
#908=CARTESIAN_POINT('',(-0.022989575355641,-0.0170718494793981,0.007));
#909=CARTESIAN_POINT('',(-0.00560140800606616,-0.0164579787901034,0.007));
#910=MECHANICAL_DESIGN_GEOMETRIC_PRESENTATION_REPRESENTATION('',(#537),
#911);
#911=(
GEOMETRIC_REPRESENTATION_CONTEXT(3)
GLOBAL_UNCERTAINTY_ASSIGNED_CONTEXT((#912))
GLOBAL_UNIT_ASSIGNED_CONTEXT((#915,#914,#913))
REPRESENTATION_CONTEXT('Part 1','TOP_LEVEL_ASSEMBLY_PART')
);
#912=UNCERTAINTY_MEASURE_WITH_UNIT(LENGTH_MEASURE(1.E-8),#915,
'DISTANCE_ACCURACY_VALUE','Maximum Tolerance applied to model');
#913=(
NAMED_UNIT(*)
SI_UNIT($,.STERADIAN.)
SOLID_ANGLE_UNIT()
);
#914=(
NAMED_UNIT(*)
PLANE_ANGLE_UNIT()
SI_UNIT($,.RADIAN.)
);
#915=(
LENGTH_UNIT()
NAMED_UNIT(*)
SI_UNIT($,.METRE.)
);
#916=PRODUCT_DEFINITION_SHAPE('','',#917);
#917=PRODUCT_DEFINITION('','',#919,#918);
#918=PRODUCT_DEFINITION_CONTEXT('',#925,'design');
#919=PRODUCT_DEFINITION_FORMATION_WITH_SPECIFIED_SOURCE('','',#921,
 .NOT_KNOWN.);
#920=PRODUCT_RELATED_PRODUCT_CATEGORY('','',(#921));
#921=PRODUCT('Part 1','Part 1','Part 1',(#923));
#922=PRODUCT_CATEGORY('','');
#923=PRODUCT_CONTEXT('',#925,'mechanical');
#924=APPLICATION_PROTOCOL_DEFINITION('international standard',
'ap242_managed_model_based_3d_engineering',2020,#925);
#925=APPLICATION_CONTEXT('managed model based 3d engineering');
ENDSEC;
END-ISO-10303-21;
