ISO-10303-21;
HEADER;
/* Generated by software containing ST-Developer
 * from STEP Tools, Inc. (www.steptools.com) 
 */
/* OPTION: using custom renumber hook */

FILE_DESCRIPTION(
/* description */ ('STEP AP242 Edition 2',
'CAx-IF Rec.Pracs.---Representation and Presentation of Product Manufa
cturing Information (PMI)---4.0---2014-10-13',
'CAx-IF Rec.Pracs.---3D Tessellated Geometry---0.4---2014-09-14','2;1',
'CAx-IF Rec.Pracs.---User Defined Attributes---1.5---2016-08-15'),
/* implementation_level */ '2;1');

FILE_NAME(
/* name */ 'Leg Part 2',
/* time_stamp */ '2026-08-03T01:17:54Z',
/* author */ (''),
/* organization */ (''),
/* preprocessor_version */ 'ST-DEVELOPER v20',
/* originating_system */ 'ONSHAPE BY PTC INC, 1.218',
/* authorisation */ '  ');

FILE_SCHEMA (('AP242_MANAGED_MODEL_BASED_3D_ENGINEERING_MIM_LF { 1 0 10303 442 3 1 4 }'));
ENDSEC;

DATA;
#10=SHAPE_REPRESENTATION_RELATIONSHIP('','',#667,#11);
#11=ADVANCED_BREP_SHAPE_REPRESENTATION('',(#665),#1121);
#12=CIRCLE('',#671,0.00025400000000001);
#13=CIRCLE('',#672,0.00025400000000001);
#14=CIRCLE('',#673,0.00025400000000001);
#15=CIRCLE('',#674,0.00025400000000001);
#16=CIRCLE('',#677,0.000762000000000041);
#17=CIRCLE('',#678,0.000762000000000041);
#18=CIRCLE('',#682,0.00381);
#19=CIRCLE('',#683,0.00381);
#20=CIRCLE('',#686,0.004445);
#21=CIRCLE('',#687,0.004445);
#22=CIRCLE('',#690,0.000762);
#23=CIRCLE('',#691,0.000762);
#24=CIRCLE('',#692,0.000762);
#25=CIRCLE('',#693,0.000762);
#26=CIRCLE('',#695,0.00381);
#27=CIRCLE('',#696,0.00381);
#28=CIRCLE('',#698,0.003175);
#29=CIRCLE('',#699,0.003175);
#30=CIRCLE('',#702,0.000762000000000056);
#31=CIRCLE('',#703,0.000762);
#32=CIRCLE('',#704,0.00254);
#33=CIRCLE('',#705,0.00254);
#34=CIRCLE('',#707,0.00254);
#35=CIRCLE('',#708,0.00254);
#36=CIRCLE('',#709,0.003175);
#37=CIRCLE('',#710,0.000762);
#38=CIRCLE('',#711,0.000762000000000041);
#39=CIRCLE('',#712,0.000762000000000056);
#40=CIRCLE('',#713,0.00381);
#41=CIRCLE('',#714,0.004445);
#42=CIRCLE('',#715,0.00381);
#43=CIRCLE('',#718,0.000762000000000041);
#44=CIRCLE('',#721,0.00381);
#45=CIRCLE('',#724,0.004445);
#46=CIRCLE('',#727,0.00381);
#47=CIRCLE('',#729,0.003175);
#48=CYLINDRICAL_SURFACE('',#670,0.00025400000000001);
#49=CYLINDRICAL_SURFACE('',#676,0.000762000000000041);
#50=CYLINDRICAL_SURFACE('',#681,0.00381);
#51=CYLINDRICAL_SURFACE('',#685,0.004445);
#52=CYLINDRICAL_SURFACE('',#689,0.000762);
#53=CYLINDRICAL_SURFACE('',#694,0.00381);
#54=CYLINDRICAL_SURFACE('',#697,0.003175);
#55=CYLINDRICAL_SURFACE('',#717,0.000762000000000041);
#56=CYLINDRICAL_SURFACE('',#720,0.00381);
#57=CYLINDRICAL_SURFACE('',#723,0.004445);
#58=CYLINDRICAL_SURFACE('',#726,0.00381);
#59=CYLINDRICAL_SURFACE('',#728,0.003175);
#60=CYLINDRICAL_SURFACE('',#733,0.000762);
#61=CYLINDRICAL_SURFACE('',#734,0.000762000000000056);
#62=CYLINDRICAL_SURFACE('',#735,0.00254);
#63=CYLINDRICAL_SURFACE('',#736,0.00254);
#64=ORIENTED_EDGE('',*,*,#248,.T.);
#65=ORIENTED_EDGE('',*,*,#249,.T.);
#66=ORIENTED_EDGE('',*,*,#250,.F.);
#67=ORIENTED_EDGE('',*,*,#251,.F.);
#68=ORIENTED_EDGE('',*,*,#252,.T.);
#69=ORIENTED_EDGE('',*,*,#253,.F.);
#70=ORIENTED_EDGE('',*,*,#254,.F.);
#71=ORIENTED_EDGE('',*,*,#255,.F.);
#72=ORIENTED_EDGE('',*,*,#256,.T.);
#73=ORIENTED_EDGE('',*,*,#248,.F.);
#74=ORIENTED_EDGE('',*,*,#257,.F.);
#75=ORIENTED_EDGE('',*,*,#258,.T.);
#76=ORIENTED_EDGE('',*,*,#259,.F.);
#77=ORIENTED_EDGE('',*,*,#258,.F.);
#78=ORIENTED_EDGE('',*,*,#260,.T.);
#79=ORIENTED_EDGE('',*,*,#261,.T.);
#80=ORIENTED_EDGE('',*,*,#262,.T.);
#81=ORIENTED_EDGE('',*,*,#261,.F.);
#82=ORIENTED_EDGE('',*,*,#263,.F.);
#83=ORIENTED_EDGE('',*,*,#264,.T.);
#84=ORIENTED_EDGE('',*,*,#265,.F.);
#85=ORIENTED_EDGE('',*,*,#264,.F.);
#86=ORIENTED_EDGE('',*,*,#266,.T.);
#87=ORIENTED_EDGE('',*,*,#267,.T.);
#88=ORIENTED_EDGE('',*,*,#268,.F.);
#89=ORIENTED_EDGE('',*,*,#269,.F.);
#90=ORIENTED_EDGE('',*,*,#270,.T.);
#91=ORIENTED_EDGE('',*,*,#271,.T.);
#92=ORIENTED_EDGE('',*,*,#272,.F.);
#93=ORIENTED_EDGE('',*,*,#273,.F.);
#94=ORIENTED_EDGE('',*,*,#274,.T.);
#95=ORIENTED_EDGE('',*,*,#275,.F.);
#96=ORIENTED_EDGE('',*,*,#276,.F.);
#97=ORIENTED_EDGE('',*,*,#277,.T.);
#98=ORIENTED_EDGE('',*,*,#278,.T.);
#99=ORIENTED_EDGE('',*,*,#279,.T.);
#100=ORIENTED_EDGE('',*,*,#280,.F.);
#101=ORIENTED_EDGE('',*,*,#271,.F.);
#102=ORIENTED_EDGE('',*,*,#281,.T.);
#103=ORIENTED_EDGE('',*,*,#282,.T.);
#104=ORIENTED_EDGE('',*,*,#283,.F.);
#105=ORIENTED_EDGE('',*,*,#282,.F.);
#106=ORIENTED_EDGE('',*,*,#284,.T.);
#107=ORIENTED_EDGE('',*,*,#285,.T.);
#108=ORIENTED_EDGE('',*,*,#286,.F.);
#109=ORIENTED_EDGE('',*,*,#285,.F.);
#110=ORIENTED_EDGE('',*,*,#287,.T.);
#111=ORIENTED_EDGE('',*,*,#288,.T.);
#112=ORIENTED_EDGE('',*,*,#289,.F.);
#113=ORIENTED_EDGE('',*,*,#288,.F.);
#114=ORIENTED_EDGE('',*,*,#290,.T.);
#115=ORIENTED_EDGE('',*,*,#291,.T.);
#116=ORIENTED_EDGE('',*,*,#250,.T.);
#117=ORIENTED_EDGE('',*,*,#292,.T.);
#118=ORIENTED_EDGE('',*,*,#293,.T.);
#119=ORIENTED_EDGE('',*,*,#294,.F.);
#120=ORIENTED_EDGE('',*,*,#295,.T.);
#121=ORIENTED_EDGE('',*,*,#296,.T.);
#122=ORIENTED_EDGE('',*,*,#267,.F.);
#123=ORIENTED_EDGE('',*,*,#297,.F.);
#124=ORIENTED_EDGE('',*,*,#298,.F.);
#125=ORIENTED_EDGE('',*,*,#291,.F.);
#126=ORIENTED_EDGE('',*,*,#299,.T.);
#127=ORIENTED_EDGE('',*,*,#269,.T.);
#128=ORIENTED_EDGE('',*,*,#300,.F.);
#129=ORIENTED_EDGE('',*,*,#301,.T.);
#130=ORIENTED_EDGE('',*,*,#270,.F.);
#131=ORIENTED_EDGE('',*,*,#299,.F.);
#132=ORIENTED_EDGE('',*,*,#290,.F.);
#133=ORIENTED_EDGE('',*,*,#287,.F.);
#134=ORIENTED_EDGE('',*,*,#284,.F.);
#135=ORIENTED_EDGE('',*,*,#281,.F.);
#136=ORIENTED_EDGE('',*,*,#251,.T.);
#137=ORIENTED_EDGE('',*,*,#297,.T.);
#138=ORIENTED_EDGE('',*,*,#266,.F.);
#139=ORIENTED_EDGE('',*,*,#263,.T.);
#140=ORIENTED_EDGE('',*,*,#260,.F.);
#141=ORIENTED_EDGE('',*,*,#257,.T.);
#142=ORIENTED_EDGE('',*,*,#300,.T.);
#143=ORIENTED_EDGE('',*,*,#302,.F.);
#144=ORIENTED_EDGE('',*,*,#303,.T.);
#145=ORIENTED_EDGE('',*,*,#252,.F.);
#146=ORIENTED_EDGE('',*,*,#259,.T.);
#147=ORIENTED_EDGE('',*,*,#262,.F.);
#148=ORIENTED_EDGE('',*,*,#265,.T.);
#149=ORIENTED_EDGE('',*,*,#296,.F.);
#150=ORIENTED_EDGE('',*,*,#304,.T.);
#151=ORIENTED_EDGE('',*,*,#305,.T.);
#152=ORIENTED_EDGE('',*,*,#272,.T.);
#153=ORIENTED_EDGE('',*,*,#280,.T.);
#154=ORIENTED_EDGE('',*,*,#283,.T.);
#155=ORIENTED_EDGE('',*,*,#286,.T.);
#156=ORIENTED_EDGE('',*,*,#289,.T.);
#157=ORIENTED_EDGE('',*,*,#298,.T.);
#158=ORIENTED_EDGE('',*,*,#268,.T.);
#159=ORIENTED_EDGE('',*,*,#306,.F.);
#160=ORIENTED_EDGE('',*,*,#307,.F.);
#161=ORIENTED_EDGE('',*,*,#301,.F.);
#162=ORIENTED_EDGE('',*,*,#308,.F.);
#163=ORIENTED_EDGE('',*,*,#309,.F.);
#164=ORIENTED_EDGE('',*,*,#310,.T.);
#165=ORIENTED_EDGE('',*,*,#311,.F.);
#166=ORIENTED_EDGE('',*,*,#312,.F.);
#167=ORIENTED_EDGE('',*,*,#294,.T.);
#168=ORIENTED_EDGE('',*,*,#313,.F.);
#169=ORIENTED_EDGE('',*,*,#314,.T.);
#170=ORIENTED_EDGE('',*,*,#315,.F.);
#171=ORIENTED_EDGE('',*,*,#254,.T.);
#172=ORIENTED_EDGE('',*,*,#316,.F.);
#173=ORIENTED_EDGE('',*,*,#317,.T.);
#174=ORIENTED_EDGE('',*,*,#278,.F.);
#175=ORIENTED_EDGE('',*,*,#318,.F.);
#176=ORIENTED_EDGE('',*,*,#319,.F.);
#177=ORIENTED_EDGE('',*,*,#320,.F.);
#178=ORIENTED_EDGE('',*,*,#321,.F.);
#179=ORIENTED_EDGE('',*,*,#322,.F.);
#180=ORIENTED_EDGE('',*,*,#274,.F.);
#181=ORIENTED_EDGE('',*,*,#315,.T.);
#182=ORIENTED_EDGE('',*,*,#323,.F.);
#183=ORIENTED_EDGE('',*,*,#324,.F.);
#184=ORIENTED_EDGE('',*,*,#255,.T.);
#185=ORIENTED_EDGE('',*,*,#314,.F.);
#186=ORIENTED_EDGE('',*,*,#325,.F.);
#187=ORIENTED_EDGE('',*,*,#326,.T.);
#188=ORIENTED_EDGE('',*,*,#323,.T.);
#189=ORIENTED_EDGE('',*,*,#313,.T.);
#190=ORIENTED_EDGE('',*,*,#293,.F.);
#191=ORIENTED_EDGE('',*,*,#327,.F.);
#192=ORIENTED_EDGE('',*,*,#325,.T.);
#193=ORIENTED_EDGE('',*,*,#322,.T.);
#194=ORIENTED_EDGE('',*,*,#328,.F.);
#195=ORIENTED_EDGE('',*,*,#329,.F.);
#196=ORIENTED_EDGE('',*,*,#275,.T.);
#197=ORIENTED_EDGE('',*,*,#321,.T.);
#198=ORIENTED_EDGE('',*,*,#330,.F.);
#199=ORIENTED_EDGE('',*,*,#331,.F.);
#200=ORIENTED_EDGE('',*,*,#328,.T.);
#201=ORIENTED_EDGE('',*,*,#320,.T.);
#202=ORIENTED_EDGE('',*,*,#332,.F.);
#203=ORIENTED_EDGE('',*,*,#333,.F.);
#204=ORIENTED_EDGE('',*,*,#330,.T.);
#205=ORIENTED_EDGE('',*,*,#319,.T.);
#206=ORIENTED_EDGE('',*,*,#334,.F.);
#207=ORIENTED_EDGE('',*,*,#335,.F.);
#208=ORIENTED_EDGE('',*,*,#332,.T.);
#209=ORIENTED_EDGE('',*,*,#318,.T.);
#210=ORIENTED_EDGE('',*,*,#277,.F.);
#211=ORIENTED_EDGE('',*,*,#336,.F.);
#212=ORIENTED_EDGE('',*,*,#334,.T.);
#213=ORIENTED_EDGE('',*,*,#337,.T.);
#214=ORIENTED_EDGE('',*,*,#310,.F.);
#215=ORIENTED_EDGE('',*,*,#276,.T.);
#216=ORIENTED_EDGE('',*,*,#329,.T.);
#217=ORIENTED_EDGE('',*,*,#331,.T.);
#218=ORIENTED_EDGE('',*,*,#333,.T.);
#219=ORIENTED_EDGE('',*,*,#335,.T.);
#220=ORIENTED_EDGE('',*,*,#336,.T.);
#221=ORIENTED_EDGE('',*,*,#249,.F.);
#222=ORIENTED_EDGE('',*,*,#256,.F.);
#223=ORIENTED_EDGE('',*,*,#324,.T.);
#224=ORIENTED_EDGE('',*,*,#326,.F.);
#225=ORIENTED_EDGE('',*,*,#327,.T.);
#226=ORIENTED_EDGE('',*,*,#292,.F.);
#227=ORIENTED_EDGE('',*,*,#337,.F.);
#228=ORIENTED_EDGE('',*,*,#302,.T.);
#229=ORIENTED_EDGE('',*,*,#279,.F.);
#230=ORIENTED_EDGE('',*,*,#317,.F.);
#231=ORIENTED_EDGE('',*,*,#338,.T.);
#232=ORIENTED_EDGE('',*,*,#305,.F.);
#233=ORIENTED_EDGE('',*,*,#339,.F.);
#234=ORIENTED_EDGE('',*,*,#311,.T.);
#235=ORIENTED_EDGE('',*,*,#273,.T.);
#236=ORIENTED_EDGE('',*,*,#304,.F.);
#237=ORIENTED_EDGE('',*,*,#295,.F.);
#238=ORIENTED_EDGE('',*,*,#312,.T.);
#239=ORIENTED_EDGE('',*,*,#339,.T.);
#240=ORIENTED_EDGE('',*,*,#303,.F.);
#241=ORIENTED_EDGE('',*,*,#338,.F.);
#242=ORIENTED_EDGE('',*,*,#316,.T.);
#243=ORIENTED_EDGE('',*,*,#253,.T.);
#244=ORIENTED_EDGE('',*,*,#309,.T.);
#245=ORIENTED_EDGE('',*,*,#306,.T.);
#246=ORIENTED_EDGE('',*,*,#308,.T.);
#247=ORIENTED_EDGE('',*,*,#307,.T.);
#248=EDGE_CURVE('',#340,#341,#404,.T.);
#249=EDGE_CURVE('',#341,#342,#405,.T.);
#250=EDGE_CURVE('',#343,#342,#406,.T.);
#251=EDGE_CURVE('',#340,#343,#407,.T.);
#252=EDGE_CURVE('',#344,#345,#12,.T.);
#253=EDGE_CURVE('',#346,#345,#408,.T.);
#254=EDGE_CURVE('',#347,#346,#13,.T.);
#255=EDGE_CURVE('',#348,#347,#409,.T.);
#256=EDGE_CURVE('',#348,#341,#14,.T.);
#257=EDGE_CURVE('',#349,#340,#15,.T.);
#258=EDGE_CURVE('',#349,#344,#410,.T.);
#259=EDGE_CURVE('',#344,#350,#411,.T.);
#260=EDGE_CURVE('',#349,#351,#412,.T.);
#261=EDGE_CURVE('',#351,#350,#413,.T.);
#262=EDGE_CURVE('',#352,#350,#16,.T.);
#263=EDGE_CURVE('',#353,#351,#17,.T.);
#264=EDGE_CURVE('',#353,#352,#414,.T.);
#265=EDGE_CURVE('',#352,#354,#415,.T.);
#266=EDGE_CURVE('',#353,#355,#416,.T.);
#267=EDGE_CURVE('',#355,#354,#417,.T.);
#268=EDGE_CURVE('',#356,#357,#418,.T.);
#269=EDGE_CURVE('',#358,#356,#419,.T.);
#270=EDGE_CURVE('',#358,#359,#420,.T.);
#271=EDGE_CURVE('',#359,#360,#421,.T.);
#272=EDGE_CURVE('',#361,#360,#422,.T.);
#273=EDGE_CURVE('',#362,#361,#423,.T.);
#274=EDGE_CURVE('',#362,#363,#424,.T.);
#275=EDGE_CURVE('',#364,#363,#425,.T.);
#276=EDGE_CURVE('',#365,#364,#426,.T.);
#277=EDGE_CURVE('',#365,#366,#427,.T.);
#278=EDGE_CURVE('',#366,#367,#428,.T.);
#279=EDGE_CURVE('',#367,#357,#429,.T.);
#280=EDGE_CURVE('',#360,#368,#18,.T.);
#281=EDGE_CURVE('',#359,#369,#19,.T.);
#282=EDGE_CURVE('',#369,#368,#430,.T.);
#283=EDGE_CURVE('',#368,#370,#431,.T.);
#284=EDGE_CURVE('',#369,#371,#432,.T.);
#285=EDGE_CURVE('',#371,#370,#433,.T.);
#286=EDGE_CURVE('',#370,#372,#20,.T.);
#287=EDGE_CURVE('',#371,#373,#21,.T.);
#288=EDGE_CURVE('',#373,#372,#434,.T.);
#289=EDGE_CURVE('',#372,#374,#435,.T.);
#290=EDGE_CURVE('',#373,#375,#436,.T.);
#291=EDGE_CURVE('',#375,#374,#437,.T.);
#292=EDGE_CURVE('',#342,#376,#22,.T.);
#293=EDGE_CURVE('',#376,#377,#438,.T.);
#294=EDGE_CURVE('',#378,#377,#23,.T.);
#295=EDGE_CURVE('',#378,#379,#439,.T.);
#296=EDGE_CURVE('',#379,#354,#24,.T.);
#297=EDGE_CURVE('',#343,#355,#25,.T.);
#298=EDGE_CURVE('',#374,#356,#26,.T.);
#299=EDGE_CURVE('',#375,#358,#27,.T.);
#300=EDGE_CURVE('',#380,#380,#28,.T.);
#301=EDGE_CURVE('',#381,#381,#29,.T.);
#302=EDGE_CURVE('',#382,#357,#440,.T.);
#303=EDGE_CURVE('',#382,#345,#30,.T.);
#304=EDGE_CURVE('',#379,#383,#31,.T.);
#305=EDGE_CURVE('',#383,#361,#441,.T.);
#306=EDGE_CURVE('',#384,#384,#32,.T.);
#307=EDGE_CURVE('',#385,#385,#33,.T.);
#308=EDGE_CURVE('',#386,#386,#34,.F.);
#309=EDGE_CURVE('',#387,#387,#35,.F.);
#310=EDGE_CURVE('',#388,#388,#36,.T.);
#311=EDGE_CURVE('',#389,#362,#442,.T.);
#312=EDGE_CURVE('',#378,#389,#37,.T.);
#313=EDGE_CURVE('',#390,#377,#443,.T.);
#314=EDGE_CURVE('',#390,#391,#38,.T.);
#315=EDGE_CURVE('',#347,#391,#444,.T.);
#316=EDGE_CURVE('',#392,#346,#39,.T.);
#317=EDGE_CURVE('',#392,#367,#445,.T.);
#318=EDGE_CURVE('',#393,#366,#40,.T.);
#319=EDGE_CURVE('',#394,#393,#446,.T.);
#320=EDGE_CURVE('',#395,#394,#41,.T.);
#321=EDGE_CURVE('',#396,#395,#447,.T.);
#322=EDGE_CURVE('',#363,#396,#42,.T.);
#323=EDGE_CURVE('',#397,#391,#448,.T.);
#324=EDGE_CURVE('',#348,#397,#449,.T.);
#325=EDGE_CURVE('',#398,#390,#450,.T.);
#326=EDGE_CURVE('',#398,#397,#43,.T.);
#327=EDGE_CURVE('',#398,#376,#451,.T.);
#328=EDGE_CURVE('',#399,#396,#452,.T.);
#329=EDGE_CURVE('',#364,#399,#44,.T.);
#330=EDGE_CURVE('',#400,#395,#453,.T.);
#331=EDGE_CURVE('',#399,#400,#454,.T.);
#332=EDGE_CURVE('',#401,#394,#455,.T.);
#333=EDGE_CURVE('',#400,#401,#45,.T.);
#334=EDGE_CURVE('',#402,#393,#456,.T.);
#335=EDGE_CURVE('',#401,#402,#457,.T.);
#336=EDGE_CURVE('',#402,#365,#46,.T.);
#337=EDGE_CURVE('',#403,#403,#47,.T.);
#338=EDGE_CURVE('',#392,#382,#458,.T.);
#339=EDGE_CURVE('',#389,#383,#459,.T.);
#340=VERTEX_POINT('',#934);
#341=VERTEX_POINT('',#935);
#342=VERTEX_POINT('',#937);
#343=VERTEX_POINT('',#939);
#344=VERTEX_POINT('',#943);
#345=VERTEX_POINT('',#944);
#346=VERTEX_POINT('',#946);
#347=VERTEX_POINT('',#948);
#348=VERTEX_POINT('',#950);
#349=VERTEX_POINT('',#953);
#350=VERTEX_POINT('',#957);
#351=VERTEX_POINT('',#959);
#352=VERTEX_POINT('',#963);
#353=VERTEX_POINT('',#965);
#354=VERTEX_POINT('',#969);
#355=VERTEX_POINT('',#971);
#356=VERTEX_POINT('',#975);
#357=VERTEX_POINT('',#976);
#358=VERTEX_POINT('',#978);
#359=VERTEX_POINT('',#980);
#360=VERTEX_POINT('',#982);
#361=VERTEX_POINT('',#984);
#362=VERTEX_POINT('',#986);
#363=VERTEX_POINT('',#988);
#364=VERTEX_POINT('',#990);
#365=VERTEX_POINT('',#992);
#366=VERTEX_POINT('',#994);
#367=VERTEX_POINT('',#996);
#368=VERTEX_POINT('',#1000);
#369=VERTEX_POINT('',#1002);
#370=VERTEX_POINT('',#1006);
#371=VERTEX_POINT('',#1008);
#372=VERTEX_POINT('',#1012);
#373=VERTEX_POINT('',#1014);
#374=VERTEX_POINT('',#1018);
#375=VERTEX_POINT('',#1020);
#376=VERTEX_POINT('',#1024);
#377=VERTEX_POINT('',#1026);
#378=VERTEX_POINT('',#1028);
#379=VERTEX_POINT('',#1030);
#380=VERTEX_POINT('',#1038);
#381=VERTEX_POINT('',#1040);
#382=VERTEX_POINT('',#1044);
#383=VERTEX_POINT('',#1047);
#384=VERTEX_POINT('',#1050);
#385=VERTEX_POINT('',#1052);
#386=VERTEX_POINT('',#1055);
#387=VERTEX_POINT('',#1057);
#388=VERTEX_POINT('',#1059);
#389=VERTEX_POINT('',#1061);
#390=VERTEX_POINT('',#1064);
#391=VERTEX_POINT('',#1066);
#392=VERTEX_POINT('',#1069);
#393=VERTEX_POINT('',#1072);
#394=VERTEX_POINT('',#1074);
#395=VERTEX_POINT('',#1076);
#396=VERTEX_POINT('',#1078);
#397=VERTEX_POINT('',#1082);
#398=VERTEX_POINT('',#1086);
#399=VERTEX_POINT('',#1092);
#400=VERTEX_POINT('',#1096);
#401=VERTEX_POINT('',#1100);
#402=VERTEX_POINT('',#1104);
#403=VERTEX_POINT('',#1110);
#404=LINE('',#933,#460);
#405=LINE('',#936,#461);
#406=LINE('',#938,#462);
#407=LINE('',#940,#463);
#408=LINE('',#945,#464);
#409=LINE('',#949,#465);
#410=LINE('',#954,#466);
#411=LINE('',#956,#467);
#412=LINE('',#958,#468);
#413=LINE('',#960,#469);
#414=LINE('',#966,#470);
#415=LINE('',#968,#471);
#416=LINE('',#970,#472);
#417=LINE('',#972,#473);
#418=LINE('',#974,#474);
#419=LINE('',#977,#475);
#420=LINE('',#979,#476);
#421=LINE('',#981,#477);
#422=LINE('',#983,#478);
#423=LINE('',#985,#479);
#424=LINE('',#987,#480);
#425=LINE('',#989,#481);
#426=LINE('',#991,#482);
#427=LINE('',#993,#483);
#428=LINE('',#995,#484);
#429=LINE('',#997,#485);
#430=LINE('',#1003,#486);
#431=LINE('',#1005,#487);
#432=LINE('',#1007,#488);
#433=LINE('',#1009,#489);
#434=LINE('',#1015,#490);
#435=LINE('',#1017,#491);
#436=LINE('',#1019,#492);
#437=LINE('',#1021,#493);
#438=LINE('',#1025,#494);
#439=LINE('',#1029,#495);
#440=LINE('',#1043,#496);
#441=LINE('',#1048,#497);
#442=LINE('',#1060,#498);
#443=LINE('',#1063,#499);
#444=LINE('',#1067,#500);
#445=LINE('',#1070,#501);
#446=LINE('',#1073,#502);
#447=LINE('',#1077,#503);
#448=LINE('',#1081,#504);
#449=LINE('',#1083,#505);
#450=LINE('',#1085,#506);
#451=LINE('',#1089,#507);
#452=LINE('',#1091,#508);
#453=LINE('',#1095,#509);
#454=LINE('',#1097,#510);
#455=LINE('',#1099,#511);
#456=LINE('',#1103,#512);
#457=LINE('',#1105,#513);
#458=LINE('',#1113,#514);
#459=LINE('',#1115,#515);
#460=VECTOR('',#741,1.);
#461=VECTOR('',#742,1.);
#462=VECTOR('',#743,1.);
#463=VECTOR('',#744,1.);
#464=VECTOR('',#749,1.);
#465=VECTOR('',#752,1.);
#466=VECTOR('',#757,1.);
#467=VECTOR('',#760,1.);
#468=VECTOR('',#761,1.);
#469=VECTOR('',#762,1.);
#470=VECTOR('',#769,1.);
#471=VECTOR('',#772,1.);
#472=VECTOR('',#773,1.);
#473=VECTOR('',#774,1.);
#474=VECTOR('',#777,1.);
#475=VECTOR('',#778,1.);
#476=VECTOR('',#779,1.);
#477=VECTOR('',#780,1.);
#478=VECTOR('',#781,1.);
#479=VECTOR('',#782,1.);
#480=VECTOR('',#783,1.);
#481=VECTOR('',#784,1.);
#482=VECTOR('',#785,1.);
#483=VECTOR('',#786,1.);
#484=VECTOR('',#787,1.);
#485=VECTOR('',#788,1.);
#486=VECTOR('',#795,1.);
#487=VECTOR('',#798,1.);
#488=VECTOR('',#799,1.);
#489=VECTOR('',#800,1.);
#490=VECTOR('',#807,1.);
#491=VECTOR('',#810,1.);
#492=VECTOR('',#811,1.);
#493=VECTOR('',#812,1.);
#494=VECTOR('',#817,1.);
#495=VECTOR('',#820,1.);
#496=VECTOR('',#841,1.);
#497=VECTOR('',#846,1.);
#498=VECTOR('',#859,1.);
#499=VECTOR('',#862,1.);
#500=VECTOR('',#865,1.);
#501=VECTOR('',#868,1.);
#502=VECTOR('',#871,1.);
#503=VECTOR('',#874,1.);
#504=VECTOR('',#879,1.);
#505=VECTOR('',#880,1.);
#506=VECTOR('',#883,1.);
#507=VECTOR('',#888,1.);
#508=VECTOR('',#891,1.);
#509=VECTOR('',#896,1.);
#510=VECTOR('',#897,1.);
#511=VECTOR('',#900,1.);
#512=VECTOR('',#905,1.);
#513=VECTOR('',#906,1.);
#514=VECTOR('',#919,1.);
#515=VECTOR('',#922,1.);
#516=EDGE_LOOP('',(#64,#65,#66,#67));
#517=EDGE_LOOP('',(#68,#69,#70,#71,#72,#73,#74,#75));
#518=EDGE_LOOP('',(#76,#77,#78,#79));
#519=EDGE_LOOP('',(#80,#81,#82,#83));
#520=EDGE_LOOP('',(#84,#85,#86,#87));
#521=EDGE_LOOP('',(#88,#89,#90,#91,#92,#93,#94,#95,#96,#97,#98,#99));
#522=EDGE_LOOP('',(#100,#101,#102,#103));
#523=EDGE_LOOP('',(#104,#105,#106,#107));
#524=EDGE_LOOP('',(#108,#109,#110,#111));
#525=EDGE_LOOP('',(#112,#113,#114,#115));
#526=EDGE_LOOP('',(#116,#117,#118,#119,#120,#121,#122,#123));
#527=EDGE_LOOP('',(#124,#125,#126,#127));
#528=EDGE_LOOP('',(#128));
#529=EDGE_LOOP('',(#129));
#530=EDGE_LOOP('',(#130,#131,#132,#133,#134,#135));
#531=EDGE_LOOP('',(#136,#137,#138,#139,#140,#141));
#532=EDGE_LOOP('',(#142));
#533=EDGE_LOOP('',(#143,#144,#145,#146,#147,#148,#149,#150,#151,#152,#153,
#154,#155,#156,#157,#158));
#534=EDGE_LOOP('',(#159));
#535=EDGE_LOOP('',(#160));
#536=EDGE_LOOP('',(#161));
#537=EDGE_LOOP('',(#162));
#538=EDGE_LOOP('',(#163));
#539=EDGE_LOOP('',(#164));
#540=EDGE_LOOP('',(#165,#166,#167,#168,#169,#170,#171,#172,#173,#174,#175,
#176,#177,#178,#179,#180));
#541=EDGE_LOOP('',(#181,#182,#183,#184));
#542=EDGE_LOOP('',(#185,#186,#187,#188));
#543=EDGE_LOOP('',(#189,#190,#191,#192));
#544=EDGE_LOOP('',(#193,#194,#195,#196));
#545=EDGE_LOOP('',(#197,#198,#199,#200));
#546=EDGE_LOOP('',(#201,#202,#203,#204));
#547=EDGE_LOOP('',(#205,#206,#207,#208));
#548=EDGE_LOOP('',(#209,#210,#211,#212));
#549=EDGE_LOOP('',(#213));
#550=EDGE_LOOP('',(#214));
#551=EDGE_LOOP('',(#215,#216,#217,#218,#219,#220));
#552=EDGE_LOOP('',(#221,#222,#223,#224,#225,#226));
#553=EDGE_LOOP('',(#227));
#554=EDGE_LOOP('',(#228,#229,#230,#231));
#555=EDGE_LOOP('',(#232,#233,#234,#235));
#556=EDGE_LOOP('',(#236,#237,#238,#239));
#557=EDGE_LOOP('',(#240,#241,#242,#243));
#558=EDGE_LOOP('',(#244));
#559=EDGE_LOOP('',(#245));
#560=EDGE_LOOP('',(#246));
#561=EDGE_LOOP('',(#247));
#562=FACE_BOUND('',#516,.T.);
#563=FACE_BOUND('',#517,.T.);
#564=FACE_BOUND('',#518,.T.);
#565=FACE_BOUND('',#519,.T.);
#566=FACE_BOUND('',#520,.T.);
#567=FACE_BOUND('',#521,.T.);
#568=FACE_BOUND('',#522,.T.);
#569=FACE_BOUND('',#523,.T.);
#570=FACE_BOUND('',#524,.T.);
#571=FACE_BOUND('',#525,.T.);
#572=FACE_BOUND('',#526,.T.);
#573=FACE_BOUND('',#527,.T.);
#574=FACE_BOUND('',#528,.T.);
#575=FACE_BOUND('',#529,.T.);
#576=FACE_BOUND('',#530,.T.);
#577=FACE_BOUND('',#531,.T.);
#578=FACE_BOUND('',#532,.T.);
#579=FACE_BOUND('',#533,.T.);
#580=FACE_BOUND('',#534,.T.);
#581=FACE_BOUND('',#535,.T.);
#582=FACE_BOUND('',#536,.T.);
#583=FACE_BOUND('',#537,.T.);
#584=FACE_BOUND('',#538,.T.);
#585=FACE_BOUND('',#539,.T.);
#586=FACE_BOUND('',#540,.T.);
#587=FACE_BOUND('',#541,.T.);
#588=FACE_BOUND('',#542,.T.);
#589=FACE_BOUND('',#543,.T.);
#590=FACE_BOUND('',#544,.T.);
#591=FACE_BOUND('',#545,.T.);
#592=FACE_BOUND('',#546,.T.);
#593=FACE_BOUND('',#547,.T.);
#594=FACE_BOUND('',#548,.T.);
#595=FACE_BOUND('',#549,.T.);
#596=FACE_BOUND('',#550,.T.);
#597=FACE_BOUND('',#551,.T.);
#598=FACE_BOUND('',#552,.T.);
#599=FACE_BOUND('',#553,.T.);
#600=FACE_BOUND('',#554,.T.);
#601=FACE_BOUND('',#555,.T.);
#602=FACE_BOUND('',#556,.T.);
#603=FACE_BOUND('',#557,.T.);
#604=FACE_BOUND('',#558,.T.);
#605=FACE_BOUND('',#559,.T.);
#606=FACE_BOUND('',#560,.T.);
#607=FACE_BOUND('',#561,.T.);
#608=PLANE('',#669);
#609=PLANE('',#675);
#610=PLANE('',#679);
#611=PLANE('',#680);
#612=PLANE('',#684);
#613=PLANE('',#688);
#614=PLANE('',#700);
#615=PLANE('',#701);
#616=PLANE('',#706);
#617=PLANE('',#716);
#618=PLANE('',#719);
#619=PLANE('',#722);
#620=PLANE('',#725);
#621=PLANE('',#730);
#622=PLANE('',#731);
#623=PLANE('',#732);
#624=ADVANCED_FACE('',(#562),#608,.F.);
#625=ADVANCED_FACE('',(#563),#48,.F.);
#626=ADVANCED_FACE('',(#564),#609,.T.);
#627=ADVANCED_FACE('',(#565),#49,.F.);
#628=ADVANCED_FACE('',(#566),#610,.T.);
#629=ADVANCED_FACE('',(#567),#611,.T.);
#630=ADVANCED_FACE('',(#568),#50,.T.);
#631=ADVANCED_FACE('',(#569),#612,.T.);
#632=ADVANCED_FACE('',(#570),#51,.T.);
#633=ADVANCED_FACE('',(#571),#613,.T.);
#634=ADVANCED_FACE('',(#572),#52,.F.);
#635=ADVANCED_FACE('',(#573),#53,.T.);
#636=ADVANCED_FACE('',(#574,#575),#54,.F.);
#637=ADVANCED_FACE('',(#576,#577,#578),#614,.F.);
#638=ADVANCED_FACE('',(#579,#580,#581,#582),#615,.T.);
#639=ADVANCED_FACE('',(#583,#584,#585,#586),#616,.F.);
#640=ADVANCED_FACE('',(#587),#617,.F.);
#641=ADVANCED_FACE('',(#588),#55,.F.);
#642=ADVANCED_FACE('',(#589),#618,.F.);
#643=ADVANCED_FACE('',(#590),#56,.T.);
#644=ADVANCED_FACE('',(#591),#619,.F.);
#645=ADVANCED_FACE('',(#592),#57,.T.);
#646=ADVANCED_FACE('',(#593),#620,.F.);
#647=ADVANCED_FACE('',(#594),#58,.T.);
#648=ADVANCED_FACE('',(#595,#596),#59,.F.);
#649=ADVANCED_FACE('',(#597,#598,#599),#621,.T.);
#650=ADVANCED_FACE('',(#600),#622,.F.);
#651=ADVANCED_FACE('',(#601),#623,.T.);
#652=ADVANCED_FACE('',(#602),#60,.F.);
#653=ADVANCED_FACE('',(#603),#61,.F.);
#654=ADVANCED_FACE('',(#604,#605),#62,.T.);
#655=ADVANCED_FACE('',(#606,#607),#63,.T.);
#656=CLOSED_SHELL('',(#624,#625,#626,#627,#628,#629,#630,#631,#632,#633,
#634,#635,#636,#637,#638,#639,#640,#641,#642,#643,#644,#645,#646,#647,#648,
#649,#650,#651,#652,#653,#654,#655));
#657=STYLED_ITEM('',(#658),#665);
#658=PRESENTATION_STYLE_ASSIGNMENT((#659));
#659=SURFACE_STYLE_USAGE(.BOTH.,#660);
#660=SURFACE_SIDE_STYLE('',(#661));
#661=SURFACE_STYLE_FILL_AREA(#662);
#662=FILL_AREA_STYLE('',(#663));
#663=FILL_AREA_STYLE_COLOUR('',#664);
#664=COLOUR_RGB('',1.,0.274509803921568,0.274509803921568);
#665=MANIFOLD_SOLID_BREP('Part 1',#656);
#666=SHAPE_DEFINITION_REPRESENTATION(#1126,#667);
#667=SHAPE_REPRESENTATION('Part 1',(#668),#1121);
#668=AXIS2_PLACEMENT_3D('',#931,#737,#738);
#669=AXIS2_PLACEMENT_3D('',#932,#739,#740);
#670=AXIS2_PLACEMENT_3D('',#941,#745,#746);
#671=AXIS2_PLACEMENT_3D('',#942,#747,#748);
#672=AXIS2_PLACEMENT_3D('',#947,#750,#751);
#673=AXIS2_PLACEMENT_3D('',#951,#753,#754);
#674=AXIS2_PLACEMENT_3D('',#952,#755,#756);
#675=AXIS2_PLACEMENT_3D('',#955,#758,#759);
#676=AXIS2_PLACEMENT_3D('',#961,#763,#764);
#677=AXIS2_PLACEMENT_3D('',#962,#765,#766);
#678=AXIS2_PLACEMENT_3D('',#964,#767,#768);
#679=AXIS2_PLACEMENT_3D('',#967,#770,#771);
#680=AXIS2_PLACEMENT_3D('',#973,#775,#776);
#681=AXIS2_PLACEMENT_3D('',#998,#789,#790);
#682=AXIS2_PLACEMENT_3D('',#999,#791,#792);
#683=AXIS2_PLACEMENT_3D('',#1001,#793,#794);
#684=AXIS2_PLACEMENT_3D('',#1004,#796,#797);
#685=AXIS2_PLACEMENT_3D('',#1010,#801,#802);
#686=AXIS2_PLACEMENT_3D('',#1011,#803,#804);
#687=AXIS2_PLACEMENT_3D('',#1013,#805,#806);
#688=AXIS2_PLACEMENT_3D('',#1016,#808,#809);
#689=AXIS2_PLACEMENT_3D('',#1022,#813,#814);
#690=AXIS2_PLACEMENT_3D('',#1023,#815,#816);
#691=AXIS2_PLACEMENT_3D('',#1027,#818,#819);
#692=AXIS2_PLACEMENT_3D('',#1031,#821,#822);
#693=AXIS2_PLACEMENT_3D('',#1032,#823,#824);
#694=AXIS2_PLACEMENT_3D('',#1033,#825,#826);
#695=AXIS2_PLACEMENT_3D('',#1034,#827,#828);
#696=AXIS2_PLACEMENT_3D('',#1035,#829,#830);
#697=AXIS2_PLACEMENT_3D('',#1036,#831,#832);
#698=AXIS2_PLACEMENT_3D('',#1037,#833,#834);
#699=AXIS2_PLACEMENT_3D('',#1039,#835,#836);
#700=AXIS2_PLACEMENT_3D('',#1041,#837,#838);
#701=AXIS2_PLACEMENT_3D('',#1042,#839,#840);
#702=AXIS2_PLACEMENT_3D('',#1045,#842,#843);
#703=AXIS2_PLACEMENT_3D('',#1046,#844,#845);
#704=AXIS2_PLACEMENT_3D('',#1049,#847,#848);
#705=AXIS2_PLACEMENT_3D('',#1051,#849,#850);
#706=AXIS2_PLACEMENT_3D('',#1053,#851,#852);
#707=AXIS2_PLACEMENT_3D('',#1054,#853,#854);
#708=AXIS2_PLACEMENT_3D('',#1056,#855,#856);
#709=AXIS2_PLACEMENT_3D('',#1058,#857,#858);
#710=AXIS2_PLACEMENT_3D('',#1062,#860,#861);
#711=AXIS2_PLACEMENT_3D('',#1065,#863,#864);
#712=AXIS2_PLACEMENT_3D('',#1068,#866,#867);
#713=AXIS2_PLACEMENT_3D('',#1071,#869,#870);
#714=AXIS2_PLACEMENT_3D('',#1075,#872,#873);
#715=AXIS2_PLACEMENT_3D('',#1079,#875,#876);
#716=AXIS2_PLACEMENT_3D('',#1080,#877,#878);
#717=AXIS2_PLACEMENT_3D('',#1084,#881,#882);
#718=AXIS2_PLACEMENT_3D('',#1087,#884,#885);
#719=AXIS2_PLACEMENT_3D('',#1088,#886,#887);
#720=AXIS2_PLACEMENT_3D('',#1090,#889,#890);
#721=AXIS2_PLACEMENT_3D('',#1093,#892,#893);
#722=AXIS2_PLACEMENT_3D('',#1094,#894,#895);
#723=AXIS2_PLACEMENT_3D('',#1098,#898,#899);
#724=AXIS2_PLACEMENT_3D('',#1101,#901,#902);
#725=AXIS2_PLACEMENT_3D('',#1102,#903,#904);
#726=AXIS2_PLACEMENT_3D('',#1106,#907,#908);
#727=AXIS2_PLACEMENT_3D('',#1107,#909,#910);
#728=AXIS2_PLACEMENT_3D('',#1108,#911,#912);
#729=AXIS2_PLACEMENT_3D('',#1109,#913,#914);
#730=AXIS2_PLACEMENT_3D('',#1111,#915,#916);
#731=AXIS2_PLACEMENT_3D('',#1112,#917,#918);
#732=AXIS2_PLACEMENT_3D('',#1114,#920,#921);
#733=AXIS2_PLACEMENT_3D('',#1116,#923,#924);
#734=AXIS2_PLACEMENT_3D('',#1117,#925,#926);
#735=AXIS2_PLACEMENT_3D('',#1118,#927,#928);
#736=AXIS2_PLACEMENT_3D('',#1119,#929,#930);
#737=DIRECTION('',(0.,0.,1.));
#738=DIRECTION('',(1.,0.,0.));
#739=DIRECTION('',(-0.649501096547258,0.760360654942054,0.));
#740=DIRECTION('',(-0.760360654942054,-0.649501096547258,0.));
#741=DIRECTION('',(0.,0.,1.));
#742=DIRECTION('',(-0.760360654942054,-0.649501096547258,0.));
#743=DIRECTION('',(0.,0.,1.));
#744=DIRECTION('',(-0.760360654942054,-0.649501096547258,0.));
#745=DIRECTION('',(0.,0.,1.));
#746=DIRECTION('',(1.,0.,0.));
#747=DIRECTION('',(0.,0.,1.));
#748=DIRECTION('',(1.,0.,0.));
#749=DIRECTION('',(0.,0.,-1.));
#750=DIRECTION('',(0.,0.,1.));
#751=DIRECTION('',(1.,0.,0.));
#752=DIRECTION('',(0.,0.,-1.));
#753=DIRECTION('',(0.,0.,1.));
#754=DIRECTION('',(1.,0.,0.));
#755=DIRECTION('',(0.,0.,1.));
#756=DIRECTION('',(1.,0.,0.));
#757=DIRECTION('',(0.,0.,1.));
#758=DIRECTION('',(-0.849570404734733,0.527475238659467,0.));
#759=DIRECTION('',(-0.527475238659467,-0.849570404734733,0.));
#760=DIRECTION('',(-0.527475238659467,-0.849570404734733,0.));
#761=DIRECTION('',(-0.527475238659467,-0.849570404734733,0.));
#762=DIRECTION('',(0.,0.,1.));
#763=DIRECTION('',(0.,0.,1.));
#764=DIRECTION('',(1.,0.,0.));
#765=DIRECTION('',(0.,0.,1.));
#766=DIRECTION('',(1.,0.,0.));
#767=DIRECTION('',(0.,0.,1.));
#768=DIRECTION('',(1.,0.,0.));
#769=DIRECTION('',(0.,0.,1.));
#770=DIRECTION('',(-0.035281952370522,0.9993773981019,0.));
#771=DIRECTION('',(-0.999377398101901,-0.035281952370522,0.));
#772=DIRECTION('',(-0.9993773981019,-0.035281952370522,0.));
#773=DIRECTION('',(-0.9993773981019,-0.035281952370522,0.));
#774=DIRECTION('',(0.,0.,1.));
#775=DIRECTION('',(-0.649501096547257,0.760360654942055,0.));
#776=DIRECTION('',(-0.760360654942055,-0.649501096547257,0.));
#777=DIRECTION('',(-0.760360654942055,-0.649501096547257,0.));
#778=DIRECTION('',(0.,0.,1.));
#779=DIRECTION('',(-0.760360654942055,-0.649501096547257,0.));
#780=DIRECTION('',(0.,0.,1.));
#781=DIRECTION('',(-0.760360654942055,-0.649501096547257,0.));
#782=DIRECTION('',(0.,0.,-1.));
#783=DIRECTION('',(-0.760360654942055,-0.649501096547257,0.));
#784=DIRECTION('',(0.,0.,-1.));
#785=DIRECTION('',(-0.760360654942055,-0.649501096547257,0.));
#786=DIRECTION('',(0.,0.,-1.));
#787=DIRECTION('',(-0.760360654942055,-0.649501096547257,0.));
#788=DIRECTION('',(0.,0.,-1.));
#789=DIRECTION('',(0.,0.,1.));
#790=DIRECTION('',(1.,0.,0.));
#791=DIRECTION('',(0.,0.,1.));
#792=DIRECTION('',(1.,0.,0.));
#793=DIRECTION('',(0.,0.,1.));
#794=DIRECTION('',(1.,0.,0.));
#795=DIRECTION('',(0.,0.,1.));
#796=DIRECTION('',(-0.00121518061800359,-0.99999926166776,0.));
#797=DIRECTION('',(0.99999926166776,-0.00121518061800359,0.));
#798=DIRECTION('',(0.99999926166776,-0.00121518061800359,0.));
#799=DIRECTION('',(0.99999926166776,-0.00121518061800359,0.));
#800=DIRECTION('',(0.,0.,1.));
#801=DIRECTION('',(0.,0.,1.));
#802=DIRECTION('',(1.,0.,0.));
#803=DIRECTION('',(0.,0.,1.));
#804=DIRECTION('',(1.,0.,0.));
#805=DIRECTION('',(0.,0.,1.));
#806=DIRECTION('',(1.,0.,0.));
#807=DIRECTION('',(0.,0.,1.));
#808=DIRECTION('',(0.858821582399007,-0.51227481843798,0.));
#809=DIRECTION('',(0.51227481843798,0.858821582399007,0.));
#810=DIRECTION('',(0.51227481843798,0.858821582399007,0.));
#811=DIRECTION('',(0.51227481843798,0.858821582399007,0.));
#812=DIRECTION('',(0.,0.,1.));
#813=DIRECTION('',(0.,0.,1.));
#814=DIRECTION('',(1.,0.,0.));
#815=DIRECTION('',(0.,0.,1.));
#816=DIRECTION('',(1.,0.,0.));
#817=DIRECTION('',(0.,0.,-1.));
#818=DIRECTION('',(0.,0.,1.));
#819=DIRECTION('',(1.,0.,0.));
#820=DIRECTION('',(0.,0.,-1.));
#821=DIRECTION('',(0.,0.,1.));
#822=DIRECTION('',(1.,0.,0.));
#823=DIRECTION('',(0.,0.,1.));
#824=DIRECTION('',(1.,0.,0.));
#825=DIRECTION('',(0.,0.,1.));
#826=DIRECTION('',(1.,0.,0.));
#827=DIRECTION('',(0.,0.,1.));
#828=DIRECTION('',(1.,0.,0.));
#829=DIRECTION('',(0.,0.,1.));
#830=DIRECTION('',(1.,0.,0.));
#831=DIRECTION('',(0.,0.,1.));
#832=DIRECTION('',(1.,0.,0.));
#833=DIRECTION('',(0.,0.,1.));
#834=DIRECTION('',(1.,0.,0.));
#835=DIRECTION('',(0.,0.,1.));
#836=DIRECTION('',(1.,0.,0.));
#837=DIRECTION('',(0.,0.,1.));
#838=DIRECTION('',(1.,0.,0.));
#839=DIRECTION('',(0.,0.,1.));
#840=DIRECTION('',(1.,0.,0.));
#841=DIRECTION('',(0.48219235390547,0.876065370754433,0.));
#842=DIRECTION('',(0.,0.,1.));
#843=DIRECTION('',(1.,0.,0.));
#844=DIRECTION('',(0.,0.,1.));
#845=DIRECTION('',(1.,0.,0.));
#846=DIRECTION('',(-0.990057122334161,0.140665896774594,0.));
#847=DIRECTION('',(0.,0.,1.));
#848=DIRECTION('',(1.,0.,0.));
#849=DIRECTION('',(0.,0.,1.));
#850=DIRECTION('',(1.,0.,0.));
#851=DIRECTION('',(0.,0.,1.));
#852=DIRECTION('',(1.,0.,0.));
#853=DIRECTION('',(0.,0.,1.));
#854=DIRECTION('',(1.,0.,0.));
#855=DIRECTION('',(0.,0.,1.));
#856=DIRECTION('',(1.,0.,0.));
#857=DIRECTION('',(0.,0.,1.));
#858=DIRECTION('',(1.,0.,0.));
#859=DIRECTION('',(-0.990057122334161,0.140665896774594,0.));
#860=DIRECTION('',(0.,0.,1.));
#861=DIRECTION('',(1.,0.,0.));
#862=DIRECTION('',(-0.9993773981019,-0.035281952370522,0.));
#863=DIRECTION('',(0.,0.,1.));
#864=DIRECTION('',(1.,0.,0.));
#865=DIRECTION('',(-0.527475238659467,-0.849570404734733,0.));
#866=DIRECTION('',(0.,0.,1.));
#867=DIRECTION('',(1.,0.,0.));
#868=DIRECTION('',(0.48219235390547,0.876065370754433,0.));
#869=DIRECTION('',(0.,0.,1.));
#870=DIRECTION('',(1.,0.,0.));
#871=DIRECTION('',(0.51227481843798,0.858821582399007,0.));
#872=DIRECTION('',(0.,0.,1.));
#873=DIRECTION('',(1.,0.,0.));
#874=DIRECTION('',(0.99999926166776,-0.00121518061800359,0.));
#875=DIRECTION('',(0.,0.,1.));
#876=DIRECTION('',(1.,0.,0.));
#877=DIRECTION('',(0.849570404734733,-0.527475238659467,0.));
#878=DIRECTION('',(0.527475238659467,0.849570404734733,0.));
#879=DIRECTION('',(0.,0.,-1.));
#880=DIRECTION('',(-0.527475238659467,-0.849570404734733,0.));
#881=DIRECTION('',(0.,0.,-1.));
#882=DIRECTION('',(-1.,0.,0.));
#883=DIRECTION('',(0.,0.,-1.));
#884=DIRECTION('',(0.,0.,1.));
#885=DIRECTION('',(1.,0.,0.));
#886=DIRECTION('',(0.035281952370522,-0.9993773981019,0.));
#887=DIRECTION('',(0.999377398101901,0.035281952370522,0.));
#888=DIRECTION('',(-0.9993773981019,-0.035281952370522,0.));
#889=DIRECTION('',(0.,0.,-1.));
#890=DIRECTION('',(-1.,0.,0.));
#891=DIRECTION('',(0.,0.,-1.));
#892=DIRECTION('',(0.,0.,1.));
#893=DIRECTION('',(1.,0.,0.));
#894=DIRECTION('',(0.00121518061800359,0.99999926166776,0.));
#895=DIRECTION('',(-0.99999926166776,0.00121518061800359,0.));
#896=DIRECTION('',(0.,0.,-1.));
#897=DIRECTION('',(0.99999926166776,-0.00121518061800359,0.));
#898=DIRECTION('',(0.,0.,-1.));
#899=DIRECTION('',(-1.,0.,0.));
#900=DIRECTION('',(0.,0.,-1.));
#901=DIRECTION('',(0.,0.,1.));
#902=DIRECTION('',(1.,0.,0.));
#903=DIRECTION('',(-0.858821582399007,0.51227481843798,0.));
#904=DIRECTION('',(-0.51227481843798,-0.858821582399007,0.));
#905=DIRECTION('',(0.,0.,-1.));
#906=DIRECTION('',(0.51227481843798,0.858821582399007,0.));
#907=DIRECTION('',(0.,0.,-1.));
#908=DIRECTION('',(-1.,0.,0.));
#909=DIRECTION('',(0.,0.,1.));
#910=DIRECTION('',(1.,0.,0.));
#911=DIRECTION('',(0.,0.,-1.));
#912=DIRECTION('',(-1.,0.,0.));
#913=DIRECTION('',(0.,0.,1.));
#914=DIRECTION('',(1.,0.,0.));
#915=DIRECTION('',(0.,0.,1.));
#916=DIRECTION('',(1.,0.,0.));
#917=DIRECTION('',(-0.876065370754433,0.48219235390547,0.));
#918=DIRECTION('',(-0.48219235390547,-0.876065370754433,0.));
#919=DIRECTION('',(0.,0.,-1.));
#920=DIRECTION('',(-0.140665896774594,-0.990057122334161,0.));
#921=DIRECTION('',(0.990057122334161,-0.140665896774594,0.));
#922=DIRECTION('',(0.,0.,-1.));
#923=DIRECTION('',(0.,0.,-1.));
#924=DIRECTION('',(-1.,0.,0.));
#925=DIRECTION('',(0.,0.,-1.));
#926=DIRECTION('',(-1.,0.,0.));
#927=DIRECTION('',(0.,0.,-1.));
#928=DIRECTION('',(-1.,0.,0.));
#929=DIRECTION('',(0.,0.,-1.));
#930=DIRECTION('',(-1.,0.,0.));
#931=CARTESIAN_POINT('',(0.,0.,0.));
#932=CARTESIAN_POINT('',(-0.0440640071228311,0.0366698401790613,-0.003));
#933=CARTESIAN_POINT('',(-0.0408832441738102,0.0393868521783255,-0.003));
#934=CARTESIAN_POINT('',(-0.0408832441738102,0.0393868521783255,-0.003));
#935=CARTESIAN_POINT('',(-0.0408832441738102,0.0393868521783255,0.01));
#936=CARTESIAN_POINT('',(-0.0440640071228311,0.0366698401790613,0.01));
#937=CARTESIAN_POINT('',(-0.047244770071852,0.0339528281797971,0.01));
#938=CARTESIAN_POINT('',(-0.047244770071852,0.0339528281797971,-0.003));
#939=CARTESIAN_POINT('',(-0.047244770071852,0.0339528281797971,-0.003));
#940=CARTESIAN_POINT('',(-0.0440640071228311,0.0366698401790613,-0.003));
#941=CARTESIAN_POINT('',(-0.0407182708952872,0.0391937205719703,-0.003));
#942=CARTESIAN_POINT('',(-0.0407182708952872,0.0391937205719703,0.));
#943=CARTESIAN_POINT('',(-0.0405024800124846,0.0390597418613507,0.));
#944=CARTESIAN_POINT('',(-0.0404985248044236,0.0393211083875186,0.));
#945=CARTESIAN_POINT('',(-0.0404985248044236,0.0393211083875186,0.007));
#946=CARTESIAN_POINT('',(-0.0404985248044236,0.0393211083875186,0.007));
#947=CARTESIAN_POINT('',(-0.0407182708952872,0.0391937205719703,0.007));
#948=CARTESIAN_POINT('',(-0.0405024800124846,0.0390597418613507,0.007));
#949=CARTESIAN_POINT('',(-0.0405024800124846,0.0390597418613507,0.01));
#950=CARTESIAN_POINT('',(-0.0405024800124846,0.0390597418613507,0.01));
#951=CARTESIAN_POINT('',(-0.0407182708952872,0.0391937205719703,0.01));
#952=CARTESIAN_POINT('',(-0.0407182708952872,0.0391937205719703,-0.003));
#953=CARTESIAN_POINT('',(-0.0405024800124846,0.0390597418613507,-0.003));
#954=CARTESIAN_POINT('',(-0.0405024800124846,0.0390597418613507,-0.003));
#955=CARTESIAN_POINT('',(-0.042372099841131,0.0360484655812359,-0.003));
#956=CARTESIAN_POINT('',(-0.042372099841131,0.0360484655812359,0.));
#957=CARTESIAN_POINT('',(-0.0442417196697773,0.033037189301121,0.));
#958=CARTESIAN_POINT('',(-0.042372099841131,0.0360484655812359,-0.003));
#959=CARTESIAN_POINT('',(-0.0442417196697773,0.033037189301121,-0.003));
#960=CARTESIAN_POINT('',(-0.0442417196697773,0.033037189301121,-0.003));
#961=CARTESIAN_POINT('',(-0.0448890923181852,0.0334391254329796,-0.003));
#962=CARTESIAN_POINT('',(-0.0448890923181852,0.0334391254329796,0.));
#963=CARTESIAN_POINT('',(-0.0448622074704789,0.0326775998556259,0.));
#964=CARTESIAN_POINT('',(-0.0448890923181852,0.0334391254329796,-0.003));
#965=CARTESIAN_POINT('',(-0.0448622074704789,0.0326775998556259,-0.003));
#966=CARTESIAN_POINT('',(-0.0448622074704789,0.0326775998556259,-0.003));
#967=CARTESIAN_POINT('',(-0.0457925864295277,0.0326447538195018,-0.003));
#968=CARTESIAN_POINT('',(-0.0457925864295277,0.0326447538195018,0.));
#969=CARTESIAN_POINT('',(-0.0467229653885766,0.0326119077833776,0.));
#970=CARTESIAN_POINT('',(-0.0457925864295277,0.0326447538195018,-0.003));
#971=CARTESIAN_POINT('',(-0.0467229653885766,0.0326119077833776,-0.003));
#972=CARTESIAN_POINT('',(-0.0467229653885766,0.0326119077833776,-0.003));
#973=CARTESIAN_POINT('',(-0.0282071507943978,0.0602363483310057,-0.003));
#974=CARTESIAN_POINT('',(-0.0282071507943978,0.0602363483310057,0.));
#975=CARTESIAN_POINT('',(-0.0259415903358047,0.0621715931290977,0.));
#976=CARTESIAN_POINT('',(-0.0304727112529911,0.0583011035329138,0.));
#977=CARTESIAN_POINT('',(-0.0259415903358047,0.0621715931290977,-0.003));
#978=CARTESIAN_POINT('',(-0.0259415903358047,0.0621715931290977,-0.003));
#979=CARTESIAN_POINT('',(-0.0282071507943978,0.0602363483310057,-0.003));
#980=CARTESIAN_POINT('',(-0.06215376652742,0.0312391034060346,-0.003));
#981=CARTESIAN_POINT('',(-0.06215376652742,0.0312391034060346,-0.003));
#982=CARTESIAN_POINT('',(-0.06215376652742,0.0312391034060346,0.));
#983=CARTESIAN_POINT('',(-0.0282071507943978,0.0602363483310057,0.));
#984=CARTESIAN_POINT('',(-0.057303750434767,0.035381993691027,0.));
#985=CARTESIAN_POINT('',(-0.057303750434767,0.035381993691027,0.007));
#986=CARTESIAN_POINT('',(-0.057303750434767,0.035381993691027,0.007));
#987=CARTESIAN_POINT('',(-0.0282071507943978,0.0602363483310057,0.007));
#988=CARTESIAN_POINT('',(-0.06215376652742,0.0312391034060346,0.007));
#989=CARTESIAN_POINT('',(-0.06215376652742,0.0312391034060346,0.01));
#990=CARTESIAN_POINT('',(-0.06215376652742,0.0312391034060346,0.01));
#991=CARTESIAN_POINT('',(-0.0282071507943978,0.0602363483310057,0.01));
#992=CARTESIAN_POINT('',(-0.0259415903358047,0.0621715931290977,0.01));
#993=CARTESIAN_POINT('',(-0.0259415903358047,0.0621715931290977,0.01));
#994=CARTESIAN_POINT('',(-0.0259415903358047,0.0621715931290977,0.007));
#995=CARTESIAN_POINT('',(-0.0282071507943978,0.0602363483310057,0.007));
#996=CARTESIAN_POINT('',(-0.030472711252991,0.0583011035329138,0.007));
#997=CARTESIAN_POINT('',(-0.0304727112529911,0.0583011035329138,0.007));
#998=CARTESIAN_POINT('',(-0.059679167349575,0.0283421293107053,-0.003));
#999=CARTESIAN_POINT('',(-0.059679167349575,0.0283421293107053,0.));
#1000=CARTESIAN_POINT('',(-0.0596837971877296,0.0245321321237511,0.));
#1001=CARTESIAN_POINT('',(-0.059679167349575,0.0283421293107053,-0.003));
#1002=CARTESIAN_POINT('',(-0.0596837971877296,0.0245321321237511,-0.003));
#1003=CARTESIAN_POINT('',(-0.0596837971877296,0.0245321321237511,-0.003));
#1004=CARTESIAN_POINT('',(-0.0509900993327883,0.024521567702819,-0.003));
#1005=CARTESIAN_POINT('',(-0.0509900993327883,0.024521567702819,0.));
#1006=CARTESIAN_POINT('',(-0.0422964014778471,0.0245110032818868,0.));
#1007=CARTESIAN_POINT('',(-0.0509900993327883,0.024521567702819,-0.003));
#1008=CARTESIAN_POINT('',(-0.0422964014778471,0.0245110032818868,-0.003));
#1009=CARTESIAN_POINT('',(-0.0422964014778471,0.0245110032818868,-0.003));
#1010=CARTESIAN_POINT('',(-0.042291,0.028956,-0.003));
#1011=CARTESIAN_POINT('',(-0.042291,0.028956,0.));
#1012=CARTESIAN_POINT('',(-0.0384735380662364,0.0266789384320432,0.));
#1013=CARTESIAN_POINT('',(-0.042291,0.028956,-0.003));
#1014=CARTESIAN_POINT('',(-0.0384735380662364,0.0266789384320432,-0.003));
#1015=CARTESIAN_POINT('',(-0.0384735380662364,0.0266789384320432,-0.003));
#1016=CARTESIAN_POINT('',(-0.0293342094976279,0.0420008952037814,-0.003));
#1017=CARTESIAN_POINT('',(-0.0293342094976279,0.0420008952037814,0.));
#1018=CARTESIAN_POINT('',(-0.0201948809290194,0.0573228519755197,0.));
#1019=CARTESIAN_POINT('',(-0.0293342094976279,0.0420008952037814,-0.003));
#1020=CARTESIAN_POINT('',(-0.0201948809290194,0.0573228519755197,-0.003));
#1021=CARTESIAN_POINT('',(-0.0201948809290194,0.0573228519755197,-0.003));
#1022=CARTESIAN_POINT('',(-0.046749850236283,0.0333734333607313,-0.003));
#1023=CARTESIAN_POINT('',(-0.046749850236283,0.0333734333607313,0.01));
#1024=CARTESIAN_POINT('',(-0.0467229653885766,0.0326119077833776,0.01));
#1025=CARTESIAN_POINT('',(-0.0467229653885766,0.0326119077833776,0.01));
#1026=CARTESIAN_POINT('',(-0.0467229653885766,0.0326119077833776,0.007));
#1027=CARTESIAN_POINT('',(-0.046749850236283,0.0333734333607313,0.007));
#1028=CARTESIAN_POINT('',(-0.0475115305837752,0.0333513641911929,0.007));
#1029=CARTESIAN_POINT('',(-0.0475115305837752,0.0333513641911929,0.007));
#1030=CARTESIAN_POINT('',(-0.0475115305837752,0.0333513641911929,0.));
#1031=CARTESIAN_POINT('',(-0.046749850236283,0.0333734333607313,0.));
#1032=CARTESIAN_POINT('',(-0.046749850236283,0.0333734333607313,-0.003));
#1033=CARTESIAN_POINT('',(-0.0234669911579596,0.0592746190337685,-0.003));
#1034=CARTESIAN_POINT('',(-0.0234669911579596,0.0592746190337685,0.));
#1035=CARTESIAN_POINT('',(-0.0234669911579596,0.0592746190337685,-0.003));
#1036=CARTESIAN_POINT('',(-0.042291,0.028956,-0.003));
#1037=CARTESIAN_POINT('',(-0.042291,0.028956,-0.003));
#1038=CARTESIAN_POINT('',(-0.039116,0.028956,-0.003));
#1039=CARTESIAN_POINT('',(-0.042291,0.028956,0.));
#1040=CARTESIAN_POINT('',(-0.039116,0.028956,0.));
#1041=CARTESIAN_POINT('',(-0.0415730792537673,0.0437978095168843,-0.003));
#1042=CARTESIAN_POINT('',(-0.0415730792537673,0.0437978095168843,0.));
#1043=CARTESIAN_POINT('',(-0.0354897797986695,0.0491859029703768,0.));
#1044=CARTESIAN_POINT('',(-0.040506848344348,0.0400707024078398,0.));
#1045=CARTESIAN_POINT('',(-0.039839286531833,0.0397032718341639,0.));
#1046=CARTESIAN_POINT('',(-0.0482732109312674,0.0333292950216545,0.));
#1047=CARTESIAN_POINT('',(-0.0481660235179252,0.0340837185488731,0.));
#1048=CARTESIAN_POINT('',(-0.0527348869763461,0.03473285611995,0.));
#1049=CARTESIAN_POINT('',(-0.059679167349575,0.0283421293107053,0.));
#1050=CARTESIAN_POINT('',(-0.057139167349575,0.0283421293107053,0.));
#1051=CARTESIAN_POINT('',(-0.0234669911579597,0.0592746190337685,0.));
#1052=CARTESIAN_POINT('',(-0.0209269911579597,0.0592746190337685,0.));
#1053=CARTESIAN_POINT('',(-0.0415730792537673,0.0437978095168843,0.007));
#1054=CARTESIAN_POINT('',(-0.0234669911579597,0.0592746190337685,0.007));
#1055=CARTESIAN_POINT('',(-0.0209269911579597,0.0592746190337685,0.007));
#1056=CARTESIAN_POINT('',(-0.059679167349575,0.0283421293107053,0.007));
#1057=CARTESIAN_POINT('',(-0.057139167349575,0.0283421293107053,0.007));
#1058=CARTESIAN_POINT('',(-0.042291,0.028956,0.007));
#1059=CARTESIAN_POINT('',(-0.039116,0.028956,0.007));
#1060=CARTESIAN_POINT('',(-0.0527348869763461,0.03473285611995,0.007));
#1061=CARTESIAN_POINT('',(-0.0481660235179252,0.0340837185488731,0.007));
#1062=CARTESIAN_POINT('',(-0.0482732109312674,0.0333292950216545,0.007));
#1063=CARTESIAN_POINT('',(-0.0457925864295277,0.0326447538195018,0.007));
#1064=CARTESIAN_POINT('',(-0.0448622074704789,0.0326775998556259,0.007));
#1065=CARTESIAN_POINT('',(-0.0448890923181852,0.0334391254329796,0.007));
#1066=CARTESIAN_POINT('',(-0.0442417196697773,0.033037189301121,0.007));
#1067=CARTESIAN_POINT('',(-0.042372099841131,0.0360484655812359,0.007));
#1068=CARTESIAN_POINT('',(-0.039839286531833,0.0397032718341639,0.007));
#1069=CARTESIAN_POINT('',(-0.040506848344348,0.0400707024078398,0.007));
#1070=CARTESIAN_POINT('',(-0.0354897797986695,0.0491859029703768,0.007));
#1071=CARTESIAN_POINT('',(-0.0234669911579596,0.0592746190337685,0.007));
#1072=CARTESIAN_POINT('',(-0.0201948809290194,0.0573228519755197,0.007));
#1073=CARTESIAN_POINT('',(-0.0293342094976279,0.0420008952037814,0.007));
#1074=CARTESIAN_POINT('',(-0.0384735380662364,0.0266789384320432,0.007));
#1075=CARTESIAN_POINT('',(-0.042291,0.028956,0.007));
#1076=CARTESIAN_POINT('',(-0.0422964014778471,0.0245110032818868,0.007));
#1077=CARTESIAN_POINT('',(-0.0509900993327883,0.024521567702819,0.007));
#1078=CARTESIAN_POINT('',(-0.0596837971877296,0.0245321321237511,0.007));
#1079=CARTESIAN_POINT('',(-0.059679167349575,0.0283421293107053,0.007));
#1080=CARTESIAN_POINT('',(-0.042372099841131,0.0360484655812359,0.01));
#1081=CARTESIAN_POINT('',(-0.0442417196697773,0.033037189301121,0.01));
#1082=CARTESIAN_POINT('',(-0.0442417196697773,0.033037189301121,0.01));
#1083=CARTESIAN_POINT('',(-0.042372099841131,0.0360484655812359,0.01));
#1084=CARTESIAN_POINT('',(-0.0448890923181852,0.0334391254329796,0.01));
#1085=CARTESIAN_POINT('',(-0.0448622074704789,0.0326775998556259,0.01));
#1086=CARTESIAN_POINT('',(-0.0448622074704789,0.0326775998556259,0.01));
#1087=CARTESIAN_POINT('',(-0.0448890923181852,0.0334391254329796,0.01));
#1088=CARTESIAN_POINT('',(-0.0457925864295277,0.0326447538195018,0.01));
#1089=CARTESIAN_POINT('',(-0.0457925864295277,0.0326447538195018,0.01));
#1090=CARTESIAN_POINT('',(-0.059679167349575,0.0283421293107053,0.01));
#1091=CARTESIAN_POINT('',(-0.0596837971877296,0.0245321321237511,0.01));
#1092=CARTESIAN_POINT('',(-0.0596837971877296,0.0245321321237511,0.01));
#1093=CARTESIAN_POINT('',(-0.059679167349575,0.0283421293107053,0.01));
#1094=CARTESIAN_POINT('',(-0.0509900993327883,0.024521567702819,0.01));
#1095=CARTESIAN_POINT('',(-0.0422964014778471,0.0245110032818868,0.01));
#1096=CARTESIAN_POINT('',(-0.0422964014778471,0.0245110032818868,0.01));
#1097=CARTESIAN_POINT('',(-0.0509900993327883,0.024521567702819,0.01));
#1098=CARTESIAN_POINT('',(-0.042291,0.028956,0.01));
#1099=CARTESIAN_POINT('',(-0.0384735380662364,0.0266789384320432,0.01));
#1100=CARTESIAN_POINT('',(-0.0384735380662364,0.0266789384320432,0.01));
#1101=CARTESIAN_POINT('',(-0.042291,0.028956,0.01));
#1102=CARTESIAN_POINT('',(-0.0293342094976279,0.0420008952037814,0.01));
#1103=CARTESIAN_POINT('',(-0.0201948809290194,0.0573228519755197,0.01));
#1104=CARTESIAN_POINT('',(-0.0201948809290194,0.0573228519755197,0.01));
#1105=CARTESIAN_POINT('',(-0.0293342094976279,0.0420008952037814,0.01));
#1106=CARTESIAN_POINT('',(-0.0234669911579596,0.0592746190337685,0.01));
#1107=CARTESIAN_POINT('',(-0.0234669911579596,0.0592746190337685,0.01));
#1108=CARTESIAN_POINT('',(-0.042291,0.028956,0.01));
#1109=CARTESIAN_POINT('',(-0.042291,0.028956,0.01));
#1110=CARTESIAN_POINT('',(-0.039116,0.028956,0.01));
#1111=CARTESIAN_POINT('',(-0.0415730792537673,0.0437978095168843,0.01));
#1112=CARTESIAN_POINT('',(-0.0354897797986695,0.0491859029703768,0.007));
#1113=CARTESIAN_POINT('',(-0.040506848344348,0.0400707024078398,0.007));
#1114=CARTESIAN_POINT('',(-0.0527348869763461,0.03473285611995,0.007));
#1115=CARTESIAN_POINT('',(-0.0481660235179252,0.0340837185488731,0.007));
#1116=CARTESIAN_POINT('',(-0.0482732109312674,0.0333292950216545,0.007));
#1117=CARTESIAN_POINT('',(-0.039839286531833,0.0397032718341639,0.007));
#1118=CARTESIAN_POINT('',(-0.059679167349575,0.0283421293107053,0.007));
#1119=CARTESIAN_POINT('',(-0.0234669911579597,0.0592746190337685,0.007));
#1120=MECHANICAL_DESIGN_GEOMETRIC_PRESENTATION_REPRESENTATION('',(#657),
#1121);
#1121=(
GEOMETRIC_REPRESENTATION_CONTEXT(3)
GLOBAL_UNCERTAINTY_ASSIGNED_CONTEXT((#1122))
GLOBAL_UNIT_ASSIGNED_CONTEXT((#1125,#1124,#1123))
REPRESENTATION_CONTEXT('Part 1','TOP_LEVEL_ASSEMBLY_PART')
);
#1122=UNCERTAINTY_MEASURE_WITH_UNIT(LENGTH_MEASURE(1.E-8),#1125,
'DISTANCE_ACCURACY_VALUE','Maximum Tolerance applied to model');
#1123=(
NAMED_UNIT(*)
SI_UNIT($,.STERADIAN.)
SOLID_ANGLE_UNIT()
);
#1124=(
NAMED_UNIT(*)
PLANE_ANGLE_UNIT()
SI_UNIT($,.RADIAN.)
);
#1125=(
LENGTH_UNIT()
NAMED_UNIT(*)
SI_UNIT($,.METRE.)
);
#1126=PRODUCT_DEFINITION_SHAPE('','',#1127);
#1127=PRODUCT_DEFINITION('','',#1129,#1128);
#1128=PRODUCT_DEFINITION_CONTEXT('',#1135,'design');
#1129=PRODUCT_DEFINITION_FORMATION_WITH_SPECIFIED_SOURCE('','',#1131,
 .NOT_KNOWN.);
#1130=PRODUCT_RELATED_PRODUCT_CATEGORY('','',(#1131));
#1131=PRODUCT('Part 1','Part 1','Part 1',(#1133));
#1132=PRODUCT_CATEGORY('','');
#1133=PRODUCT_CONTEXT('',#1135,'mechanical');
#1134=APPLICATION_PROTOCOL_DEFINITION('international standard',
'ap242_managed_model_based_3d_engineering',2020,#1135);
#1135=APPLICATION_CONTEXT('managed model based 3d engineering');
ENDSEC;
END-ISO-10303-21;
