ISO-10303-21;
HEADER;
/* Generated by software containing ST-Developer
 * from STEP Tools, Inc. (www.steptools.com) 
 */
/* OPTION: using custom renumber hook */

FILE_DESCRIPTION(
/* description */ ('STEP AP242 Edition 2',
'CAx-IF Rec.Pracs.---Representation and Presentation of Product Manufa
cturing Information (PMI)---4.0---2014-10-13',
'CAx-IF Rec.Pracs.---3D Tessellated Geometry---0.4---2014-09-14','2;1',
'CAx-IF Rec.Pracs.---User Defined Attributes---1.5---2016-08-15'),
/* implementation_level */ '2;1');

FILE_NAME(
/* name */ 'Leg Part 6',
/* time_stamp */ '2026-08-03T01:21:52Z',
/* author */ (''),
/* organization */ (''),
/* preprocessor_version */ 'ST-DEVELOPER v20',
/* originating_system */ 'ONSHAPE BY PTC INC, 1.218',
/* authorisation */ '  ');

FILE_SCHEMA (('AP242_MANAGED_MODEL_BASED_3D_ENGINEERING_MIM_LF { 1 0 10303 442 3 1 4 }'));
ENDSEC;

DATA;
#10=SHAPE_REPRESENTATION_RELATIONSHIP('','',#212,#11);
#11=ADVANCED_BREP_SHAPE_REPRESENTATION('',(#210),#350);
#12=PLANE('',#217);
#13=PLANE('',#221);
#14=PLANE('',#225);
#15=PLANE('',#226);
#16=PLANE('',#227);
#17=PLANE('',#234);
#18=LINE('',#299,#33);
#19=LINE('',#303,#34);
#20=LINE('',#305,#35);
#21=LINE('',#307,#36);
#22=LINE('',#309,#37);
#23=LINE('',#311,#38);
#24=LINE('',#313,#39);
#25=LINE('',#317,#40);
#26=LINE('',#321,#41);
#27=LINE('',#323,#42);
#28=LINE('',#325,#43);
#29=LINE('',#332,#44);
#30=LINE('',#334,#45);
#31=LINE('',#335,#46);
#32=LINE('',#337,#47);
#33=VECTOR('',#241,1.);
#34=VECTOR('',#244,1.);
#35=VECTOR('',#247,1.);
#36=VECTOR('',#248,1.);
#37=VECTOR('',#249,1.);
#38=VECTOR('',#250,1.);
#39=VECTOR('',#251,1.);
#40=VECTOR('',#256,1.);
#41=VECTOR('',#261,1.);
#42=VECTOR('',#262,1.);
#43=VECTOR('',#263,1.);
#44=VECTOR('',#272,1.);
#45=VECTOR('',#273,1.);
#46=VECTOR('',#274,1.);
#47=VECTOR('',#275,1.);
#48=ORIENTED_EDGE('',*,*,#98,.T.);
#49=ORIENTED_EDGE('',*,*,#99,.F.);
#50=ORIENTED_EDGE('',*,*,#100,.F.);
#51=ORIENTED_EDGE('',*,*,#101,.T.);
#52=ORIENTED_EDGE('',*,*,#102,.F.);
#53=ORIENTED_EDGE('',*,*,#103,.F.);
#54=ORIENTED_EDGE('',*,*,#104,.T.);
#55=ORIENTED_EDGE('',*,*,#105,.F.);
#56=ORIENTED_EDGE('',*,*,#106,.T.);
#57=ORIENTED_EDGE('',*,*,#99,.T.);
#58=ORIENTED_EDGE('',*,*,#105,.T.);
#59=ORIENTED_EDGE('',*,*,#107,.T.);
#60=ORIENTED_EDGE('',*,*,#108,.F.);
#61=ORIENTED_EDGE('',*,*,#109,.F.);
#62=ORIENTED_EDGE('',*,*,#110,.F.);
#63=ORIENTED_EDGE('',*,*,#111,.F.);
#64=ORIENTED_EDGE('',*,*,#112,.T.);
#65=ORIENTED_EDGE('',*,*,#108,.T.);
#66=ORIENTED_EDGE('',*,*,#113,.T.);
#67=ORIENTED_EDGE('',*,*,#114,.F.);
#68=ORIENTED_EDGE('',*,*,#115,.T.);
#69=ORIENTED_EDGE('',*,*,#101,.F.);
#70=ORIENTED_EDGE('',*,*,#116,.F.);
#71=ORIENTED_EDGE('',*,*,#111,.T.);
#72=ORIENTED_EDGE('',*,*,#117,.F.);
#73=ORIENTED_EDGE('',*,*,#118,.T.);
#74=ORIENTED_EDGE('',*,*,#113,.F.);
#75=ORIENTED_EDGE('',*,*,#100,.T.);
#76=ORIENTED_EDGE('',*,*,#106,.F.);
#77=ORIENTED_EDGE('',*,*,#109,.T.);
#78=ORIENTED_EDGE('',*,*,#112,.F.);
#79=ORIENTED_EDGE('',*,*,#116,.T.);
#80=ORIENTED_EDGE('',*,*,#114,.T.);
#81=ORIENTED_EDGE('',*,*,#98,.F.);
#82=ORIENTED_EDGE('',*,*,#115,.F.);
#83=ORIENTED_EDGE('',*,*,#119,.F.);
#84=ORIENTED_EDGE('',*,*,#102,.T.);
#85=ORIENTED_EDGE('',*,*,#120,.T.);
#86=ORIENTED_EDGE('',*,*,#119,.T.);
#87=ORIENTED_EDGE('',*,*,#118,.F.);
#88=ORIENTED_EDGE('',*,*,#121,.F.);
#89=ORIENTED_EDGE('',*,*,#103,.T.);
#90=ORIENTED_EDGE('',*,*,#122,.T.);
#91=ORIENTED_EDGE('',*,*,#120,.F.);
#92=ORIENTED_EDGE('',*,*,#104,.F.);
#93=ORIENTED_EDGE('',*,*,#121,.T.);
#94=ORIENTED_EDGE('',*,*,#117,.T.);
#95=ORIENTED_EDGE('',*,*,#110,.T.);
#96=ORIENTED_EDGE('',*,*,#107,.F.);
#97=ORIENTED_EDGE('',*,*,#122,.F.);
#98=EDGE_CURVE('',#123,#124,#141,.T.);
#99=EDGE_CURVE('',#125,#124,#18,.T.);
#100=EDGE_CURVE('',#126,#125,#142,.T.);
#101=EDGE_CURVE('',#126,#123,#19,.T.);
#102=EDGE_CURVE('',#127,#124,#20,.T.);
#103=EDGE_CURVE('',#128,#127,#21,.T.);
#104=EDGE_CURVE('',#128,#129,#22,.T.);
#105=EDGE_CURVE('',#130,#129,#23,.T.);
#106=EDGE_CURVE('',#130,#125,#24,.T.);
#107=EDGE_CURVE('',#129,#131,#143,.T.);
#108=EDGE_CURVE('',#132,#131,#25,.T.);
#109=EDGE_CURVE('',#130,#132,#144,.T.);
#110=EDGE_CURVE('',#133,#131,#26,.T.);
#111=EDGE_CURVE('',#134,#133,#27,.T.);
#112=EDGE_CURVE('',#134,#132,#28,.T.);
#113=EDGE_CURVE('',#135,#135,#145,.T.);
#114=EDGE_CURVE('',#136,#136,#146,.T.);
#115=EDGE_CURVE('',#137,#123,#29,.T.);
#116=EDGE_CURVE('',#134,#126,#30,.T.);
#117=EDGE_CURVE('',#138,#133,#31,.T.);
#118=EDGE_CURVE('',#138,#137,#32,.T.);
#119=EDGE_CURVE('',#127,#137,#147,.T.);
#120=EDGE_CURVE('',#139,#139,#148,.T.);
#121=EDGE_CURVE('',#128,#138,#149,.T.);
#122=EDGE_CURVE('',#140,#140,#150,.T.);
#123=VERTEX_POINT('',#297);
#124=VERTEX_POINT('',#298);
#125=VERTEX_POINT('',#300);
#126=VERTEX_POINT('',#302);
#127=VERTEX_POINT('',#306);
#128=VERTEX_POINT('',#308);
#129=VERTEX_POINT('',#310);
#130=VERTEX_POINT('',#312);
#131=VERTEX_POINT('',#316);
#132=VERTEX_POINT('',#318);
#133=VERTEX_POINT('',#322);
#134=VERTEX_POINT('',#324);
#135=VERTEX_POINT('',#328);
#136=VERTEX_POINT('',#330);
#137=VERTEX_POINT('',#333);
#138=VERTEX_POINT('',#336);
#139=VERTEX_POINT('',#342);
#140=VERTEX_POINT('',#347);
#141=CIRCLE('',#215,0.00381);
#142=CIRCLE('',#216,0.00381);
#143=CIRCLE('',#219,0.00127);
#144=CIRCLE('',#220,0.00127);
#145=CIRCLE('',#223,0.003175);
#146=CIRCLE('',#224,0.003175);
#147=CIRCLE('',#228,0.00381);
#148=CIRCLE('',#229,0.003175);
#149=CIRCLE('',#231,0.00381);
#150=CIRCLE('',#233,0.003175);
#151=EDGE_LOOP('',(#48,#49,#50,#51));
#152=EDGE_LOOP('',(#52,#53,#54,#55,#56,#57));
#153=EDGE_LOOP('',(#58,#59,#60,#61));
#154=EDGE_LOOP('',(#62,#63,#64,#65));
#155=EDGE_LOOP('',(#66));
#156=EDGE_LOOP('',(#67));
#157=EDGE_LOOP('',(#68,#69,#70,#71,#72,#73));
#158=EDGE_LOOP('',(#74));
#159=EDGE_LOOP('',(#75,#76,#77,#78,#79));
#160=EDGE_LOOP('',(#80));
#161=EDGE_LOOP('',(#81,#82,#83,#84));
#162=EDGE_LOOP('',(#85));
#163=EDGE_LOOP('',(#86,#87,#88,#89));
#164=EDGE_LOOP('',(#90));
#165=EDGE_LOOP('',(#91));
#166=EDGE_LOOP('',(#92,#93,#94,#95,#96));
#167=EDGE_LOOP('',(#97));
#168=FACE_BOUND('',#151,.T.);
#169=FACE_BOUND('',#152,.T.);
#170=FACE_BOUND('',#153,.T.);
#171=FACE_BOUND('',#154,.T.);
#172=FACE_BOUND('',#155,.T.);
#173=FACE_BOUND('',#156,.T.);
#174=FACE_BOUND('',#157,.T.);
#175=FACE_BOUND('',#158,.T.);
#176=FACE_BOUND('',#159,.T.);
#177=FACE_BOUND('',#160,.T.);
#178=FACE_BOUND('',#161,.T.);
#179=FACE_BOUND('',#162,.T.);
#180=FACE_BOUND('',#163,.T.);
#181=FACE_BOUND('',#164,.T.);
#182=FACE_BOUND('',#165,.T.);
#183=FACE_BOUND('',#166,.T.);
#184=FACE_BOUND('',#167,.T.);
#185=CYLINDRICAL_SURFACE('',#214,0.00381);
#186=CYLINDRICAL_SURFACE('',#218,0.00127);
#187=CYLINDRICAL_SURFACE('',#222,0.003175);
#188=CYLINDRICAL_SURFACE('',#230,0.00381);
#189=CYLINDRICAL_SURFACE('',#232,0.003175);
#190=ADVANCED_FACE('',(#168),#185,.T.);
#191=ADVANCED_FACE('',(#169),#12,.T.);
#192=ADVANCED_FACE('',(#170),#186,.T.);
#193=ADVANCED_FACE('',(#171),#13,.T.);
#194=ADVANCED_FACE('',(#172,#173),#187,.F.);
#195=ADVANCED_FACE('',(#174),#14,.F.);
#196=ADVANCED_FACE('',(#175,#176),#15,.T.);
#197=ADVANCED_FACE('',(#177,#178,#179),#16,.F.);
#198=ADVANCED_FACE('',(#180),#188,.T.);
#199=ADVANCED_FACE('',(#181,#182),#189,.F.);
#200=ADVANCED_FACE('',(#183,#184),#17,.T.);
#201=CLOSED_SHELL('',(#190,#191,#192,#193,#194,#195,#196,#197,#198,#199,
#200));
#202=STYLED_ITEM('',(#203),#210);
#203=PRESENTATION_STYLE_ASSIGNMENT((#204));
#204=SURFACE_STYLE_USAGE(.BOTH.,#205);
#205=SURFACE_SIDE_STYLE('',(#206));
#206=SURFACE_STYLE_FILL_AREA(#207);
#207=FILL_AREA_STYLE('',(#208));
#208=FILL_AREA_STYLE_COLOUR('',#209);
#209=COLOUR_RGB('',0.917647058823529,0.917647058823529,0.917647058823529);
#210=MANIFOLD_SOLID_BREP('Part 1',#201);
#211=SHAPE_DEFINITION_REPRESENTATION(#355,#212);
#212=SHAPE_REPRESENTATION('Part 1',(#213),#350);
#213=AXIS2_PLACEMENT_3D('',#294,#235,#236);
#214=AXIS2_PLACEMENT_3D('',#295,#237,#238);
#215=AXIS2_PLACEMENT_3D('',#296,#239,#240);
#216=AXIS2_PLACEMENT_3D('',#301,#242,#243);
#217=AXIS2_PLACEMENT_3D('',#304,#245,#246);
#218=AXIS2_PLACEMENT_3D('',#314,#252,#253);
#219=AXIS2_PLACEMENT_3D('',#315,#254,#255);
#220=AXIS2_PLACEMENT_3D('',#319,#257,#258);
#221=AXIS2_PLACEMENT_3D('',#320,#259,#260);
#222=AXIS2_PLACEMENT_3D('',#326,#264,#265);
#223=AXIS2_PLACEMENT_3D('',#327,#266,#267);
#224=AXIS2_PLACEMENT_3D('',#329,#268,#269);
#225=AXIS2_PLACEMENT_3D('',#331,#270,#271);
#226=AXIS2_PLACEMENT_3D('',#338,#276,#277);
#227=AXIS2_PLACEMENT_3D('',#339,#278,#279);
#228=AXIS2_PLACEMENT_3D('',#340,#280,#281);
#229=AXIS2_PLACEMENT_3D('',#341,#282,#283);
#230=AXIS2_PLACEMENT_3D('',#343,#284,#285);
#231=AXIS2_PLACEMENT_3D('',#344,#286,#287);
#232=AXIS2_PLACEMENT_3D('',#345,#288,#289);
#233=AXIS2_PLACEMENT_3D('',#346,#290,#291);
#234=AXIS2_PLACEMENT_3D('',#348,#292,#293);
#235=DIRECTION('',(0.,0.,1.));
#236=DIRECTION('',(1.,0.,0.));
#237=DIRECTION('',(0.,0.,-1.));
#238=DIRECTION('',(-1.,0.,0.));
#239=DIRECTION('',(0.,0.,1.));
#240=DIRECTION('',(1.,0.,0.));
#241=DIRECTION('',(0.,0.,-1.));
#242=DIRECTION('',(0.,0.,1.));
#243=DIRECTION('',(1.,0.,0.));
#244=DIRECTION('',(0.,0.,-1.));
#245=DIRECTION('',(-0.74650634931832,-0.665378291220442,0.));
#246=DIRECTION('',(0.665378291220442,-0.74650634931832,0.));
#247=DIRECTION('',(-0.665378291220442,0.74650634931832,0.));
#248=DIRECTION('',(0.,0.,-1.));
#249=DIRECTION('',(-0.665378291220442,0.74650634931832,0.));
#250=DIRECTION('',(0.,0.,-1.));
#251=DIRECTION('',(-0.665378291220442,0.74650634931832,0.));
#252=DIRECTION('',(0.,0.,-1.));
#253=DIRECTION('',(-1.,0.,0.));
#254=DIRECTION('',(0.,0.,1.));
#255=DIRECTION('',(1.,0.,0.));
#256=DIRECTION('',(0.,0.,-1.));
#257=DIRECTION('',(0.,0.,1.));
#258=DIRECTION('',(1.,0.,0.));
#259=DIRECTION('',(0.889146237492098,0.4576231728766,0.));
#260=DIRECTION('',(-0.4576231728766,0.889146237492098,0.));
#261=DIRECTION('',(0.4576231728766,-0.889146237492098,0.));
#262=DIRECTION('',(0.,0.,-1.));
#263=DIRECTION('',(0.4576231728766,-0.889146237492098,0.));
#264=DIRECTION('',(0.,0.,-1.));
#265=DIRECTION('',(-1.,0.,0.));
#266=DIRECTION('',(0.,0.,1.));
#267=DIRECTION('',(1.,0.,0.));
#268=DIRECTION('',(0.,0.,1.));
#269=DIRECTION('',(1.,0.,0.));
#270=DIRECTION('',(-0.74650634931832,-0.665378291220442,0.));
#271=DIRECTION('',(0.665378291220442,-0.74650634931832,0.));
#272=DIRECTION('',(-0.665378291220442,0.74650634931832,0.));
#273=DIRECTION('',(-0.665378291220442,0.74650634931832,0.));
#274=DIRECTION('',(-0.665378291220442,0.74650634931832,0.));
#275=DIRECTION('',(0.,0.,-1.));
#276=DIRECTION('',(0.,0.,1.));
#277=DIRECTION('',(1.,0.,0.));
#278=DIRECTION('',(0.,0.,1.));
#279=DIRECTION('',(1.,0.,0.));
#280=DIRECTION('',(0.,0.,1.));
#281=DIRECTION('',(1.,0.,0.));
#282=DIRECTION('',(0.,0.,1.));
#283=DIRECTION('',(1.,0.,0.));
#284=DIRECTION('',(0.,0.,-1.));
#285=DIRECTION('',(-1.,0.,0.));
#286=DIRECTION('',(0.,0.,1.));
#287=DIRECTION('',(1.,0.,0.));
#288=DIRECTION('',(0.,0.,-1.));
#289=DIRECTION('',(-1.,0.,0.));
#290=DIRECTION('',(0.,0.,1.));
#291=DIRECTION('',(1.,0.,0.));
#292=DIRECTION('',(0.,0.,1.));
#293=DIRECTION('',(1.,0.,0.));
#294=CARTESIAN_POINT('',(0.,0.,0.));
#295=CARTESIAN_POINT('',(-0.0234669911579597,0.0592746190337685,0.005));
#296=CARTESIAN_POINT('',(-0.0234669911579597,0.0592746190337685,0.));
#297=CARTESIAN_POINT('',(-0.0206228019670569,0.0618097103233183,0.));
#298=CARTESIAN_POINT('',(-0.0263111803488624,0.0567395277442186,0.));
#299=CARTESIAN_POINT('',(-0.0263111803488624,0.0567395277442186,0.005));
#300=CARTESIAN_POINT('',(-0.0263111803488624,0.0567395277442186,0.005));
#301=CARTESIAN_POINT('',(-0.0234669911579597,0.0592746190337685,0.005));
#302=CARTESIAN_POINT('',(-0.0206228019670569,0.0618097103233183,0.005));
#303=CARTESIAN_POINT('',(-0.0206228019670569,0.0618097103233183,0.005));
#304=CARTESIAN_POINT('',(-0.0156452014425944,0.0447730703465479,0.005));
#305=CARTESIAN_POINT('',(-0.0156452014425944,0.0447730703465479,0.));
#306=CARTESIAN_POINT('',(0.010616649435581,0.0153091718634011,0.));
#307=CARTESIAN_POINT('',(0.010616649435581,0.0153091718634011,0.00125));
#308=CARTESIAN_POINT('',(0.010616649435581,0.0153091718634011,0.00125));
#309=CARTESIAN_POINT('',(0.00614516870025091,0.0203258500505656,0.00125));
#310=CARTESIAN_POINT('',(-0.00497922253632638,0.0328066129488771,0.00125));
#311=CARTESIAN_POINT('',(-0.00497922253632638,0.0328066129488771,0.005));
#312=CARTESIAN_POINT('',(-0.00497922253632638,0.0328066129488771,0.005));
#313=CARTESIAN_POINT('',(-0.0156452014425944,0.0447730703465479,0.005));
#314=CARTESIAN_POINT('',(-0.0040311594726921,0.0336516433787271,0.005));
#315=CARTESIAN_POINT('',(-0.0040311594726921,0.0336516433787271,0.00125));
#316=CARTESIAN_POINT('',(-0.00290194375107715,0.0342328248082804,0.00125));
#317=CARTESIAN_POINT('',(-0.00290194375107715,0.0342328248082804,0.005));
#318=CARTESIAN_POINT('',(-0.00290194375107715,0.0342328248082804,0.005));
#319=CARTESIAN_POINT('',(-0.0040311594726921,0.0336516433787271,0.005));
#320=CARTESIAN_POINT('',(-0.00758830504771753,0.0433382651823849,0.005));
#321=CARTESIAN_POINT('',(-0.00758830504771753,0.0433382651823849,0.00125));
#322=CARTESIAN_POINT('',(-0.0122746663443579,0.0524437055564893,0.00125));
#323=CARTESIAN_POINT('',(-0.0122746663443579,0.0524437055564893,0.005));
#324=CARTESIAN_POINT('',(-0.0122746663443579,0.0524437055564893,0.005));
#325=CARTESIAN_POINT('',(-0.00758830504771753,0.0433382651823849,0.005));
#326=CARTESIAN_POINT('',(-0.0234669911579597,0.0592746190337685,0.005));
#327=CARTESIAN_POINT('',(-0.0234669911579597,0.0592746190337685,0.005));
#328=CARTESIAN_POINT('',(-0.0202919911579597,0.0592746190337685,0.005));
#329=CARTESIAN_POINT('',(-0.0234669911579597,0.0592746190337685,0.));
#330=CARTESIAN_POINT('',(-0.0202919911579597,0.0592746190337685,0.));
#331=CARTESIAN_POINT('',(-0.0164487341557074,0.0571267079399038,0.005));
#332=CARTESIAN_POINT('',(-0.0164487341557074,0.0571267079399038,0.));
#333=CARTESIAN_POINT('',(0.0163050278173865,0.0203793544425009,0.));
#334=CARTESIAN_POINT('',(-0.0164487341557074,0.0571267079399038,0.005));
#335=CARTESIAN_POINT('',(0.0118335470820565,0.0253960326296654,0.00125));
#336=CARTESIAN_POINT('',(0.0163050278173865,0.0203793544425009,0.00125));
#337=CARTESIAN_POINT('',(0.0163050278173865,0.0203793544425009,0.00125));
#338=CARTESIAN_POINT('',(-0.00500307626573796,0.0385594410933597,0.005));
#339=CARTESIAN_POINT('',(-0.00500307626573796,0.0385594410933597,0.));
#340=CARTESIAN_POINT('',(0.0134608386264837,0.017844263152951,0.));
#341=CARTESIAN_POINT('',(0.0134608386264837,0.017844263152951,0.));
#342=CARTESIAN_POINT('',(0.0166358386264837,0.017844263152951,0.));
#343=CARTESIAN_POINT('',(0.0134608386264837,0.017844263152951,0.00125));
#344=CARTESIAN_POINT('',(0.0134608386264837,0.017844263152951,0.00125));
#345=CARTESIAN_POINT('',(0.0134608386264837,0.017844263152951,0.00125));
#346=CARTESIAN_POINT('',(0.0134608386264837,0.017844263152951,0.00125));
#347=CARTESIAN_POINT('',(0.0166358386264837,0.017844263152951,0.00125));
#348=CARTESIAN_POINT('',(-0.00500307626573796,0.0385594410933597,0.00125));
#349=MECHANICAL_DESIGN_GEOMETRIC_PRESENTATION_REPRESENTATION('',(#202),
#350);
#350=(
GEOMETRIC_REPRESENTATION_CONTEXT(3)
GLOBAL_UNCERTAINTY_ASSIGNED_CONTEXT((#351))
GLOBAL_UNIT_ASSIGNED_CONTEXT((#354,#353,#352))
REPRESENTATION_CONTEXT('Part 1','TOP_LEVEL_ASSEMBLY_PART')
);
#351=UNCERTAINTY_MEASURE_WITH_UNIT(LENGTH_MEASURE(1.E-8),#354,
'DISTANCE_ACCURACY_VALUE','Maximum Tolerance applied to model');
#352=(
NAMED_UNIT(*)
SI_UNIT($,.STERADIAN.)
SOLID_ANGLE_UNIT()
);
#353=(
NAMED_UNIT(*)
PLANE_ANGLE_UNIT()
SI_UNIT($,.RADIAN.)
);
#354=(
LENGTH_UNIT()
NAMED_UNIT(*)
SI_UNIT($,.METRE.)
);
#355=PRODUCT_DEFINITION_SHAPE('','',#356);
#356=PRODUCT_DEFINITION('','',#358,#357);
#357=PRODUCT_DEFINITION_CONTEXT('',#364,'design');
#358=PRODUCT_DEFINITION_FORMATION_WITH_SPECIFIED_SOURCE('','',#360,
 .NOT_KNOWN.);
#359=PRODUCT_RELATED_PRODUCT_CATEGORY('','',(#360));
#360=PRODUCT('Part 1','Part 1','Part 1',(#362));
#361=PRODUCT_CATEGORY('','');
#362=PRODUCT_CONTEXT('',#364,'mechanical');
#363=APPLICATION_PROTOCOL_DEFINITION('international standard',
'ap242_managed_model_based_3d_engineering',2020,#364);
#364=APPLICATION_CONTEXT('managed model based 3d engineering');
ENDSEC;
END-ISO-10303-21;
