ISO-10303-21;
HEADER;
/* Generated by software containing ST-Developer
 * from STEP Tools, Inc. (www.steptools.com) 
 */
/* OPTION: using custom renumber hook */

FILE_DESCRIPTION(
/* description */ ('STEP AP242 Edition 2',
'CAx-IF Rec.Pracs.---Representation and Presentation of Product Manufa
cturing Information (PMI)---4.0---2014-10-13',
'CAx-IF Rec.Pracs.---3D Tessellated Geometry---0.4---2014-09-14','2;1',
'CAx-IF Rec.Pracs.---User Defined Attributes---1.5---2016-08-15'),
/* implementation_level */ '2;1');

FILE_NAME(
/* name */ 'Leg Part 5',
/* time_stamp */ '2026-08-03T01:18:14Z',
/* author */ (''),
/* organization */ (''),
/* preprocessor_version */ 'ST-DEVELOPER v20',
/* originating_system */ 'ONSHAPE BY PTC INC, 1.218',
/* authorisation */ '  ');

FILE_SCHEMA (('AP242_MANAGED_MODEL_BASED_3D_ENGINEERING_MIM_LF { 1 0 10303 442 3 1 4 }'));
ENDSEC;

DATA;
#10=SHAPE_REPRESENTATION_RELATIONSHIP('','',#191,#11);
#11=ADVANCED_BREP_SHAPE_REPRESENTATION('',(#189),#317);
#12=CIRCLE('',#195,0.00381);
#13=CIRCLE('',#196,0.00381);
#14=CIRCLE('',#199,0.0127);
#15=CIRCLE('',#200,0.0127);
#16=CIRCLE('',#202,0.003175);
#17=CIRCLE('',#203,0.003175);
#18=CIRCLE('',#206,0.00381);
#19=CIRCLE('',#207,0.003175);
#20=CIRCLE('',#209,0.00381);
#21=CIRCLE('',#211,0.003175);
#22=CYLINDRICAL_SURFACE('',#194,0.00381);
#23=CYLINDRICAL_SURFACE('',#198,0.0127);
#24=CYLINDRICAL_SURFACE('',#201,0.003175);
#25=CYLINDRICAL_SURFACE('',#208,0.00381);
#26=CYLINDRICAL_SURFACE('',#210,0.003175);
#27=ORIENTED_EDGE('',*,*,#71,.F.);
#28=ORIENTED_EDGE('',*,*,#72,.F.);
#29=ORIENTED_EDGE('',*,*,#73,.T.);
#30=ORIENTED_EDGE('',*,*,#74,.T.);
#31=ORIENTED_EDGE('',*,*,#75,.T.);
#32=ORIENTED_EDGE('',*,*,#76,.T.);
#33=ORIENTED_EDGE('',*,*,#77,.T.);
#34=ORIENTED_EDGE('',*,*,#78,.F.);
#35=ORIENTED_EDGE('',*,*,#79,.F.);
#36=ORIENTED_EDGE('',*,*,#72,.T.);
#37=ORIENTED_EDGE('',*,*,#80,.T.);
#38=ORIENTED_EDGE('',*,*,#81,.F.);
#39=ORIENTED_EDGE('',*,*,#82,.F.);
#40=ORIENTED_EDGE('',*,*,#83,.F.);
#41=ORIENTED_EDGE('',*,*,#84,.F.);
#42=ORIENTED_EDGE('',*,*,#78,.T.);
#43=ORIENTED_EDGE('',*,*,#85,.F.);
#44=ORIENTED_EDGE('',*,*,#74,.F.);
#45=ORIENTED_EDGE('',*,*,#86,.T.);
#46=ORIENTED_EDGE('',*,*,#83,.T.);
#47=ORIENTED_EDGE('',*,*,#87,.T.);
#48=ORIENTED_EDGE('',*,*,#88,.F.);
#49=ORIENTED_EDGE('',*,*,#73,.F.);
#50=ORIENTED_EDGE('',*,*,#79,.T.);
#51=ORIENTED_EDGE('',*,*,#84,.T.);
#52=ORIENTED_EDGE('',*,*,#86,.F.);
#53=ORIENTED_EDGE('',*,*,#87,.F.);
#54=ORIENTED_EDGE('',*,*,#71,.T.);
#55=ORIENTED_EDGE('',*,*,#89,.F.);
#56=ORIENTED_EDGE('',*,*,#80,.F.);
#57=ORIENTED_EDGE('',*,*,#77,.F.);
#58=ORIENTED_EDGE('',*,*,#88,.T.);
#59=ORIENTED_EDGE('',*,*,#90,.T.);
#60=ORIENTED_EDGE('',*,*,#89,.T.);
#61=ORIENTED_EDGE('',*,*,#76,.F.);
#62=ORIENTED_EDGE('',*,*,#91,.F.);
#63=ORIENTED_EDGE('',*,*,#81,.T.);
#64=ORIENTED_EDGE('',*,*,#92,.T.);
#65=ORIENTED_EDGE('',*,*,#90,.F.);
#66=ORIENTED_EDGE('',*,*,#75,.F.);
#67=ORIENTED_EDGE('',*,*,#85,.T.);
#68=ORIENTED_EDGE('',*,*,#82,.T.);
#69=ORIENTED_EDGE('',*,*,#91,.T.);
#70=ORIENTED_EDGE('',*,*,#92,.F.);
#71=EDGE_CURVE('',#93,#94,#109,.T.);
#72=EDGE_CURVE('',#95,#93,#110,.T.);
#73=EDGE_CURVE('',#95,#96,#111,.T.);
#74=EDGE_CURVE('',#96,#97,#112,.T.);
#75=EDGE_CURVE('',#97,#98,#113,.T.);
#76=EDGE_CURVE('',#98,#94,#114,.T.);
#77=EDGE_CURVE('',#93,#99,#12,.T.);
#78=EDGE_CURVE('',#100,#99,#115,.T.);
#79=EDGE_CURVE('',#95,#100,#13,.T.);
#80=EDGE_CURVE('',#99,#101,#116,.T.);
#81=EDGE_CURVE('',#102,#101,#117,.T.);
#82=EDGE_CURVE('',#103,#102,#118,.T.);
#83=EDGE_CURVE('',#104,#103,#119,.T.);
#84=EDGE_CURVE('',#100,#104,#120,.T.);
#85=EDGE_CURVE('',#97,#103,#14,.T.);
#86=EDGE_CURVE('',#96,#104,#15,.T.);
#87=EDGE_CURVE('',#105,#105,#16,.T.);
#88=EDGE_CURVE('',#106,#106,#17,.T.);
#89=EDGE_CURVE('',#101,#94,#18,.T.);
#90=EDGE_CURVE('',#107,#107,#19,.T.);
#91=EDGE_CURVE('',#102,#98,#20,.T.);
#92=EDGE_CURVE('',#108,#108,#21,.T.);
#93=VERTEX_POINT('',#270);
#94=VERTEX_POINT('',#271);
#95=VERTEX_POINT('',#273);
#96=VERTEX_POINT('',#275);
#97=VERTEX_POINT('',#277);
#98=VERTEX_POINT('',#279);
#99=VERTEX_POINT('',#283);
#100=VERTEX_POINT('',#285);
#101=VERTEX_POINT('',#289);
#102=VERTEX_POINT('',#291);
#103=VERTEX_POINT('',#293);
#104=VERTEX_POINT('',#295);
#105=VERTEX_POINT('',#302);
#106=VERTEX_POINT('',#304);
#107=VERTEX_POINT('',#309);
#108=VERTEX_POINT('',#314);
#109=LINE('',#269,#121);
#110=LINE('',#272,#122);
#111=LINE('',#274,#123);
#112=LINE('',#276,#124);
#113=LINE('',#278,#125);
#114=LINE('',#280,#126);
#115=LINE('',#284,#127);
#116=LINE('',#288,#128);
#117=LINE('',#290,#129);
#118=LINE('',#292,#130);
#119=LINE('',#294,#131);
#120=LINE('',#296,#132);
#121=VECTOR('',#217,1.);
#122=VECTOR('',#218,1.);
#123=VECTOR('',#219,1.);
#124=VECTOR('',#220,1.);
#125=VECTOR('',#221,1.);
#126=VECTOR('',#222,1.);
#127=VECTOR('',#227,1.);
#128=VECTOR('',#232,1.);
#129=VECTOR('',#233,1.);
#130=VECTOR('',#234,1.);
#131=VECTOR('',#235,1.);
#132=VECTOR('',#236,1.);
#133=EDGE_LOOP('',(#27,#28,#29,#30,#31,#32));
#134=EDGE_LOOP('',(#33,#34,#35,#36));
#135=EDGE_LOOP('',(#37,#38,#39,#40,#41,#42));
#136=EDGE_LOOP('',(#43,#44,#45,#46));
#137=EDGE_LOOP('',(#47));
#138=EDGE_LOOP('',(#48));
#139=EDGE_LOOP('',(#49,#50,#51,#52));
#140=EDGE_LOOP('',(#53));
#141=EDGE_LOOP('',(#54,#55,#56,#57));
#142=EDGE_LOOP('',(#58));
#143=EDGE_LOOP('',(#59));
#144=EDGE_LOOP('',(#60,#61,#62,#63));
#145=EDGE_LOOP('',(#64));
#146=EDGE_LOOP('',(#65));
#147=EDGE_LOOP('',(#66,#67,#68,#69));
#148=EDGE_LOOP('',(#70));
#149=FACE_BOUND('',#133,.T.);
#150=FACE_BOUND('',#134,.T.);
#151=FACE_BOUND('',#135,.T.);
#152=FACE_BOUND('',#136,.T.);
#153=FACE_BOUND('',#137,.T.);
#154=FACE_BOUND('',#138,.T.);
#155=FACE_BOUND('',#139,.T.);
#156=FACE_BOUND('',#140,.T.);
#157=FACE_BOUND('',#141,.T.);
#158=FACE_BOUND('',#142,.T.);
#159=FACE_BOUND('',#143,.T.);
#160=FACE_BOUND('',#144,.T.);
#161=FACE_BOUND('',#145,.T.);
#162=FACE_BOUND('',#146,.T.);
#163=FACE_BOUND('',#147,.T.);
#164=FACE_BOUND('',#148,.T.);
#165=PLANE('',#193);
#166=PLANE('',#197);
#167=PLANE('',#204);
#168=PLANE('',#205);
#169=PLANE('',#212);
#170=ADVANCED_FACE('',(#149),#165,.T.);
#171=ADVANCED_FACE('',(#150),#22,.T.);
#172=ADVANCED_FACE('',(#151),#166,.F.);
#173=ADVANCED_FACE('',(#152),#23,.F.);
#174=ADVANCED_FACE('',(#153,#154),#24,.F.);
#175=ADVANCED_FACE('',(#155,#156),#167,.T.);
#176=ADVANCED_FACE('',(#157,#158,#159),#168,.F.);
#177=ADVANCED_FACE('',(#160),#25,.T.);
#178=ADVANCED_FACE('',(#161,#162),#26,.F.);
#179=ADVANCED_FACE('',(#163,#164),#169,.T.);
#180=CLOSED_SHELL('',(#170,#171,#172,#173,#174,#175,#176,#177,#178,#179));
#181=STYLED_ITEM('',(#182),#189);
#182=PRESENTATION_STYLE_ASSIGNMENT((#183));
#183=SURFACE_STYLE_USAGE(.BOTH.,#184);
#184=SURFACE_SIDE_STYLE('',(#185));
#185=SURFACE_STYLE_FILL_AREA(#186);
#186=FILL_AREA_STYLE('',(#187));
#187=FILL_AREA_STYLE_COLOUR('',#188);
#188=COLOUR_RGB('',0.917647058823529,0.917647058823529,0.917647058823529);
#189=MANIFOLD_SOLID_BREP('Part 1',#180);
#190=SHAPE_DEFINITION_REPRESENTATION(#322,#191);
#191=SHAPE_REPRESENTATION('Part 1',(#192),#317);
#192=AXIS2_PLACEMENT_3D('',#267,#213,#214);
#193=AXIS2_PLACEMENT_3D('',#268,#215,#216);
#194=AXIS2_PLACEMENT_3D('',#281,#223,#224);
#195=AXIS2_PLACEMENT_3D('',#282,#225,#226);
#196=AXIS2_PLACEMENT_3D('',#286,#228,#229);
#197=AXIS2_PLACEMENT_3D('',#287,#230,#231);
#198=AXIS2_PLACEMENT_3D('',#297,#237,#238);
#199=AXIS2_PLACEMENT_3D('',#298,#239,#240);
#200=AXIS2_PLACEMENT_3D('',#299,#241,#242);
#201=AXIS2_PLACEMENT_3D('',#300,#243,#244);
#202=AXIS2_PLACEMENT_3D('',#301,#245,#246);
#203=AXIS2_PLACEMENT_3D('',#303,#247,#248);
#204=AXIS2_PLACEMENT_3D('',#305,#249,#250);
#205=AXIS2_PLACEMENT_3D('',#306,#251,#252);
#206=AXIS2_PLACEMENT_3D('',#307,#253,#254);
#207=AXIS2_PLACEMENT_3D('',#308,#255,#256);
#208=AXIS2_PLACEMENT_3D('',#310,#257,#258);
#209=AXIS2_PLACEMENT_3D('',#311,#259,#260);
#210=AXIS2_PLACEMENT_3D('',#312,#261,#262);
#211=AXIS2_PLACEMENT_3D('',#313,#263,#264);
#212=AXIS2_PLACEMENT_3D('',#315,#265,#266);
#213=DIRECTION('',(0.,0.,1.));
#214=DIRECTION('',(1.,0.,0.));
#215=DIRECTION('',(-0.874098360040121,0.485748964975914,0.));
#216=DIRECTION('',(-0.485748964975914,-0.874098360040121,0.));
#217=DIRECTION('',(0.485748964975914,0.874098360040121,0.));
#218=DIRECTION('',(0.,0.,-1.));
#219=DIRECTION('',(0.485748964975914,0.874098360040121,0.));
#220=DIRECTION('',(0.,0.,-1.));
#221=DIRECTION('',(0.485748964975914,0.874098360040121,0.));
#222=DIRECTION('',(0.,0.,-1.));
#223=DIRECTION('',(0.,0.,-1.));
#224=DIRECTION('',(-1.,0.,0.));
#225=DIRECTION('',(0.,0.,1.));
#226=DIRECTION('',(1.,0.,0.));
#227=DIRECTION('',(0.,0.,-1.));
#228=DIRECTION('',(0.,0.,1.));
#229=DIRECTION('',(1.,0.,0.));
#230=DIRECTION('',(-0.874098360040121,0.485748964975914,0.));
#231=DIRECTION('',(-0.485748964975914,-0.874098360040121,0.));
#232=DIRECTION('',(0.485748964975914,0.874098360040121,0.));
#233=DIRECTION('',(0.,0.,-1.));
#234=DIRECTION('',(0.485748964975914,0.874098360040121,0.));
#235=DIRECTION('',(0.,0.,-1.));
#236=DIRECTION('',(0.485748964975914,0.874098360040121,0.));
#237=DIRECTION('',(0.,0.,-1.));
#238=DIRECTION('',(-1.,0.,0.));
#239=DIRECTION('',(0.,0.,1.));
#240=DIRECTION('',(1.,0.,0.));
#241=DIRECTION('',(0.,0.,1.));
#242=DIRECTION('',(1.,0.,0.));
#243=DIRECTION('',(0.,0.,-1.));
#244=DIRECTION('',(-1.,0.,0.));
#245=DIRECTION('',(0.,0.,1.));
#246=DIRECTION('',(1.,0.,0.));
#247=DIRECTION('',(0.,0.,1.));
#248=DIRECTION('',(1.,0.,0.));
#249=DIRECTION('',(0.,0.,1.));
#250=DIRECTION('',(1.,0.,0.));
#251=DIRECTION('',(0.,0.,1.));
#252=DIRECTION('',(1.,0.,0.));
#253=DIRECTION('',(0.,0.,1.));
#254=DIRECTION('',(1.,0.,0.));
#255=DIRECTION('',(0.,0.,1.));
#256=DIRECTION('',(1.,0.,0.));
#257=DIRECTION('',(0.,0.,-1.));
#258=DIRECTION('',(-1.,0.,0.));
#259=DIRECTION('',(0.,0.,1.));
#260=DIRECTION('',(1.,0.,0.));
#261=DIRECTION('',(0.,0.,-1.));
#262=DIRECTION('',(-1.,0.,0.));
#263=DIRECTION('',(0.,0.,1.));
#264=DIRECTION('',(1.,0.,0.));
#265=DIRECTION('',(0.,0.,1.));
#266=DIRECTION('',(1.,0.,0.));
#267=CARTESIAN_POINT('',(0.,0.,0.));
#268=CARTESIAN_POINT('',(-0.00234303056288195,-0.00275101725327521,0.005));
#269=CARTESIAN_POINT('',(-0.00234303056288195,-0.00275101725327521,0.));
#270=CARTESIAN_POINT('',(-0.00893172275781917,-0.0146072752335456,0.));
#271=CARTESIAN_POINT('',(0.0101305238747308,0.0196949667095092,0.));
#272=CARTESIAN_POINT('',(-0.00893172275781917,-0.0146072752335456,0.005));
#273=CARTESIAN_POINT('',(-0.00893172275781917,-0.0146072752335456,0.005));
#274=CARTESIAN_POINT('',(-0.00234303056288195,-0.00275101725327521,0.005));
#275=CARTESIAN_POINT('',(0.00424566163205528,0.00910524072699521,0.005));
#276=CARTESIAN_POINT('',(0.00424566163205528,0.00910524072699521,0.005));
#277=CARTESIAN_POINT('',(0.00424566163205528,0.00910524072699521,0.00125));
#278=CARTESIAN_POINT('',(0.00718809275339298,0.0144001037182521,0.00125));
#279=CARTESIAN_POINT('',(0.0101305238747308,0.0196949667095092,0.00125));
#280=CARTESIAN_POINT('',(0.0101305238747308,0.0196949667095092,0.00125));
#281=CARTESIAN_POINT('',(-0.00560140800606616,-0.0164579787901034,0.005));
#282=CARTESIAN_POINT('',(-0.00560140800606616,-0.0164579787901034,0.));
#283=CARTESIAN_POINT('',(-0.00227109325431345,-0.0183086823466621,0.));
#284=CARTESIAN_POINT('',(-0.00227109325431345,-0.0183086823466621,0.005));
#285=CARTESIAN_POINT('',(-0.00227109325431345,-0.0183086823466621,0.005));
#286=CARTESIAN_POINT('',(-0.00560140800606616,-0.0164579787901034,0.005));
#287=CARTESIAN_POINT('',(0.00431759894062377,-0.00645242436639168,0.005));
#288=CARTESIAN_POINT('',(0.00431759894062377,-0.00645242436639168,0.));
#289=CARTESIAN_POINT('',(0.0167911533782365,0.0159935595963928,0.));
#290=CARTESIAN_POINT('',(0.0167911533782365,0.0159935595963928,0.00125));
#291=CARTESIAN_POINT('',(0.0167911533782365,0.0159935595963928,0.00125));
#292=CARTESIAN_POINT('',(0.0138487222568987,0.0106986966051356,0.00125));
#293=CARTESIAN_POINT('',(0.010906291135561,0.00540383361387874,0.00125));
#294=CARTESIAN_POINT('',(0.010906291135561,0.00540383361387874,0.005));
#295=CARTESIAN_POINT('',(0.010906291135561,0.00540383361387874,0.005));
#296=CARTESIAN_POINT('',(0.00431759894062377,-0.00645242436639168,0.005));
#297=CARTESIAN_POINT('',(0.0134608386264837,0.017844263152951,0.005));
#298=CARTESIAN_POINT('',(0.0134608386264837,0.017844263152951,0.00125));
#299=CARTESIAN_POINT('',(0.0134608386264837,0.017844263152951,0.005));
#300=CARTESIAN_POINT('',(-0.00560140800606616,-0.0164579787901034,0.005));
#301=CARTESIAN_POINT('',(-0.00560140800606616,-0.0164579787901034,0.005));
#302=CARTESIAN_POINT('',(-0.00242640800606616,-0.0164579787901034,0.005));
#303=CARTESIAN_POINT('',(-0.00560140800606616,-0.0164579787901034,0.));
#304=CARTESIAN_POINT('',(-0.00242640800606616,-0.0164579787901034,0.));
#305=CARTESIAN_POINT('',(0.00392971531020877,0.000693142181423766,0.005));
#306=CARTESIAN_POINT('',(0.00392971531020877,0.000693142181423766,0.));
#307=CARTESIAN_POINT('',(0.0134608386264837,0.017844263152951,0.));
#308=CARTESIAN_POINT('',(0.0134608386264837,0.017844263152951,0.));
#309=CARTESIAN_POINT('',(0.0166358386264837,0.017844263152951,0.));
#310=CARTESIAN_POINT('',(0.0134608386264837,0.017844263152951,0.00125));
#311=CARTESIAN_POINT('',(0.0134608386264837,0.017844263152951,0.00125));
#312=CARTESIAN_POINT('',(0.0134608386264837,0.017844263152951,0.00125));
#313=CARTESIAN_POINT('',(0.0134608386264837,0.017844263152951,0.00125));
#314=CARTESIAN_POINT('',(0.0166358386264837,0.017844263152951,0.00125));
#315=CARTESIAN_POINT('',(0.00392971531020877,0.000693142181423766,0.00125));
#316=MECHANICAL_DESIGN_GEOMETRIC_PRESENTATION_REPRESENTATION('',(#181),
#317);
#317=(
GEOMETRIC_REPRESENTATION_CONTEXT(3)
GLOBAL_UNCERTAINTY_ASSIGNED_CONTEXT((#318))
GLOBAL_UNIT_ASSIGNED_CONTEXT((#321,#320,#319))
REPRESENTATION_CONTEXT('Part 1','TOP_LEVEL_ASSEMBLY_PART')
);
#318=UNCERTAINTY_MEASURE_WITH_UNIT(LENGTH_MEASURE(1.E-8),#321,
'DISTANCE_ACCURACY_VALUE','Maximum Tolerance applied to model');
#319=(
NAMED_UNIT(*)
SI_UNIT($,.STERADIAN.)
SOLID_ANGLE_UNIT()
);
#320=(
NAMED_UNIT(*)
PLANE_ANGLE_UNIT()
SI_UNIT($,.RADIAN.)
);
#321=(
LENGTH_UNIT()
NAMED_UNIT(*)
SI_UNIT($,.METRE.)
);
#322=PRODUCT_DEFINITION_SHAPE('','',#323);
#323=PRODUCT_DEFINITION('','',#325,#324);
#324=PRODUCT_DEFINITION_CONTEXT('',#331,'design');
#325=PRODUCT_DEFINITION_FORMATION_WITH_SPECIFIED_SOURCE('','',#327,
 .NOT_KNOWN.);
#326=PRODUCT_RELATED_PRODUCT_CATEGORY('','',(#327));
#327=PRODUCT('Part 1','Part 1','Part 1',(#329));
#328=PRODUCT_CATEGORY('','');
#329=PRODUCT_CONTEXT('',#331,'mechanical');
#330=APPLICATION_PROTOCOL_DEFINITION('international standard',
'ap242_managed_model_based_3d_engineering',2020,#331);
#331=APPLICATION_CONTEXT('managed model based 3d engineering');
ENDSEC;
END-ISO-10303-21;
