ISO-10303-21;
HEADER;
/* Generated by software containing ST-Developer
 * from STEP Tools, Inc. (www.steptools.com) 
 */
/* OPTION: using custom renumber hook */

FILE_DESCRIPTION(
/* description */ ('STEP AP242 Edition 2',
'CAx-IF Rec.Pracs.---Representation and Presentation of Product Manufa
cturing Information (PMI)---4.0---2014-10-13',
'CAx-IF Rec.Pracs.---3D Tessellated Geometry---0.4---2014-09-14','2;1',
'CAx-IF Rec.Pracs.---User Defined Attributes---1.5---2016-08-15'),
/* implementation_level */ '2;1');

FILE_NAME(
/* name */ 'Body - Part 6',
/* time_stamp */ '2026-08-03T01:29:05Z',
/* author */ (''),
/* organization */ (''),
/* preprocessor_version */ 'ST-DEVELOPER v20',
/* originating_system */ 'ONSHAPE BY PTC INC, 1.218',
/* authorisation */ '  ');

FILE_SCHEMA (('AP242_MANAGED_MODEL_BASED_3D_ENGINEERING_MIM_LF { 1 0 10303 442 3 1 4 }'));
ENDSEC;

DATA;
#10=SHAPE_REPRESENTATION_RELATIONSHIP('','',#153,#11);
#11=ADVANCED_BREP_SHAPE_REPRESENTATION('',(#151),#247);
#12=CIRCLE('',#159,0.000758209489937157);
#13=CIRCLE('',#160,0.000758209489937157);
#14=CIRCLE('',#163,0.000758209489937157);
#15=CIRCLE('',#164,0.000758209489937157);
#16=CYLINDRICAL_SURFACE('',#158,0.000758209489937157);
#17=CYLINDRICAL_SURFACE('',#162,0.000758209489937157);
#18=ORIENTED_EDGE('',*,*,#54,.T.);
#19=ORIENTED_EDGE('',*,*,#55,.F.);
#20=ORIENTED_EDGE('',*,*,#56,.F.);
#21=ORIENTED_EDGE('',*,*,#57,.T.);
#22=ORIENTED_EDGE('',*,*,#58,.F.);
#23=ORIENTED_EDGE('',*,*,#57,.F.);
#24=ORIENTED_EDGE('',*,*,#59,.T.);
#25=ORIENTED_EDGE('',*,*,#60,.T.);
#26=ORIENTED_EDGE('',*,*,#61,.F.);
#27=ORIENTED_EDGE('',*,*,#60,.F.);
#28=ORIENTED_EDGE('',*,*,#62,.T.);
#29=ORIENTED_EDGE('',*,*,#63,.T.);
#30=ORIENTED_EDGE('',*,*,#64,.F.);
#31=ORIENTED_EDGE('',*,*,#63,.F.);
#32=ORIENTED_EDGE('',*,*,#65,.T.);
#33=ORIENTED_EDGE('',*,*,#66,.T.);
#34=ORIENTED_EDGE('',*,*,#67,.T.);
#35=ORIENTED_EDGE('',*,*,#66,.F.);
#36=ORIENTED_EDGE('',*,*,#68,.F.);
#37=ORIENTED_EDGE('',*,*,#69,.T.);
#38=ORIENTED_EDGE('',*,*,#70,.F.);
#39=ORIENTED_EDGE('',*,*,#69,.F.);
#40=ORIENTED_EDGE('',*,*,#71,.T.);
#41=ORIENTED_EDGE('',*,*,#55,.T.);
#42=ORIENTED_EDGE('',*,*,#56,.T.);
#43=ORIENTED_EDGE('',*,*,#71,.F.);
#44=ORIENTED_EDGE('',*,*,#68,.T.);
#45=ORIENTED_EDGE('',*,*,#65,.F.);
#46=ORIENTED_EDGE('',*,*,#62,.F.);
#47=ORIENTED_EDGE('',*,*,#59,.F.);
#48=ORIENTED_EDGE('',*,*,#54,.F.);
#49=ORIENTED_EDGE('',*,*,#58,.T.);
#50=ORIENTED_EDGE('',*,*,#61,.T.);
#51=ORIENTED_EDGE('',*,*,#64,.T.);
#52=ORIENTED_EDGE('',*,*,#67,.F.);
#53=ORIENTED_EDGE('',*,*,#70,.T.);
#54=EDGE_CURVE('',#72,#73,#84,.T.);
#55=EDGE_CURVE('',#74,#73,#85,.T.);
#56=EDGE_CURVE('',#75,#74,#86,.T.);
#57=EDGE_CURVE('',#75,#72,#87,.T.);
#58=EDGE_CURVE('',#72,#76,#88,.T.);
#59=EDGE_CURVE('',#75,#77,#89,.T.);
#60=EDGE_CURVE('',#77,#76,#90,.T.);
#61=EDGE_CURVE('',#76,#78,#91,.T.);
#62=EDGE_CURVE('',#77,#79,#92,.T.);
#63=EDGE_CURVE('',#79,#78,#93,.T.);
#64=EDGE_CURVE('',#78,#80,#12,.T.);
#65=EDGE_CURVE('',#79,#81,#13,.T.);
#66=EDGE_CURVE('',#81,#80,#94,.T.);
#67=EDGE_CURVE('',#82,#80,#95,.T.);
#68=EDGE_CURVE('',#83,#81,#96,.T.);
#69=EDGE_CURVE('',#83,#82,#97,.T.);
#70=EDGE_CURVE('',#82,#73,#14,.T.);
#71=EDGE_CURVE('',#83,#74,#15,.T.);
#72=VERTEX_POINT('',#210);
#73=VERTEX_POINT('',#211);
#74=VERTEX_POINT('',#213);
#75=VERTEX_POINT('',#215);
#76=VERTEX_POINT('',#219);
#77=VERTEX_POINT('',#221);
#78=VERTEX_POINT('',#225);
#79=VERTEX_POINT('',#227);
#80=VERTEX_POINT('',#231);
#81=VERTEX_POINT('',#233);
#82=VERTEX_POINT('',#237);
#83=VERTEX_POINT('',#239);
#84=LINE('',#209,#98);
#85=LINE('',#212,#99);
#86=LINE('',#214,#100);
#87=LINE('',#216,#101);
#88=LINE('',#218,#102);
#89=LINE('',#220,#103);
#90=LINE('',#222,#104);
#91=LINE('',#224,#105);
#92=LINE('',#226,#106);
#93=LINE('',#228,#107);
#94=LINE('',#234,#108);
#95=LINE('',#236,#109);
#96=LINE('',#238,#110);
#97=LINE('',#240,#111);
#98=VECTOR('',#171,1.);
#99=VECTOR('',#172,1.);
#100=VECTOR('',#173,1.);
#101=VECTOR('',#174,1.);
#102=VECTOR('',#177,1.);
#103=VECTOR('',#178,1.);
#104=VECTOR('',#179,1.);
#105=VECTOR('',#182,1.);
#106=VECTOR('',#183,1.);
#107=VECTOR('',#184,1.);
#108=VECTOR('',#191,1.);
#109=VECTOR('',#194,1.);
#110=VECTOR('',#195,1.);
#111=VECTOR('',#196,1.);
#112=EDGE_LOOP('',(#18,#19,#20,#21));
#113=EDGE_LOOP('',(#22,#23,#24,#25));
#114=EDGE_LOOP('',(#26,#27,#28,#29));
#115=EDGE_LOOP('',(#30,#31,#32,#33));
#116=EDGE_LOOP('',(#34,#35,#36,#37));
#117=EDGE_LOOP('',(#38,#39,#40,#41));
#118=EDGE_LOOP('',(#42,#43,#44,#45,#46,#47));
#119=EDGE_LOOP('',(#48,#49,#50,#51,#52,#53));
#120=FACE_BOUND('',#112,.T.);
#121=FACE_BOUND('',#113,.T.);
#122=FACE_BOUND('',#114,.T.);
#123=FACE_BOUND('',#115,.T.);
#124=FACE_BOUND('',#116,.T.);
#125=FACE_BOUND('',#117,.T.);
#126=FACE_BOUND('',#118,.T.);
#127=FACE_BOUND('',#119,.T.);
#128=PLANE('',#155);
#129=PLANE('',#156);
#130=PLANE('',#157);
#131=PLANE('',#161);
#132=PLANE('',#165);
#133=PLANE('',#166);
#134=ADVANCED_FACE('',(#120),#128,.F.);
#135=ADVANCED_FACE('',(#121),#129,.T.);
#136=ADVANCED_FACE('',(#122),#130,.T.);
#137=ADVANCED_FACE('',(#123),#16,.T.);
#138=ADVANCED_FACE('',(#124),#131,.F.);
#139=ADVANCED_FACE('',(#125),#17,.T.);
#140=ADVANCED_FACE('',(#126),#132,.F.);
#141=ADVANCED_FACE('',(#127),#133,.T.);
#142=CLOSED_SHELL('',(#134,#135,#136,#137,#138,#139,#140,#141));
#143=STYLED_ITEM('',(#144),#151);
#144=PRESENTATION_STYLE_ASSIGNMENT((#145));
#145=SURFACE_STYLE_USAGE(.BOTH.,#146);
#146=SURFACE_SIDE_STYLE('',(#147));
#147=SURFACE_STYLE_FILL_AREA(#148);
#148=FILL_AREA_STYLE('',(#149));
#149=FILL_AREA_STYLE_COLOUR('',#150);
#150=COLOUR_RGB('',0.917647058823529,0.917647058823529,0.917647058823529);
#151=MANIFOLD_SOLID_BREP('Part 6',#142);
#152=SHAPE_DEFINITION_REPRESENTATION(#252,#153);
#153=SHAPE_REPRESENTATION('Part 6',(#154),#247);
#154=AXIS2_PLACEMENT_3D('',#207,#167,#168);
#155=AXIS2_PLACEMENT_3D('',#208,#169,#170);
#156=AXIS2_PLACEMENT_3D('',#217,#175,#176);
#157=AXIS2_PLACEMENT_3D('',#223,#180,#181);
#158=AXIS2_PLACEMENT_3D('',#229,#185,#186);
#159=AXIS2_PLACEMENT_3D('',#230,#187,#188);
#160=AXIS2_PLACEMENT_3D('',#232,#189,#190);
#161=AXIS2_PLACEMENT_3D('',#235,#192,#193);
#162=AXIS2_PLACEMENT_3D('',#241,#197,#198);
#163=AXIS2_PLACEMENT_3D('',#242,#199,#200);
#164=AXIS2_PLACEMENT_3D('',#243,#201,#202);
#165=AXIS2_PLACEMENT_3D('',#244,#203,#204);
#166=AXIS2_PLACEMENT_3D('',#245,#205,#206);
#167=DIRECTION('',(0.,0.,1.));
#168=DIRECTION('',(1.,0.,0.));
#169=DIRECTION('',(0.371390676354104,0.928476690885259,0.));
#170=DIRECTION('',(-0.928476690885259,0.371390676354104,0.));
#171=DIRECTION('',(-0.928476690885259,0.371390676354104,0.));
#172=DIRECTION('',(0.,0.,1.));
#173=DIRECTION('',(-0.928476690885259,0.371390676354104,0.));
#174=DIRECTION('',(0.,0.,1.));
#175=DIRECTION('',(0.,-1.,0.));
#176=DIRECTION('',(0.,0.,-1.));
#177=DIRECTION('',(1.,0.,0.));
#178=DIRECTION('',(1.,0.,0.));
#179=DIRECTION('',(0.,0.,1.));
#180=DIRECTION('',(0.371390676354105,-0.928476690885259,0.));
#181=DIRECTION('',(0.928476690885259,0.371390676354105,0.));
#182=DIRECTION('',(0.928476690885259,0.371390676354105,0.));
#183=DIRECTION('',(0.928476690885259,0.371390676354105,0.));
#184=DIRECTION('',(0.,0.,1.));
#185=DIRECTION('',(0.,0.,1.));
#186=DIRECTION('',(1.,0.,0.));
#187=DIRECTION('',(0.,0.,1.));
#188=DIRECTION('',(1.,0.,0.));
#189=DIRECTION('',(0.,0.,1.));
#190=DIRECTION('',(1.,0.,0.));
#191=DIRECTION('',(0.,0.,1.));
#192=DIRECTION('',(0.,-1.,0.));
#193=DIRECTION('',(0.,0.,-1.));
#194=DIRECTION('',(1.,0.,0.));
#195=DIRECTION('',(1.,0.,0.));
#196=DIRECTION('',(0.,0.,1.));
#197=DIRECTION('',(0.,0.,1.));
#198=DIRECTION('',(1.,0.,0.));
#199=DIRECTION('',(0.,0.,1.));
#200=DIRECTION('',(1.,0.,0.));
#201=DIRECTION('',(0.,0.,1.));
#202=DIRECTION('',(1.,0.,0.));
#203=DIRECTION('',(0.,0.,1.));
#204=DIRECTION('',(1.,0.,0.));
#205=DIRECTION('',(0.,0.,1.));
#206=DIRECTION('',(1.,0.,0.));
#207=CARTESIAN_POINT('',(0.,0.,0.));
#208=CARTESIAN_POINT('',(-0.0584972633398102,0.0587049053359241,-0.0762));
#209=CARTESIAN_POINT('',(-0.0584972633398102,0.0587049053359241,0.));
#210=CARTESIAN_POINT('',(-0.05715,0.058166,0.));
#211=CARTESIAN_POINT('',(-0.0598445266796204,0.0592438106718482,0.));
#212=CARTESIAN_POINT('',(-0.0598445266796204,0.0592438106718482,-0.0762));
#213=CARTESIAN_POINT('',(-0.0598445266796204,0.0592438106718482,-0.0762));
#214=CARTESIAN_POINT('',(-0.0584972633398102,0.0587049053359241,-0.0762));
#215=CARTESIAN_POINT('',(-0.05715,0.058166,-0.0762));
#216=CARTESIAN_POINT('',(-0.05715,0.058166,-0.0762));
#217=CARTESIAN_POINT('',(0.,0.058166,-0.0762));
#218=CARTESIAN_POINT('',(0.,0.058166,0.));
#219=CARTESIAN_POINT('',(0.05715,0.058166,0.));
#220=CARTESIAN_POINT('',(0.,0.058166,-0.0762));
#221=CARTESIAN_POINT('',(0.05715,0.058166,-0.0762));
#222=CARTESIAN_POINT('',(0.05715,0.058166,-0.0762));
#223=CARTESIAN_POINT('',(0.0584972633398102,0.0587049053359241,-0.0762));
#224=CARTESIAN_POINT('',(0.0584972633398102,0.0587049053359241,0.));
#225=CARTESIAN_POINT('',(0.0598445266796205,0.0592438106718482,0.));
#226=CARTESIAN_POINT('',(0.0584972633398102,0.0587049053359241,-0.0762));
#227=CARTESIAN_POINT('',(0.0598445266796205,0.0592438106718482,-0.0762));
#228=CARTESIAN_POINT('',(0.0598445266796205,0.0592438106718482,-0.0762));
#229=CARTESIAN_POINT('',(0.0595629347443346,0.0599477905100628,-0.0762));
#230=CARTESIAN_POINT('',(0.0595629347443346,0.0599477905100628,0.));
#231=CARTESIAN_POINT('',(0.0595629347443346,0.060706,0.));
#232=CARTESIAN_POINT('',(0.0595629347443346,0.0599477905100628,-0.0762));
#233=CARTESIAN_POINT('',(0.0595629347443346,0.060706,-0.0762));
#234=CARTESIAN_POINT('',(0.0595629347443346,0.060706,-0.0762));
#235=CARTESIAN_POINT('',(6.93889390390723E-18,0.060706,-0.0762));
#236=CARTESIAN_POINT('',(6.93889390390723E-18,0.060706,0.));
#237=CARTESIAN_POINT('',(-0.0595629347443346,0.060706,0.));
#238=CARTESIAN_POINT('',(6.93889390390723E-18,0.060706,-0.0762));
#239=CARTESIAN_POINT('',(-0.0595629347443346,0.060706,-0.0762));
#240=CARTESIAN_POINT('',(-0.0595629347443346,0.060706,-0.0762));
#241=CARTESIAN_POINT('',(-0.0595629347443346,0.0599477905100628,-0.0762));
#242=CARTESIAN_POINT('',(-0.0595629347443346,0.0599477905100628,0.));
#243=CARTESIAN_POINT('',(-0.0595629347443346,0.0599477905100628,-0.0762));
#244=CARTESIAN_POINT('',(0.,0.0416808115022986,-0.0762));
#245=CARTESIAN_POINT('',(0.,0.0416808115022986,0.));
#246=MECHANICAL_DESIGN_GEOMETRIC_PRESENTATION_REPRESENTATION('',(#143),
#247);
#247=(
GEOMETRIC_REPRESENTATION_CONTEXT(3)
GLOBAL_UNCERTAINTY_ASSIGNED_CONTEXT((#248))
GLOBAL_UNIT_ASSIGNED_CONTEXT((#251,#250,#249))
REPRESENTATION_CONTEXT('Part 6','TOP_LEVEL_ASSEMBLY_PART')
);
#248=UNCERTAINTY_MEASURE_WITH_UNIT(LENGTH_MEASURE(1.E-8),#251,
'DISTANCE_ACCURACY_VALUE','Maximum Tolerance applied to model');
#249=(
NAMED_UNIT(*)
SI_UNIT($,.STERADIAN.)
SOLID_ANGLE_UNIT()
);
#250=(
NAMED_UNIT(*)
PLANE_ANGLE_UNIT()
SI_UNIT($,.RADIAN.)
);
#251=(
LENGTH_UNIT()
NAMED_UNIT(*)
SI_UNIT($,.METRE.)
);
#252=PRODUCT_DEFINITION_SHAPE('','',#253);
#253=PRODUCT_DEFINITION('','',#255,#254);
#254=PRODUCT_DEFINITION_CONTEXT('',#261,'design');
#255=PRODUCT_DEFINITION_FORMATION_WITH_SPECIFIED_SOURCE('','',#257,
 .NOT_KNOWN.);
#256=PRODUCT_RELATED_PRODUCT_CATEGORY('','',(#257));
#257=PRODUCT('Part 6','Part 6','Part 6',(#259));
#258=PRODUCT_CATEGORY('','');
#259=PRODUCT_CONTEXT('',#261,'mechanical');
#260=APPLICATION_PROTOCOL_DEFINITION('international standard',
'ap242_managed_model_based_3d_engineering',2020,#261);
#261=APPLICATION_CONTEXT('managed model based 3d engineering');
ENDSEC;
END-ISO-10303-21;
