ISO-10303-21;
HEADER;
/* Generated by software containing ST-Developer
 * from STEP Tools, Inc. (www.steptools.com) 
 */
/* OPTION: using custom renumber hook */

FILE_DESCRIPTION(
/* description */ ('STEP AP242 Edition 2',
'CAx-IF Rec.Pracs.---Representation and Presentation of Product Manufa
cturing Information (PMI)---4.0---2014-10-13',
'CAx-IF Rec.Pracs.---3D Tessellated Geometry---0.4---2014-09-14','2;1',
'CAx-IF Rec.Pracs.---User Defined Attributes---1.5---2016-08-15'),
/* implementation_level */ '2;1');

FILE_NAME(
/* name */ 'Body - Part 10',
/* time_stamp */ '2026-08-03T01:29:05Z',
/* author */ (''),
/* organization */ (''),
/* preprocessor_version */ 'ST-DEVELOPER v20',
/* originating_system */ 'ONSHAPE BY PTC INC, 1.218',
/* authorisation */ '  ');

FILE_SCHEMA (('AP242_MANAGED_MODEL_BASED_3D_ENGINEERING_MIM_LF { 1 0 10303 442 3 1 4 }'));
ENDSEC;

DATA;
#10=SHAPE_REPRESENTATION_RELATIONSHIP('','',#643,#11);
#11=ADVANCED_BREP_SHAPE_REPRESENTATION('',(#641),#1213);
#12=PLANE('',#651);
#13=PLANE('',#658);
#14=PLANE('',#659);
#15=PLANE('',#660);
#16=CIRCLE('',#646,0.00208625705481449);
#17=CIRCLE('',#647,0.00208625705481449);
#18=CIRCLE('',#649,0.00253399761117502);
#19=CIRCLE('',#650,0.00253399761117502);
#20=CIRCLE('',#653,0.00194524898019456);
#21=CIRCLE('',#654,0.00194524898019456);
#22=CIRCLE('',#656,0.00265334516203829);
#23=CIRCLE('',#657,0.00265334516203829);
#24=CYLINDRICAL_SURFACE('',#645,0.00208625705481449);
#25=CYLINDRICAL_SURFACE('',#648,0.00253399761117502);
#26=CYLINDRICAL_SURFACE('',#652,0.00194524898019456);
#27=CYLINDRICAL_SURFACE('',#655,0.00265334516203829);
#28=LINE('',#745,#64);
#29=LINE('',#751,#65);
#30=LINE('',#764,#66);
#31=LINE('',#781,#67);
#32=LINE('',#789,#68);
#33=LINE('',#804,#69);
#34=LINE('',#812,#70);
#35=LINE('',#827,#71);
#36=LINE('',#844,#72);
#37=LINE('',#861,#73);
#38=LINE('',#878,#74);
#39=LINE('',#895,#75);
#40=LINE('',#912,#76);
#41=LINE('',#929,#77);
#42=LINE('',#946,#78);
#43=LINE('',#952,#79);
#44=LINE('',#954,#80);
#45=LINE('',#956,#81);
#46=LINE('',#969,#82);
#47=LINE('',#986,#83);
#48=LINE('',#1003,#84);
#49=LINE('',#1020,#85);
#50=LINE('',#1028,#86);
#51=LINE('',#1043,#87);
#52=LINE('',#1051,#88);
#53=LINE('',#1066,#89);
#54=LINE('',#1083,#90);
#55=LINE('',#1100,#91);
#56=LINE('',#1117,#92);
#57=LINE('',#1134,#93);
#58=LINE('',#1151,#94);
#59=LINE('',#1168,#95);
#60=LINE('',#1174,#96);
#61=LINE('',#1176,#97);
#62=LINE('',#1178,#98);
#63=LINE('',#1191,#99);
#64=VECTOR('',#663,1.);
#65=VECTOR('',#664,1.);
#66=VECTOR('',#665,1.);
#67=VECTOR('',#666,1.);
#68=VECTOR('',#671,1.);
#69=VECTOR('',#674,1.);
#70=VECTOR('',#679,1.);
#71=VECTOR('',#682,1.);
#72=VECTOR('',#683,1.);
#73=VECTOR('',#684,1.);
#74=VECTOR('',#685,1.);
#75=VECTOR('',#686,1.);
#76=VECTOR('',#687,1.);
#77=VECTOR('',#688,1.);
#78=VECTOR('',#689,1.);
#79=VECTOR('',#692,1.);
#80=VECTOR('',#693,1.);
#81=VECTOR('',#694,1.);
#82=VECTOR('',#695,1.);
#83=VECTOR('',#696,1.);
#84=VECTOR('',#697,1.);
#85=VECTOR('',#698,1.);
#86=VECTOR('',#703,1.);
#87=VECTOR('',#706,1.);
#88=VECTOR('',#711,1.);
#89=VECTOR('',#714,1.);
#90=VECTOR('',#715,1.);
#91=VECTOR('',#716,1.);
#92=VECTOR('',#717,1.);
#93=VECTOR('',#718,1.);
#94=VECTOR('',#719,1.);
#95=VECTOR('',#720,1.);
#96=VECTOR('',#723,1.);
#97=VECTOR('',#724,1.);
#98=VECTOR('',#725,1.);
#99=VECTOR('',#726,1.);
#100=ORIENTED_EDGE('',*,*,#292,.F.);
#101=ORIENTED_EDGE('',*,*,#293,.F.);
#102=ORIENTED_EDGE('',*,*,#294,.T.);
#103=ORIENTED_EDGE('',*,*,#295,.T.);
#104=ORIENTED_EDGE('',*,*,#296,.F.);
#105=ORIENTED_EDGE('',*,*,#297,.F.);
#106=ORIENTED_EDGE('',*,*,#298,.T.);
#107=ORIENTED_EDGE('',*,*,#293,.T.);
#108=ORIENTED_EDGE('',*,*,#299,.F.);
#109=ORIENTED_EDGE('',*,*,#300,.F.);
#110=ORIENTED_EDGE('',*,*,#301,.T.);
#111=ORIENTED_EDGE('',*,*,#297,.T.);
#112=ORIENTED_EDGE('',*,*,#302,.F.);
#113=ORIENTED_EDGE('',*,*,#303,.F.);
#114=ORIENTED_EDGE('',*,*,#304,.T.);
#115=ORIENTED_EDGE('',*,*,#300,.T.);
#116=ORIENTED_EDGE('',*,*,#305,.F.);
#117=ORIENTED_EDGE('',*,*,#306,.F.);
#118=ORIENTED_EDGE('',*,*,#307,.T.);
#119=ORIENTED_EDGE('',*,*,#303,.T.);
#120=ORIENTED_EDGE('',*,*,#308,.F.);
#121=ORIENTED_EDGE('',*,*,#309,.F.);
#122=ORIENTED_EDGE('',*,*,#310,.T.);
#123=ORIENTED_EDGE('',*,*,#306,.T.);
#124=ORIENTED_EDGE('',*,*,#311,.F.);
#125=ORIENTED_EDGE('',*,*,#312,.F.);
#126=ORIENTED_EDGE('',*,*,#313,.T.);
#127=ORIENTED_EDGE('',*,*,#309,.T.);
#128=ORIENTED_EDGE('',*,*,#314,.F.);
#129=ORIENTED_EDGE('',*,*,#315,.F.);
#130=ORIENTED_EDGE('',*,*,#316,.T.);
#131=ORIENTED_EDGE('',*,*,#312,.T.);
#132=ORIENTED_EDGE('',*,*,#317,.F.);
#133=ORIENTED_EDGE('',*,*,#318,.F.);
#134=ORIENTED_EDGE('',*,*,#319,.T.);
#135=ORIENTED_EDGE('',*,*,#315,.T.);
#136=ORIENTED_EDGE('',*,*,#320,.F.);
#137=ORIENTED_EDGE('',*,*,#321,.F.);
#138=ORIENTED_EDGE('',*,*,#322,.T.);
#139=ORIENTED_EDGE('',*,*,#318,.T.);
#140=ORIENTED_EDGE('',*,*,#323,.F.);
#141=ORIENTED_EDGE('',*,*,#324,.F.);
#142=ORIENTED_EDGE('',*,*,#325,.T.);
#143=ORIENTED_EDGE('',*,*,#321,.T.);
#144=ORIENTED_EDGE('',*,*,#326,.F.);
#145=ORIENTED_EDGE('',*,*,#327,.F.);
#146=ORIENTED_EDGE('',*,*,#328,.T.);
#147=ORIENTED_EDGE('',*,*,#324,.T.);
#148=ORIENTED_EDGE('',*,*,#329,.F.);
#149=ORIENTED_EDGE('',*,*,#330,.F.);
#150=ORIENTED_EDGE('',*,*,#331,.T.);
#151=ORIENTED_EDGE('',*,*,#327,.T.);
#152=ORIENTED_EDGE('',*,*,#332,.F.);
#153=ORIENTED_EDGE('',*,*,#333,.F.);
#154=ORIENTED_EDGE('',*,*,#334,.T.);
#155=ORIENTED_EDGE('',*,*,#330,.T.);
#156=ORIENTED_EDGE('',*,*,#335,.F.);
#157=ORIENTED_EDGE('',*,*,#336,.F.);
#158=ORIENTED_EDGE('',*,*,#337,.T.);
#159=ORIENTED_EDGE('',*,*,#333,.T.);
#160=ORIENTED_EDGE('',*,*,#338,.F.);
#161=ORIENTED_EDGE('',*,*,#339,.F.);
#162=ORIENTED_EDGE('',*,*,#340,.T.);
#163=ORIENTED_EDGE('',*,*,#336,.T.);
#164=ORIENTED_EDGE('',*,*,#341,.F.);
#165=ORIENTED_EDGE('',*,*,#342,.F.);
#166=ORIENTED_EDGE('',*,*,#343,.T.);
#167=ORIENTED_EDGE('',*,*,#339,.T.);
#168=ORIENTED_EDGE('',*,*,#344,.F.);
#169=ORIENTED_EDGE('',*,*,#345,.F.);
#170=ORIENTED_EDGE('',*,*,#346,.T.);
#171=ORIENTED_EDGE('',*,*,#342,.T.);
#172=ORIENTED_EDGE('',*,*,#347,.F.);
#173=ORIENTED_EDGE('',*,*,#348,.F.);
#174=ORIENTED_EDGE('',*,*,#349,.T.);
#175=ORIENTED_EDGE('',*,*,#345,.T.);
#176=ORIENTED_EDGE('',*,*,#350,.F.);
#177=ORIENTED_EDGE('',*,*,#351,.F.);
#178=ORIENTED_EDGE('',*,*,#352,.T.);
#179=ORIENTED_EDGE('',*,*,#348,.T.);
#180=ORIENTED_EDGE('',*,*,#353,.F.);
#181=ORIENTED_EDGE('',*,*,#354,.F.);
#182=ORIENTED_EDGE('',*,*,#355,.T.);
#183=ORIENTED_EDGE('',*,*,#351,.T.);
#184=ORIENTED_EDGE('',*,*,#356,.F.);
#185=ORIENTED_EDGE('',*,*,#357,.F.);
#186=ORIENTED_EDGE('',*,*,#358,.T.);
#187=ORIENTED_EDGE('',*,*,#354,.T.);
#188=ORIENTED_EDGE('',*,*,#359,.F.);
#189=ORIENTED_EDGE('',*,*,#360,.F.);
#190=ORIENTED_EDGE('',*,*,#361,.T.);
#191=ORIENTED_EDGE('',*,*,#357,.T.);
#192=ORIENTED_EDGE('',*,*,#362,.F.);
#193=ORIENTED_EDGE('',*,*,#363,.F.);
#194=ORIENTED_EDGE('',*,*,#364,.T.);
#195=ORIENTED_EDGE('',*,*,#360,.T.);
#196=ORIENTED_EDGE('',*,*,#365,.F.);
#197=ORIENTED_EDGE('',*,*,#366,.F.);
#198=ORIENTED_EDGE('',*,*,#367,.T.);
#199=ORIENTED_EDGE('',*,*,#363,.T.);
#200=ORIENTED_EDGE('',*,*,#368,.F.);
#201=ORIENTED_EDGE('',*,*,#369,.F.);
#202=ORIENTED_EDGE('',*,*,#370,.T.);
#203=ORIENTED_EDGE('',*,*,#366,.T.);
#204=ORIENTED_EDGE('',*,*,#371,.F.);
#205=ORIENTED_EDGE('',*,*,#372,.F.);
#206=ORIENTED_EDGE('',*,*,#373,.T.);
#207=ORIENTED_EDGE('',*,*,#369,.T.);
#208=ORIENTED_EDGE('',*,*,#374,.F.);
#209=ORIENTED_EDGE('',*,*,#375,.F.);
#210=ORIENTED_EDGE('',*,*,#376,.T.);
#211=ORIENTED_EDGE('',*,*,#372,.T.);
#212=ORIENTED_EDGE('',*,*,#377,.F.);
#213=ORIENTED_EDGE('',*,*,#378,.F.);
#214=ORIENTED_EDGE('',*,*,#379,.T.);
#215=ORIENTED_EDGE('',*,*,#375,.T.);
#216=ORIENTED_EDGE('',*,*,#380,.F.);
#217=ORIENTED_EDGE('',*,*,#381,.F.);
#218=ORIENTED_EDGE('',*,*,#382,.T.);
#219=ORIENTED_EDGE('',*,*,#378,.T.);
#220=ORIENTED_EDGE('',*,*,#383,.F.);
#221=ORIENTED_EDGE('',*,*,#384,.F.);
#222=ORIENTED_EDGE('',*,*,#385,.T.);
#223=ORIENTED_EDGE('',*,*,#381,.T.);
#224=ORIENTED_EDGE('',*,*,#386,.F.);
#225=ORIENTED_EDGE('',*,*,#295,.F.);
#226=ORIENTED_EDGE('',*,*,#387,.T.);
#227=ORIENTED_EDGE('',*,*,#384,.T.);
#228=ORIENTED_EDGE('',*,*,#294,.F.);
#229=ORIENTED_EDGE('',*,*,#298,.F.);
#230=ORIENTED_EDGE('',*,*,#301,.F.);
#231=ORIENTED_EDGE('',*,*,#304,.F.);
#232=ORIENTED_EDGE('',*,*,#307,.F.);
#233=ORIENTED_EDGE('',*,*,#310,.F.);
#234=ORIENTED_EDGE('',*,*,#313,.F.);
#235=ORIENTED_EDGE('',*,*,#316,.F.);
#236=ORIENTED_EDGE('',*,*,#319,.F.);
#237=ORIENTED_EDGE('',*,*,#322,.F.);
#238=ORIENTED_EDGE('',*,*,#325,.F.);
#239=ORIENTED_EDGE('',*,*,#328,.F.);
#240=ORIENTED_EDGE('',*,*,#331,.F.);
#241=ORIENTED_EDGE('',*,*,#334,.F.);
#242=ORIENTED_EDGE('',*,*,#337,.F.);
#243=ORIENTED_EDGE('',*,*,#340,.F.);
#244=ORIENTED_EDGE('',*,*,#343,.F.);
#245=ORIENTED_EDGE('',*,*,#346,.F.);
#246=ORIENTED_EDGE('',*,*,#349,.F.);
#247=ORIENTED_EDGE('',*,*,#352,.F.);
#248=ORIENTED_EDGE('',*,*,#355,.F.);
#249=ORIENTED_EDGE('',*,*,#358,.F.);
#250=ORIENTED_EDGE('',*,*,#361,.F.);
#251=ORIENTED_EDGE('',*,*,#364,.F.);
#252=ORIENTED_EDGE('',*,*,#367,.F.);
#253=ORIENTED_EDGE('',*,*,#370,.F.);
#254=ORIENTED_EDGE('',*,*,#373,.F.);
#255=ORIENTED_EDGE('',*,*,#376,.F.);
#256=ORIENTED_EDGE('',*,*,#379,.F.);
#257=ORIENTED_EDGE('',*,*,#382,.F.);
#258=ORIENTED_EDGE('',*,*,#385,.F.);
#259=ORIENTED_EDGE('',*,*,#387,.F.);
#260=ORIENTED_EDGE('',*,*,#292,.T.);
#261=ORIENTED_EDGE('',*,*,#386,.T.);
#262=ORIENTED_EDGE('',*,*,#383,.T.);
#263=ORIENTED_EDGE('',*,*,#380,.T.);
#264=ORIENTED_EDGE('',*,*,#377,.T.);
#265=ORIENTED_EDGE('',*,*,#374,.T.);
#266=ORIENTED_EDGE('',*,*,#371,.T.);
#267=ORIENTED_EDGE('',*,*,#368,.T.);
#268=ORIENTED_EDGE('',*,*,#365,.T.);
#269=ORIENTED_EDGE('',*,*,#362,.T.);
#270=ORIENTED_EDGE('',*,*,#359,.T.);
#271=ORIENTED_EDGE('',*,*,#356,.T.);
#272=ORIENTED_EDGE('',*,*,#353,.T.);
#273=ORIENTED_EDGE('',*,*,#350,.T.);
#274=ORIENTED_EDGE('',*,*,#347,.T.);
#275=ORIENTED_EDGE('',*,*,#344,.T.);
#276=ORIENTED_EDGE('',*,*,#341,.T.);
#277=ORIENTED_EDGE('',*,*,#338,.T.);
#278=ORIENTED_EDGE('',*,*,#335,.T.);
#279=ORIENTED_EDGE('',*,*,#332,.T.);
#280=ORIENTED_EDGE('',*,*,#329,.T.);
#281=ORIENTED_EDGE('',*,*,#326,.T.);
#282=ORIENTED_EDGE('',*,*,#323,.T.);
#283=ORIENTED_EDGE('',*,*,#320,.T.);
#284=ORIENTED_EDGE('',*,*,#317,.T.);
#285=ORIENTED_EDGE('',*,*,#314,.T.);
#286=ORIENTED_EDGE('',*,*,#311,.T.);
#287=ORIENTED_EDGE('',*,*,#308,.T.);
#288=ORIENTED_EDGE('',*,*,#305,.T.);
#289=ORIENTED_EDGE('',*,*,#302,.T.);
#290=ORIENTED_EDGE('',*,*,#299,.T.);
#291=ORIENTED_EDGE('',*,*,#296,.T.);
#292=EDGE_CURVE('',#388,#389,#452,.T.);
#293=EDGE_CURVE('',#390,#388,#28,.T.);
#294=EDGE_CURVE('',#390,#391,#453,.T.);
#295=EDGE_CURVE('',#391,#389,#29,.T.);
#296=EDGE_CURVE('',#392,#388,#454,.T.);
#297=EDGE_CURVE('',#393,#392,#30,.T.);
#298=EDGE_CURVE('',#393,#390,#455,.T.);
#299=EDGE_CURVE('',#394,#392,#456,.T.);
#300=EDGE_CURVE('',#395,#394,#31,.T.);
#301=EDGE_CURVE('',#395,#393,#457,.T.);
#302=EDGE_CURVE('',#396,#394,#16,.T.);
#303=EDGE_CURVE('',#397,#396,#32,.T.);
#304=EDGE_CURVE('',#397,#395,#17,.T.);
#305=EDGE_CURVE('',#398,#396,#458,.T.);
#306=EDGE_CURVE('',#399,#398,#33,.T.);
#307=EDGE_CURVE('',#399,#397,#459,.T.);
#308=EDGE_CURVE('',#400,#398,#18,.T.);
#309=EDGE_CURVE('',#401,#400,#34,.T.);
#310=EDGE_CURVE('',#401,#399,#19,.T.);
#311=EDGE_CURVE('',#402,#400,#460,.T.);
#312=EDGE_CURVE('',#403,#402,#35,.T.);
#313=EDGE_CURVE('',#403,#401,#461,.T.);
#314=EDGE_CURVE('',#404,#402,#462,.T.);
#315=EDGE_CURVE('',#405,#404,#36,.T.);
#316=EDGE_CURVE('',#405,#403,#463,.T.);
#317=EDGE_CURVE('',#406,#404,#464,.T.);
#318=EDGE_CURVE('',#407,#406,#37,.T.);
#319=EDGE_CURVE('',#407,#405,#465,.T.);
#320=EDGE_CURVE('',#408,#406,#466,.T.);
#321=EDGE_CURVE('',#409,#408,#38,.T.);
#322=EDGE_CURVE('',#409,#407,#467,.T.);
#323=EDGE_CURVE('',#410,#408,#468,.T.);
#324=EDGE_CURVE('',#411,#410,#39,.T.);
#325=EDGE_CURVE('',#411,#409,#469,.T.);
#326=EDGE_CURVE('',#412,#410,#470,.T.);
#327=EDGE_CURVE('',#413,#412,#40,.T.);
#328=EDGE_CURVE('',#413,#411,#471,.T.);
#329=EDGE_CURVE('',#414,#412,#472,.T.);
#330=EDGE_CURVE('',#415,#414,#41,.T.);
#331=EDGE_CURVE('',#415,#413,#473,.T.);
#332=EDGE_CURVE('',#416,#414,#474,.T.);
#333=EDGE_CURVE('',#417,#416,#42,.T.);
#334=EDGE_CURVE('',#417,#415,#475,.T.);
#335=EDGE_CURVE('',#418,#416,#43,.T.);
#336=EDGE_CURVE('',#419,#418,#44,.T.);
#337=EDGE_CURVE('',#419,#417,#45,.T.);
#338=EDGE_CURVE('',#420,#418,#476,.T.);
#339=EDGE_CURVE('',#421,#420,#46,.T.);
#340=EDGE_CURVE('',#421,#419,#477,.T.);
#341=EDGE_CURVE('',#422,#420,#478,.T.);
#342=EDGE_CURVE('',#423,#422,#47,.T.);
#343=EDGE_CURVE('',#423,#421,#479,.T.);
#344=EDGE_CURVE('',#424,#422,#480,.T.);
#345=EDGE_CURVE('',#425,#424,#48,.T.);
#346=EDGE_CURVE('',#425,#423,#481,.T.);
#347=EDGE_CURVE('',#426,#424,#482,.T.);
#348=EDGE_CURVE('',#427,#426,#49,.T.);
#349=EDGE_CURVE('',#427,#425,#483,.T.);
#350=EDGE_CURVE('',#428,#426,#20,.T.);
#351=EDGE_CURVE('',#429,#428,#50,.T.);
#352=EDGE_CURVE('',#429,#427,#21,.T.);
#353=EDGE_CURVE('',#430,#428,#484,.T.);
#354=EDGE_CURVE('',#431,#430,#51,.T.);
#355=EDGE_CURVE('',#431,#429,#485,.T.);
#356=EDGE_CURVE('',#432,#430,#22,.T.);
#357=EDGE_CURVE('',#433,#432,#52,.T.);
#358=EDGE_CURVE('',#433,#431,#23,.T.);
#359=EDGE_CURVE('',#434,#432,#486,.T.);
#360=EDGE_CURVE('',#435,#434,#53,.T.);
#361=EDGE_CURVE('',#435,#433,#487,.T.);
#362=EDGE_CURVE('',#436,#434,#488,.T.);
#363=EDGE_CURVE('',#437,#436,#54,.T.);
#364=EDGE_CURVE('',#437,#435,#489,.T.);
#365=EDGE_CURVE('',#438,#436,#490,.T.);
#366=EDGE_CURVE('',#439,#438,#55,.T.);
#367=EDGE_CURVE('',#439,#437,#491,.T.);
#368=EDGE_CURVE('',#440,#438,#492,.T.);
#369=EDGE_CURVE('',#441,#440,#56,.T.);
#370=EDGE_CURVE('',#441,#439,#493,.T.);
#371=EDGE_CURVE('',#442,#440,#494,.T.);
#372=EDGE_CURVE('',#443,#442,#57,.T.);
#373=EDGE_CURVE('',#443,#441,#495,.T.);
#374=EDGE_CURVE('',#444,#442,#496,.T.);
#375=EDGE_CURVE('',#445,#444,#58,.T.);
#376=EDGE_CURVE('',#445,#443,#497,.T.);
#377=EDGE_CURVE('',#446,#444,#498,.T.);
#378=EDGE_CURVE('',#447,#446,#59,.T.);
#379=EDGE_CURVE('',#447,#445,#499,.T.);
#380=EDGE_CURVE('',#448,#446,#60,.T.);
#381=EDGE_CURVE('',#449,#448,#61,.T.);
#382=EDGE_CURVE('',#449,#447,#62,.T.);
#383=EDGE_CURVE('',#450,#448,#500,.T.);
#384=EDGE_CURVE('',#451,#450,#63,.T.);
#385=EDGE_CURVE('',#451,#449,#501,.T.);
#386=EDGE_CURVE('',#389,#450,#502,.T.);
#387=EDGE_CURVE('',#391,#451,#503,.T.);
#388=VERTEX_POINT('',#743);
#389=VERTEX_POINT('',#744);
#390=VERTEX_POINT('',#746);
#391=VERTEX_POINT('',#750);
#392=VERTEX_POINT('',#763);
#393=VERTEX_POINT('',#765);
#394=VERTEX_POINT('',#780);
#395=VERTEX_POINT('',#782);
#396=VERTEX_POINT('',#788);
#397=VERTEX_POINT('',#790);
#398=VERTEX_POINT('',#803);
#399=VERTEX_POINT('',#805);
#400=VERTEX_POINT('',#811);
#401=VERTEX_POINT('',#813);
#402=VERTEX_POINT('',#826);
#403=VERTEX_POINT('',#828);
#404=VERTEX_POINT('',#843);
#405=VERTEX_POINT('',#845);
#406=VERTEX_POINT('',#860);
#407=VERTEX_POINT('',#862);
#408=VERTEX_POINT('',#877);
#409=VERTEX_POINT('',#879);
#410=VERTEX_POINT('',#894);
#411=VERTEX_POINT('',#896);
#412=VERTEX_POINT('',#911);
#413=VERTEX_POINT('',#913);
#414=VERTEX_POINT('',#928);
#415=VERTEX_POINT('',#930);
#416=VERTEX_POINT('',#945);
#417=VERTEX_POINT('',#947);
#418=VERTEX_POINT('',#953);
#419=VERTEX_POINT('',#955);
#420=VERTEX_POINT('',#968);
#421=VERTEX_POINT('',#970);
#422=VERTEX_POINT('',#985);
#423=VERTEX_POINT('',#987);
#424=VERTEX_POINT('',#1002);
#425=VERTEX_POINT('',#1004);
#426=VERTEX_POINT('',#1019);
#427=VERTEX_POINT('',#1021);
#428=VERTEX_POINT('',#1027);
#429=VERTEX_POINT('',#1029);
#430=VERTEX_POINT('',#1042);
#431=VERTEX_POINT('',#1044);
#432=VERTEX_POINT('',#1050);
#433=VERTEX_POINT('',#1052);
#434=VERTEX_POINT('',#1065);
#435=VERTEX_POINT('',#1067);
#436=VERTEX_POINT('',#1082);
#437=VERTEX_POINT('',#1084);
#438=VERTEX_POINT('',#1099);
#439=VERTEX_POINT('',#1101);
#440=VERTEX_POINT('',#1116);
#441=VERTEX_POINT('',#1118);
#442=VERTEX_POINT('',#1133);
#443=VERTEX_POINT('',#1135);
#444=VERTEX_POINT('',#1150);
#445=VERTEX_POINT('',#1152);
#446=VERTEX_POINT('',#1167);
#447=VERTEX_POINT('',#1169);
#448=VERTEX_POINT('',#1175);
#449=VERTEX_POINT('',#1177);
#450=VERTEX_POINT('',#1190);
#451=VERTEX_POINT('',#1192);
#452=B_SPLINE_CURVE_WITH_KNOTS('',2,(#740,#741,#742),.UNSPECIFIED.,.F.,
 .F.,(3,3),(0.,1.),.PIECEWISE_BEZIER_KNOTS.);
#453=B_SPLINE_CURVE_WITH_KNOTS('',2,(#747,#748,#749),.UNSPECIFIED.,.F.,
 .F.,(3,3),(0.,1.),.PIECEWISE_BEZIER_KNOTS.);
#454=B_SPLINE_CURVE_WITH_KNOTS('',2,(#760,#761,#762),.UNSPECIFIED.,.F.,
 .F.,(3,3),(0.,1.),.PIECEWISE_BEZIER_KNOTS.);
#455=B_SPLINE_CURVE_WITH_KNOTS('',2,(#766,#767,#768),.UNSPECIFIED.,.F.,
 .F.,(3,3),(0.,1.),.PIECEWISE_BEZIER_KNOTS.);
#456=B_SPLINE_CURVE_WITH_KNOTS('',2,(#777,#778,#779),.UNSPECIFIED.,.F.,
 .F.,(3,3),(0.,1.),.PIECEWISE_BEZIER_KNOTS.);
#457=B_SPLINE_CURVE_WITH_KNOTS('',2,(#783,#784,#785),.UNSPECIFIED.,.F.,
 .F.,(3,3),(0.,1.),.PIECEWISE_BEZIER_KNOTS.);
#458=B_SPLINE_CURVE_WITH_KNOTS('',2,(#800,#801,#802),.UNSPECIFIED.,.F.,
 .F.,(3,3),(0.,1.),.PIECEWISE_BEZIER_KNOTS.);
#459=B_SPLINE_CURVE_WITH_KNOTS('',2,(#806,#807,#808),.UNSPECIFIED.,.F.,
 .F.,(3,3),(0.,1.),.PIECEWISE_BEZIER_KNOTS.);
#460=B_SPLINE_CURVE_WITH_KNOTS('',2,(#823,#824,#825),.UNSPECIFIED.,.F.,
 .F.,(3,3),(0.,1.),.PIECEWISE_BEZIER_KNOTS.);
#461=B_SPLINE_CURVE_WITH_KNOTS('',2,(#829,#830,#831),.UNSPECIFIED.,.F.,
 .F.,(3,3),(0.,1.),.PIECEWISE_BEZIER_KNOTS.);
#462=B_SPLINE_CURVE_WITH_KNOTS('',2,(#840,#841,#842),.UNSPECIFIED.,.F.,
 .F.,(3,3),(0.,1.),.PIECEWISE_BEZIER_KNOTS.);
#463=B_SPLINE_CURVE_WITH_KNOTS('',2,(#846,#847,#848),.UNSPECIFIED.,.F.,
 .F.,(3,3),(0.,1.),.PIECEWISE_BEZIER_KNOTS.);
#464=B_SPLINE_CURVE_WITH_KNOTS('',2,(#857,#858,#859),.UNSPECIFIED.,.F.,
 .F.,(3,3),(0.,1.),.PIECEWISE_BEZIER_KNOTS.);
#465=B_SPLINE_CURVE_WITH_KNOTS('',2,(#863,#864,#865),.UNSPECIFIED.,.F.,
 .F.,(3,3),(0.,1.),.PIECEWISE_BEZIER_KNOTS.);
#466=B_SPLINE_CURVE_WITH_KNOTS('',2,(#874,#875,#876),.UNSPECIFIED.,.F.,
 .F.,(3,3),(0.,1.),.PIECEWISE_BEZIER_KNOTS.);
#467=B_SPLINE_CURVE_WITH_KNOTS('',2,(#880,#881,#882),.UNSPECIFIED.,.F.,
 .F.,(3,3),(0.,1.),.PIECEWISE_BEZIER_KNOTS.);
#468=B_SPLINE_CURVE_WITH_KNOTS('',2,(#891,#892,#893),.UNSPECIFIED.,.F.,
 .F.,(3,3),(0.,1.),.PIECEWISE_BEZIER_KNOTS.);
#469=B_SPLINE_CURVE_WITH_KNOTS('',2,(#897,#898,#899),.UNSPECIFIED.,.F.,
 .F.,(3,3),(0.,1.),.PIECEWISE_BEZIER_KNOTS.);
#470=B_SPLINE_CURVE_WITH_KNOTS('',2,(#908,#909,#910),.UNSPECIFIED.,.F.,
 .F.,(3,3),(0.,1.),.PIECEWISE_BEZIER_KNOTS.);
#471=B_SPLINE_CURVE_WITH_KNOTS('',2,(#914,#915,#916),.UNSPECIFIED.,.F.,
 .F.,(3,3),(0.,1.),.PIECEWISE_BEZIER_KNOTS.);
#472=B_SPLINE_CURVE_WITH_KNOTS('',2,(#925,#926,#927),.UNSPECIFIED.,.F.,
 .F.,(3,3),(0.,1.),.PIECEWISE_BEZIER_KNOTS.);
#473=B_SPLINE_CURVE_WITH_KNOTS('',2,(#931,#932,#933),.UNSPECIFIED.,.F.,
 .F.,(3,3),(0.,1.),.PIECEWISE_BEZIER_KNOTS.);
#474=B_SPLINE_CURVE_WITH_KNOTS('',2,(#942,#943,#944),.UNSPECIFIED.,.F.,
 .F.,(3,3),(0.,1.),.PIECEWISE_BEZIER_KNOTS.);
#475=B_SPLINE_CURVE_WITH_KNOTS('',2,(#948,#949,#950),.UNSPECIFIED.,.F.,
 .F.,(3,3),(0.,1.),.PIECEWISE_BEZIER_KNOTS.);
#476=B_SPLINE_CURVE_WITH_KNOTS('',2,(#965,#966,#967),.UNSPECIFIED.,.F.,
 .F.,(3,3),(0.,1.),.PIECEWISE_BEZIER_KNOTS.);
#477=B_SPLINE_CURVE_WITH_KNOTS('',2,(#971,#972,#973),.UNSPECIFIED.,.F.,
 .F.,(3,3),(0.,1.),.PIECEWISE_BEZIER_KNOTS.);
#478=B_SPLINE_CURVE_WITH_KNOTS('',2,(#982,#983,#984),.UNSPECIFIED.,.F.,
 .F.,(3,3),(0.,1.),.PIECEWISE_BEZIER_KNOTS.);
#479=B_SPLINE_CURVE_WITH_KNOTS('',2,(#988,#989,#990),.UNSPECIFIED.,.F.,
 .F.,(3,3),(0.,1.),.PIECEWISE_BEZIER_KNOTS.);
#480=B_SPLINE_CURVE_WITH_KNOTS('',2,(#999,#1000,#1001),.UNSPECIFIED.,.F.,
 .F.,(3,3),(0.,1.),.PIECEWISE_BEZIER_KNOTS.);
#481=B_SPLINE_CURVE_WITH_KNOTS('',2,(#1005,#1006,#1007),.UNSPECIFIED.,.F.,
 .F.,(3,3),(0.,1.),.PIECEWISE_BEZIER_KNOTS.);
#482=B_SPLINE_CURVE_WITH_KNOTS('',2,(#1016,#1017,#1018),.UNSPECIFIED.,.F.,
 .F.,(3,3),(0.,1.),.PIECEWISE_BEZIER_KNOTS.);
#483=B_SPLINE_CURVE_WITH_KNOTS('',2,(#1022,#1023,#1024),.UNSPECIFIED.,.F.,
 .F.,(3,3),(0.,1.),.PIECEWISE_BEZIER_KNOTS.);
#484=B_SPLINE_CURVE_WITH_KNOTS('',2,(#1039,#1040,#1041),.UNSPECIFIED.,.F.,
 .F.,(3,3),(0.,1.),.PIECEWISE_BEZIER_KNOTS.);
#485=B_SPLINE_CURVE_WITH_KNOTS('',2,(#1045,#1046,#1047),.UNSPECIFIED.,.F.,
 .F.,(3,3),(0.,1.),.PIECEWISE_BEZIER_KNOTS.);
#486=B_SPLINE_CURVE_WITH_KNOTS('',2,(#1062,#1063,#1064),.UNSPECIFIED.,.F.,
 .F.,(3,3),(0.,1.),.PIECEWISE_BEZIER_KNOTS.);
#487=B_SPLINE_CURVE_WITH_KNOTS('',2,(#1068,#1069,#1070),.UNSPECIFIED.,.F.,
 .F.,(3,3),(0.,1.),.PIECEWISE_BEZIER_KNOTS.);
#488=B_SPLINE_CURVE_WITH_KNOTS('',2,(#1079,#1080,#1081),.UNSPECIFIED.,.F.,
 .F.,(3,3),(0.,1.),.PIECEWISE_BEZIER_KNOTS.);
#489=B_SPLINE_CURVE_WITH_KNOTS('',2,(#1085,#1086,#1087),.UNSPECIFIED.,.F.,
 .F.,(3,3),(0.,1.),.PIECEWISE_BEZIER_KNOTS.);
#490=B_SPLINE_CURVE_WITH_KNOTS('',2,(#1096,#1097,#1098),.UNSPECIFIED.,.F.,
 .F.,(3,3),(0.,1.),.PIECEWISE_BEZIER_KNOTS.);
#491=B_SPLINE_CURVE_WITH_KNOTS('',2,(#1102,#1103,#1104),.UNSPECIFIED.,.F.,
 .F.,(3,3),(0.,1.),.PIECEWISE_BEZIER_KNOTS.);
#492=B_SPLINE_CURVE_WITH_KNOTS('',2,(#1113,#1114,#1115),.UNSPECIFIED.,.F.,
 .F.,(3,3),(0.,1.),.PIECEWISE_BEZIER_KNOTS.);
#493=B_SPLINE_CURVE_WITH_KNOTS('',2,(#1119,#1120,#1121),.UNSPECIFIED.,.F.,
 .F.,(3,3),(0.,1.),.PIECEWISE_BEZIER_KNOTS.);
#494=B_SPLINE_CURVE_WITH_KNOTS('',2,(#1130,#1131,#1132),.UNSPECIFIED.,.F.,
 .F.,(3,3),(0.,1.),.PIECEWISE_BEZIER_KNOTS.);
#495=B_SPLINE_CURVE_WITH_KNOTS('',2,(#1136,#1137,#1138),.UNSPECIFIED.,.F.,
 .F.,(3,3),(0.,1.),.PIECEWISE_BEZIER_KNOTS.);
#496=B_SPLINE_CURVE_WITH_KNOTS('',2,(#1147,#1148,#1149),.UNSPECIFIED.,.F.,
 .F.,(3,3),(0.,1.),.PIECEWISE_BEZIER_KNOTS.);
#497=B_SPLINE_CURVE_WITH_KNOTS('',2,(#1153,#1154,#1155),.UNSPECIFIED.,.F.,
 .F.,(3,3),(0.,1.),.PIECEWISE_BEZIER_KNOTS.);
#498=B_SPLINE_CURVE_WITH_KNOTS('',2,(#1164,#1165,#1166),.UNSPECIFIED.,.F.,
 .F.,(3,3),(0.,1.),.PIECEWISE_BEZIER_KNOTS.);
#499=B_SPLINE_CURVE_WITH_KNOTS('',2,(#1170,#1171,#1172),.UNSPECIFIED.,.F.,
 .F.,(3,3),(0.,1.),.PIECEWISE_BEZIER_KNOTS.);
#500=B_SPLINE_CURVE_WITH_KNOTS('',2,(#1187,#1188,#1189),.UNSPECIFIED.,.F.,
 .F.,(3,3),(0.,1.),.PIECEWISE_BEZIER_KNOTS.);
#501=B_SPLINE_CURVE_WITH_KNOTS('',2,(#1193,#1194,#1195),.UNSPECIFIED.,.F.,
 .F.,(3,3),(0.,1.),.PIECEWISE_BEZIER_KNOTS.);
#502=B_SPLINE_CURVE_WITH_KNOTS('',2,(#1204,#1205,#1206),.UNSPECIFIED.,.F.,
 .F.,(3,3),(0.,1.),.PIECEWISE_BEZIER_KNOTS.);
#503=B_SPLINE_CURVE_WITH_KNOTS('',2,(#1207,#1208,#1209),.UNSPECIFIED.,.F.,
 .F.,(3,3),(0.,1.),.PIECEWISE_BEZIER_KNOTS.);
#504=EDGE_LOOP('',(#100,#101,#102,#103));
#505=EDGE_LOOP('',(#104,#105,#106,#107));
#506=EDGE_LOOP('',(#108,#109,#110,#111));
#507=EDGE_LOOP('',(#112,#113,#114,#115));
#508=EDGE_LOOP('',(#116,#117,#118,#119));
#509=EDGE_LOOP('',(#120,#121,#122,#123));
#510=EDGE_LOOP('',(#124,#125,#126,#127));
#511=EDGE_LOOP('',(#128,#129,#130,#131));
#512=EDGE_LOOP('',(#132,#133,#134,#135));
#513=EDGE_LOOP('',(#136,#137,#138,#139));
#514=EDGE_LOOP('',(#140,#141,#142,#143));
#515=EDGE_LOOP('',(#144,#145,#146,#147));
#516=EDGE_LOOP('',(#148,#149,#150,#151));
#517=EDGE_LOOP('',(#152,#153,#154,#155));
#518=EDGE_LOOP('',(#156,#157,#158,#159));
#519=EDGE_LOOP('',(#160,#161,#162,#163));
#520=EDGE_LOOP('',(#164,#165,#166,#167));
#521=EDGE_LOOP('',(#168,#169,#170,#171));
#522=EDGE_LOOP('',(#172,#173,#174,#175));
#523=EDGE_LOOP('',(#176,#177,#178,#179));
#524=EDGE_LOOP('',(#180,#181,#182,#183));
#525=EDGE_LOOP('',(#184,#185,#186,#187));
#526=EDGE_LOOP('',(#188,#189,#190,#191));
#527=EDGE_LOOP('',(#192,#193,#194,#195));
#528=EDGE_LOOP('',(#196,#197,#198,#199));
#529=EDGE_LOOP('',(#200,#201,#202,#203));
#530=EDGE_LOOP('',(#204,#205,#206,#207));
#531=EDGE_LOOP('',(#208,#209,#210,#211));
#532=EDGE_LOOP('',(#212,#213,#214,#215));
#533=EDGE_LOOP('',(#216,#217,#218,#219));
#534=EDGE_LOOP('',(#220,#221,#222,#223));
#535=EDGE_LOOP('',(#224,#225,#226,#227));
#536=EDGE_LOOP('',(#228,#229,#230,#231,#232,#233,#234,#235,#236,#237,#238,
#239,#240,#241,#242,#243,#244,#245,#246,#247,#248,#249,#250,#251,#252,#253,
#254,#255,#256,#257,#258,#259));
#537=EDGE_LOOP('',(#260,#261,#262,#263,#264,#265,#266,#267,#268,#269,#270,
#271,#272,#273,#274,#275,#276,#277,#278,#279,#280,#281,#282,#283,#284,#285,
#286,#287,#288,#289,#290,#291));
#538=FACE_BOUND('',#504,.T.);
#539=FACE_BOUND('',#505,.T.);
#540=FACE_BOUND('',#506,.T.);
#541=FACE_BOUND('',#507,.T.);
#542=FACE_BOUND('',#508,.T.);
#543=FACE_BOUND('',#509,.T.);
#544=FACE_BOUND('',#510,.T.);
#545=FACE_BOUND('',#511,.T.);
#546=FACE_BOUND('',#512,.T.);
#547=FACE_BOUND('',#513,.T.);
#548=FACE_BOUND('',#514,.T.);
#549=FACE_BOUND('',#515,.T.);
#550=FACE_BOUND('',#516,.T.);
#551=FACE_BOUND('',#517,.T.);
#552=FACE_BOUND('',#518,.T.);
#553=FACE_BOUND('',#519,.T.);
#554=FACE_BOUND('',#520,.T.);
#555=FACE_BOUND('',#521,.T.);
#556=FACE_BOUND('',#522,.T.);
#557=FACE_BOUND('',#523,.T.);
#558=FACE_BOUND('',#524,.T.);
#559=FACE_BOUND('',#525,.T.);
#560=FACE_BOUND('',#526,.T.);
#561=FACE_BOUND('',#527,.T.);
#562=FACE_BOUND('',#528,.T.);
#563=FACE_BOUND('',#529,.T.);
#564=FACE_BOUND('',#530,.T.);
#565=FACE_BOUND('',#531,.T.);
#566=FACE_BOUND('',#532,.T.);
#567=FACE_BOUND('',#533,.T.);
#568=FACE_BOUND('',#534,.T.);
#569=FACE_BOUND('',#535,.T.);
#570=FACE_BOUND('',#536,.T.);
#571=FACE_BOUND('',#537,.T.);
#572=B_SPLINE_SURFACE_WITH_KNOTS('',3,1,((#732,#733),(#734,#735),(#736,
#737),(#738,#739)),.SURF_OF_LINEAR_EXTRUSION.,.F.,.F.,.F.,(4,4),(2,2),(0.,
1.),(0.,1.),.PIECEWISE_BEZIER_KNOTS.);
#573=B_SPLINE_SURFACE_WITH_KNOTS('',3,1,((#752,#753),(#754,#755),(#756,
#757),(#758,#759)),.SURF_OF_LINEAR_EXTRUSION.,.F.,.F.,.F.,(4,4),(2,2),(0.,
1.),(0.,1.),.PIECEWISE_BEZIER_KNOTS.);
#574=B_SPLINE_SURFACE_WITH_KNOTS('',3,1,((#769,#770),(#771,#772),(#773,
#774),(#775,#776)),.SURF_OF_LINEAR_EXTRUSION.,.F.,.F.,.F.,(4,4),(2,2),(0.,
1.),(0.,1.),.PIECEWISE_BEZIER_KNOTS.);
#575=B_SPLINE_SURFACE_WITH_KNOTS('',3,1,((#792,#793),(#794,#795),(#796,
#797),(#798,#799)),.SURF_OF_LINEAR_EXTRUSION.,.F.,.F.,.F.,(4,4),(2,2),(0.,
1.),(0.,1.),.PIECEWISE_BEZIER_KNOTS.);
#576=B_SPLINE_SURFACE_WITH_KNOTS('',3,1,((#815,#816),(#817,#818),(#819,
#820),(#821,#822)),.SURF_OF_LINEAR_EXTRUSION.,.F.,.F.,.F.,(4,4),(2,2),(0.,
1.),(0.,1.),.PIECEWISE_BEZIER_KNOTS.);
#577=B_SPLINE_SURFACE_WITH_KNOTS('',3,1,((#832,#833),(#834,#835),(#836,
#837),(#838,#839)),.SURF_OF_LINEAR_EXTRUSION.,.F.,.F.,.F.,(4,4),(2,2),(0.,
1.),(0.,1.),.PIECEWISE_BEZIER_KNOTS.);
#578=B_SPLINE_SURFACE_WITH_KNOTS('',3,1,((#849,#850),(#851,#852),(#853,
#854),(#855,#856)),.SURF_OF_LINEAR_EXTRUSION.,.F.,.F.,.F.,(4,4),(2,2),(0.,
1.),(0.,1.),.PIECEWISE_BEZIER_KNOTS.);
#579=B_SPLINE_SURFACE_WITH_KNOTS('',3,1,((#866,#867),(#868,#869),(#870,
#871),(#872,#873)),.SURF_OF_LINEAR_EXTRUSION.,.F.,.F.,.F.,(4,4),(2,2),(0.,
1.),(0.,1.),.PIECEWISE_BEZIER_KNOTS.);
#580=B_SPLINE_SURFACE_WITH_KNOTS('',3,1,((#883,#884),(#885,#886),(#887,
#888),(#889,#890)),.SURF_OF_LINEAR_EXTRUSION.,.F.,.F.,.F.,(4,4),(2,2),(0.,
1.),(0.,1.),.PIECEWISE_BEZIER_KNOTS.);
#581=B_SPLINE_SURFACE_WITH_KNOTS('',3,1,((#900,#901),(#902,#903),(#904,
#905),(#906,#907)),.SURF_OF_LINEAR_EXTRUSION.,.F.,.F.,.F.,(4,4),(2,2),(0.,
1.),(0.,1.),.PIECEWISE_BEZIER_KNOTS.);
#582=B_SPLINE_SURFACE_WITH_KNOTS('',3,1,((#917,#918),(#919,#920),(#921,
#922),(#923,#924)),.SURF_OF_LINEAR_EXTRUSION.,.F.,.F.,.F.,(4,4),(2,2),(0.,
1.),(0.,1.),.PIECEWISE_BEZIER_KNOTS.);
#583=B_SPLINE_SURFACE_WITH_KNOTS('',3,1,((#934,#935),(#936,#937),(#938,
#939),(#940,#941)),.SURF_OF_LINEAR_EXTRUSION.,.F.,.F.,.F.,(4,4),(2,2),(0.,
1.),(0.,1.),.PIECEWISE_BEZIER_KNOTS.);
#584=B_SPLINE_SURFACE_WITH_KNOTS('',3,1,((#957,#958),(#959,#960),(#961,
#962),(#963,#964)),.SURF_OF_LINEAR_EXTRUSION.,.F.,.F.,.F.,(4,4),(2,2),(0.,
1.),(0.,1.),.PIECEWISE_BEZIER_KNOTS.);
#585=B_SPLINE_SURFACE_WITH_KNOTS('',3,1,((#974,#975),(#976,#977),(#978,
#979),(#980,#981)),.SURF_OF_LINEAR_EXTRUSION.,.F.,.F.,.F.,(4,4),(2,2),(0.,
1.),(0.,1.),.PIECEWISE_BEZIER_KNOTS.);
#586=B_SPLINE_SURFACE_WITH_KNOTS('',3,1,((#991,#992),(#993,#994),(#995,
#996),(#997,#998)),.SURF_OF_LINEAR_EXTRUSION.,.F.,.F.,.F.,(4,4),(2,2),(0.,
1.),(0.,1.),.PIECEWISE_BEZIER_KNOTS.);
#587=B_SPLINE_SURFACE_WITH_KNOTS('',3,1,((#1008,#1009),(#1010,#1011),(#1012,
#1013),(#1014,#1015)),.SURF_OF_LINEAR_EXTRUSION.,.F.,.F.,.F.,(4,4),(2,2),
(0.,1.),(0.,1.),.PIECEWISE_BEZIER_KNOTS.);
#588=B_SPLINE_SURFACE_WITH_KNOTS('',3,1,((#1031,#1032),(#1033,#1034),(#1035,
#1036),(#1037,#1038)),.SURF_OF_LINEAR_EXTRUSION.,.F.,.F.,.F.,(4,4),(2,2),
(0.,1.),(0.,1.),.PIECEWISE_BEZIER_KNOTS.);
#589=B_SPLINE_SURFACE_WITH_KNOTS('',3,1,((#1054,#1055),(#1056,#1057),(#1058,
#1059),(#1060,#1061)),.SURF_OF_LINEAR_EXTRUSION.,.F.,.F.,.F.,(4,4),(2,2),
(0.,1.),(0.,1.),.PIECEWISE_BEZIER_KNOTS.);
#590=B_SPLINE_SURFACE_WITH_KNOTS('',3,1,((#1071,#1072),(#1073,#1074),(#1075,
#1076),(#1077,#1078)),.SURF_OF_LINEAR_EXTRUSION.,.F.,.F.,.F.,(4,4),(2,2),
(0.,1.),(0.,1.),.PIECEWISE_BEZIER_KNOTS.);
#591=B_SPLINE_SURFACE_WITH_KNOTS('',3,1,((#1088,#1089),(#1090,#1091),(#1092,
#1093),(#1094,#1095)),.SURF_OF_LINEAR_EXTRUSION.,.F.,.F.,.F.,(4,4),(2,2),
(0.,1.),(0.,1.),.PIECEWISE_BEZIER_KNOTS.);
#592=B_SPLINE_SURFACE_WITH_KNOTS('',3,1,((#1105,#1106),(#1107,#1108),(#1109,
#1110),(#1111,#1112)),.SURF_OF_LINEAR_EXTRUSION.,.F.,.F.,.F.,(4,4),(2,2),
(0.,1.),(0.,1.),.PIECEWISE_BEZIER_KNOTS.);
#593=B_SPLINE_SURFACE_WITH_KNOTS('',3,1,((#1122,#1123),(#1124,#1125),(#1126,
#1127),(#1128,#1129)),.SURF_OF_LINEAR_EXTRUSION.,.F.,.F.,.F.,(4,4),(2,2),
(0.,1.),(0.,1.),.PIECEWISE_BEZIER_KNOTS.);
#594=B_SPLINE_SURFACE_WITH_KNOTS('',3,1,((#1139,#1140),(#1141,#1142),(#1143,
#1144),(#1145,#1146)),.SURF_OF_LINEAR_EXTRUSION.,.F.,.F.,.F.,(4,4),(2,2),
(0.,1.),(0.,1.),.PIECEWISE_BEZIER_KNOTS.);
#595=B_SPLINE_SURFACE_WITH_KNOTS('',3,1,((#1156,#1157),(#1158,#1159),(#1160,
#1161),(#1162,#1163)),.SURF_OF_LINEAR_EXTRUSION.,.F.,.F.,.F.,(4,4),(2,2),
(0.,1.),(0.,1.),.PIECEWISE_BEZIER_KNOTS.);
#596=B_SPLINE_SURFACE_WITH_KNOTS('',3,1,((#1179,#1180),(#1181,#1182),(#1183,
#1184),(#1185,#1186)),.SURF_OF_LINEAR_EXTRUSION.,.F.,.F.,.F.,(4,4),(2,2),
(0.,1.),(0.,1.),.PIECEWISE_BEZIER_KNOTS.);
#597=B_SPLINE_SURFACE_WITH_KNOTS('',3,1,((#1196,#1197),(#1198,#1199),(#1200,
#1201),(#1202,#1203)),.SURF_OF_LINEAR_EXTRUSION.,.F.,.F.,.F.,(4,4),(2,2),
(0.,1.),(0.,1.),.PIECEWISE_BEZIER_KNOTS.);
#598=ADVANCED_FACE('',(#538),#572,.T.);
#599=ADVANCED_FACE('',(#539),#573,.T.);
#600=ADVANCED_FACE('',(#540),#574,.T.);
#601=ADVANCED_FACE('',(#541),#24,.T.);
#602=ADVANCED_FACE('',(#542),#575,.T.);
#603=ADVANCED_FACE('',(#543),#25,.T.);
#604=ADVANCED_FACE('',(#544),#576,.T.);
#605=ADVANCED_FACE('',(#545),#577,.T.);
#606=ADVANCED_FACE('',(#546),#578,.T.);
#607=ADVANCED_FACE('',(#547),#579,.T.);
#608=ADVANCED_FACE('',(#548),#580,.T.);
#609=ADVANCED_FACE('',(#549),#581,.T.);
#610=ADVANCED_FACE('',(#550),#582,.T.);
#611=ADVANCED_FACE('',(#551),#583,.T.);
#612=ADVANCED_FACE('',(#552),#12,.T.);
#613=ADVANCED_FACE('',(#553),#584,.T.);
#614=ADVANCED_FACE('',(#554),#585,.T.);
#615=ADVANCED_FACE('',(#555),#586,.T.);
#616=ADVANCED_FACE('',(#556),#587,.T.);
#617=ADVANCED_FACE('',(#557),#26,.T.);
#618=ADVANCED_FACE('',(#558),#588,.T.);
#619=ADVANCED_FACE('',(#559),#27,.T.);
#620=ADVANCED_FACE('',(#560),#589,.T.);
#621=ADVANCED_FACE('',(#561),#590,.T.);
#622=ADVANCED_FACE('',(#562),#591,.T.);
#623=ADVANCED_FACE('',(#563),#592,.T.);
#624=ADVANCED_FACE('',(#564),#593,.T.);
#625=ADVANCED_FACE('',(#565),#594,.T.);
#626=ADVANCED_FACE('',(#566),#595,.T.);
#627=ADVANCED_FACE('',(#567),#13,.T.);
#628=ADVANCED_FACE('',(#568),#596,.T.);
#629=ADVANCED_FACE('',(#569),#597,.T.);
#630=ADVANCED_FACE('',(#570),#14,.T.);
#631=ADVANCED_FACE('',(#571),#15,.F.);
#632=CLOSED_SHELL('',(#598,#599,#600,#601,#602,#603,#604,#605,#606,#607,
#608,#609,#610,#611,#612,#613,#614,#615,#616,#617,#618,#619,#620,#621,#622,
#623,#624,#625,#626,#627,#628,#629,#630,#631));
#633=STYLED_ITEM('',(#634),#641);
#634=PRESENTATION_STYLE_ASSIGNMENT((#635));
#635=SURFACE_STYLE_USAGE(.BOTH.,#636);
#636=SURFACE_SIDE_STYLE('',(#637));
#637=SURFACE_STYLE_FILL_AREA(#638);
#638=FILL_AREA_STYLE('',(#639));
#639=FILL_AREA_STYLE_COLOUR('',#640);
#640=DRAUGHTING_PRE_DEFINED_COLOUR('red');
#641=MANIFOLD_SOLID_BREP('Part 10',#632);
#642=SHAPE_DEFINITION_REPRESENTATION(#1218,#643);
#643=SHAPE_REPRESENTATION('Part 10',(#644),#1213);
#644=AXIS2_PLACEMENT_3D('',#731,#661,#662);
#645=AXIS2_PLACEMENT_3D('',#786,#667,#668);
#646=AXIS2_PLACEMENT_3D('',#787,#669,#670);
#647=AXIS2_PLACEMENT_3D('',#791,#672,#673);
#648=AXIS2_PLACEMENT_3D('',#809,#675,#676);
#649=AXIS2_PLACEMENT_3D('',#810,#677,#678);
#650=AXIS2_PLACEMENT_3D('',#814,#680,#681);
#651=AXIS2_PLACEMENT_3D('',#951,#690,#691);
#652=AXIS2_PLACEMENT_3D('',#1025,#699,#700);
#653=AXIS2_PLACEMENT_3D('',#1026,#701,#702);
#654=AXIS2_PLACEMENT_3D('',#1030,#704,#705);
#655=AXIS2_PLACEMENT_3D('',#1048,#707,#708);
#656=AXIS2_PLACEMENT_3D('',#1049,#709,#710);
#657=AXIS2_PLACEMENT_3D('',#1053,#712,#713);
#658=AXIS2_PLACEMENT_3D('',#1173,#721,#722);
#659=AXIS2_PLACEMENT_3D('',#1210,#727,#728);
#660=AXIS2_PLACEMENT_3D('',#1211,#729,#730);
#661=DIRECTION('',(0.,0.,1.));
#662=DIRECTION('',(1.,0.,0.));
#663=DIRECTION('',(0.,0.,-1.));
#664=DIRECTION('',(0.,0.,-1.));
#665=DIRECTION('',(0.,0.,-1.));
#666=DIRECTION('',(0.,0.,-1.));
#667=DIRECTION('',(0.,0.,-1.));
#668=DIRECTION('',(0.95511204256058,-0.296244807812319,0.));
#669=DIRECTION('',(0.,0.,-1.));
#670=DIRECTION('',(-1.,0.,0.));
#671=DIRECTION('',(0.,0.,-1.));
#672=DIRECTION('',(0.,0.,-1.));
#673=DIRECTION('',(-1.,0.,0.));
#674=DIRECTION('',(0.,0.,-1.));
#675=DIRECTION('',(0.,0.,-1.));
#676=DIRECTION('',(0.590130406955187,0.80730793554065,0.));
#677=DIRECTION('',(0.,0.,-1.));
#678=DIRECTION('',(-1.,0.,0.));
#679=DIRECTION('',(0.,0.,-1.));
#680=DIRECTION('',(0.,0.,-1.));
#681=DIRECTION('',(-1.,0.,0.));
#682=DIRECTION('',(0.,0.,-1.));
#683=DIRECTION('',(0.,0.,-1.));
#684=DIRECTION('',(0.,0.,-1.));
#685=DIRECTION('',(0.,0.,-1.));
#686=DIRECTION('',(0.,0.,-1.));
#687=DIRECTION('',(0.,0.,-1.));
#688=DIRECTION('',(0.,0.,-1.));
#689=DIRECTION('',(0.,0.,-1.));
#690=DIRECTION('',(0.,-1.,0.));
#691=DIRECTION('',(0.,0.,-1.));
#692=DIRECTION('',(-1.,0.,0.));
#693=DIRECTION('',(0.,0.,-1.));
#694=DIRECTION('',(-1.,0.,0.));
#695=DIRECTION('',(0.,0.,-1.));
#696=DIRECTION('',(0.,0.,-1.));
#697=DIRECTION('',(0.,0.,-1.));
#698=DIRECTION('',(0.,0.,-1.));
#699=DIRECTION('',(0.,0.,-1.));
#700=DIRECTION('',(-0.951448118523897,0.307809158014079,0.));
#701=DIRECTION('',(0.,0.,-1.));
#702=DIRECTION('',(-1.,0.,0.));
#703=DIRECTION('',(0.,0.,-1.));
#704=DIRECTION('',(0.,0.,-1.));
#705=DIRECTION('',(-1.,0.,0.));
#706=DIRECTION('',(0.,0.,-1.));
#707=DIRECTION('',(0.,0.,-1.));
#708=DIRECTION('',(-0.595361369910933,-0.803458050689504,0.));
#709=DIRECTION('',(0.,0.,-1.));
#710=DIRECTION('',(-1.,0.,0.));
#711=DIRECTION('',(0.,0.,-1.));
#712=DIRECTION('',(0.,0.,-1.));
#713=DIRECTION('',(-1.,0.,0.));
#714=DIRECTION('',(0.,0.,-1.));
#715=DIRECTION('',(0.,0.,-1.));
#716=DIRECTION('',(0.,0.,-1.));
#717=DIRECTION('',(0.,0.,-1.));
#718=DIRECTION('',(0.,0.,-1.));
#719=DIRECTION('',(0.,0.,-1.));
#720=DIRECTION('',(0.,0.,-1.));
#721=DIRECTION('',(0.,1.,0.));
#722=DIRECTION('',(0.,0.,1.));
#723=DIRECTION('',(1.,0.,0.));
#724=DIRECTION('',(0.,0.,-1.));
#725=DIRECTION('',(1.,0.,0.));
#726=DIRECTION('',(0.,0.,-1.));
#727=DIRECTION('',(0.,0.,1.));
#728=DIRECTION('',(1.,0.,0.));
#729=DIRECTION('',(0.,0.,1.));
#730=DIRECTION('',(1.,0.,0.));
#731=CARTESIAN_POINT('',(0.,0.,0.));
#732=CARTESIAN_POINT('',(-0.0129178738352493,0.0901921955810394,0.008));
#733=CARTESIAN_POINT('',(-0.0129178738352493,0.0901921955810394,0.005));
#734=CARTESIAN_POINT('',(-0.0135499842266048,0.0901921955810394,0.008));
#735=CARTESIAN_POINT('',(-0.0135499842266048,0.0901921955810394,0.005));
#736=CARTESIAN_POINT('',(-0.0141170013642598,0.0903004229185171,0.008));
#737=CARTESIAN_POINT('',(-0.0141170013642598,0.0903004229185171,0.005));
#738=CARTESIAN_POINT('',(-0.0146189252482145,0.0905168775934726,0.008));
#739=CARTESIAN_POINT('',(-0.0146189252482145,0.0905168775934726,0.005));
#740=CARTESIAN_POINT('',(-0.0129178738352493,0.0901921955810394,0.005));
#741=CARTESIAN_POINT('',(-0.0138660394222825,0.0901921955810394,0.005));
#742=CARTESIAN_POINT('',(-0.0146189252482145,0.0905168775934726,0.005));
#743=CARTESIAN_POINT('',(-0.0129178738352493,0.0901921955810394,0.005));
#744=CARTESIAN_POINT('',(-0.0146189252482145,0.0905168775934726,0.005));
#745=CARTESIAN_POINT('',(-0.0129178738352493,0.0901921955810394,0.008));
#746=CARTESIAN_POINT('',(-0.0129178738352493,0.0901921955810394,0.008));
#747=CARTESIAN_POINT('',(-0.0129178738352493,0.0901921955810394,0.008));
#748=CARTESIAN_POINT('',(-0.0138660394222825,0.0901921955810394,0.008));
#749=CARTESIAN_POINT('',(-0.0146189252482145,0.0905168775934726,0.008));
#750=CARTESIAN_POINT('',(-0.0146189252482145,0.0905168775934726,0.008));
#751=CARTESIAN_POINT('',(-0.0146189252482145,0.0905168775934726,0.008));
#752=CARTESIAN_POINT('',(-0.0113438719054102,0.0905015846001334,0.008));
#753=CARTESIAN_POINT('',(-0.0113438719054102,0.0905015846001334,0.005));
#754=CARTESIAN_POINT('',(-0.0118003089373815,0.0902953252540707,0.008));
#755=CARTESIAN_POINT('',(-0.0118003089373815,0.0902953252540707,0.005));
#756=CARTESIAN_POINT('',(-0.0123249762473279,0.0901921955810394,0.008));
#757=CARTESIAN_POINT('',(-0.0123249762473279,0.0901921955810394,0.005));
#758=CARTESIAN_POINT('',(-0.0129178738352493,0.0901921955810394,0.008));
#759=CARTESIAN_POINT('',(-0.0129178738352493,0.0901921955810394,0.005));
#760=CARTESIAN_POINT('',(-0.0113438719054102,0.0905015846001334,0.005));
#761=CARTESIAN_POINT('',(-0.0120285274533671,0.0901921955810394,0.005));
#762=CARTESIAN_POINT('',(-0.0129178738352493,0.0901921955810394,0.005));
#763=CARTESIAN_POINT('',(-0.0113438719054102,0.0905015846001334,0.005));
#764=CARTESIAN_POINT('',(-0.0113438719054102,0.0905015846001334,0.008));
#765=CARTESIAN_POINT('',(-0.0113438719054102,0.0905015846001334,0.008));
#766=CARTESIAN_POINT('',(-0.0113438719054102,0.0905015846001334,0.008));
#767=CARTESIAN_POINT('',(-0.0120285274533671,0.0901921955810394,0.008));
#768=CARTESIAN_POINT('',(-0.0129178738352493,0.0901921955810394,0.008));
#769=CARTESIAN_POINT('',(-0.0102827734444872,0.091353286690719,0.008));
#770=CARTESIAN_POINT('',(-0.0102827734444872,0.091353286690719,0.005));
#771=CARTESIAN_POINT('',(-0.0105337353864646,0.0909917446430579,0.008));
#772=CARTESIAN_POINT('',(-0.0105337353864646,0.0909917446430579,0.005));
#773=CARTESIAN_POINT('',(-0.0108874348734389,0.090707843946196,0.008));
#774=CARTESIAN_POINT('',(-0.0108874348734389,0.090707843946196,0.005));
#775=CARTESIAN_POINT('',(-0.0113438719054102,0.0905015846001334,0.008));
#776=CARTESIAN_POINT('',(-0.0113438719054102,0.0905015846001334,0.005));
#777=CARTESIAN_POINT('',(-0.0102827734444872,0.091353286690719,0.005));
#778=CARTESIAN_POINT('',(-0.0106592163574533,0.0908109736192273,0.005));
#779=CARTESIAN_POINT('',(-0.0113438719054102,0.0905015846001334,0.005));
#780=CARTESIAN_POINT('',(-0.0102827734444872,0.091353286690719,0.005));
#781=CARTESIAN_POINT('',(-0.0102827734444872,0.091353286690719,0.008));
#782=CARTESIAN_POINT('',(-0.0102827734444872,0.091353286690719,0.008));
#783=CARTESIAN_POINT('',(-0.0102827734444872,0.091353286690719,0.008));
#784=CARTESIAN_POINT('',(-0.0106592163574533,0.0908109736192273,0.008));
#785=CARTESIAN_POINT('',(-0.0113438719054102,0.0905015846001334,0.008));
#786=CARTESIAN_POINT('',(-0.0119932887383647,0.09254753752027,0.008));
#787=CARTESIAN_POINT('',(-0.0119932887383647,0.09254753752027,0.005));
#788=CARTESIAN_POINT('',(-0.00990633053152123,0.0925731970055494,0.005));
#789=CARTESIAN_POINT('',(-0.00990633053152123,0.0925731970055494,0.008));
#790=CARTESIAN_POINT('',(-0.00990633053152123,0.0925731970055494,0.008));
#791=CARTESIAN_POINT('',(-0.0119932887383647,0.09254753752027,0.008));
#792=CARTESIAN_POINT('',(-0.0103192413516808,0.0937919309362769,0.008));
#793=CARTESIAN_POINT('',(-0.0103192413516808,0.0937919309362769,0.005));
#794=CARTESIAN_POINT('',(-0.0100533785443986,0.09348136553308,0.008));
#795=CARTESIAN_POINT('',(-0.0100533785443986,0.09348136553308,0.005));
#796=CARTESIAN_POINT('',(-0.00991574160434538,0.0930751208895041,0.008));
#797=CARTESIAN_POINT('',(-0.00991574160434538,0.0930751208895041,0.005));
#798=CARTESIAN_POINT('',(-0.00990633053152123,0.0925731970055494,0.008));
#799=CARTESIAN_POINT('',(-0.00990633053152123,0.0925731970055494,0.005));
#800=CARTESIAN_POINT('',(-0.0103192413516808,0.0937919309362769,0.005));
#801=CARTESIAN_POINT('',(-0.00992044714075746,0.0933260828314815,0.005));
#802=CARTESIAN_POINT('',(-0.00990633053152123,0.0925731970055494,0.005));
#803=CARTESIAN_POINT('',(-0.0103192413516808,0.0937919309362769,0.005));
#804=CARTESIAN_POINT('',(-0.0103192413516808,0.0937919309362769,0.008));
#805=CARTESIAN_POINT('',(-0.0103192413516808,0.0937919309362769,0.008));
#806=CARTESIAN_POINT('',(-0.0103192413516808,0.0937919309362769,0.008));
#807=CARTESIAN_POINT('',(-0.00992044714075746,0.0933260828314815,0.008));
#808=CARTESIAN_POINT('',(-0.00990633053152123,0.0925731970055494,0.008));
#809=CARTESIAN_POINT('',(-0.0122531869453178,0.0921540445141609,0.008));
#810=CARTESIAN_POINT('',(-0.0122531869453178,0.0921540445141609,0.005));
#811=CARTESIAN_POINT('',(-0.0112756416274351,0.0944918794775731,0.005));
#812=CARTESIAN_POINT('',(-0.0112756416274351,0.0944918794775731,0.008));
#813=CARTESIAN_POINT('',(-0.0112756416274351,0.0944918794775731,0.008));
#814=CARTESIAN_POINT('',(-0.0122531869453178,0.0921540445141609,0.008));
#815=CARTESIAN_POINT('',(-0.0127202413059422,0.0949659622710897,0.008));
#816=CARTESIAN_POINT('',(-0.0127202413059422,0.0949659622710897,0.005));
#817=CARTESIAN_POINT('',(-0.0121289122301581,0.0948059740330791,0.008));
#818=CARTESIAN_POINT('',(-0.0121289122301581,0.0948059740330791,0.005));
#819=CARTESIAN_POINT('',(-0.011647379003989,0.0946479464352403,0.008));
#820=CARTESIAN_POINT('',(-0.011647379003989,0.0946479464352403,0.005));
#821=CARTESIAN_POINT('',(-0.0112756416274351,0.0944918794775731,0.008));
#822=CARTESIAN_POINT('',(-0.0112756416274351,0.0944918794775731,0.005));
#823=CARTESIAN_POINT('',(-0.0127202413059422,0.0949659622710897,0.005));
#824=CARTESIAN_POINT('',(-0.011833247692266,0.0947259799140738,0.005));
#825=CARTESIAN_POINT('',(-0.0112756416274351,0.0944918794775731,0.005));
#826=CARTESIAN_POINT('',(-0.0127202413059422,0.0949659622710897,0.005));
#827=CARTESIAN_POINT('',(-0.0127202413059422,0.0949659622710897,0.008));
#828=CARTESIAN_POINT('',(-0.0127202413059422,0.0949659622710897,0.008));
#829=CARTESIAN_POINT('',(-0.0127202413059422,0.0949659622710897,0.008));
#830=CARTESIAN_POINT('',(-0.011833247692266,0.0947259799140738,0.008));
#831=CARTESIAN_POINT('',(-0.0112756416274351,0.0944918794775731,0.008));
#832=CARTESIAN_POINT('',(-0.0138272187468829,0.0953200538860983,0.008));
#833=CARTESIAN_POINT('',(-0.0138272187468829,0.0953200538860983,0.005));
#834=CARTESIAN_POINT('',(-0.0135613559396006,0.0952141793168266,0.008));
#835=CARTESIAN_POINT('',(-0.0135613559396006,0.0952141793168266,0.005));
#836=CARTESIAN_POINT('',(-0.0131923634592871,0.0950961487784904,0.008));
#837=CARTESIAN_POINT('',(-0.0131923634592871,0.0950961487784904,0.005));
#838=CARTESIAN_POINT('',(-0.0127202413059422,0.0949659622710897,0.008));
#839=CARTESIAN_POINT('',(-0.0127202413059422,0.0949659622710897,0.005));
#840=CARTESIAN_POINT('',(-0.0138272187468829,0.0953200538860983,0.005));
#841=CARTESIAN_POINT('',(-0.0134284245359595,0.0951612420321908,0.005));
#842=CARTESIAN_POINT('',(-0.0127202413059422,0.0949659622710897,0.005));
#843=CARTESIAN_POINT('',(-0.0138272187468829,0.0953200538860983,0.005));
#844=CARTESIAN_POINT('',(-0.0138272187468829,0.0953200538860983,0.008));
#845=CARTESIAN_POINT('',(-0.0138272187468829,0.0953200538860983,0.008));
#846=CARTESIAN_POINT('',(-0.0138272187468829,0.0953200538860983,0.008));
#847=CARTESIAN_POINT('',(-0.0134284245359595,0.0951612420321908,0.008));
#848=CARTESIAN_POINT('',(-0.0127202413059422,0.0949659622710897,0.008));
#849=CARTESIAN_POINT('',(-0.0144895229968824,0.0957423757790821,0.008));
#850=CARTESIAN_POINT('',(-0.0144895229968824,0.0957423757790821,0.005));
#851=CARTESIAN_POINT('',(-0.0143138496374983,0.095566702419698,0.008));
#852=CARTESIAN_POINT('',(-0.0143138496374983,0.095566702419698,0.005));
#853=CARTESIAN_POINT('',(-0.0140930815541651,0.09542592845537,0.008));
#854=CARTESIAN_POINT('',(-0.0140930815541651,0.09542592845537,0.005));
#855=CARTESIAN_POINT('',(-0.0138272187468829,0.0953200538860983,0.008));
#856=CARTESIAN_POINT('',(-0.0138272187468829,0.0953200538860983,0.005));
#857=CARTESIAN_POINT('',(-0.0144895229968824,0.0957423757790821,0.005));
#858=CARTESIAN_POINT('',(-0.0142260129578062,0.0954788657400059,0.005));
#859=CARTESIAN_POINT('',(-0.0138272187468829,0.0953200538860983,0.005));
#860=CARTESIAN_POINT('',(-0.0144895229968824,0.0957423757790821,0.005));
#861=CARTESIAN_POINT('',(-0.0144895229968824,0.0957423757790821,0.008));
#862=CARTESIAN_POINT('',(-0.0144895229968824,0.0957423757790821,0.008));
#863=CARTESIAN_POINT('',(-0.0144895229968824,0.0957423757790821,0.008));
#864=CARTESIAN_POINT('',(-0.0142260129578062,0.0954788657400059,0.008));
#865=CARTESIAN_POINT('',(-0.0138272187468829,0.0953200538860983,0.008));
#866=CARTESIAN_POINT('',(-0.0147530330359586,0.0964129147178028,0.008));
#867=CARTESIAN_POINT('',(-0.0147530330359586,0.0964129147178028,0.005));
#868=CARTESIAN_POINT('',(-0.0147530330359586,0.0961415621180398,0.008));
#869=CARTESIAN_POINT('',(-0.0147530330359586,0.0961415621180398,0.005));
#870=CARTESIAN_POINT('',(-0.0146651963562666,0.0959180491384662,0.008));
#871=CARTESIAN_POINT('',(-0.0146651963562666,0.0959180491384662,0.005));
#872=CARTESIAN_POINT('',(-0.0144895229968824,0.0957423757790821,0.008));
#873=CARTESIAN_POINT('',(-0.0144895229968824,0.0957423757790821,0.005));
#874=CARTESIAN_POINT('',(-0.0147530330359586,0.0964129147178028,0.005));
#875=CARTESIAN_POINT('',(-0.0147530330359586,0.0960058858181583,0.005));
#876=CARTESIAN_POINT('',(-0.0144895229968824,0.0957423757790821,0.005));
#877=CARTESIAN_POINT('',(-0.0147530330359586,0.0964129147178028,0.005));
#878=CARTESIAN_POINT('',(-0.0147530330359586,0.0964129147178028,0.008));
#879=CARTESIAN_POINT('',(-0.0147530330359586,0.0964129147178028,0.008));
#880=CARTESIAN_POINT('',(-0.0147530330359586,0.0964129147178028,0.008));
#881=CARTESIAN_POINT('',(-0.0147530330359586,0.0960058858181583,0.008));
#882=CARTESIAN_POINT('',(-0.0144895229968824,0.0957423757790821,0.008));
#883=CARTESIAN_POINT('',(-0.0143165945337387,0.097239912742225,0.008));
#884=CARTESIAN_POINT('',(-0.0143165945337387,0.097239912742225,0.005));
#885=CARTESIAN_POINT('',(-0.0146075535352187,0.0970289478597503,0.008));
#886=CARTESIAN_POINT('',(-0.0146075535352187,0.0970289478597503,0.005));
#887=CARTESIAN_POINT('',(-0.0147530330359586,0.0967532818516095,0.008));
#888=CARTESIAN_POINT('',(-0.0147530330359586,0.0967532818516095,0.005));
#889=CARTESIAN_POINT('',(-0.0147530330359586,0.0964129147178028,0.008));
#890=CARTESIAN_POINT('',(-0.0147530330359586,0.0964129147178028,0.005));
#891=CARTESIAN_POINT('',(-0.0143165945337387,0.097239912742225,0.005));
#892=CARTESIAN_POINT('',(-0.0147530330359586,0.0969234654185129,0.005));
#893=CARTESIAN_POINT('',(-0.0147530330359586,0.0964129147178028,0.005));
#894=CARTESIAN_POINT('',(-0.0143165945337387,0.097239912742225,0.005));
#895=CARTESIAN_POINT('',(-0.0143165945337387,0.097239912742225,0.008));
#896=CARTESIAN_POINT('',(-0.0143165945337387,0.097239912742225,0.008));
#897=CARTESIAN_POINT('',(-0.0143165945337387,0.097239912742225,0.008));
#898=CARTESIAN_POINT('',(-0.0147530330359586,0.0969234654185129,0.008));
#899=CARTESIAN_POINT('',(-0.0147530330359586,0.0964129147178028,0.008));
#900=CARTESIAN_POINT('',(-0.0131437395830289,0.097556360065937,0.008));
#901=CARTESIAN_POINT('',(-0.0131437395830289,0.097556360065937,0.005));
#902=CARTESIAN_POINT('',(-0.0136346838820221,0.097556360065937,0.008));
#903=CARTESIAN_POINT('',(-0.0136346838820221,0.097556360065937,0.005));
#904=CARTESIAN_POINT('',(-0.0140256355322587,0.0974508776246997,0.008));
#905=CARTESIAN_POINT('',(-0.0140256355322587,0.0974508776246997,0.005));
#906=CARTESIAN_POINT('',(-0.0143165945337387,0.097239912742225,0.008));
#907=CARTESIAN_POINT('',(-0.0143165945337387,0.097239912742225,0.005));
#908=CARTESIAN_POINT('',(-0.0131437395830289,0.097556360065937,0.005));
#909=CARTESIAN_POINT('',(-0.0138801560315187,0.097556360065937,0.005));
#910=CARTESIAN_POINT('',(-0.0143165945337387,0.097239912742225,0.005));
#911=CARTESIAN_POINT('',(-0.0131437395830289,0.097556360065937,0.005));
#912=CARTESIAN_POINT('',(-0.0131437395830289,0.097556360065937,0.008));
#913=CARTESIAN_POINT('',(-0.0131437395830289,0.097556360065937,0.008));
#914=CARTESIAN_POINT('',(-0.0131437395830289,0.097556360065937,0.008));
#915=CARTESIAN_POINT('',(-0.0138801560315187,0.097556360065937,0.008));
#916=CARTESIAN_POINT('',(-0.0143165945337387,0.097239912742225,0.008));
#917=CARTESIAN_POINT('',(-0.0118697155994596,0.0971646241596318,0.008));
#918=CARTESIAN_POINT('',(-0.0118697155994596,0.0971646241596318,0.005));
#919=CARTESIAN_POINT('',(-0.0121857707951373,0.0974257814305019,0.008));
#920=CARTESIAN_POINT('',(-0.0121857707951373,0.0974257814305019,0.005));
#921=CARTESIAN_POINT('',(-0.0126104454563271,0.097556360065937,0.008));
#922=CARTESIAN_POINT('',(-0.0126104454563271,0.097556360065937,0.005));
#923=CARTESIAN_POINT('',(-0.0131437395830289,0.097556360065937,0.008));
#924=CARTESIAN_POINT('',(-0.0131437395830289,0.097556360065937,0.005));
#925=CARTESIAN_POINT('',(-0.0118697155994596,0.0971646241596318,0.005));
#926=CARTESIAN_POINT('',(-0.0123437983929762,0.097556360065937,0.005));
#927=CARTESIAN_POINT('',(-0.0131437395830289,0.097556360065937,0.005));
#928=CARTESIAN_POINT('',(-0.0118697155994596,0.0971646241596318,0.005));
#929=CARTESIAN_POINT('',(-0.0118697155994596,0.0971646241596318,0.008));
#930=CARTESIAN_POINT('',(-0.0118697155994596,0.0971646241596318,0.008));
#931=CARTESIAN_POINT('',(-0.0118697155994596,0.0971646241596318,0.008));
#932=CARTESIAN_POINT('',(-0.0123437983929762,0.097556360065937,0.008));
#933=CARTESIAN_POINT('',(-0.0131437395830289,0.097556360065937,0.008));
#934=CARTESIAN_POINT('',(-0.0113509302100283,0.0961258769966662,0.008));
#935=CARTESIAN_POINT('',(-0.0113509302100283,0.0961258769966662,0.005));
#936=CARTESIAN_POINT('',(-0.0113807319406381,0.0965572178344398,0.008));
#937=CARTESIAN_POINT('',(-0.0113807319406381,0.0965572178344398,0.005));
#938=CARTESIAN_POINT('',(-0.0115536604037819,0.0969034668887616,0.008));
#939=CARTESIAN_POINT('',(-0.0115536604037819,0.0969034668887616,0.005));
#940=CARTESIAN_POINT('',(-0.0118697155994596,0.0971646241596318,0.008));
#941=CARTESIAN_POINT('',(-0.0118697155994596,0.0971646241596318,0.005));
#942=CARTESIAN_POINT('',(-0.0113509302100283,0.0961258769966662,0.005));
#943=CARTESIAN_POINT('',(-0.011395632805943,0.0967728882533265,0.005));
#944=CARTESIAN_POINT('',(-0.0118697155994596,0.0971646241596318,0.005));
#945=CARTESIAN_POINT('',(-0.0113509302100283,0.0961258769966662,0.005));
#946=CARTESIAN_POINT('',(-0.0113509302100283,0.0961258769966662,0.008));
#947=CARTESIAN_POINT('',(-0.0113509302100283,0.0961258769966662,0.008));
#948=CARTESIAN_POINT('',(-0.0113509302100283,0.0961258769966662,0.008));
#949=CARTESIAN_POINT('',(-0.011395632805943,0.0967728882533265,0.008));
#950=CARTESIAN_POINT('',(-0.0118697155994596,0.0971646241596318,0.008));
#951=CARTESIAN_POINT('',(-0.0106662746620714,0.0961258769966662,0.008));
#952=CARTESIAN_POINT('',(-0.0106662746620714,0.0961258769966662,0.005));
#953=CARTESIAN_POINT('',(-0.00998161911411443,0.0961258769966662,0.005));
#954=CARTESIAN_POINT('',(-0.00998161911411443,0.0961258769966662,0.008));
#955=CARTESIAN_POINT('',(-0.00998161911411443,0.0961258769966662,0.008));
#956=CARTESIAN_POINT('',(-0.0106662746620714,0.0961258769966662,0.008));
#957=CARTESIAN_POINT('',(-0.0108839057211298,0.0980233845548355,0.008));
#958=CARTESIAN_POINT('',(-0.0108839057211298,0.0980233845548355,0.005));
#959=CARTESIAN_POINT('',(-0.0103215941198869,0.0975614577303834,0.008));
#960=CARTESIAN_POINT('',(-0.0103215941198869,0.0975614577303834,0.005));
#961=CARTESIAN_POINT('',(-0.0100208319175484,0.0969289552109937,0.008));
#962=CARTESIAN_POINT('',(-0.0100208319175484,0.0969289552109937,0.005));
#963=CARTESIAN_POINT('',(-0.00998161911411443,0.0961258769966662,0.008));
#964=CARTESIAN_POINT('',(-0.00998161911411443,0.0961258769966662,0.005));
#965=CARTESIAN_POINT('',(-0.0108839057211298,0.0980233845548355,0.005));
#966=CARTESIAN_POINT('',(-0.0100404383192654,0.0973304943181574,0.005));
#967=CARTESIAN_POINT('',(-0.00998161911411443,0.0961258769966662,0.005));
#968=CARTESIAN_POINT('',(-0.0108839057211298,0.0980233845548355,0.005));
#969=CARTESIAN_POINT('',(-0.0108839057211298,0.0980233845548355,0.008));
#970=CARTESIAN_POINT('',(-0.0108839057211298,0.0980233845548355,0.008));
#971=CARTESIAN_POINT('',(-0.0108839057211298,0.0980233845548355,0.008));
#972=CARTESIAN_POINT('',(-0.0100404383192654,0.0973304943181574,0.008));
#973=CARTESIAN_POINT('',(-0.00998161911411443,0.0961258769966662,0.008));
#974=CARTESIAN_POINT('',(-0.0130966842189082,0.0987162747915136,0.008));
#975=CARTESIAN_POINT('',(-0.0130966842189082,0.0987162747915136,0.005));
#976=CARTESIAN_POINT('',(-0.0121838101549656,0.0987162747915136,0.008));
#977=CARTESIAN_POINT('',(-0.0121838101549656,0.0987162747915136,0.005));
#978=CARTESIAN_POINT('',(-0.0114462173223728,0.0984853113792876,0.008));
#979=CARTESIAN_POINT('',(-0.0114462173223728,0.0984853113792876,0.005));
#980=CARTESIAN_POINT('',(-0.0108839057211298,0.0980233845548355,0.008));
#981=CARTESIAN_POINT('',(-0.0108839057211298,0.0980233845548355,0.005));
#982=CARTESIAN_POINT('',(-0.0130966842189082,0.0987162747915136,0.005));
#983=CARTESIAN_POINT('',(-0.0117273731229943,0.0987162747915136,0.005));
#984=CARTESIAN_POINT('',(-0.0108839057211298,0.0980233845548355,0.005));
#985=CARTESIAN_POINT('',(-0.0130966842189082,0.0987162747915136,0.005));
#986=CARTESIAN_POINT('',(-0.0130966842189082,0.0987162747915136,0.008));
#987=CARTESIAN_POINT('',(-0.0130966842189082,0.0987162747915136,0.008));
#988=CARTESIAN_POINT('',(-0.0130966842189082,0.0987162747915136,0.008));
#989=CARTESIAN_POINT('',(-0.0117273731229943,0.0987162747915136,0.008));
#990=CARTESIAN_POINT('',(-0.0108839057211298,0.0980233845548355,0.008));
#991=CARTESIAN_POINT('',(-0.0146789208374685,0.0984068857724196,0.008));
#992=CARTESIAN_POINT('',(-0.0146789208374685,0.0984068857724196,0.005));
#993=CARTESIAN_POINT('',(-0.0142169940130164,0.0986131451184823,0.008));
#994=CARTESIAN_POINT('',(-0.0142169940130164,0.0986131451184823,0.005));
#995=CARTESIAN_POINT('',(-0.0136895818068297,0.0987162747915136,0.008));
#996=CARTESIAN_POINT('',(-0.0136895818068297,0.0987162747915136,0.005));
#997=CARTESIAN_POINT('',(-0.0130966842189082,0.0987162747915136,0.008));
#998=CARTESIAN_POINT('',(-0.0130966842189082,0.0987162747915136,0.005));
#999=CARTESIAN_POINT('',(-0.0146789208374685,0.0984068857724196,0.005));
#1000=CARTESIAN_POINT('',(-0.0139860306007904,0.0987162747915136,0.005));
#1001=CARTESIAN_POINT('',(-0.0130966842189082,0.0987162747915136,0.005));
#1002=CARTESIAN_POINT('',(-0.0146789208374685,0.0984068857724196,0.005));
#1003=CARTESIAN_POINT('',(-0.0146789208374685,0.0984068857724196,0.008));
#1004=CARTESIAN_POINT('',(-0.0146789208374685,0.0984068857724196,0.008));
#1005=CARTESIAN_POINT('',(-0.0146789208374685,0.0984068857724196,0.008));
#1006=CARTESIAN_POINT('',(-0.0139860306007904,0.0987162747915136,0.008));
#1007=CARTESIAN_POINT('',(-0.0130966842189082,0.0987162747915136,0.008));
#1008=CARTESIAN_POINT('',(-0.0157482539871126,0.0975704766751733,0.008));
#1009=CARTESIAN_POINT('',(-0.0157482539871126,0.0975704766751733,0.005));
#1010=CARTESIAN_POINT('',(-0.0154972920451352,0.0979218233939416,0.008));
#1011=CARTESIAN_POINT('',(-0.0154972920451352,0.0979218233939416,0.005));
#1012=CARTESIAN_POINT('',(-0.0151408476619205,0.098200626426357,0.008));
#1013=CARTESIAN_POINT('',(-0.0151408476619205,0.098200626426357,0.005));
#1014=CARTESIAN_POINT('',(-0.0146789208374685,0.0984068857724196,0.008));
#1015=CARTESIAN_POINT('',(-0.0146789208374685,0.0984068857724196,0.005));
#1016=CARTESIAN_POINT('',(-0.0157482539871126,0.0975704766751733,0.005));
#1017=CARTESIAN_POINT('',(-0.0153718110741465,0.0980974967533257,0.005));
#1018=CARTESIAN_POINT('',(-0.0146789208374685,0.0984068857724196,0.005));
#1019=CARTESIAN_POINT('',(-0.0157482539871126,0.0975704766751733,0.005));
#1020=CARTESIAN_POINT('',(-0.0157482539871126,0.0975704766751733,0.008));
#1021=CARTESIAN_POINT('',(-0.0157482539871126,0.0975704766751733,0.008));
#1022=CARTESIAN_POINT('',(-0.0157482539871126,0.0975704766751733,0.008));
#1023=CARTESIAN_POINT('',(-0.0153718110741465,0.0980974967533257,0.008));
#1024=CARTESIAN_POINT('',(-0.0146789208374685,0.0984068857724196,0.008));
#1025=CARTESIAN_POINT('',(-0.0141795401302425,0.09641873222409,0.008));
#1026=CARTESIAN_POINT('',(-0.0141795401302425,0.09641873222409,0.005));
#1027=CARTESIAN_POINT('',(-0.0161246969000785,0.0964129147178028,0.005));
#1028=CARTESIAN_POINT('',(-0.0161246969000785,0.0964129147178028,0.008));
#1029=CARTESIAN_POINT('',(-0.0161246969000785,0.0964129147178028,0.008));
#1030=CARTESIAN_POINT('',(-0.0141795401302425,0.09641873222409,0.008));
#1031=CARTESIAN_POINT('',(-0.0157106096958159,0.0951235977408942,0.008));
#1032=CARTESIAN_POINT('',(-0.0157106096958159,0.0951235977408942,0.005));
#1033=CARTESIAN_POINT('',(-0.015986667831991,0.0954498482654648,0.008));
#1034=CARTESIAN_POINT('',(-0.015986667831991,0.0954498482654648,0.005));
#1035=CARTESIAN_POINT('',(-0.0161246969000785,0.0958796205911009,0.008));
#1036=CARTESIAN_POINT('',(-0.0161246969000785,0.0958796205911009,0.005));
#1037=CARTESIAN_POINT('',(-0.0161246969000785,0.0964129147178028,0.008));
#1038=CARTESIAN_POINT('',(-0.0161246969000785,0.0964129147178028,0.005));
#1039=CARTESIAN_POINT('',(-0.0157106096958159,0.0951235977408942,0.005));
#1040=CARTESIAN_POINT('',(-0.0161246969000785,0.09561297352775,0.005));
#1041=CARTESIAN_POINT('',(-0.0161246969000785,0.0964129147178028,0.005));
#1042=CARTESIAN_POINT('',(-0.0157106096958159,0.0951235977408942,0.005));
#1043=CARTESIAN_POINT('',(-0.0157106096958159,0.0951235977408942,0.008));
#1044=CARTESIAN_POINT('',(-0.0157106096958159,0.0951235977408942,0.008));
#1045=CARTESIAN_POINT('',(-0.0157106096958159,0.0951235977408942,0.008));
#1046=CARTESIAN_POINT('',(-0.0161246969000785,0.09561297352775,0.008));
#1047=CARTESIAN_POINT('',(-0.0161246969000785,0.0964129147178028,0.008));
#1048=CARTESIAN_POINT('',(-0.0136752935678348,0.0968264470761151,0.008));
#1049=CARTESIAN_POINT('',(-0.0136752935678348,0.0968264470761151,0.005));
#1050=CARTESIAN_POINT('',(-0.0147165651287651,0.0943860049083014,0.005));
#1051=CARTESIAN_POINT('',(-0.0147165651287651,0.0943860049083014,0.008));
#1052=CARTESIAN_POINT('',(-0.0147165651287651,0.0943860049083014,0.008));
#1053=CARTESIAN_POINT('',(-0.0136752935678348,0.0968264470761151,0.008));
#1054=CARTESIAN_POINT('',(-0.0132190281656221,0.0938978055055486,0.008));
#1055=CARTESIAN_POINT('',(-0.0132190281656221,0.0938978055055486,0.005));
#1056=CARTESIAN_POINT('',(-0.0138307478991919,0.0940577937435591,0.008));
#1057=CARTESIAN_POINT('',(-0.0138307478991919,0.0940577937435591,0.005));
#1058=CARTESIAN_POINT('',(-0.0143299268869062,0.0942205268778101,0.008));
#1059=CARTESIAN_POINT('',(-0.0143299268869062,0.0942205268778101,0.005));
#1060=CARTESIAN_POINT('',(-0.0147165651287651,0.0943860049083014,0.008));
#1061=CARTESIAN_POINT('',(-0.0147165651287651,0.0943860049083014,0.005));
#1062=CARTESIAN_POINT('',(-0.0132190281656221,0.0938978055055486,0.005));
#1063=CARTESIAN_POINT('',(-0.0141366077659768,0.0941377878625644,0.005));
#1064=CARTESIAN_POINT('',(-0.0147165651287651,0.0943860049083014,0.005));
#1065=CARTESIAN_POINT('',(-0.0132190281656221,0.0938978055055486,0.005));
#1066=CARTESIAN_POINT('',(-0.0132190281656221,0.0938978055055486,0.008));
#1067=CARTESIAN_POINT('',(-0.0132190281656221,0.0938978055055486,0.008));
#1068=CARTESIAN_POINT('',(-0.0132190281656221,0.0938978055055486,0.008));
#1069=CARTESIAN_POINT('',(-0.0141366077659768,0.0941377878625644,0.008));
#1070=CARTESIAN_POINT('',(-0.0147165651287651,0.0943860049083014,0.008));
#1071=CARTESIAN_POINT('',(-0.0117273731229943,0.0933778437320143,0.008));
#1072=CARTESIAN_POINT('',(-0.0117273731229943,0.0933778437320143,0.005));
#1073=CARTESIAN_POINT('',(-0.0120489181111528,0.0935535170913984,0.008));
#1074=CARTESIAN_POINT('',(-0.0120489181111528,0.0935535170913984,0.005));
#1075=CARTESIAN_POINT('',(-0.0125461364586954,0.0937268376825765,0.008));
#1076=CARTESIAN_POINT('',(-0.0125461364586954,0.0937268376825765,0.005));
#1077=CARTESIAN_POINT('',(-0.0132190281656221,0.0938978055055486,0.008));
#1078=CARTESIAN_POINT('',(-0.0132190281656221,0.0938978055055486,0.005));
#1079=CARTESIAN_POINT('',(-0.0117273731229943,0.0933778437320143,0.005));
#1080=CARTESIAN_POINT('',(-0.012209690605232,0.0936413537710905,0.005));
#1081=CARTESIAN_POINT('',(-0.0132190281656221,0.0938978055055486,0.005));
#1082=CARTESIAN_POINT('',(-0.0117273731229943,0.0933778437320143,0.005));
#1083=CARTESIAN_POINT('',(-0.0117273731229943,0.0933778437320143,0.008));
#1084=CARTESIAN_POINT('',(-0.0117273731229943,0.0933778437320143,0.008));
#1085=CARTESIAN_POINT('',(-0.0117273731229943,0.0933778437320143,0.008));
#1086=CARTESIAN_POINT('',(-0.012209690605232,0.0936413537710905,0.008));
#1087=CARTESIAN_POINT('',(-0.0132190281656221,0.0938978055055486,0.008));
#1088=CARTESIAN_POINT('',(-0.0112450556407566,0.0925731970055494,0.008));
#1089=CARTESIAN_POINT('',(-0.0112450556407566,0.0925731970055494,0.005));
#1090=CARTESIAN_POINT('',(-0.0112450556407566,0.0929339547971419,0.008));
#1091=CARTESIAN_POINT('',(-0.0112450556407566,0.0929339547971419,0.005));
#1092=CARTESIAN_POINT('',(-0.0114058281348359,0.0932021703726302,0.008));
#1093=CARTESIAN_POINT('',(-0.0114058281348359,0.0932021703726302,0.005));
#1094=CARTESIAN_POINT('',(-0.0117273731229943,0.0933778437320143,0.008));
#1095=CARTESIAN_POINT('',(-0.0117273731229943,0.0933778437320143,0.005));
#1096=CARTESIAN_POINT('',(-0.0112450556407566,0.0925731970055494,0.005));
#1097=CARTESIAN_POINT('',(-0.0112450556407566,0.0931143336929381,0.005));
#1098=CARTESIAN_POINT('',(-0.0117273731229943,0.0933778437320143,0.005));
#1099=CARTESIAN_POINT('',(-0.0112450556407566,0.0925731970055494,0.005));
#1100=CARTESIAN_POINT('',(-0.0112450556407566,0.0925731970055494,0.008));
#1101=CARTESIAN_POINT('',(-0.0112450556407566,0.0925731970055494,0.008));
#1102=CARTESIAN_POINT('',(-0.0112450556407566,0.0925731970055494,0.008));
#1103=CARTESIAN_POINT('',(-0.0112450556407566,0.0931143336929381,0.008));
#1104=CARTESIAN_POINT('',(-0.0117273731229943,0.0933778437320143,0.008));
#1105=CARTESIAN_POINT('',(-0.0116967871363158,0.0916991436170065,0.008));
#1106=CARTESIAN_POINT('',(-0.0116967871363158,0.0916991436170065,0.005));
#1107=CARTESIAN_POINT('',(-0.011395632805943,0.0919304991572669,0.008));
#1108=CARTESIAN_POINT('',(-0.011395632805943,0.0919304991572669,0.005));
#1109=CARTESIAN_POINT('',(-0.0112450556407566,0.0922218502867811,0.008));
#1110=CARTESIAN_POINT('',(-0.0112450556407566,0.0922218502867811,0.005));
#1111=CARTESIAN_POINT('',(-0.0112450556407566,0.0925731970055494,0.008));
#1112=CARTESIAN_POINT('',(-0.0112450556407566,0.0925731970055494,0.005));
#1113=CARTESIAN_POINT('',(-0.0116967871363158,0.0916991436170065,0.005));
#1114=CARTESIAN_POINT('',(-0.0112450556407566,0.092046176927397,0.005));
#1115=CARTESIAN_POINT('',(-0.0112450556407566,0.0925731970055494,0.005));
#1116=CARTESIAN_POINT('',(-0.0116967871363158,0.0916991436170065,0.005));
#1117=CARTESIAN_POINT('',(-0.0116967871363158,0.0916991436170065,0.008));
#1118=CARTESIAN_POINT('',(-0.0116967871363158,0.0916991436170065,0.008));
#1119=CARTESIAN_POINT('',(-0.0116967871363158,0.0916991436170065,0.008));
#1120=CARTESIAN_POINT('',(-0.0112450556407566,0.092046176927397,0.008));
#1121=CARTESIAN_POINT('',(-0.0112450556407566,0.0925731970055494,0.008));
#1122=CARTESIAN_POINT('',(-0.0129319904444856,0.0913521103066159,0.008));
#1123=CARTESIAN_POINT('',(-0.0129319904444856,0.0913521103066159,0.005));
#1124=CARTESIAN_POINT('',(-0.0124096759027452,0.0913521103066159,0.008));
#1125=CARTESIAN_POINT('',(-0.0124096759027452,0.0913521103066159,0.005));
#1126=CARTESIAN_POINT('',(-0.0119979414666886,0.0914677880767461,0.008));
#1127=CARTESIAN_POINT('',(-0.0119979414666886,0.0914677880767461,0.005));
#1128=CARTESIAN_POINT('',(-0.0116967871363158,0.0916991436170065,0.008));
#1129=CARTESIAN_POINT('',(-0.0116967871363158,0.0916991436170065,0.005));
#1130=CARTESIAN_POINT('',(-0.0129319904444856,0.0913521103066159,0.005));
#1131=CARTESIAN_POINT('',(-0.012148518631875,0.0913521103066159,0.005));
#1132=CARTESIAN_POINT('',(-0.0116967871363158,0.0916991436170065,0.005));
#1133=CARTESIAN_POINT('',(-0.0129319904444856,0.0913521103066159,0.005));
#1134=CARTESIAN_POINT('',(-0.0129319904444856,0.0913521103066159,0.008));
#1135=CARTESIAN_POINT('',(-0.0129319904444856,0.0913521103066159,0.008));
#1136=CARTESIAN_POINT('',(-0.0129319904444856,0.0913521103066159,0.008));
#1137=CARTESIAN_POINT('',(-0.012148518631875,0.0913521103066159,0.008));
#1138=CARTESIAN_POINT('',(-0.0116967871363158,0.0916991436170065,0.008));
#1139=CARTESIAN_POINT('',(-0.0142942432357813,0.0917438462129212,0.008));
#1140=CARTESIAN_POINT('',(-0.0142942432357813,0.0917438462129212,0.005));
#1141=CARTESIAN_POINT('',(-0.0139476020534251,0.091482688942051,0.008));
#1142=CARTESIAN_POINT('',(-0.0139476020534251,0.091482688942051,0.005));
#1143=CARTESIAN_POINT('',(-0.0134935177896599,0.0913521103066159,0.008));
#1144=CARTESIAN_POINT('',(-0.0134935177896599,0.0913521103066159,0.005));
#1145=CARTESIAN_POINT('',(-0.0129319904444856,0.0913521103066159,0.008));
#1146=CARTESIAN_POINT('',(-0.0129319904444856,0.0913521103066159,0.005));
#1147=CARTESIAN_POINT('',(-0.0142942432357813,0.0917438462129212,0.005));
#1148=CARTESIAN_POINT('',(-0.013774281462247,0.0913521103066159,0.005));
#1149=CARTESIAN_POINT('',(-0.0129319904444856,0.0913521103066159,0.005));
#1150=CARTESIAN_POINT('',(-0.0142942432357813,0.0917438462129212,0.005));
#1151=CARTESIAN_POINT('',(-0.0142942432357813,0.0917438462129212,0.008));
#1152=CARTESIAN_POINT('',(-0.0142942432357813,0.0917438462129212,0.008));
#1153=CARTESIAN_POINT('',(-0.0142942432357813,0.0917438462129212,0.008));
#1154=CARTESIAN_POINT('',(-0.013774281462247,0.0913521103066159,0.008));
#1155=CARTESIAN_POINT('',(-0.0129319904444856,0.0913521103066159,0.008));
#1156=CARTESIAN_POINT('',(-0.0148753769826726,0.0927520073892083,0.008));
#1157=CARTESIAN_POINT('',(-0.0148753769826726,0.0927520073892083,0.005));
#1158=CARTESIAN_POINT('',(-0.0148345956671013,0.0923410572092204,0.008));
#1159=CARTESIAN_POINT('',(-0.0148345956671013,0.0923410572092204,0.005));
#1160=CARTESIAN_POINT('',(-0.0146408844181375,0.0920050034837914,0.008));
#1161=CARTESIAN_POINT('',(-0.0146408844181375,0.0920050034837914,0.005));
#1162=CARTESIAN_POINT('',(-0.0142942432357813,0.0917438462129212,0.008));
#1163=CARTESIAN_POINT('',(-0.0142942432357813,0.0917438462129212,0.005));
#1164=CARTESIAN_POINT('',(-0.0148753769826726,0.0927520073892083,0.005));
#1165=CARTESIAN_POINT('',(-0.0148142050093156,0.0921355821192265,0.005));
#1166=CARTESIAN_POINT('',(-0.0142942432357813,0.0917438462129212,0.005));
#1167=CARTESIAN_POINT('',(-0.0148753769826726,0.0927520073892083,0.005));
#1168=CARTESIAN_POINT('',(-0.0148753769826726,0.0927520073892083,0.008));
#1169=CARTESIAN_POINT('',(-0.0148753769826726,0.0927520073892083,0.008));
#1170=CARTESIAN_POINT('',(-0.0148753769826726,0.0927520073892083,0.008));
#1171=CARTESIAN_POINT('',(-0.0148142050093156,0.0921355821192265,0.008));
#1172=CARTESIAN_POINT('',(-0.0142942432357813,0.0917438462129212,0.008));
#1173=CARTESIAN_POINT('',(-0.0155823838285869,0.0927520073892083,0.008));
#1174=CARTESIAN_POINT('',(-0.0155823838285869,0.0927520073892083,0.005));
#1175=CARTESIAN_POINT('',(-0.0162893906745012,0.0927520073892083,0.005));
#1176=CARTESIAN_POINT('',(-0.0162893906745012,0.0927520073892083,0.008));
#1177=CARTESIAN_POINT('',(-0.0162893906745012,0.0927520073892083,0.008));
#1178=CARTESIAN_POINT('',(-0.0155823838285869,0.0927520073892083,0.008));
#1179=CARTESIAN_POINT('',(-0.0158082495763665,0.091420340584591,0.008));
#1180=CARTESIAN_POINT('',(-0.0158082495763665,0.091420340584591,0.005));
#1181=CARTESIAN_POINT('',(-0.0160992085778465,0.0918061945703812,0.008));
#1182=CARTESIAN_POINT('',(-0.0160992085778465,0.0918061945703812,0.005));
#1183=CARTESIAN_POINT('',(-0.0162595889438914,0.0922500835052536,0.008));
#1184=CARTESIAN_POINT('',(-0.0162595889438914,0.0922500835052536,0.005));
#1185=CARTESIAN_POINT('',(-0.0162893906745012,0.0927520073892083,0.008));
#1186=CARTESIAN_POINT('',(-0.0162893906745012,0.0927520073892083,0.005));
#1187=CARTESIAN_POINT('',(-0.0158082495763665,0.091420340584591,0.005));
#1188=CARTESIAN_POINT('',(-0.0162446880785865,0.0919991215632763,0.005));
#1189=CARTESIAN_POINT('',(-0.0162893906745012,0.0927520073892083,0.005));
#1190=CARTESIAN_POINT('',(-0.0158082495763665,0.091420340584591,0.005));
#1191=CARTESIAN_POINT('',(-0.0158082495763665,0.091420340584591,0.008));
#1192=CARTESIAN_POINT('',(-0.0158082495763665,0.091420340584591,0.008));
#1193=CARTESIAN_POINT('',(-0.0158082495763665,0.091420340584591,0.008));
#1194=CARTESIAN_POINT('',(-0.0162446880785865,0.0919991215632763,0.008));
#1195=CARTESIAN_POINT('',(-0.0162893906745012,0.0927520073892083,0.008));
#1196=CARTESIAN_POINT('',(-0.0146189252482145,0.0905168775934726,0.008));
#1197=CARTESIAN_POINT('',(-0.0146189252482145,0.0905168775934726,0.005));
#1198=CARTESIAN_POINT('',(-0.0151208491321692,0.0907333322684281,0.008));
#1199=CARTESIAN_POINT('',(-0.0151208491321692,0.0907333322684281,0.005));
#1200=CARTESIAN_POINT('',(-0.0155172905748865,0.0910344865988009,0.008));
#1201=CARTESIAN_POINT('',(-0.0155172905748865,0.0910344865988009,0.005));
#1202=CARTESIAN_POINT('',(-0.0158082495763665,0.091420340584591,0.008));
#1203=CARTESIAN_POINT('',(-0.0158082495763665,0.091420340584591,0.005));
#1204=CARTESIAN_POINT('',(-0.0146189252482145,0.0905168775934726,0.005));
#1205=CARTESIAN_POINT('',(-0.0153718110741465,0.0908415596059058,0.005));
#1206=CARTESIAN_POINT('',(-0.0158082495763665,0.091420340584591,0.005));
#1207=CARTESIAN_POINT('',(-0.0146189252482145,0.0905168775934726,0.008));
#1208=CARTESIAN_POINT('',(-0.0153718110741465,0.0908415596059058,0.008));
#1209=CARTESIAN_POINT('',(-0.0158082495763665,0.091420340584591,0.008));
#1210=CARTESIAN_POINT('',(4.16333634234434E-16,0.0415391394652619,0.008));
#1211=CARTESIAN_POINT('',(4.16333634234434E-16,0.0415391394652619,0.005));
#1212=MECHANICAL_DESIGN_GEOMETRIC_PRESENTATION_REPRESENTATION('',(#633),
#1213);
#1213=(
GEOMETRIC_REPRESENTATION_CONTEXT(3)
GLOBAL_UNCERTAINTY_ASSIGNED_CONTEXT((#1214))
GLOBAL_UNIT_ASSIGNED_CONTEXT((#1217,#1216,#1215))
REPRESENTATION_CONTEXT('Part 10','TOP_LEVEL_ASSEMBLY_PART')
);
#1214=UNCERTAINTY_MEASURE_WITH_UNIT(LENGTH_MEASURE(2.E-5),#1217,
'DISTANCE_ACCURACY_VALUE','Maximum Tolerance applied to model');
#1215=(
NAMED_UNIT(*)
SI_UNIT($,.STERADIAN.)
SOLID_ANGLE_UNIT()
);
#1216=(
NAMED_UNIT(*)
PLANE_ANGLE_UNIT()
SI_UNIT($,.RADIAN.)
);
#1217=(
LENGTH_UNIT()
NAMED_UNIT(*)
SI_UNIT($,.METRE.)
);
#1218=PRODUCT_DEFINITION_SHAPE('','',#1219);
#1219=PRODUCT_DEFINITION('','',#1221,#1220);
#1220=PRODUCT_DEFINITION_CONTEXT('',#1227,'design');
#1221=PRODUCT_DEFINITION_FORMATION_WITH_SPECIFIED_SOURCE('','',#1223,
 .NOT_KNOWN.);
#1222=PRODUCT_RELATED_PRODUCT_CATEGORY('','',(#1223));
#1223=PRODUCT('Part 10','Part 10','Part 10',(#1225));
#1224=PRODUCT_CATEGORY('','');
#1225=PRODUCT_CONTEXT('',#1227,'mechanical');
#1226=APPLICATION_PROTOCOL_DEFINITION('international standard',
'ap242_managed_model_based_3d_engineering',2020,#1227);
#1227=APPLICATION_CONTEXT('managed model based 3d engineering');
ENDSEC;
END-ISO-10303-21;
