ISO-10303-21;
HEADER;
/* Generated by software containing ST-Developer
 * from STEP Tools, Inc. (www.steptools.com) 
 */
/* OPTION: using custom renumber hook */

FILE_DESCRIPTION(
/* description */ ('STEP AP242 Edition 2',
'CAx-IF Rec.Pracs.---Representation and Presentation of Product Manufa
cturing Information (PMI)---4.0---2014-10-13',
'CAx-IF Rec.Pracs.---3D Tessellated Geometry---0.4---2014-09-14','2;1',
'CAx-IF Rec.Pracs.---User Defined Attributes---1.5---2016-08-15'),
/* implementation_level */ '2;1');

FILE_NAME(
/* name */ 'Body - Part 13',
/* time_stamp */ '2026-08-03T01:29:05Z',
/* author */ (''),
/* organization */ (''),
/* preprocessor_version */ 'ST-DEVELOPER v20',
/* originating_system */ 'ONSHAPE BY PTC INC, 1.218',
/* authorisation */ '  ');

FILE_SCHEMA (('AP242_MANAGED_MODEL_BASED_3D_ENGINEERING_MIM_LF { 1 0 10303 442 3 1 4 }'));
ENDSEC;

DATA;
#10=SHAPE_REPRESENTATION_RELATIONSHIP('','',#415,#11);
#11=ADVANCED_BREP_SHAPE_REPRESENTATION('',(#413),#777);
#12=PLANE('',#417);
#13=PLANE('',#418);
#14=PLANE('',#419);
#15=PLANE('',#420);
#16=LINE('',#469,#40);
#17=LINE('',#475,#41);
#18=LINE('',#488,#42);
#19=LINE('',#505,#43);
#20=LINE('',#522,#44);
#21=LINE('',#539,#45);
#22=LINE('',#556,#46);
#23=LINE('',#562,#47);
#24=LINE('',#564,#48);
#25=LINE('',#566,#49);
#26=LINE('',#579,#50);
#27=LINE('',#596,#51);
#28=LINE('',#613,#52);
#29=LINE('',#630,#53);
#30=LINE('',#647,#54);
#31=LINE('',#664,#55);
#32=LINE('',#681,#56);
#33=LINE('',#698,#57);
#34=LINE('',#704,#58);
#35=LINE('',#706,#59);
#36=LINE('',#708,#60);
#37=LINE('',#721,#61);
#38=LINE('',#738,#62);
#39=LINE('',#755,#63);
#40=VECTOR('',#423,1.);
#41=VECTOR('',#424,1.);
#42=VECTOR('',#425,1.);
#43=VECTOR('',#426,1.);
#44=VECTOR('',#427,1.);
#45=VECTOR('',#428,1.);
#46=VECTOR('',#429,1.);
#47=VECTOR('',#432,1.);
#48=VECTOR('',#433,1.);
#49=VECTOR('',#434,1.);
#50=VECTOR('',#435,1.);
#51=VECTOR('',#436,1.);
#52=VECTOR('',#437,1.);
#53=VECTOR('',#438,1.);
#54=VECTOR('',#439,1.);
#55=VECTOR('',#440,1.);
#56=VECTOR('',#441,1.);
#57=VECTOR('',#442,1.);
#58=VECTOR('',#445,1.);
#59=VECTOR('',#446,1.);
#60=VECTOR('',#447,1.);
#61=VECTOR('',#448,1.);
#62=VECTOR('',#449,1.);
#63=VECTOR('',#450,1.);
#64=ORIENTED_EDGE('',*,*,#184,.F.);
#65=ORIENTED_EDGE('',*,*,#185,.F.);
#66=ORIENTED_EDGE('',*,*,#186,.T.);
#67=ORIENTED_EDGE('',*,*,#187,.T.);
#68=ORIENTED_EDGE('',*,*,#188,.F.);
#69=ORIENTED_EDGE('',*,*,#189,.F.);
#70=ORIENTED_EDGE('',*,*,#190,.T.);
#71=ORIENTED_EDGE('',*,*,#185,.T.);
#72=ORIENTED_EDGE('',*,*,#191,.F.);
#73=ORIENTED_EDGE('',*,*,#192,.F.);
#74=ORIENTED_EDGE('',*,*,#193,.T.);
#75=ORIENTED_EDGE('',*,*,#189,.T.);
#76=ORIENTED_EDGE('',*,*,#194,.F.);
#77=ORIENTED_EDGE('',*,*,#195,.F.);
#78=ORIENTED_EDGE('',*,*,#196,.T.);
#79=ORIENTED_EDGE('',*,*,#192,.T.);
#80=ORIENTED_EDGE('',*,*,#197,.F.);
#81=ORIENTED_EDGE('',*,*,#198,.F.);
#82=ORIENTED_EDGE('',*,*,#199,.T.);
#83=ORIENTED_EDGE('',*,*,#195,.T.);
#84=ORIENTED_EDGE('',*,*,#200,.F.);
#85=ORIENTED_EDGE('',*,*,#201,.F.);
#86=ORIENTED_EDGE('',*,*,#202,.T.);
#87=ORIENTED_EDGE('',*,*,#198,.T.);
#88=ORIENTED_EDGE('',*,*,#203,.F.);
#89=ORIENTED_EDGE('',*,*,#204,.F.);
#90=ORIENTED_EDGE('',*,*,#205,.T.);
#91=ORIENTED_EDGE('',*,*,#201,.T.);
#92=ORIENTED_EDGE('',*,*,#206,.F.);
#93=ORIENTED_EDGE('',*,*,#207,.F.);
#94=ORIENTED_EDGE('',*,*,#208,.T.);
#95=ORIENTED_EDGE('',*,*,#204,.T.);
#96=ORIENTED_EDGE('',*,*,#209,.F.);
#97=ORIENTED_EDGE('',*,*,#210,.F.);
#98=ORIENTED_EDGE('',*,*,#211,.T.);
#99=ORIENTED_EDGE('',*,*,#207,.T.);
#100=ORIENTED_EDGE('',*,*,#212,.F.);
#101=ORIENTED_EDGE('',*,*,#213,.F.);
#102=ORIENTED_EDGE('',*,*,#214,.T.);
#103=ORIENTED_EDGE('',*,*,#210,.T.);
#104=ORIENTED_EDGE('',*,*,#215,.F.);
#105=ORIENTED_EDGE('',*,*,#216,.F.);
#106=ORIENTED_EDGE('',*,*,#217,.T.);
#107=ORIENTED_EDGE('',*,*,#213,.T.);
#108=ORIENTED_EDGE('',*,*,#218,.F.);
#109=ORIENTED_EDGE('',*,*,#219,.F.);
#110=ORIENTED_EDGE('',*,*,#220,.T.);
#111=ORIENTED_EDGE('',*,*,#216,.T.);
#112=ORIENTED_EDGE('',*,*,#221,.F.);
#113=ORIENTED_EDGE('',*,*,#222,.F.);
#114=ORIENTED_EDGE('',*,*,#223,.T.);
#115=ORIENTED_EDGE('',*,*,#219,.T.);
#116=ORIENTED_EDGE('',*,*,#224,.F.);
#117=ORIENTED_EDGE('',*,*,#225,.F.);
#118=ORIENTED_EDGE('',*,*,#226,.T.);
#119=ORIENTED_EDGE('',*,*,#222,.T.);
#120=ORIENTED_EDGE('',*,*,#227,.F.);
#121=ORIENTED_EDGE('',*,*,#228,.F.);
#122=ORIENTED_EDGE('',*,*,#229,.T.);
#123=ORIENTED_EDGE('',*,*,#225,.T.);
#124=ORIENTED_EDGE('',*,*,#230,.F.);
#125=ORIENTED_EDGE('',*,*,#231,.F.);
#126=ORIENTED_EDGE('',*,*,#232,.T.);
#127=ORIENTED_EDGE('',*,*,#228,.T.);
#128=ORIENTED_EDGE('',*,*,#233,.F.);
#129=ORIENTED_EDGE('',*,*,#234,.F.);
#130=ORIENTED_EDGE('',*,*,#235,.T.);
#131=ORIENTED_EDGE('',*,*,#231,.T.);
#132=ORIENTED_EDGE('',*,*,#236,.F.);
#133=ORIENTED_EDGE('',*,*,#237,.F.);
#134=ORIENTED_EDGE('',*,*,#238,.T.);
#135=ORIENTED_EDGE('',*,*,#234,.T.);
#136=ORIENTED_EDGE('',*,*,#239,.F.);
#137=ORIENTED_EDGE('',*,*,#240,.F.);
#138=ORIENTED_EDGE('',*,*,#241,.T.);
#139=ORIENTED_EDGE('',*,*,#237,.T.);
#140=ORIENTED_EDGE('',*,*,#242,.F.);
#141=ORIENTED_EDGE('',*,*,#187,.F.);
#142=ORIENTED_EDGE('',*,*,#243,.T.);
#143=ORIENTED_EDGE('',*,*,#240,.T.);
#144=ORIENTED_EDGE('',*,*,#186,.F.);
#145=ORIENTED_EDGE('',*,*,#190,.F.);
#146=ORIENTED_EDGE('',*,*,#193,.F.);
#147=ORIENTED_EDGE('',*,*,#196,.F.);
#148=ORIENTED_EDGE('',*,*,#199,.F.);
#149=ORIENTED_EDGE('',*,*,#202,.F.);
#150=ORIENTED_EDGE('',*,*,#205,.F.);
#151=ORIENTED_EDGE('',*,*,#208,.F.);
#152=ORIENTED_EDGE('',*,*,#211,.F.);
#153=ORIENTED_EDGE('',*,*,#214,.F.);
#154=ORIENTED_EDGE('',*,*,#217,.F.);
#155=ORIENTED_EDGE('',*,*,#220,.F.);
#156=ORIENTED_EDGE('',*,*,#223,.F.);
#157=ORIENTED_EDGE('',*,*,#226,.F.);
#158=ORIENTED_EDGE('',*,*,#229,.F.);
#159=ORIENTED_EDGE('',*,*,#232,.F.);
#160=ORIENTED_EDGE('',*,*,#235,.F.);
#161=ORIENTED_EDGE('',*,*,#238,.F.);
#162=ORIENTED_EDGE('',*,*,#241,.F.);
#163=ORIENTED_EDGE('',*,*,#243,.F.);
#164=ORIENTED_EDGE('',*,*,#184,.T.);
#165=ORIENTED_EDGE('',*,*,#242,.T.);
#166=ORIENTED_EDGE('',*,*,#239,.T.);
#167=ORIENTED_EDGE('',*,*,#236,.T.);
#168=ORIENTED_EDGE('',*,*,#233,.T.);
#169=ORIENTED_EDGE('',*,*,#230,.T.);
#170=ORIENTED_EDGE('',*,*,#227,.T.);
#171=ORIENTED_EDGE('',*,*,#224,.T.);
#172=ORIENTED_EDGE('',*,*,#221,.T.);
#173=ORIENTED_EDGE('',*,*,#218,.T.);
#174=ORIENTED_EDGE('',*,*,#215,.T.);
#175=ORIENTED_EDGE('',*,*,#212,.T.);
#176=ORIENTED_EDGE('',*,*,#209,.T.);
#177=ORIENTED_EDGE('',*,*,#206,.T.);
#178=ORIENTED_EDGE('',*,*,#203,.T.);
#179=ORIENTED_EDGE('',*,*,#200,.T.);
#180=ORIENTED_EDGE('',*,*,#197,.T.);
#181=ORIENTED_EDGE('',*,*,#194,.T.);
#182=ORIENTED_EDGE('',*,*,#191,.T.);
#183=ORIENTED_EDGE('',*,*,#188,.T.);
#184=EDGE_CURVE('',#244,#245,#284,.T.);
#185=EDGE_CURVE('',#246,#244,#16,.T.);
#186=EDGE_CURVE('',#246,#247,#285,.T.);
#187=EDGE_CURVE('',#247,#245,#17,.T.);
#188=EDGE_CURVE('',#248,#244,#286,.T.);
#189=EDGE_CURVE('',#249,#248,#18,.T.);
#190=EDGE_CURVE('',#249,#246,#287,.T.);
#191=EDGE_CURVE('',#250,#248,#288,.T.);
#192=EDGE_CURVE('',#251,#250,#19,.T.);
#193=EDGE_CURVE('',#251,#249,#289,.T.);
#194=EDGE_CURVE('',#252,#250,#290,.T.);
#195=EDGE_CURVE('',#253,#252,#20,.T.);
#196=EDGE_CURVE('',#253,#251,#291,.T.);
#197=EDGE_CURVE('',#254,#252,#292,.T.);
#198=EDGE_CURVE('',#255,#254,#21,.T.);
#199=EDGE_CURVE('',#255,#253,#293,.T.);
#200=EDGE_CURVE('',#256,#254,#294,.T.);
#201=EDGE_CURVE('',#257,#256,#22,.T.);
#202=EDGE_CURVE('',#257,#255,#295,.T.);
#203=EDGE_CURVE('',#258,#256,#23,.T.);
#204=EDGE_CURVE('',#259,#258,#24,.T.);
#205=EDGE_CURVE('',#259,#257,#25,.T.);
#206=EDGE_CURVE('',#260,#258,#296,.T.);
#207=EDGE_CURVE('',#261,#260,#26,.T.);
#208=EDGE_CURVE('',#261,#259,#297,.T.);
#209=EDGE_CURVE('',#262,#260,#298,.T.);
#210=EDGE_CURVE('',#263,#262,#27,.T.);
#211=EDGE_CURVE('',#263,#261,#299,.T.);
#212=EDGE_CURVE('',#264,#262,#300,.T.);
#213=EDGE_CURVE('',#265,#264,#28,.T.);
#214=EDGE_CURVE('',#265,#263,#301,.T.);
#215=EDGE_CURVE('',#266,#264,#302,.T.);
#216=EDGE_CURVE('',#267,#266,#29,.T.);
#217=EDGE_CURVE('',#267,#265,#303,.T.);
#218=EDGE_CURVE('',#268,#266,#304,.T.);
#219=EDGE_CURVE('',#269,#268,#30,.T.);
#220=EDGE_CURVE('',#269,#267,#305,.T.);
#221=EDGE_CURVE('',#270,#268,#306,.T.);
#222=EDGE_CURVE('',#271,#270,#31,.T.);
#223=EDGE_CURVE('',#271,#269,#307,.T.);
#224=EDGE_CURVE('',#272,#270,#308,.T.);
#225=EDGE_CURVE('',#273,#272,#32,.T.);
#226=EDGE_CURVE('',#273,#271,#309,.T.);
#227=EDGE_CURVE('',#274,#272,#310,.T.);
#228=EDGE_CURVE('',#275,#274,#33,.T.);
#229=EDGE_CURVE('',#275,#273,#311,.T.);
#230=EDGE_CURVE('',#276,#274,#34,.T.);
#231=EDGE_CURVE('',#277,#276,#35,.T.);
#232=EDGE_CURVE('',#277,#275,#36,.T.);
#233=EDGE_CURVE('',#278,#276,#312,.T.);
#234=EDGE_CURVE('',#279,#278,#37,.T.);
#235=EDGE_CURVE('',#279,#277,#313,.T.);
#236=EDGE_CURVE('',#280,#278,#314,.T.);
#237=EDGE_CURVE('',#281,#280,#38,.T.);
#238=EDGE_CURVE('',#281,#279,#315,.T.);
#239=EDGE_CURVE('',#282,#280,#316,.T.);
#240=EDGE_CURVE('',#283,#282,#39,.T.);
#241=EDGE_CURVE('',#283,#281,#317,.T.);
#242=EDGE_CURVE('',#245,#282,#318,.T.);
#243=EDGE_CURVE('',#247,#283,#319,.T.);
#244=VERTEX_POINT('',#467);
#245=VERTEX_POINT('',#468);
#246=VERTEX_POINT('',#470);
#247=VERTEX_POINT('',#474);
#248=VERTEX_POINT('',#487);
#249=VERTEX_POINT('',#489);
#250=VERTEX_POINT('',#504);
#251=VERTEX_POINT('',#506);
#252=VERTEX_POINT('',#521);
#253=VERTEX_POINT('',#523);
#254=VERTEX_POINT('',#538);
#255=VERTEX_POINT('',#540);
#256=VERTEX_POINT('',#555);
#257=VERTEX_POINT('',#557);
#258=VERTEX_POINT('',#563);
#259=VERTEX_POINT('',#565);
#260=VERTEX_POINT('',#578);
#261=VERTEX_POINT('',#580);
#262=VERTEX_POINT('',#595);
#263=VERTEX_POINT('',#597);
#264=VERTEX_POINT('',#612);
#265=VERTEX_POINT('',#614);
#266=VERTEX_POINT('',#629);
#267=VERTEX_POINT('',#631);
#268=VERTEX_POINT('',#646);
#269=VERTEX_POINT('',#648);
#270=VERTEX_POINT('',#663);
#271=VERTEX_POINT('',#665);
#272=VERTEX_POINT('',#680);
#273=VERTEX_POINT('',#682);
#274=VERTEX_POINT('',#697);
#275=VERTEX_POINT('',#699);
#276=VERTEX_POINT('',#705);
#277=VERTEX_POINT('',#707);
#278=VERTEX_POINT('',#720);
#279=VERTEX_POINT('',#722);
#280=VERTEX_POINT('',#737);
#281=VERTEX_POINT('',#739);
#282=VERTEX_POINT('',#754);
#283=VERTEX_POINT('',#756);
#284=B_SPLINE_CURVE_WITH_KNOTS('',2,(#464,#465,#466),.UNSPECIFIED.,.F.,
 .F.,(3,3),(0.,1.),.PIECEWISE_BEZIER_KNOTS.);
#285=B_SPLINE_CURVE_WITH_KNOTS('',2,(#471,#472,#473),.UNSPECIFIED.,.F.,
 .F.,(3,3),(0.,1.),.PIECEWISE_BEZIER_KNOTS.);
#286=B_SPLINE_CURVE_WITH_KNOTS('',2,(#484,#485,#486),.UNSPECIFIED.,.F.,
 .F.,(3,3),(0.,1.),.PIECEWISE_BEZIER_KNOTS.);
#287=B_SPLINE_CURVE_WITH_KNOTS('',2,(#490,#491,#492),.UNSPECIFIED.,.F.,
 .F.,(3,3),(0.,1.),.PIECEWISE_BEZIER_KNOTS.);
#288=B_SPLINE_CURVE_WITH_KNOTS('',2,(#501,#502,#503),.UNSPECIFIED.,.F.,
 .F.,(3,3),(0.,1.),.PIECEWISE_BEZIER_KNOTS.);
#289=B_SPLINE_CURVE_WITH_KNOTS('',2,(#507,#508,#509),.UNSPECIFIED.,.F.,
 .F.,(3,3),(0.,1.),.PIECEWISE_BEZIER_KNOTS.);
#290=B_SPLINE_CURVE_WITH_KNOTS('',2,(#518,#519,#520),.UNSPECIFIED.,.F.,
 .F.,(3,3),(0.,1.),.PIECEWISE_BEZIER_KNOTS.);
#291=B_SPLINE_CURVE_WITH_KNOTS('',2,(#524,#525,#526),.UNSPECIFIED.,.F.,
 .F.,(3,3),(0.,1.),.PIECEWISE_BEZIER_KNOTS.);
#292=B_SPLINE_CURVE_WITH_KNOTS('',2,(#535,#536,#537),.UNSPECIFIED.,.F.,
 .F.,(3,3),(0.,1.),.PIECEWISE_BEZIER_KNOTS.);
#293=B_SPLINE_CURVE_WITH_KNOTS('',2,(#541,#542,#543),.UNSPECIFIED.,.F.,
 .F.,(3,3),(0.,1.),.PIECEWISE_BEZIER_KNOTS.);
#294=B_SPLINE_CURVE_WITH_KNOTS('',2,(#552,#553,#554),.UNSPECIFIED.,.F.,
 .F.,(3,3),(0.,1.),.PIECEWISE_BEZIER_KNOTS.);
#295=B_SPLINE_CURVE_WITH_KNOTS('',2,(#558,#559,#560),.UNSPECIFIED.,.F.,
 .F.,(3,3),(0.,1.),.PIECEWISE_BEZIER_KNOTS.);
#296=B_SPLINE_CURVE_WITH_KNOTS('',2,(#575,#576,#577),.UNSPECIFIED.,.F.,
 .F.,(3,3),(0.,1.),.PIECEWISE_BEZIER_KNOTS.);
#297=B_SPLINE_CURVE_WITH_KNOTS('',2,(#581,#582,#583),.UNSPECIFIED.,.F.,
 .F.,(3,3),(0.,1.),.PIECEWISE_BEZIER_KNOTS.);
#298=B_SPLINE_CURVE_WITH_KNOTS('',2,(#592,#593,#594),.UNSPECIFIED.,.F.,
 .F.,(3,3),(0.,1.),.PIECEWISE_BEZIER_KNOTS.);
#299=B_SPLINE_CURVE_WITH_KNOTS('',2,(#598,#599,#600),.UNSPECIFIED.,.F.,
 .F.,(3,3),(0.,1.),.PIECEWISE_BEZIER_KNOTS.);
#300=B_SPLINE_CURVE_WITH_KNOTS('',2,(#609,#610,#611),.UNSPECIFIED.,.F.,
 .F.,(3,3),(0.,1.),.PIECEWISE_BEZIER_KNOTS.);
#301=B_SPLINE_CURVE_WITH_KNOTS('',2,(#615,#616,#617),.UNSPECIFIED.,.F.,
 .F.,(3,3),(0.,1.),.PIECEWISE_BEZIER_KNOTS.);
#302=B_SPLINE_CURVE_WITH_KNOTS('',2,(#626,#627,#628),.UNSPECIFIED.,.F.,
 .F.,(3,3),(0.,1.),.PIECEWISE_BEZIER_KNOTS.);
#303=B_SPLINE_CURVE_WITH_KNOTS('',2,(#632,#633,#634),.UNSPECIFIED.,.F.,
 .F.,(3,3),(0.,1.),.PIECEWISE_BEZIER_KNOTS.);
#304=B_SPLINE_CURVE_WITH_KNOTS('',2,(#643,#644,#645),.UNSPECIFIED.,.F.,
 .F.,(3,3),(0.,1.),.PIECEWISE_BEZIER_KNOTS.);
#305=B_SPLINE_CURVE_WITH_KNOTS('',2,(#649,#650,#651),.UNSPECIFIED.,.F.,
 .F.,(3,3),(0.,1.),.PIECEWISE_BEZIER_KNOTS.);
#306=B_SPLINE_CURVE_WITH_KNOTS('',2,(#660,#661,#662),.UNSPECIFIED.,.F.,
 .F.,(3,3),(0.,1.),.PIECEWISE_BEZIER_KNOTS.);
#307=B_SPLINE_CURVE_WITH_KNOTS('',2,(#666,#667,#668),.UNSPECIFIED.,.F.,
 .F.,(3,3),(0.,1.),.PIECEWISE_BEZIER_KNOTS.);
#308=B_SPLINE_CURVE_WITH_KNOTS('',2,(#677,#678,#679),.UNSPECIFIED.,.F.,
 .F.,(3,3),(0.,1.),.PIECEWISE_BEZIER_KNOTS.);
#309=B_SPLINE_CURVE_WITH_KNOTS('',2,(#683,#684,#685),.UNSPECIFIED.,.F.,
 .F.,(3,3),(0.,1.),.PIECEWISE_BEZIER_KNOTS.);
#310=B_SPLINE_CURVE_WITH_KNOTS('',2,(#694,#695,#696),.UNSPECIFIED.,.F.,
 .F.,(3,3),(0.,1.),.PIECEWISE_BEZIER_KNOTS.);
#311=B_SPLINE_CURVE_WITH_KNOTS('',2,(#700,#701,#702),.UNSPECIFIED.,.F.,
 .F.,(3,3),(0.,1.),.PIECEWISE_BEZIER_KNOTS.);
#312=B_SPLINE_CURVE_WITH_KNOTS('',2,(#717,#718,#719),.UNSPECIFIED.,.F.,
 .F.,(3,3),(0.,1.),.PIECEWISE_BEZIER_KNOTS.);
#313=B_SPLINE_CURVE_WITH_KNOTS('',2,(#723,#724,#725),.UNSPECIFIED.,.F.,
 .F.,(3,3),(0.,1.),.PIECEWISE_BEZIER_KNOTS.);
#314=B_SPLINE_CURVE_WITH_KNOTS('',2,(#734,#735,#736),.UNSPECIFIED.,.F.,
 .F.,(3,3),(0.,1.),.PIECEWISE_BEZIER_KNOTS.);
#315=B_SPLINE_CURVE_WITH_KNOTS('',2,(#740,#741,#742),.UNSPECIFIED.,.F.,
 .F.,(3,3),(0.,1.),.PIECEWISE_BEZIER_KNOTS.);
#316=B_SPLINE_CURVE_WITH_KNOTS('',2,(#751,#752,#753),.UNSPECIFIED.,.F.,
 .F.,(3,3),(0.,1.),.PIECEWISE_BEZIER_KNOTS.);
#317=B_SPLINE_CURVE_WITH_KNOTS('',2,(#757,#758,#759),.UNSPECIFIED.,.F.,
 .F.,(3,3),(0.,1.),.PIECEWISE_BEZIER_KNOTS.);
#318=B_SPLINE_CURVE_WITH_KNOTS('',2,(#768,#769,#770),.UNSPECIFIED.,.F.,
 .F.,(3,3),(0.,1.),.PIECEWISE_BEZIER_KNOTS.);
#319=B_SPLINE_CURVE_WITH_KNOTS('',2,(#771,#772,#773),.UNSPECIFIED.,.F.,
 .F.,(3,3),(0.,1.),.PIECEWISE_BEZIER_KNOTS.);
#320=EDGE_LOOP('',(#64,#65,#66,#67));
#321=EDGE_LOOP('',(#68,#69,#70,#71));
#322=EDGE_LOOP('',(#72,#73,#74,#75));
#323=EDGE_LOOP('',(#76,#77,#78,#79));
#324=EDGE_LOOP('',(#80,#81,#82,#83));
#325=EDGE_LOOP('',(#84,#85,#86,#87));
#326=EDGE_LOOP('',(#88,#89,#90,#91));
#327=EDGE_LOOP('',(#92,#93,#94,#95));
#328=EDGE_LOOP('',(#96,#97,#98,#99));
#329=EDGE_LOOP('',(#100,#101,#102,#103));
#330=EDGE_LOOP('',(#104,#105,#106,#107));
#331=EDGE_LOOP('',(#108,#109,#110,#111));
#332=EDGE_LOOP('',(#112,#113,#114,#115));
#333=EDGE_LOOP('',(#116,#117,#118,#119));
#334=EDGE_LOOP('',(#120,#121,#122,#123));
#335=EDGE_LOOP('',(#124,#125,#126,#127));
#336=EDGE_LOOP('',(#128,#129,#130,#131));
#337=EDGE_LOOP('',(#132,#133,#134,#135));
#338=EDGE_LOOP('',(#136,#137,#138,#139));
#339=EDGE_LOOP('',(#140,#141,#142,#143));
#340=EDGE_LOOP('',(#144,#145,#146,#147,#148,#149,#150,#151,#152,#153,#154,
#155,#156,#157,#158,#159,#160,#161,#162,#163));
#341=EDGE_LOOP('',(#164,#165,#166,#167,#168,#169,#170,#171,#172,#173,#174,
#175,#176,#177,#178,#179,#180,#181,#182,#183));
#342=FACE_BOUND('',#320,.T.);
#343=FACE_BOUND('',#321,.T.);
#344=FACE_BOUND('',#322,.T.);
#345=FACE_BOUND('',#323,.T.);
#346=FACE_BOUND('',#324,.T.);
#347=FACE_BOUND('',#325,.T.);
#348=FACE_BOUND('',#326,.T.);
#349=FACE_BOUND('',#327,.T.);
#350=FACE_BOUND('',#328,.T.);
#351=FACE_BOUND('',#329,.T.);
#352=FACE_BOUND('',#330,.T.);
#353=FACE_BOUND('',#331,.T.);
#354=FACE_BOUND('',#332,.T.);
#355=FACE_BOUND('',#333,.T.);
#356=FACE_BOUND('',#334,.T.);
#357=FACE_BOUND('',#335,.T.);
#358=FACE_BOUND('',#336,.T.);
#359=FACE_BOUND('',#337,.T.);
#360=FACE_BOUND('',#338,.T.);
#361=FACE_BOUND('',#339,.T.);
#362=FACE_BOUND('',#340,.T.);
#363=FACE_BOUND('',#341,.T.);
#364=B_SPLINE_SURFACE_WITH_KNOTS('',3,1,((#456,#457),(#458,#459),(#460,
#461),(#462,#463)),.SURF_OF_LINEAR_EXTRUSION.,.F.,.F.,.F.,(4,4),(2,2),(0.,
1.),(0.,1.),.PIECEWISE_BEZIER_KNOTS.);
#365=B_SPLINE_SURFACE_WITH_KNOTS('',3,1,((#476,#477),(#478,#479),(#480,
#481),(#482,#483)),.SURF_OF_LINEAR_EXTRUSION.,.F.,.F.,.F.,(4,4),(2,2),(0.,
1.),(0.,1.),.PIECEWISE_BEZIER_KNOTS.);
#366=B_SPLINE_SURFACE_WITH_KNOTS('',3,1,((#493,#494),(#495,#496),(#497,
#498),(#499,#500)),.SURF_OF_LINEAR_EXTRUSION.,.F.,.F.,.F.,(4,4),(2,2),(0.,
1.),(0.,1.),.PIECEWISE_BEZIER_KNOTS.);
#367=B_SPLINE_SURFACE_WITH_KNOTS('',3,1,((#510,#511),(#512,#513),(#514,
#515),(#516,#517)),.SURF_OF_LINEAR_EXTRUSION.,.F.,.F.,.F.,(4,4),(2,2),(0.,
1.),(0.,1.),.PIECEWISE_BEZIER_KNOTS.);
#368=B_SPLINE_SURFACE_WITH_KNOTS('',3,1,((#527,#528),(#529,#530),(#531,
#532),(#533,#534)),.SURF_OF_LINEAR_EXTRUSION.,.F.,.F.,.F.,(4,4),(2,2),(0.,
1.),(0.,1.),.PIECEWISE_BEZIER_KNOTS.);
#369=B_SPLINE_SURFACE_WITH_KNOTS('',3,1,((#544,#545),(#546,#547),(#548,
#549),(#550,#551)),.SURF_OF_LINEAR_EXTRUSION.,.F.,.F.,.F.,(4,4),(2,2),(0.,
1.),(0.,1.),.PIECEWISE_BEZIER_KNOTS.);
#370=B_SPLINE_SURFACE_WITH_KNOTS('',3,1,((#567,#568),(#569,#570),(#571,
#572),(#573,#574)),.SURF_OF_LINEAR_EXTRUSION.,.F.,.F.,.F.,(4,4),(2,2),(0.,
1.),(0.,1.),.PIECEWISE_BEZIER_KNOTS.);
#371=B_SPLINE_SURFACE_WITH_KNOTS('',3,1,((#584,#585),(#586,#587),(#588,
#589),(#590,#591)),.SURF_OF_LINEAR_EXTRUSION.,.F.,.F.,.F.,(4,4),(2,2),(0.,
1.),(0.,1.),.PIECEWISE_BEZIER_KNOTS.);
#372=B_SPLINE_SURFACE_WITH_KNOTS('',3,1,((#601,#602),(#603,#604),(#605,
#606),(#607,#608)),.SURF_OF_LINEAR_EXTRUSION.,.F.,.F.,.F.,(4,4),(2,2),(0.,
1.),(0.,1.),.PIECEWISE_BEZIER_KNOTS.);
#373=B_SPLINE_SURFACE_WITH_KNOTS('',3,1,((#618,#619),(#620,#621),(#622,
#623),(#624,#625)),.SURF_OF_LINEAR_EXTRUSION.,.F.,.F.,.F.,(4,4),(2,2),(0.,
1.),(0.,1.),.PIECEWISE_BEZIER_KNOTS.);
#374=B_SPLINE_SURFACE_WITH_KNOTS('',3,1,((#635,#636),(#637,#638),(#639,
#640),(#641,#642)),.SURF_OF_LINEAR_EXTRUSION.,.F.,.F.,.F.,(4,4),(2,2),(0.,
1.),(0.,1.),.PIECEWISE_BEZIER_KNOTS.);
#375=B_SPLINE_SURFACE_WITH_KNOTS('',3,1,((#652,#653),(#654,#655),(#656,
#657),(#658,#659)),.SURF_OF_LINEAR_EXTRUSION.,.F.,.F.,.F.,(4,4),(2,2),(0.,
1.),(0.,1.),.PIECEWISE_BEZIER_KNOTS.);
#376=B_SPLINE_SURFACE_WITH_KNOTS('',3,1,((#669,#670),(#671,#672),(#673,
#674),(#675,#676)),.SURF_OF_LINEAR_EXTRUSION.,.F.,.F.,.F.,(4,4),(2,2),(0.,
1.),(0.,1.),.PIECEWISE_BEZIER_KNOTS.);
#377=B_SPLINE_SURFACE_WITH_KNOTS('',3,1,((#686,#687),(#688,#689),(#690,
#691),(#692,#693)),.SURF_OF_LINEAR_EXTRUSION.,.F.,.F.,.F.,(4,4),(2,2),(0.,
1.),(0.,1.),.PIECEWISE_BEZIER_KNOTS.);
#378=B_SPLINE_SURFACE_WITH_KNOTS('',3,1,((#709,#710),(#711,#712),(#713,
#714),(#715,#716)),.SURF_OF_LINEAR_EXTRUSION.,.F.,.F.,.F.,(4,4),(2,2),(0.,
1.),(0.,1.),.PIECEWISE_BEZIER_KNOTS.);
#379=B_SPLINE_SURFACE_WITH_KNOTS('',3,1,((#726,#727),(#728,#729),(#730,
#731),(#732,#733)),.SURF_OF_LINEAR_EXTRUSION.,.F.,.F.,.F.,(4,4),(2,2),(0.,
1.),(0.,1.),.PIECEWISE_BEZIER_KNOTS.);
#380=B_SPLINE_SURFACE_WITH_KNOTS('',3,1,((#743,#744),(#745,#746),(#747,
#748),(#749,#750)),.SURF_OF_LINEAR_EXTRUSION.,.F.,.F.,.F.,(4,4),(2,2),(0.,
1.),(0.,1.),.PIECEWISE_BEZIER_KNOTS.);
#381=B_SPLINE_SURFACE_WITH_KNOTS('',3,1,((#760,#761),(#762,#763),(#764,
#765),(#766,#767)),.SURF_OF_LINEAR_EXTRUSION.,.F.,.F.,.F.,(4,4),(2,2),(0.,
1.),(0.,1.),.PIECEWISE_BEZIER_KNOTS.);
#382=ADVANCED_FACE('',(#342),#364,.T.);
#383=ADVANCED_FACE('',(#343),#365,.T.);
#384=ADVANCED_FACE('',(#344),#366,.T.);
#385=ADVANCED_FACE('',(#345),#367,.T.);
#386=ADVANCED_FACE('',(#346),#368,.T.);
#387=ADVANCED_FACE('',(#347),#369,.T.);
#388=ADVANCED_FACE('',(#348),#12,.T.);
#389=ADVANCED_FACE('',(#349),#370,.T.);
#390=ADVANCED_FACE('',(#350),#371,.T.);
#391=ADVANCED_FACE('',(#351),#372,.T.);
#392=ADVANCED_FACE('',(#352),#373,.T.);
#393=ADVANCED_FACE('',(#353),#374,.T.);
#394=ADVANCED_FACE('',(#354),#375,.T.);
#395=ADVANCED_FACE('',(#355),#376,.T.);
#396=ADVANCED_FACE('',(#356),#377,.T.);
#397=ADVANCED_FACE('',(#357),#13,.T.);
#398=ADVANCED_FACE('',(#358),#378,.T.);
#399=ADVANCED_FACE('',(#359),#379,.T.);
#400=ADVANCED_FACE('',(#360),#380,.T.);
#401=ADVANCED_FACE('',(#361),#381,.T.);
#402=ADVANCED_FACE('',(#362),#14,.T.);
#403=ADVANCED_FACE('',(#363),#15,.F.);
#404=CLOSED_SHELL('',(#382,#383,#384,#385,#386,#387,#388,#389,#390,#391,
#392,#393,#394,#395,#396,#397,#398,#399,#400,#401,#402,#403));
#405=STYLED_ITEM('',(#406),#413);
#406=PRESENTATION_STYLE_ASSIGNMENT((#407));
#407=SURFACE_STYLE_USAGE(.BOTH.,#408);
#408=SURFACE_SIDE_STYLE('',(#409));
#409=SURFACE_STYLE_FILL_AREA(#410);
#410=FILL_AREA_STYLE('',(#411));
#411=FILL_AREA_STYLE_COLOUR('',#412);
#412=DRAUGHTING_PRE_DEFINED_COLOUR('red');
#413=MANIFOLD_SOLID_BREP('Part 13',#404);
#414=SHAPE_DEFINITION_REPRESENTATION(#782,#415);
#415=SHAPE_REPRESENTATION('Part 13',(#416),#777);
#416=AXIS2_PLACEMENT_3D('',#455,#421,#422);
#417=AXIS2_PLACEMENT_3D('',#561,#430,#431);
#418=AXIS2_PLACEMENT_3D('',#703,#443,#444);
#419=AXIS2_PLACEMENT_3D('',#774,#451,#452);
#420=AXIS2_PLACEMENT_3D('',#775,#453,#454);
#421=DIRECTION('',(0.,0.,1.));
#422=DIRECTION('',(1.,0.,0.));
#423=DIRECTION('',(0.,0.,-1.));
#424=DIRECTION('',(0.,0.,-1.));
#425=DIRECTION('',(0.,0.,-1.));
#426=DIRECTION('',(0.,0.,-1.));
#427=DIRECTION('',(0.,0.,-1.));
#428=DIRECTION('',(0.,0.,-1.));
#429=DIRECTION('',(0.,0.,-1.));
#430=DIRECTION('',(0.,1.,0.));
#431=DIRECTION('',(0.,0.,1.));
#432=DIRECTION('',(1.,0.,0.));
#433=DIRECTION('',(0.,0.,-1.));
#434=DIRECTION('',(1.,0.,0.));
#435=DIRECTION('',(0.,0.,-1.));
#436=DIRECTION('',(0.,0.,-1.));
#437=DIRECTION('',(0.,0.,-1.));
#438=DIRECTION('',(0.,0.,-1.));
#439=DIRECTION('',(0.,0.,-1.));
#440=DIRECTION('',(0.,0.,-1.));
#441=DIRECTION('',(0.,0.,-1.));
#442=DIRECTION('',(0.,0.,-1.));
#443=DIRECTION('',(0.,-1.,0.));
#444=DIRECTION('',(0.,0.,-1.));
#445=DIRECTION('',(-1.,0.,0.));
#446=DIRECTION('',(0.,0.,-1.));
#447=DIRECTION('',(-1.,0.,0.));
#448=DIRECTION('',(0.,0.,-1.));
#449=DIRECTION('',(0.,0.,-1.));
#450=DIRECTION('',(0.,0.,-1.));
#451=DIRECTION('',(0.,0.,1.));
#452=DIRECTION('',(1.,0.,0.));
#453=DIRECTION('',(0.,0.,1.));
#454=DIRECTION('',(1.,0.,0.));
#455=CARTESIAN_POINT('',(0.,0.,0.));
#456=CARTESIAN_POINT('',(0.0118661864471505,0.0944695281796157,0.008));
#457=CARTESIAN_POINT('',(0.0118661864471505,0.0944695281796157,0.005));
#458=CARTESIAN_POINT('',(0.0118661864471505,0.0953227987823387,0.008));
#459=CARTESIAN_POINT('',(0.0118661864471505,0.0953227987823387,0.005));
#460=CARTESIAN_POINT('',(0.0120367621420883,0.0960682341756183,0.008));
#461=CARTESIAN_POINT('',(0.0120367621420883,0.0960682341756183,0.005));
#462=CARTESIAN_POINT('',(0.0123779135319637,0.0967058343594545,0.008));
#463=CARTESIAN_POINT('',(0.0123779135319637,0.0967058343594545,0.005));
#464=CARTESIAN_POINT('',(0.0118661864471505,0.0944695281796157,0.005));
#465=CARTESIAN_POINT('',(0.0118661864471505,0.0957494340837002,0.005));
#466=CARTESIAN_POINT('',(0.0123779135319637,0.0967058343594545,0.005));
#467=CARTESIAN_POINT('',(0.0118661864471505,0.0944695281796157,0.005));
#468=CARTESIAN_POINT('',(0.0123779135319637,0.0967058343594545,0.005));
#469=CARTESIAN_POINT('',(0.0118661864471505,0.0944695281796157,0.008));
#470=CARTESIAN_POINT('',(0.0118661864471505,0.0944695281796157,0.008));
#471=CARTESIAN_POINT('',(0.0118661864471505,0.0944695281796157,0.008));
#472=CARTESIAN_POINT('',(0.0118661864471505,0.0957494340837002,0.008));
#473=CARTESIAN_POINT('',(0.0123779135319637,0.0967058343594545,0.008));
#474=CARTESIAN_POINT('',(0.0123779135319637,0.0967058343594545,0.008));
#475=CARTESIAN_POINT('',(0.0123779135319637,0.0967058343594545,0.008));
#476=CARTESIAN_POINT('',(0.0123779135319637,0.0922108707018197,0.008));
#477=CARTESIAN_POINT('',(0.0123779135319637,0.0922108707018197,0.005));
#478=CARTESIAN_POINT('',(0.0120367621420883,0.0928539606781366,0.008));
#479=CARTESIAN_POINT('',(0.0120367621420883,0.0928539606781366,0.005));
#480=CARTESIAN_POINT('',(0.0118661864471505,0.0936068465040686,0.008));
#481=CARTESIAN_POINT('',(0.0118661864471505,0.0936068465040686,0.005));
#482=CARTESIAN_POINT('',(0.0118661864471505,0.0944695281796157,0.008));
#483=CARTESIAN_POINT('',(0.0118661864471505,0.0944695281796157,0.005));
#484=CARTESIAN_POINT('',(0.0123779135319637,0.0922108707018197,0.005));
#485=CARTESIAN_POINT('',(0.0118661864471505,0.0931755056662951,0.005));
#486=CARTESIAN_POINT('',(0.0118661864471505,0.0944695281796157,0.005));
#487=CARTESIAN_POINT('',(0.0123779135319637,0.0922108707018197,0.005));
#488=CARTESIAN_POINT('',(0.0123779135319637,0.0922108707018197,0.008));
#489=CARTESIAN_POINT('',(0.0123779135319637,0.0922108707018197,0.008));
#490=CARTESIAN_POINT('',(0.0123779135319637,0.0922108707018197,0.008));
#491=CARTESIAN_POINT('',(0.0118661864471505,0.0931755056662951,0.008));
#492=CARTESIAN_POINT('',(0.0118661864471505,0.0944695281796157,0.008));
#493=CARTESIAN_POINT('',(0.0138013382966164,0.0907192156591918,0.008));
#494=CARTESIAN_POINT('',(0.0138013382966164,0.0907192156591918,0.005));
#495=CARTESIAN_POINT('',(0.0131935398433901,0.0910705623779601,0.008));
#496=CARTESIAN_POINT('',(0.0131935398433901,0.0910705623779601,0.005));
#497=CARTESIAN_POINT('',(0.0127190649218392,0.0915677807255028,0.008));
#498=CARTESIAN_POINT('',(0.0127190649218392,0.0915677807255028,0.005));
#499=CARTESIAN_POINT('',(0.0123779135319637,0.0922108707018197,0.008));
#500=CARTESIAN_POINT('',(0.0123779135319637,0.0922108707018197,0.005));
#501=CARTESIAN_POINT('',(0.0138013382966164,0.0907192156591918,0.005));
#502=CARTESIAN_POINT('',(0.0128896406167769,0.0912462357373443,0.005));
#503=CARTESIAN_POINT('',(0.0123779135319637,0.0922108707018197,0.005));
#504=CARTESIAN_POINT('',(0.0138013382966164,0.0907192156591918,0.005));
#505=CARTESIAN_POINT('',(0.0138013382966164,0.0907192156591918,0.008));
#506=CARTESIAN_POINT('',(0.0138013382966164,0.0907192156591918,0.008));
#507=CARTESIAN_POINT('',(0.0138013382966164,0.0907192156591918,0.008));
#508=CARTESIAN_POINT('',(0.0128896406167769,0.0912462357373443,0.008));
#509=CARTESIAN_POINT('',(0.0123779135319637,0.0922108707018197,0.008));
#510=CARTESIAN_POINT('',(0.0158870673112687,0.0901921955810394,0.008));
#511=CARTESIAN_POINT('',(0.0158870673112687,0.0901921955810394,0.005));
#512=CARTESIAN_POINT('',(0.0151043797547269,0.0901921955810394,0.008));
#513=CARTESIAN_POINT('',(0.0151043797547269,0.0901921955810394,0.005));
#514=CARTESIAN_POINT('',(0.0144091367498428,0.0903678689404235,0.008));
#515=CARTESIAN_POINT('',(0.0144091367498428,0.0903678689404235,0.005));
#516=CARTESIAN_POINT('',(0.0138013382966164,0.0907192156591918,0.008));
#517=CARTESIAN_POINT('',(0.0138013382966164,0.0907192156591918,0.005));
#518=CARTESIAN_POINT('',(0.0158870673112687,0.0901921955810394,0.005));
#519=CARTESIAN_POINT('',(0.014713035976456,0.0901921955810394,0.005));
#520=CARTESIAN_POINT('',(0.0138013382966164,0.0907192156591918,0.005));
#521=CARTESIAN_POINT('',(0.0158870673112687,0.0901921955810394,0.005));
#522=CARTESIAN_POINT('',(0.0158870673112687,0.0901921955810394,0.008));
#523=CARTESIAN_POINT('',(0.0158870673112687,0.0901921955810394,0.008));
#524=CARTESIAN_POINT('',(0.0158870673112687,0.0901921955810394,0.008));
#525=CARTESIAN_POINT('',(0.014713035976456,0.0901921955810394,0.008));
#526=CARTESIAN_POINT('',(0.0138013382966164,0.0907192156591918,0.008));
#527=CARTESIAN_POINT('',(0.0183715905368444,0.0909533160956926,0.008));
#528=CARTESIAN_POINT('',(0.0183715905368444,0.0909533160956926,0.005));
#529=CARTESIAN_POINT('',(0.0177096784148792,0.0904459024192571,0.008));
#530=CARTESIAN_POINT('',(0.0177096784148792,0.0904459024192571,0.005));
#531=CARTESIAN_POINT('',(0.016881504006354,0.0901921955810394,0.008));
#532=CARTESIAN_POINT('',(0.016881504006354,0.0901921955810394,0.005));
#533=CARTESIAN_POINT('',(0.0158870673112687,0.0901921955810394,0.008));
#534=CARTESIAN_POINT('',(0.0158870673112687,0.0901921955810394,0.005));
#535=CARTESIAN_POINT('',(0.0183715905368444,0.0909533160956926,0.005));
#536=CARTESIAN_POINT('',(0.0173787223538966,0.0901921955810394,0.005));
#537=CARTESIAN_POINT('',(0.0158870673112687,0.0901921955810394,0.005));
#538=CARTESIAN_POINT('',(0.0183715905368444,0.0909533160956926,0.005));
#539=CARTESIAN_POINT('',(0.0183715905368444,0.0909533160956926,0.008));
#540=CARTESIAN_POINT('',(0.0183715905368444,0.0909533160956926,0.008));
#541=CARTESIAN_POINT('',(0.0183715905368444,0.0909533160956926,0.008));
#542=CARTESIAN_POINT('',(0.0173787223538966,0.0901921955810394,0.008));
#543=CARTESIAN_POINT('',(0.0158870673112687,0.0901921955810394,0.008));
#544=CARTESIAN_POINT('',(0.0196961990368436,0.0929778731369879,0.008));
#545=CARTESIAN_POINT('',(0.0196961990368436,0.0929778731369879,0.005));
#546=CARTESIAN_POINT('',(0.0194750388254761,0.0921355821192264,0.008));
#547=CARTESIAN_POINT('',(0.0194750388254761,0.0921355821192264,0.005));
#548=CARTESIAN_POINT('',(0.0190335026588097,0.091460729772128,0.008));
#549=CARTESIAN_POINT('',(0.0190335026588097,0.091460729772128,0.005));
#550=CARTESIAN_POINT('',(0.0183715905368444,0.0909533160956926,0.008));
#551=CARTESIAN_POINT('',(0.0183715905368444,0.0909533160956926,0.005));
#552=CARTESIAN_POINT('',(0.0196961990368436,0.0929778731369879,0.005));
#553=CARTESIAN_POINT('',(0.0193644587197923,0.0917144366103457,0.005));
#554=CARTESIAN_POINT('',(0.0183715905368444,0.0909533160956926,0.005));
#555=CARTESIAN_POINT('',(0.0196961990368436,0.0929778731369879,0.005));
#556=CARTESIAN_POINT('',(0.0196961990368436,0.0929778731369879,0.008));
#557=CARTESIAN_POINT('',(0.0196961990368436,0.0929778731369879,0.008));
#558=CARTESIAN_POINT('',(0.0196961990368436,0.0929778731369879,0.008));
#559=CARTESIAN_POINT('',(0.0193644587197923,0.0917144366103457,0.008));
#560=CARTESIAN_POINT('',(0.0183715905368444,0.0909533160956926,0.008));
#561=CARTESIAN_POINT('',(0.0189586062042508,0.0929778731369879,0.008));
#562=CARTESIAN_POINT('',(0.0189586062042508,0.0929778731369879,0.005));
#563=CARTESIAN_POINT('',(0.018221013371658,0.0929778731369879,0.005));
#564=CARTESIAN_POINT('',(0.018221013371658,0.0929778731369879,0.008));
#565=CARTESIAN_POINT('',(0.018221013371658,0.0929778731369879,0.008));
#566=CARTESIAN_POINT('',(0.0189586062042508,0.0929778731369879,0.008));
#567=CARTESIAN_POINT('',(0.0173928389631328,0.0917744321995997,0.008));
#568=CARTESIAN_POINT('',(0.0173928389631328,0.0917744321995997,0.005));
#569=CARTESIAN_POINT('',(0.0177943780702966,0.0920559801282555,0.008));
#570=CARTESIAN_POINT('',(0.0177943780702966,0.0920559801282555,0.005));
#571=CARTESIAN_POINT('',(0.0180704362064717,0.0924571271073849,0.008));
#572=CARTESIAN_POINT('',(0.0180704362064717,0.0924571271073849,0.005));
#573=CARTESIAN_POINT('',(0.018221013371658,0.0929778731369879,0.008));
#574=CARTESIAN_POINT('',(0.018221013371658,0.0929778731369879,0.005));
#575=CARTESIAN_POINT('',(0.0173928389631328,0.0917744321995997,0.005));
#576=CARTESIAN_POINT('',(0.0179951476238784,0.0921967540925834,0.005));
#577=CARTESIAN_POINT('',(0.018221013371658,0.0929778731369879,0.005));
#578=CARTESIAN_POINT('',(0.0173928389631328,0.0917744321995997,0.005));
#579=CARTESIAN_POINT('',(0.0173928389631328,0.0917744321995997,0.008));
#580=CARTESIAN_POINT('',(0.0173928389631328,0.0917744321995997,0.008));
#581=CARTESIAN_POINT('',(0.0173928389631328,0.0917744321995997,0.008));
#582=CARTESIAN_POINT('',(0.0179951476238784,0.0921967540925834,0.008));
#583=CARTESIAN_POINT('',(0.018221013371658,0.0929778731369879,0.008));
#584=CARTESIAN_POINT('',(0.0158870673112687,0.0913521103066159,0.008));
#585=CARTESIAN_POINT('',(0.0158870673112687,0.0913521103066159,0.005));
#586=CARTESIAN_POINT('',(0.0164893759720144,0.0913521103066159,0.008));
#587=CARTESIAN_POINT('',(0.0164893759720144,0.0913521103066159,0.005));
#588=CARTESIAN_POINT('',(0.0169912998559691,0.0914928842709438,0.008));
#589=CARTESIAN_POINT('',(0.0169912998559691,0.0914928842709438,0.005));
#590=CARTESIAN_POINT('',(0.0173928389631328,0.0917744321995997,0.008));
#591=CARTESIAN_POINT('',(0.0173928389631328,0.0917744321995997,0.005));
#592=CARTESIAN_POINT('',(0.0158870673112687,0.0913521103066159,0.005));
#593=CARTESIAN_POINT('',(0.0167905303023872,0.0913521103066159,0.005));
#594=CARTESIAN_POINT('',(0.0173928389631328,0.0917744321995997,0.005));
#595=CARTESIAN_POINT('',(0.0158870673112687,0.0913521103066159,0.005));
#596=CARTESIAN_POINT('',(0.0158870673112687,0.0913521103066159,0.008));
#597=CARTESIAN_POINT('',(0.0158870673112687,0.0913521103066159,0.008));
#598=CARTESIAN_POINT('',(0.0158870673112687,0.0913521103066159,0.008));
#599=CARTESIAN_POINT('',(0.0167905303023872,0.0913521103066159,0.008));
#600=CARTESIAN_POINT('',(0.0173928389631328,0.0917744321995997,0.008));
#601=CARTESIAN_POINT('',(0.0139895597530995,0.0921649917218019,0.008));
#602=CARTESIAN_POINT('',(0.0139895597530995,0.0921649917218019,0.005));
#603=CARTESIAN_POINT('',(0.0144718772353372,0.0916230707783446,0.008));
#604=CARTESIAN_POINT('',(0.0144718772353372,0.0916230707783446,0.005));
#605=CARTESIAN_POINT('',(0.0151043797547269,0.0913521103066159,0.008));
#606=CARTESIAN_POINT('',(0.0151043797547269,0.0913521103066159,0.005));
#607=CARTESIAN_POINT('',(0.0158870673112687,0.0913521103066159,0.008));
#608=CARTESIAN_POINT('',(0.0158870673112687,0.0913521103066159,0.005));
#609=CARTESIAN_POINT('',(0.0139895597530995,0.0921649917218019,0.005));
#610=CARTESIAN_POINT('',(0.014713035976456,0.0913521103066159,0.005));
#611=CARTESIAN_POINT('',(0.0158870673112687,0.0913521103066159,0.005));
#612=CARTESIAN_POINT('',(0.0139895597530995,0.0921649917218019,0.005));
#613=CARTESIAN_POINT('',(0.0139895597530995,0.0921649917218019,0.008));
#614=CARTESIAN_POINT('',(0.0139895597530995,0.0921649917218019,0.008));
#615=CARTESIAN_POINT('',(0.0139895597530995,0.0921649917218019,0.008));
#616=CARTESIAN_POINT('',(0.014713035976456,0.0913521103066159,0.008));
#617=CARTESIAN_POINT('',(0.0158870673112687,0.0913521103066159,0.008));
#618=CARTESIAN_POINT('',(0.0132660835297429,0.0944695281796157,0.008));
#619=CARTESIAN_POINT('',(0.0132660835297429,0.0944695281796157,0.005));
#620=CARTESIAN_POINT('',(0.0132660835297429,0.0934750914845305,0.008));
#621=CARTESIAN_POINT('',(0.0132660835297429,0.0934750914845305,0.005));
#622=CARTESIAN_POINT('',(0.0135072422708618,0.0927069126652592,0.008));
#623=CARTESIAN_POINT('',(0.0135072422708618,0.0927069126652592,0.005));
#624=CARTESIAN_POINT('',(0.0139895597530995,0.0921649917218019,0.008));
#625=CARTESIAN_POINT('',(0.0139895597530995,0.0921649917218019,0.005));
#626=CARTESIAN_POINT('',(0.0132660835297429,0.0944695281796157,0.005));
#627=CARTESIAN_POINT('',(0.0132660835297429,0.0929778731369879,0.005));
#628=CARTESIAN_POINT('',(0.0139895597530995,0.0921649917218019,0.005));
#629=CARTESIAN_POINT('',(0.0132660835297429,0.0944695281796157,0.005));
#630=CARTESIAN_POINT('',(0.0132660835297429,0.0944695281796157,0.008));
#631=CARTESIAN_POINT('',(0.0132660835297429,0.0944695281796157,0.008));
#632=CARTESIAN_POINT('',(0.0132660835297429,0.0944695281796157,0.008));
#633=CARTESIAN_POINT('',(0.0132660835297429,0.0929778731369879,0.008));
#634=CARTESIAN_POINT('',(0.0139895597530995,0.0921649917218019,0.008));
#635=CARTESIAN_POINT('',(0.0139895597530995,0.0967505369553692,0.008));
#636=CARTESIAN_POINT('',(0.0139895597530995,0.0967505369553692,0.005));
#637=CARTESIAN_POINT('',(0.0135072422708618,0.0962133215483239,0.008));
#638=CARTESIAN_POINT('',(0.0135072422708618,0.0962133215483239,0.005));
#639=CARTESIAN_POINT('',(0.0132660835297429,0.0954529852897394,0.008));
#640=CARTESIAN_POINT('',(0.0132660835297429,0.0954529852897394,0.005));
#641=CARTESIAN_POINT('',(0.0132660835297429,0.0944695281796157,0.008));
#642=CARTESIAN_POINT('',(0.0132660835297429,0.0944695281796157,0.005));
#643=CARTESIAN_POINT('',(0.0139895597530995,0.0967505369553692,0.005));
#644=CARTESIAN_POINT('',(0.0132660835297429,0.0959447138448013,0.005));
#645=CARTESIAN_POINT('',(0.0132660835297429,0.0944695281796157,0.005));
#646=CARTESIAN_POINT('',(0.0139895597530995,0.0967505369553692,0.005));
#647=CARTESIAN_POINT('',(0.0139895597530995,0.0967505369553692,0.008));
#648=CARTESIAN_POINT('',(0.0139895597530995,0.0967505369553692,0.008));
#649=CARTESIAN_POINT('',(0.0139895597530995,0.0967505369553692,0.008));
#650=CARTESIAN_POINT('',(0.0132660835297429,0.0959447138448013,0.008));
#651=CARTESIAN_POINT('',(0.0132660835297429,0.0944695281796157,0.008));
#652=CARTESIAN_POINT('',(0.0158870673112687,0.097556360065937,0.008));
#653=CARTESIAN_POINT('',(0.0158870673112687,0.097556360065937,0.005));
#654=CARTESIAN_POINT('',(0.0151043797547269,0.097556360065937,0.008));
#655=CARTESIAN_POINT('',(0.0151043797547269,0.097556360065937,0.005));
#656=CARTESIAN_POINT('',(0.0144718772353372,0.0972877523624144,0.008));
#657=CARTESIAN_POINT('',(0.0144718772353372,0.0972877523624144,0.005));
#658=CARTESIAN_POINT('',(0.0139895597530995,0.0967505369553692,0.008));
#659=CARTESIAN_POINT('',(0.0139895597530995,0.0967505369553692,0.005));
#660=CARTESIAN_POINT('',(0.0158870673112687,0.097556360065937,0.005));
#661=CARTESIAN_POINT('',(0.014713035976456,0.097556360065937,0.005));
#662=CARTESIAN_POINT('',(0.0139895597530995,0.0967505369553692,0.005));
#663=CARTESIAN_POINT('',(0.0158870673112687,0.097556360065937,0.005));
#664=CARTESIAN_POINT('',(0.0158870673112687,0.097556360065937,0.008));
#665=CARTESIAN_POINT('',(0.0158870673112687,0.097556360065937,0.008));
#666=CARTESIAN_POINT('',(0.0158870673112687,0.097556360065937,0.008));
#667=CARTESIAN_POINT('',(0.014713035976456,0.097556360065937,0.008));
#668=CARTESIAN_POINT('',(0.0139895597530995,0.0967505369553692,0.008));
#669=CARTESIAN_POINT('',(0.017399897267751,0.0971199215637171,0.008));
#670=CARTESIAN_POINT('',(0.017399897267751,0.0971199215637171,0.005));
#671=CARTESIAN_POINT('',(0.0169936526241751,0.097410880565197,0.008));
#672=CARTESIAN_POINT('',(0.0169936526241751,0.097410880565197,0.005));
#673=CARTESIAN_POINT('',(0.0164893759720144,0.097556360065937,0.008));
#674=CARTESIAN_POINT('',(0.0164893759720144,0.097556360065937,0.005));
#675=CARTESIAN_POINT('',(0.0158870673112687,0.097556360065937,0.008));
#676=CARTESIAN_POINT('',(0.0158870673112687,0.097556360065937,0.005));
#677=CARTESIAN_POINT('',(0.017399897267751,0.0971199215637171,0.005));
#678=CARTESIAN_POINT('',(0.0167905303023872,0.097556360065937,0.005));
#679=CARTESIAN_POINT('',(0.0158870673112687,0.097556360065937,0.005));
#680=CARTESIAN_POINT('',(0.017399897267751,0.0971199215637171,0.005));
#681=CARTESIAN_POINT('',(0.017399897267751,0.0971199215637171,0.008));
#682=CARTESIAN_POINT('',(0.017399897267751,0.0971199215637171,0.008));
#683=CARTESIAN_POINT('',(0.017399897267751,0.0971199215637171,0.008));
#684=CARTESIAN_POINT('',(0.0167905303023872,0.097556360065937,0.008));
#685=CARTESIAN_POINT('',(0.0158870673112687,0.097556360065937,0.008));
#686=CARTESIAN_POINT('',(0.018221013371658,0.0959305972355651,0.008));
#687=CARTESIAN_POINT('',(0.018221013371658,0.0959305972355651,0.005));
#688=CARTESIAN_POINT('',(0.0180798472792958,0.0964325211195198,0.008));
#689=CARTESIAN_POINT('',(0.0180798472792958,0.0964325211195198,0.005));
#690=CARTESIAN_POINT('',(0.0178061419113268,0.0968289625622371,0.008));
#691=CARTESIAN_POINT('',(0.0178061419113268,0.0968289625622371,0.005));
#692=CARTESIAN_POINT('',(0.017399897267751,0.0971199215637171,0.008));
#693=CARTESIAN_POINT('',(0.017399897267751,0.0971199215637171,0.005));
#694=CARTESIAN_POINT('',(0.018221013371658,0.0959305972355651,0.005));
#695=CARTESIAN_POINT('',(0.0180092642331146,0.0966834830614971,0.005));
#696=CARTESIAN_POINT('',(0.017399897267751,0.0971199215637171,0.005));
#697=CARTESIAN_POINT('',(0.018221013371658,0.0959305972355651,0.005));
#698=CARTESIAN_POINT('',(0.018221013371658,0.0959305972355651,0.008));
#699=CARTESIAN_POINT('',(0.018221013371658,0.0959305972355651,0.008));
#700=CARTESIAN_POINT('',(0.018221013371658,0.0959305972355651,0.008));
#701=CARTESIAN_POINT('',(0.0180092642331146,0.0966834830614971,0.008));
#702=CARTESIAN_POINT('',(0.017399897267751,0.0971199215637171,0.008));
#703=CARTESIAN_POINT('',(0.0189586062042508,0.0959305972355651,0.008));
#704=CARTESIAN_POINT('',(0.0189586062042508,0.0959305972355651,0.005));
#705=CARTESIAN_POINT('',(0.0196961990368436,0.0959305972355651,0.005));
#706=CARTESIAN_POINT('',(0.0196961990368436,0.0959305972355651,0.008));
#707=CARTESIAN_POINT('',(0.0196961990368436,0.0959305972355651,0.008));
#708=CARTESIAN_POINT('',(0.0189586062042508,0.0959305972355651,0.008));
#709=CARTESIAN_POINT('',(0.0183939418348018,0.0979786819589208,0.008));
#710=CARTESIAN_POINT('',(0.0183939418348018,0.0979786819589208,0.005));
#711=CARTESIAN_POINT('',(0.0190519326764237,0.0974869534038589,0.008));
#712=CARTESIAN_POINT('',(0.0190519326764237,0.0974869534038589,0.005));
#713=CARTESIAN_POINT('',(0.0194860184104376,0.0968042584960737,0.008));
#714=CARTESIAN_POINT('',(0.0194860184104376,0.0968042584960737,0.005));
#715=CARTESIAN_POINT('',(0.0196961990368436,0.0959305972355651,0.008));
#716=CARTESIAN_POINT('',(0.0196961990368436,0.0959305972355651,0.005));
#717=CARTESIAN_POINT('',(0.0183939418348018,0.0979786819589208,0.005));
#718=CARTESIAN_POINT('',(0.0193809280972346,0.097241089126328,0.005));
#719=CARTESIAN_POINT('',(0.0196961990368436,0.0959305972355651,0.005));
#720=CARTESIAN_POINT('',(0.0183939418348018,0.0979786819589208,0.005));
#721=CARTESIAN_POINT('',(0.0183939418348018,0.0979786819589208,0.008));
#722=CARTESIAN_POINT('',(0.0183939418348018,0.0979786819589208,0.008));
#723=CARTESIAN_POINT('',(0.0183939418348018,0.0979786819589208,0.008));
#724=CARTESIAN_POINT('',(0.0193809280972346,0.097241089126328,0.008));
#725=CARTESIAN_POINT('',(0.0196961990368436,0.0959305972355651,0.008));
#726=CARTESIAN_POINT('',(0.0158870673112687,0.0987162747915136,0.008));
#727=CARTESIAN_POINT('',(0.0158870673112687,0.0987162747915136,0.005));
#728=CARTESIAN_POINT('',(0.0169003261520023,0.0987162747915136,0.008));
#729=CARTESIAN_POINT('',(0.0169003261520023,0.0987162747915136,0.005));
#730=CARTESIAN_POINT('',(0.01773595099318,0.0984704105139827,0.008));
#731=CARTESIAN_POINT('',(0.01773595099318,0.0984704105139827,0.005));
#732=CARTESIAN_POINT('',(0.0183939418348018,0.0979786819589208,0.008));
#733=CARTESIAN_POINT('',(0.0183939418348018,0.0979786819589208,0.005));
#734=CARTESIAN_POINT('',(0.0158870673112687,0.0987162747915136,0.005));
#735=CARTESIAN_POINT('',(0.017406955572369,0.0987162747915136,0.005));
#736=CARTESIAN_POINT('',(0.0183939418348018,0.0979786819589208,0.005));
#737=CARTESIAN_POINT('',(0.0158870673112687,0.0987162747915136,0.005));
#738=CARTESIAN_POINT('',(0.0158870673112687,0.0987162747915136,0.008));
#739=CARTESIAN_POINT('',(0.0158870673112687,0.0987162747915136,0.008));
#740=CARTESIAN_POINT('',(0.0158870673112687,0.0987162747915136,0.008));
#741=CARTESIAN_POINT('',(0.017406955572369,0.0987162747915136,0.008));
#742=CARTESIAN_POINT('',(0.0183939418348018,0.0979786819589208,0.008));
#743=CARTESIAN_POINT('',(0.0138013382966164,0.0981892547133612,0.008));
#744=CARTESIAN_POINT('',(0.0138013382966164,0.0981892547133612,0.005));
#745=CARTESIAN_POINT('',(0.0144091367498428,0.0985406014321295,0.008));
#746=CARTESIAN_POINT('',(0.0144091367498428,0.0985406014321295,0.005));
#747=CARTESIAN_POINT('',(0.0151043797547269,0.0987162747915136,0.008));
#748=CARTESIAN_POINT('',(0.0151043797547269,0.0987162747915136,0.005));
#749=CARTESIAN_POINT('',(0.0158870673112687,0.0987162747915136,0.008));
#750=CARTESIAN_POINT('',(0.0158870673112687,0.0987162747915136,0.005));
#751=CARTESIAN_POINT('',(0.0138013382966164,0.0981892547133612,0.005));
#752=CARTESIAN_POINT('',(0.014713035976456,0.0987162747915136,0.005));
#753=CARTESIAN_POINT('',(0.0158870673112687,0.0987162747915136,0.005));
#754=CARTESIAN_POINT('',(0.0138013382966164,0.0981892547133612,0.005));
#755=CARTESIAN_POINT('',(0.0138013382966164,0.0981892547133612,0.008));
#756=CARTESIAN_POINT('',(0.0138013382966164,0.0981892547133612,0.008));
#757=CARTESIAN_POINT('',(0.0138013382966164,0.0981892547133612,0.008));
#758=CARTESIAN_POINT('',(0.014713035976456,0.0987162747915136,0.008));
#759=CARTESIAN_POINT('',(0.0158870673112687,0.0987162747915136,0.008));
#760=CARTESIAN_POINT('',(0.0123779135319637,0.0967058343594545,0.008));
#761=CARTESIAN_POINT('',(0.0123779135319637,0.0967058343594545,0.005));
#762=CARTESIAN_POINT('',(0.0127190649218392,0.0973434345432906,0.008));
#763=CARTESIAN_POINT('',(0.0127190649218392,0.0973434345432906,0.005));
#764=CARTESIAN_POINT('',(0.0131935398433901,0.0978379079945929,0.008));
#765=CARTESIAN_POINT('',(0.0131935398433901,0.0978379079945929,0.005));
#766=CARTESIAN_POINT('',(0.0138013382966164,0.0981892547133612,0.008));
#767=CARTESIAN_POINT('',(0.0138013382966164,0.0981892547133612,0.005));
#768=CARTESIAN_POINT('',(0.0123779135319637,0.0967058343594545,0.005));
#769=CARTESIAN_POINT('',(0.0128896406167769,0.0976622346352087,0.005));
#770=CARTESIAN_POINT('',(0.0138013382966164,0.0981892547133612,0.005));
#771=CARTESIAN_POINT('',(0.0123779135319637,0.0967058343594545,0.008));
#772=CARTESIAN_POINT('',(0.0128896406167769,0.0976622346352087,0.008));
#773=CARTESIAN_POINT('',(0.0138013382966164,0.0981892547133612,0.008));
#774=CARTESIAN_POINT('',(4.16333634234434E-16,0.0415391394652619,0.008));
#775=CARTESIAN_POINT('',(4.16333634234434E-16,0.0415391394652619,0.005));
#776=MECHANICAL_DESIGN_GEOMETRIC_PRESENTATION_REPRESENTATION('',(#405),
#777);
#777=(
GEOMETRIC_REPRESENTATION_CONTEXT(3)
GLOBAL_UNCERTAINTY_ASSIGNED_CONTEXT((#778))
GLOBAL_UNIT_ASSIGNED_CONTEXT((#781,#780,#779))
REPRESENTATION_CONTEXT('Part 13','TOP_LEVEL_ASSEMBLY_PART')
);
#778=UNCERTAINTY_MEASURE_WITH_UNIT(LENGTH_MEASURE(2.E-5),#781,
'DISTANCE_ACCURACY_VALUE','Maximum Tolerance applied to model');
#779=(
NAMED_UNIT(*)
SI_UNIT($,.STERADIAN.)
SOLID_ANGLE_UNIT()
);
#780=(
NAMED_UNIT(*)
PLANE_ANGLE_UNIT()
SI_UNIT($,.RADIAN.)
);
#781=(
LENGTH_UNIT()
NAMED_UNIT(*)
SI_UNIT($,.METRE.)
);
#782=PRODUCT_DEFINITION_SHAPE('','',#783);
#783=PRODUCT_DEFINITION('','',#785,#784);
#784=PRODUCT_DEFINITION_CONTEXT('',#791,'design');
#785=PRODUCT_DEFINITION_FORMATION_WITH_SPECIFIED_SOURCE('','',#787,
 .NOT_KNOWN.);
#786=PRODUCT_RELATED_PRODUCT_CATEGORY('','',(#787));
#787=PRODUCT('Part 13','Part 13','Part 13',(#789));
#788=PRODUCT_CATEGORY('','');
#789=PRODUCT_CONTEXT('',#791,'mechanical');
#790=APPLICATION_PROTOCOL_DEFINITION('international standard',
'ap242_managed_model_based_3d_engineering',2020,#791);
#791=APPLICATION_CONTEXT('managed model based 3d engineering');
ENDSEC;
END-ISO-10303-21;
