ISO-10303-21;
HEADER;
/* Generated by software containing ST-Developer
 * from STEP Tools, Inc. (www.steptools.com) 
 */
/* OPTION: using custom renumber hook */

FILE_DESCRIPTION(
/* description */ ('STEP AP242 Edition 2',
'CAx-IF Rec.Pracs.---Representation and Presentation of Product Manufa
cturing Information (PMI)---4.0---2014-10-13',
'CAx-IF Rec.Pracs.---3D Tessellated Geometry---0.4---2014-09-14','2;1',
'CAx-IF Rec.Pracs.---User Defined Attributes---1.5---2016-08-15'),
/* implementation_level */ '2;1');

FILE_NAME(
/* name */ 'Body - Part 11',
/* time_stamp */ '2026-08-03T01:29:05Z',
/* author */ (''),
/* organization */ (''),
/* preprocessor_version */ 'ST-DEVELOPER v20',
/* originating_system */ 'ONSHAPE BY PTC INC, 1.218',
/* authorisation */ '  ');

FILE_SCHEMA (('AP242_MANAGED_MODEL_BASED_3D_ENGINEERING_MIM_LF { 1 0 10303 442 3 1 4 }'));
ENDSEC;

DATA;
#10=SHAPE_REPRESENTATION_RELATIONSHIP('','',#558,#11);
#11=ADVANCED_BREP_SHAPE_REPRESENTATION('',(#556),#1024);
#12=PLANE('',#566);
#13=PLANE('',#567);
#14=PLANE('',#568);
#15=PLANE('',#569);
#16=PLANE('',#570);
#17=PLANE('',#571);
#18=PLANE('',#572);
#19=CIRCLE('',#561,0.00276633144932855);
#20=CIRCLE('',#562,0.00276633144932855);
#21=CIRCLE('',#564,0.00277322322314026);
#22=CIRCLE('',#565,0.00277322322314026);
#23=CYLINDRICAL_SURFACE('',#560,0.00276633144932855);
#24=CYLINDRICAL_SURFACE('',#563,0.00277322322314026);
#25=LINE('',#652,#62);
#26=LINE('',#658,#63);
#27=LINE('',#671,#64);
#28=LINE('',#688,#65);
#29=LINE('',#696,#66);
#30=LINE('',#711,#67);
#31=LINE('',#728,#68);
#32=LINE('',#745,#69);
#33=LINE('',#762,#70);
#34=LINE('',#779,#71);
#35=LINE('',#796,#72);
#36=LINE('',#804,#73);
#37=LINE('',#820,#74);
#38=LINE('',#826,#75);
#39=LINE('',#839,#76);
#40=LINE('',#856,#77);
#41=LINE('',#873,#78);
#42=LINE('',#890,#79);
#43=LINE('',#907,#80);
#44=LINE('',#913,#81);
#45=LINE('',#915,#82);
#46=LINE('',#917,#83);
#47=LINE('',#919,#84);
#48=LINE('',#921,#85);
#49=LINE('',#923,#86);
#50=LINE('',#925,#87);
#51=LINE('',#927,#88);
#52=LINE('',#929,#89);
#53=LINE('',#931,#90);
#54=LINE('',#933,#91);
#55=LINE('',#935,#92);
#56=LINE('',#937,#93);
#57=LINE('',#939,#94);
#58=LINE('',#941,#95);
#59=LINE('',#954,#96);
#60=LINE('',#971,#97);
#61=LINE('',#988,#98);
#62=VECTOR('',#575,1.);
#63=VECTOR('',#576,1.);
#64=VECTOR('',#577,1.);
#65=VECTOR('',#578,1.);
#66=VECTOR('',#583,1.);
#67=VECTOR('',#586,1.);
#68=VECTOR('',#587,1.);
#69=VECTOR('',#588,1.);
#70=VECTOR('',#589,1.);
#71=VECTOR('',#590,1.);
#72=VECTOR('',#591,1.);
#73=VECTOR('',#596,1.);
#74=VECTOR('',#599,1.);
#75=VECTOR('',#600,1.);
#76=VECTOR('',#601,1.);
#77=VECTOR('',#602,1.);
#78=VECTOR('',#603,1.);
#79=VECTOR('',#604,1.);
#80=VECTOR('',#605,1.);
#81=VECTOR('',#608,1.);
#82=VECTOR('',#609,1.);
#83=VECTOR('',#610,1.);
#84=VECTOR('',#613,1.);
#85=VECTOR('',#614,1.);
#86=VECTOR('',#615,1.);
#87=VECTOR('',#618,1.);
#88=VECTOR('',#619,1.);
#89=VECTOR('',#620,1.);
#90=VECTOR('',#623,1.);
#91=VECTOR('',#624,1.);
#92=VECTOR('',#625,1.);
#93=VECTOR('',#628,1.);
#94=VECTOR('',#629,1.);
#95=VECTOR('',#630,1.);
#96=VECTOR('',#631,1.);
#97=VECTOR('',#632,1.);
#98=VECTOR('',#633,1.);
#99=ORIENTED_EDGE('',*,*,#261,.F.);
#100=ORIENTED_EDGE('',*,*,#262,.F.);
#101=ORIENTED_EDGE('',*,*,#263,.T.);
#102=ORIENTED_EDGE('',*,*,#264,.T.);
#103=ORIENTED_EDGE('',*,*,#265,.F.);
#104=ORIENTED_EDGE('',*,*,#266,.F.);
#105=ORIENTED_EDGE('',*,*,#267,.T.);
#106=ORIENTED_EDGE('',*,*,#262,.T.);
#107=ORIENTED_EDGE('',*,*,#268,.F.);
#108=ORIENTED_EDGE('',*,*,#269,.F.);
#109=ORIENTED_EDGE('',*,*,#270,.T.);
#110=ORIENTED_EDGE('',*,*,#266,.T.);
#111=ORIENTED_EDGE('',*,*,#271,.F.);
#112=ORIENTED_EDGE('',*,*,#272,.F.);
#113=ORIENTED_EDGE('',*,*,#273,.T.);
#114=ORIENTED_EDGE('',*,*,#269,.T.);
#115=ORIENTED_EDGE('',*,*,#274,.F.);
#116=ORIENTED_EDGE('',*,*,#275,.F.);
#117=ORIENTED_EDGE('',*,*,#276,.T.);
#118=ORIENTED_EDGE('',*,*,#272,.T.);
#119=ORIENTED_EDGE('',*,*,#277,.F.);
#120=ORIENTED_EDGE('',*,*,#278,.F.);
#121=ORIENTED_EDGE('',*,*,#279,.T.);
#122=ORIENTED_EDGE('',*,*,#275,.T.);
#123=ORIENTED_EDGE('',*,*,#280,.F.);
#124=ORIENTED_EDGE('',*,*,#281,.F.);
#125=ORIENTED_EDGE('',*,*,#282,.T.);
#126=ORIENTED_EDGE('',*,*,#278,.T.);
#127=ORIENTED_EDGE('',*,*,#283,.F.);
#128=ORIENTED_EDGE('',*,*,#284,.F.);
#129=ORIENTED_EDGE('',*,*,#285,.T.);
#130=ORIENTED_EDGE('',*,*,#281,.T.);
#131=ORIENTED_EDGE('',*,*,#286,.F.);
#132=ORIENTED_EDGE('',*,*,#287,.F.);
#133=ORIENTED_EDGE('',*,*,#288,.T.);
#134=ORIENTED_EDGE('',*,*,#284,.T.);
#135=ORIENTED_EDGE('',*,*,#289,.F.);
#136=ORIENTED_EDGE('',*,*,#290,.F.);
#137=ORIENTED_EDGE('',*,*,#291,.T.);
#138=ORIENTED_EDGE('',*,*,#287,.T.);
#139=ORIENTED_EDGE('',*,*,#292,.F.);
#140=ORIENTED_EDGE('',*,*,#293,.F.);
#141=ORIENTED_EDGE('',*,*,#294,.T.);
#142=ORIENTED_EDGE('',*,*,#290,.T.);
#143=ORIENTED_EDGE('',*,*,#295,.F.);
#144=ORIENTED_EDGE('',*,*,#296,.F.);
#145=ORIENTED_EDGE('',*,*,#297,.T.);
#146=ORIENTED_EDGE('',*,*,#298,.T.);
#147=ORIENTED_EDGE('',*,*,#299,.F.);
#148=ORIENTED_EDGE('',*,*,#300,.F.);
#149=ORIENTED_EDGE('',*,*,#301,.T.);
#150=ORIENTED_EDGE('',*,*,#296,.T.);
#151=ORIENTED_EDGE('',*,*,#302,.F.);
#152=ORIENTED_EDGE('',*,*,#303,.F.);
#153=ORIENTED_EDGE('',*,*,#304,.T.);
#154=ORIENTED_EDGE('',*,*,#300,.T.);
#155=ORIENTED_EDGE('',*,*,#305,.F.);
#156=ORIENTED_EDGE('',*,*,#306,.F.);
#157=ORIENTED_EDGE('',*,*,#307,.T.);
#158=ORIENTED_EDGE('',*,*,#303,.T.);
#159=ORIENTED_EDGE('',*,*,#308,.F.);
#160=ORIENTED_EDGE('',*,*,#309,.F.);
#161=ORIENTED_EDGE('',*,*,#310,.T.);
#162=ORIENTED_EDGE('',*,*,#306,.T.);
#163=ORIENTED_EDGE('',*,*,#311,.F.);
#164=ORIENTED_EDGE('',*,*,#312,.F.);
#165=ORIENTED_EDGE('',*,*,#313,.T.);
#166=ORIENTED_EDGE('',*,*,#309,.T.);
#167=ORIENTED_EDGE('',*,*,#314,.F.);
#168=ORIENTED_EDGE('',*,*,#315,.F.);
#169=ORIENTED_EDGE('',*,*,#316,.T.);
#170=ORIENTED_EDGE('',*,*,#312,.T.);
#171=ORIENTED_EDGE('',*,*,#317,.F.);
#172=ORIENTED_EDGE('',*,*,#318,.F.);
#173=ORIENTED_EDGE('',*,*,#319,.T.);
#174=ORIENTED_EDGE('',*,*,#315,.T.);
#175=ORIENTED_EDGE('',*,*,#320,.F.);
#176=ORIENTED_EDGE('',*,*,#321,.F.);
#177=ORIENTED_EDGE('',*,*,#322,.T.);
#178=ORIENTED_EDGE('',*,*,#318,.T.);
#179=ORIENTED_EDGE('',*,*,#323,.F.);
#180=ORIENTED_EDGE('',*,*,#324,.F.);
#181=ORIENTED_EDGE('',*,*,#325,.T.);
#182=ORIENTED_EDGE('',*,*,#321,.T.);
#183=ORIENTED_EDGE('',*,*,#326,.F.);
#184=ORIENTED_EDGE('',*,*,#327,.F.);
#185=ORIENTED_EDGE('',*,*,#328,.T.);
#186=ORIENTED_EDGE('',*,*,#324,.T.);
#187=ORIENTED_EDGE('',*,*,#329,.F.);
#188=ORIENTED_EDGE('',*,*,#330,.F.);
#189=ORIENTED_EDGE('',*,*,#331,.T.);
#190=ORIENTED_EDGE('',*,*,#327,.T.);
#191=ORIENTED_EDGE('',*,*,#332,.F.);
#192=ORIENTED_EDGE('',*,*,#333,.F.);
#193=ORIENTED_EDGE('',*,*,#334,.T.);
#194=ORIENTED_EDGE('',*,*,#330,.T.);
#195=ORIENTED_EDGE('',*,*,#335,.F.);
#196=ORIENTED_EDGE('',*,*,#336,.F.);
#197=ORIENTED_EDGE('',*,*,#337,.T.);
#198=ORIENTED_EDGE('',*,*,#333,.T.);
#199=ORIENTED_EDGE('',*,*,#338,.F.);
#200=ORIENTED_EDGE('',*,*,#298,.F.);
#201=ORIENTED_EDGE('',*,*,#339,.T.);
#202=ORIENTED_EDGE('',*,*,#336,.T.);
#203=ORIENTED_EDGE('',*,*,#340,.F.);
#204=ORIENTED_EDGE('',*,*,#264,.F.);
#205=ORIENTED_EDGE('',*,*,#341,.T.);
#206=ORIENTED_EDGE('',*,*,#293,.T.);
#207=ORIENTED_EDGE('',*,*,#297,.F.);
#208=ORIENTED_EDGE('',*,*,#301,.F.);
#209=ORIENTED_EDGE('',*,*,#304,.F.);
#210=ORIENTED_EDGE('',*,*,#307,.F.);
#211=ORIENTED_EDGE('',*,*,#310,.F.);
#212=ORIENTED_EDGE('',*,*,#313,.F.);
#213=ORIENTED_EDGE('',*,*,#316,.F.);
#214=ORIENTED_EDGE('',*,*,#319,.F.);
#215=ORIENTED_EDGE('',*,*,#322,.F.);
#216=ORIENTED_EDGE('',*,*,#325,.F.);
#217=ORIENTED_EDGE('',*,*,#328,.F.);
#218=ORIENTED_EDGE('',*,*,#331,.F.);
#219=ORIENTED_EDGE('',*,*,#334,.F.);
#220=ORIENTED_EDGE('',*,*,#337,.F.);
#221=ORIENTED_EDGE('',*,*,#339,.F.);
#222=ORIENTED_EDGE('',*,*,#263,.F.);
#223=ORIENTED_EDGE('',*,*,#267,.F.);
#224=ORIENTED_EDGE('',*,*,#270,.F.);
#225=ORIENTED_EDGE('',*,*,#273,.F.);
#226=ORIENTED_EDGE('',*,*,#276,.F.);
#227=ORIENTED_EDGE('',*,*,#279,.F.);
#228=ORIENTED_EDGE('',*,*,#282,.F.);
#229=ORIENTED_EDGE('',*,*,#285,.F.);
#230=ORIENTED_EDGE('',*,*,#288,.F.);
#231=ORIENTED_EDGE('',*,*,#291,.F.);
#232=ORIENTED_EDGE('',*,*,#294,.F.);
#233=ORIENTED_EDGE('',*,*,#341,.F.);
#234=ORIENTED_EDGE('',*,*,#295,.T.);
#235=ORIENTED_EDGE('',*,*,#338,.T.);
#236=ORIENTED_EDGE('',*,*,#335,.T.);
#237=ORIENTED_EDGE('',*,*,#332,.T.);
#238=ORIENTED_EDGE('',*,*,#329,.T.);
#239=ORIENTED_EDGE('',*,*,#326,.T.);
#240=ORIENTED_EDGE('',*,*,#323,.T.);
#241=ORIENTED_EDGE('',*,*,#320,.T.);
#242=ORIENTED_EDGE('',*,*,#317,.T.);
#243=ORIENTED_EDGE('',*,*,#314,.T.);
#244=ORIENTED_EDGE('',*,*,#311,.T.);
#245=ORIENTED_EDGE('',*,*,#308,.T.);
#246=ORIENTED_EDGE('',*,*,#305,.T.);
#247=ORIENTED_EDGE('',*,*,#302,.T.);
#248=ORIENTED_EDGE('',*,*,#299,.T.);
#249=ORIENTED_EDGE('',*,*,#261,.T.);
#250=ORIENTED_EDGE('',*,*,#340,.T.);
#251=ORIENTED_EDGE('',*,*,#292,.T.);
#252=ORIENTED_EDGE('',*,*,#289,.T.);
#253=ORIENTED_EDGE('',*,*,#286,.T.);
#254=ORIENTED_EDGE('',*,*,#283,.T.);
#255=ORIENTED_EDGE('',*,*,#280,.T.);
#256=ORIENTED_EDGE('',*,*,#277,.T.);
#257=ORIENTED_EDGE('',*,*,#274,.T.);
#258=ORIENTED_EDGE('',*,*,#271,.T.);
#259=ORIENTED_EDGE('',*,*,#268,.T.);
#260=ORIENTED_EDGE('',*,*,#265,.T.);
#261=EDGE_CURVE('',#342,#343,#396,.T.);
#262=EDGE_CURVE('',#344,#342,#25,.T.);
#263=EDGE_CURVE('',#344,#345,#397,.T.);
#264=EDGE_CURVE('',#345,#343,#26,.T.);
#265=EDGE_CURVE('',#346,#342,#398,.T.);
#266=EDGE_CURVE('',#347,#346,#27,.T.);
#267=EDGE_CURVE('',#347,#344,#399,.T.);
#268=EDGE_CURVE('',#348,#346,#400,.T.);
#269=EDGE_CURVE('',#349,#348,#28,.T.);
#270=EDGE_CURVE('',#349,#347,#401,.T.);
#271=EDGE_CURVE('',#350,#348,#19,.F.);
#272=EDGE_CURVE('',#351,#350,#29,.T.);
#273=EDGE_CURVE('',#351,#349,#20,.F.);
#274=EDGE_CURVE('',#352,#350,#402,.T.);
#275=EDGE_CURVE('',#353,#352,#30,.T.);
#276=EDGE_CURVE('',#353,#351,#403,.T.);
#277=EDGE_CURVE('',#354,#352,#404,.T.);
#278=EDGE_CURVE('',#355,#354,#31,.T.);
#279=EDGE_CURVE('',#355,#353,#405,.T.);
#280=EDGE_CURVE('',#356,#354,#406,.T.);
#281=EDGE_CURVE('',#357,#356,#32,.T.);
#282=EDGE_CURVE('',#357,#355,#407,.T.);
#283=EDGE_CURVE('',#358,#356,#408,.T.);
#284=EDGE_CURVE('',#359,#358,#33,.T.);
#285=EDGE_CURVE('',#359,#357,#409,.T.);
#286=EDGE_CURVE('',#360,#358,#410,.T.);
#287=EDGE_CURVE('',#361,#360,#34,.T.);
#288=EDGE_CURVE('',#361,#359,#411,.T.);
#289=EDGE_CURVE('',#362,#360,#412,.T.);
#290=EDGE_CURVE('',#363,#362,#35,.T.);
#291=EDGE_CURVE('',#363,#361,#413,.T.);
#292=EDGE_CURVE('',#364,#362,#21,.F.);
#293=EDGE_CURVE('',#365,#364,#36,.T.);
#294=EDGE_CURVE('',#365,#363,#22,.F.);
#295=EDGE_CURVE('',#366,#367,#414,.T.);
#296=EDGE_CURVE('',#368,#366,#37,.T.);
#297=EDGE_CURVE('',#368,#369,#415,.T.);
#298=EDGE_CURVE('',#369,#367,#38,.T.);
#299=EDGE_CURVE('',#370,#366,#416,.T.);
#300=EDGE_CURVE('',#371,#370,#39,.T.);
#301=EDGE_CURVE('',#371,#368,#417,.T.);
#302=EDGE_CURVE('',#372,#370,#418,.T.);
#303=EDGE_CURVE('',#373,#372,#40,.T.);
#304=EDGE_CURVE('',#373,#371,#419,.T.);
#305=EDGE_CURVE('',#374,#372,#420,.T.);
#306=EDGE_CURVE('',#375,#374,#41,.T.);
#307=EDGE_CURVE('',#375,#373,#421,.T.);
#308=EDGE_CURVE('',#376,#374,#422,.T.);
#309=EDGE_CURVE('',#377,#376,#42,.T.);
#310=EDGE_CURVE('',#377,#375,#423,.T.);
#311=EDGE_CURVE('',#378,#376,#424,.T.);
#312=EDGE_CURVE('',#379,#378,#43,.T.);
#313=EDGE_CURVE('',#379,#377,#425,.T.);
#314=EDGE_CURVE('',#380,#378,#44,.T.);
#315=EDGE_CURVE('',#381,#380,#45,.T.);
#316=EDGE_CURVE('',#381,#379,#46,.T.);
#317=EDGE_CURVE('',#382,#380,#47,.T.);
#318=EDGE_CURVE('',#383,#382,#48,.T.);
#319=EDGE_CURVE('',#383,#381,#49,.T.);
#320=EDGE_CURVE('',#384,#382,#50,.T.);
#321=EDGE_CURVE('',#385,#384,#51,.T.);
#322=EDGE_CURVE('',#385,#383,#52,.T.);
#323=EDGE_CURVE('',#386,#384,#53,.T.);
#324=EDGE_CURVE('',#387,#386,#54,.T.);
#325=EDGE_CURVE('',#387,#385,#55,.T.);
#326=EDGE_CURVE('',#388,#386,#56,.T.);
#327=EDGE_CURVE('',#389,#388,#57,.T.);
#328=EDGE_CURVE('',#389,#387,#58,.T.);
#329=EDGE_CURVE('',#390,#388,#426,.T.);
#330=EDGE_CURVE('',#391,#390,#59,.T.);
#331=EDGE_CURVE('',#391,#389,#427,.T.);
#332=EDGE_CURVE('',#392,#390,#428,.T.);
#333=EDGE_CURVE('',#393,#392,#60,.T.);
#334=EDGE_CURVE('',#393,#391,#429,.T.);
#335=EDGE_CURVE('',#394,#392,#430,.T.);
#336=EDGE_CURVE('',#395,#394,#61,.T.);
#337=EDGE_CURVE('',#395,#393,#431,.T.);
#338=EDGE_CURVE('',#367,#394,#432,.T.);
#339=EDGE_CURVE('',#369,#395,#433,.T.);
#340=EDGE_CURVE('',#343,#364,#434,.T.);
#341=EDGE_CURVE('',#345,#365,#435,.T.);
#342=VERTEX_POINT('',#650);
#343=VERTEX_POINT('',#651);
#344=VERTEX_POINT('',#653);
#345=VERTEX_POINT('',#657);
#346=VERTEX_POINT('',#670);
#347=VERTEX_POINT('',#672);
#348=VERTEX_POINT('',#687);
#349=VERTEX_POINT('',#689);
#350=VERTEX_POINT('',#695);
#351=VERTEX_POINT('',#697);
#352=VERTEX_POINT('',#710);
#353=VERTEX_POINT('',#712);
#354=VERTEX_POINT('',#727);
#355=VERTEX_POINT('',#729);
#356=VERTEX_POINT('',#744);
#357=VERTEX_POINT('',#746);
#358=VERTEX_POINT('',#761);
#359=VERTEX_POINT('',#763);
#360=VERTEX_POINT('',#778);
#361=VERTEX_POINT('',#780);
#362=VERTEX_POINT('',#795);
#363=VERTEX_POINT('',#797);
#364=VERTEX_POINT('',#803);
#365=VERTEX_POINT('',#805);
#366=VERTEX_POINT('',#818);
#367=VERTEX_POINT('',#819);
#368=VERTEX_POINT('',#821);
#369=VERTEX_POINT('',#825);
#370=VERTEX_POINT('',#838);
#371=VERTEX_POINT('',#840);
#372=VERTEX_POINT('',#855);
#373=VERTEX_POINT('',#857);
#374=VERTEX_POINT('',#872);
#375=VERTEX_POINT('',#874);
#376=VERTEX_POINT('',#889);
#377=VERTEX_POINT('',#891);
#378=VERTEX_POINT('',#906);
#379=VERTEX_POINT('',#908);
#380=VERTEX_POINT('',#914);
#381=VERTEX_POINT('',#916);
#382=VERTEX_POINT('',#920);
#383=VERTEX_POINT('',#922);
#384=VERTEX_POINT('',#926);
#385=VERTEX_POINT('',#928);
#386=VERTEX_POINT('',#932);
#387=VERTEX_POINT('',#934);
#388=VERTEX_POINT('',#938);
#389=VERTEX_POINT('',#940);
#390=VERTEX_POINT('',#953);
#391=VERTEX_POINT('',#955);
#392=VERTEX_POINT('',#970);
#393=VERTEX_POINT('',#972);
#394=VERTEX_POINT('',#987);
#395=VERTEX_POINT('',#989);
#396=B_SPLINE_CURVE_WITH_KNOTS('',2,(#647,#648,#649),.UNSPECIFIED.,.F.,
 .F.,(3,3),(0.,1.),.PIECEWISE_BEZIER_KNOTS.);
#397=B_SPLINE_CURVE_WITH_KNOTS('',2,(#654,#655,#656),.UNSPECIFIED.,.F.,
 .F.,(3,3),(0.,1.),.PIECEWISE_BEZIER_KNOTS.);
#398=B_SPLINE_CURVE_WITH_KNOTS('',2,(#667,#668,#669),.UNSPECIFIED.,.F.,
 .F.,(3,3),(0.,1.),.PIECEWISE_BEZIER_KNOTS.);
#399=B_SPLINE_CURVE_WITH_KNOTS('',2,(#673,#674,#675),.UNSPECIFIED.,.F.,
 .F.,(3,3),(0.,1.),.PIECEWISE_BEZIER_KNOTS.);
#400=B_SPLINE_CURVE_WITH_KNOTS('',2,(#684,#685,#686),.UNSPECIFIED.,.F.,
 .F.,(3,3),(0.,1.),.PIECEWISE_BEZIER_KNOTS.);
#401=B_SPLINE_CURVE_WITH_KNOTS('',2,(#690,#691,#692),.UNSPECIFIED.,.F.,
 .F.,(3,3),(0.,1.),.PIECEWISE_BEZIER_KNOTS.);
#402=B_SPLINE_CURVE_WITH_KNOTS('',2,(#707,#708,#709),.UNSPECIFIED.,.F.,
 .F.,(3,3),(0.,1.),.PIECEWISE_BEZIER_KNOTS.);
#403=B_SPLINE_CURVE_WITH_KNOTS('',2,(#713,#714,#715),.UNSPECIFIED.,.F.,
 .F.,(3,3),(0.,1.),.PIECEWISE_BEZIER_KNOTS.);
#404=B_SPLINE_CURVE_WITH_KNOTS('',2,(#724,#725,#726),.UNSPECIFIED.,.F.,
 .F.,(3,3),(0.,1.),.PIECEWISE_BEZIER_KNOTS.);
#405=B_SPLINE_CURVE_WITH_KNOTS('',2,(#730,#731,#732),.UNSPECIFIED.,.F.,
 .F.,(3,3),(0.,1.),.PIECEWISE_BEZIER_KNOTS.);
#406=B_SPLINE_CURVE_WITH_KNOTS('',2,(#741,#742,#743),.UNSPECIFIED.,.F.,
 .F.,(3,3),(0.,1.),.PIECEWISE_BEZIER_KNOTS.);
#407=B_SPLINE_CURVE_WITH_KNOTS('',2,(#747,#748,#749),.UNSPECIFIED.,.F.,
 .F.,(3,3),(0.,1.),.PIECEWISE_BEZIER_KNOTS.);
#408=B_SPLINE_CURVE_WITH_KNOTS('',2,(#758,#759,#760),.UNSPECIFIED.,.F.,
 .F.,(3,3),(0.,1.),.PIECEWISE_BEZIER_KNOTS.);
#409=B_SPLINE_CURVE_WITH_KNOTS('',2,(#764,#765,#766),.UNSPECIFIED.,.F.,
 .F.,(3,3),(0.,1.),.PIECEWISE_BEZIER_KNOTS.);
#410=B_SPLINE_CURVE_WITH_KNOTS('',2,(#775,#776,#777),.UNSPECIFIED.,.F.,
 .F.,(3,3),(0.,1.),.PIECEWISE_BEZIER_KNOTS.);
#411=B_SPLINE_CURVE_WITH_KNOTS('',2,(#781,#782,#783),.UNSPECIFIED.,.F.,
 .F.,(3,3),(0.,1.),.PIECEWISE_BEZIER_KNOTS.);
#412=B_SPLINE_CURVE_WITH_KNOTS('',2,(#792,#793,#794),.UNSPECIFIED.,.F.,
 .F.,(3,3),(0.,1.),.PIECEWISE_BEZIER_KNOTS.);
#413=B_SPLINE_CURVE_WITH_KNOTS('',2,(#798,#799,#800),.UNSPECIFIED.,.F.,
 .F.,(3,3),(0.,1.),.PIECEWISE_BEZIER_KNOTS.);
#414=B_SPLINE_CURVE_WITH_KNOTS('',2,(#815,#816,#817),.UNSPECIFIED.,.F.,
 .F.,(3,3),(0.,1.),.PIECEWISE_BEZIER_KNOTS.);
#415=B_SPLINE_CURVE_WITH_KNOTS('',2,(#822,#823,#824),.UNSPECIFIED.,.F.,
 .F.,(3,3),(0.,1.),.PIECEWISE_BEZIER_KNOTS.);
#416=B_SPLINE_CURVE_WITH_KNOTS('',2,(#835,#836,#837),.UNSPECIFIED.,.F.,
 .F.,(3,3),(0.,1.),.PIECEWISE_BEZIER_KNOTS.);
#417=B_SPLINE_CURVE_WITH_KNOTS('',2,(#841,#842,#843),.UNSPECIFIED.,.F.,
 .F.,(3,3),(0.,1.),.PIECEWISE_BEZIER_KNOTS.);
#418=B_SPLINE_CURVE_WITH_KNOTS('',2,(#852,#853,#854),.UNSPECIFIED.,.F.,
 .F.,(3,3),(0.,1.),.PIECEWISE_BEZIER_KNOTS.);
#419=B_SPLINE_CURVE_WITH_KNOTS('',2,(#858,#859,#860),.UNSPECIFIED.,.F.,
 .F.,(3,3),(0.,1.),.PIECEWISE_BEZIER_KNOTS.);
#420=B_SPLINE_CURVE_WITH_KNOTS('',2,(#869,#870,#871),.UNSPECIFIED.,.F.,
 .F.,(3,3),(0.,1.),.PIECEWISE_BEZIER_KNOTS.);
#421=B_SPLINE_CURVE_WITH_KNOTS('',2,(#875,#876,#877),.UNSPECIFIED.,.F.,
 .F.,(3,3),(0.,1.),.PIECEWISE_BEZIER_KNOTS.);
#422=B_SPLINE_CURVE_WITH_KNOTS('',2,(#886,#887,#888),.UNSPECIFIED.,.F.,
 .F.,(3,3),(0.,1.),.PIECEWISE_BEZIER_KNOTS.);
#423=B_SPLINE_CURVE_WITH_KNOTS('',2,(#892,#893,#894),.UNSPECIFIED.,.F.,
 .F.,(3,3),(0.,1.),.PIECEWISE_BEZIER_KNOTS.);
#424=B_SPLINE_CURVE_WITH_KNOTS('',2,(#903,#904,#905),.UNSPECIFIED.,.F.,
 .F.,(3,3),(0.,1.),.PIECEWISE_BEZIER_KNOTS.);
#425=B_SPLINE_CURVE_WITH_KNOTS('',2,(#909,#910,#911),.UNSPECIFIED.,.F.,
 .F.,(3,3),(0.,1.),.PIECEWISE_BEZIER_KNOTS.);
#426=B_SPLINE_CURVE_WITH_KNOTS('',2,(#950,#951,#952),.UNSPECIFIED.,.F.,
 .F.,(3,3),(0.,1.),.PIECEWISE_BEZIER_KNOTS.);
#427=B_SPLINE_CURVE_WITH_KNOTS('',2,(#956,#957,#958),.UNSPECIFIED.,.F.,
 .F.,(3,3),(0.,1.),.PIECEWISE_BEZIER_KNOTS.);
#428=B_SPLINE_CURVE_WITH_KNOTS('',2,(#967,#968,#969),.UNSPECIFIED.,.F.,
 .F.,(3,3),(0.,1.),.PIECEWISE_BEZIER_KNOTS.);
#429=B_SPLINE_CURVE_WITH_KNOTS('',2,(#973,#974,#975),.UNSPECIFIED.,.F.,
 .F.,(3,3),(0.,1.),.PIECEWISE_BEZIER_KNOTS.);
#430=B_SPLINE_CURVE_WITH_KNOTS('',2,(#984,#985,#986),.UNSPECIFIED.,.F.,
 .F.,(3,3),(0.,1.),.PIECEWISE_BEZIER_KNOTS.);
#431=B_SPLINE_CURVE_WITH_KNOTS('',2,(#990,#991,#992),.UNSPECIFIED.,.F.,
 .F.,(3,3),(0.,1.),.PIECEWISE_BEZIER_KNOTS.);
#432=B_SPLINE_CURVE_WITH_KNOTS('',2,(#1001,#1002,#1003),.UNSPECIFIED.,.F.,
 .F.,(3,3),(0.,1.),.PIECEWISE_BEZIER_KNOTS.);
#433=B_SPLINE_CURVE_WITH_KNOTS('',2,(#1004,#1005,#1006),.UNSPECIFIED.,.F.,
 .F.,(3,3),(0.,1.),.PIECEWISE_BEZIER_KNOTS.);
#434=B_SPLINE_CURVE_WITH_KNOTS('',2,(#1015,#1016,#1017),.UNSPECIFIED.,.F.,
 .F.,(3,3),(0.,1.),.PIECEWISE_BEZIER_KNOTS.);
#435=B_SPLINE_CURVE_WITH_KNOTS('',2,(#1018,#1019,#1020),.UNSPECIFIED.,.F.,
 .F.,(3,3),(0.,1.),.PIECEWISE_BEZIER_KNOTS.);
#436=EDGE_LOOP('',(#99,#100,#101,#102));
#437=EDGE_LOOP('',(#103,#104,#105,#106));
#438=EDGE_LOOP('',(#107,#108,#109,#110));
#439=EDGE_LOOP('',(#111,#112,#113,#114));
#440=EDGE_LOOP('',(#115,#116,#117,#118));
#441=EDGE_LOOP('',(#119,#120,#121,#122));
#442=EDGE_LOOP('',(#123,#124,#125,#126));
#443=EDGE_LOOP('',(#127,#128,#129,#130));
#444=EDGE_LOOP('',(#131,#132,#133,#134));
#445=EDGE_LOOP('',(#135,#136,#137,#138));
#446=EDGE_LOOP('',(#139,#140,#141,#142));
#447=EDGE_LOOP('',(#143,#144,#145,#146));
#448=EDGE_LOOP('',(#147,#148,#149,#150));
#449=EDGE_LOOP('',(#151,#152,#153,#154));
#450=EDGE_LOOP('',(#155,#156,#157,#158));
#451=EDGE_LOOP('',(#159,#160,#161,#162));
#452=EDGE_LOOP('',(#163,#164,#165,#166));
#453=EDGE_LOOP('',(#167,#168,#169,#170));
#454=EDGE_LOOP('',(#171,#172,#173,#174));
#455=EDGE_LOOP('',(#175,#176,#177,#178));
#456=EDGE_LOOP('',(#179,#180,#181,#182));
#457=EDGE_LOOP('',(#183,#184,#185,#186));
#458=EDGE_LOOP('',(#187,#188,#189,#190));
#459=EDGE_LOOP('',(#191,#192,#193,#194));
#460=EDGE_LOOP('',(#195,#196,#197,#198));
#461=EDGE_LOOP('',(#199,#200,#201,#202));
#462=EDGE_LOOP('',(#203,#204,#205,#206));
#463=EDGE_LOOP('',(#207,#208,#209,#210,#211,#212,#213,#214,#215,#216,#217,
#218,#219,#220,#221));
#464=EDGE_LOOP('',(#222,#223,#224,#225,#226,#227,#228,#229,#230,#231,#232,
#233));
#465=EDGE_LOOP('',(#234,#235,#236,#237,#238,#239,#240,#241,#242,#243,#244,
#245,#246,#247,#248));
#466=EDGE_LOOP('',(#249,#250,#251,#252,#253,#254,#255,#256,#257,#258,#259,
#260));
#467=FACE_BOUND('',#436,.T.);
#468=FACE_BOUND('',#437,.T.);
#469=FACE_BOUND('',#438,.T.);
#470=FACE_BOUND('',#439,.T.);
#471=FACE_BOUND('',#440,.T.);
#472=FACE_BOUND('',#441,.T.);
#473=FACE_BOUND('',#442,.T.);
#474=FACE_BOUND('',#443,.T.);
#475=FACE_BOUND('',#444,.T.);
#476=FACE_BOUND('',#445,.T.);
#477=FACE_BOUND('',#446,.T.);
#478=FACE_BOUND('',#447,.T.);
#479=FACE_BOUND('',#448,.T.);
#480=FACE_BOUND('',#449,.T.);
#481=FACE_BOUND('',#450,.T.);
#482=FACE_BOUND('',#451,.T.);
#483=FACE_BOUND('',#452,.T.);
#484=FACE_BOUND('',#453,.T.);
#485=FACE_BOUND('',#454,.T.);
#486=FACE_BOUND('',#455,.T.);
#487=FACE_BOUND('',#456,.T.);
#488=FACE_BOUND('',#457,.T.);
#489=FACE_BOUND('',#458,.T.);
#490=FACE_BOUND('',#459,.T.);
#491=FACE_BOUND('',#460,.T.);
#492=FACE_BOUND('',#461,.T.);
#493=FACE_BOUND('',#462,.T.);
#494=FACE_BOUND('',#463,.T.);
#495=FACE_BOUND('',#464,.T.);
#496=FACE_BOUND('',#465,.T.);
#497=FACE_BOUND('',#466,.T.);
#498=B_SPLINE_SURFACE_WITH_KNOTS('',3,1,((#639,#640),(#641,#642),(#643,
#644),(#645,#646)),.SURF_OF_LINEAR_EXTRUSION.,.F.,.F.,.F.,(4,4),(2,2),(0.,
1.),(0.,1.),.PIECEWISE_BEZIER_KNOTS.);
#499=B_SPLINE_SURFACE_WITH_KNOTS('',3,1,((#659,#660),(#661,#662),(#663,
#664),(#665,#666)),.SURF_OF_LINEAR_EXTRUSION.,.F.,.F.,.F.,(4,4),(2,2),(0.,
1.),(0.,1.),.PIECEWISE_BEZIER_KNOTS.);
#500=B_SPLINE_SURFACE_WITH_KNOTS('',3,1,((#676,#677),(#678,#679),(#680,
#681),(#682,#683)),.SURF_OF_LINEAR_EXTRUSION.,.F.,.F.,.F.,(4,4),(2,2),(0.,
1.),(0.,1.),.PIECEWISE_BEZIER_KNOTS.);
#501=B_SPLINE_SURFACE_WITH_KNOTS('',3,1,((#699,#700),(#701,#702),(#703,
#704),(#705,#706)),.SURF_OF_LINEAR_EXTRUSION.,.F.,.F.,.F.,(4,4),(2,2),(0.,
1.),(0.,1.),.PIECEWISE_BEZIER_KNOTS.);
#502=B_SPLINE_SURFACE_WITH_KNOTS('',3,1,((#716,#717),(#718,#719),(#720,
#721),(#722,#723)),.SURF_OF_LINEAR_EXTRUSION.,.F.,.F.,.F.,(4,4),(2,2),(0.,
1.),(0.,1.),.PIECEWISE_BEZIER_KNOTS.);
#503=B_SPLINE_SURFACE_WITH_KNOTS('',3,1,((#733,#734),(#735,#736),(#737,
#738),(#739,#740)),.SURF_OF_LINEAR_EXTRUSION.,.F.,.F.,.F.,(4,4),(2,2),(0.,
1.),(0.,1.),.PIECEWISE_BEZIER_KNOTS.);
#504=B_SPLINE_SURFACE_WITH_KNOTS('',3,1,((#750,#751),(#752,#753),(#754,
#755),(#756,#757)),.SURF_OF_LINEAR_EXTRUSION.,.F.,.F.,.F.,(4,4),(2,2),(0.,
1.),(0.,1.),.PIECEWISE_BEZIER_KNOTS.);
#505=B_SPLINE_SURFACE_WITH_KNOTS('',3,1,((#767,#768),(#769,#770),(#771,
#772),(#773,#774)),.SURF_OF_LINEAR_EXTRUSION.,.F.,.F.,.F.,(4,4),(2,2),(0.,
1.),(0.,1.),.PIECEWISE_BEZIER_KNOTS.);
#506=B_SPLINE_SURFACE_WITH_KNOTS('',3,1,((#784,#785),(#786,#787),(#788,
#789),(#790,#791)),.SURF_OF_LINEAR_EXTRUSION.,.F.,.F.,.F.,(4,4),(2,2),(0.,
1.),(0.,1.),.PIECEWISE_BEZIER_KNOTS.);
#507=B_SPLINE_SURFACE_WITH_KNOTS('',3,1,((#807,#808),(#809,#810),(#811,
#812),(#813,#814)),.SURF_OF_LINEAR_EXTRUSION.,.F.,.F.,.F.,(4,4),(2,2),(0.,
1.),(0.,1.),.PIECEWISE_BEZIER_KNOTS.);
#508=B_SPLINE_SURFACE_WITH_KNOTS('',3,1,((#827,#828),(#829,#830),(#831,
#832),(#833,#834)),.SURF_OF_LINEAR_EXTRUSION.,.F.,.F.,.F.,(4,4),(2,2),(0.,
1.),(0.,1.),.PIECEWISE_BEZIER_KNOTS.);
#509=B_SPLINE_SURFACE_WITH_KNOTS('',3,1,((#844,#845),(#846,#847),(#848,
#849),(#850,#851)),.SURF_OF_LINEAR_EXTRUSION.,.F.,.F.,.F.,(4,4),(2,2),(0.,
1.),(0.,1.),.PIECEWISE_BEZIER_KNOTS.);
#510=B_SPLINE_SURFACE_WITH_KNOTS('',3,1,((#861,#862),(#863,#864),(#865,
#866),(#867,#868)),.SURF_OF_LINEAR_EXTRUSION.,.F.,.F.,.F.,(4,4),(2,2),(0.,
1.),(0.,1.),.PIECEWISE_BEZIER_KNOTS.);
#511=B_SPLINE_SURFACE_WITH_KNOTS('',3,1,((#878,#879),(#880,#881),(#882,
#883),(#884,#885)),.SURF_OF_LINEAR_EXTRUSION.,.F.,.F.,.F.,(4,4),(2,2),(0.,
1.),(0.,1.),.PIECEWISE_BEZIER_KNOTS.);
#512=B_SPLINE_SURFACE_WITH_KNOTS('',3,1,((#895,#896),(#897,#898),(#899,
#900),(#901,#902)),.SURF_OF_LINEAR_EXTRUSION.,.F.,.F.,.F.,(4,4),(2,2),(0.,
1.),(0.,1.),.PIECEWISE_BEZIER_KNOTS.);
#513=B_SPLINE_SURFACE_WITH_KNOTS('',3,1,((#942,#943),(#944,#945),(#946,
#947),(#948,#949)),.SURF_OF_LINEAR_EXTRUSION.,.F.,.F.,.F.,(4,4),(2,2),(0.,
1.),(0.,1.),.PIECEWISE_BEZIER_KNOTS.);
#514=B_SPLINE_SURFACE_WITH_KNOTS('',3,1,((#959,#960),(#961,#962),(#963,
#964),(#965,#966)),.SURF_OF_LINEAR_EXTRUSION.,.F.,.F.,.F.,(4,4),(2,2),(0.,
1.),(0.,1.),.PIECEWISE_BEZIER_KNOTS.);
#515=B_SPLINE_SURFACE_WITH_KNOTS('',3,1,((#976,#977),(#978,#979),(#980,
#981),(#982,#983)),.SURF_OF_LINEAR_EXTRUSION.,.F.,.F.,.F.,(4,4),(2,2),(0.,
1.),(0.,1.),.PIECEWISE_BEZIER_KNOTS.);
#516=B_SPLINE_SURFACE_WITH_KNOTS('',3,1,((#993,#994),(#995,#996),(#997,
#998),(#999,#1000)),.SURF_OF_LINEAR_EXTRUSION.,.F.,.F.,.F.,(4,4),(2,2),
(0.,1.),(0.,1.),.PIECEWISE_BEZIER_KNOTS.);
#517=B_SPLINE_SURFACE_WITH_KNOTS('',3,1,((#1007,#1008),(#1009,#1010),(#1011,
#1012),(#1013,#1014)),.SURF_OF_LINEAR_EXTRUSION.,.F.,.F.,.F.,(4,4),(2,2),
(0.,1.),(0.,1.),.PIECEWISE_BEZIER_KNOTS.);
#518=ADVANCED_FACE('',(#467),#498,.T.);
#519=ADVANCED_FACE('',(#468),#499,.T.);
#520=ADVANCED_FACE('',(#469),#500,.T.);
#521=ADVANCED_FACE('',(#470),#23,.F.);
#522=ADVANCED_FACE('',(#471),#501,.T.);
#523=ADVANCED_FACE('',(#472),#502,.T.);
#524=ADVANCED_FACE('',(#473),#503,.T.);
#525=ADVANCED_FACE('',(#474),#504,.T.);
#526=ADVANCED_FACE('',(#475),#505,.T.);
#527=ADVANCED_FACE('',(#476),#506,.T.);
#528=ADVANCED_FACE('',(#477),#24,.F.);
#529=ADVANCED_FACE('',(#478),#507,.T.);
#530=ADVANCED_FACE('',(#479),#508,.T.);
#531=ADVANCED_FACE('',(#480),#509,.T.);
#532=ADVANCED_FACE('',(#481),#510,.T.);
#533=ADVANCED_FACE('',(#482),#511,.T.);
#534=ADVANCED_FACE('',(#483),#512,.T.);
#535=ADVANCED_FACE('',(#484),#12,.T.);
#536=ADVANCED_FACE('',(#485),#13,.T.);
#537=ADVANCED_FACE('',(#486),#14,.T.);
#538=ADVANCED_FACE('',(#487),#15,.T.);
#539=ADVANCED_FACE('',(#488),#16,.T.);
#540=ADVANCED_FACE('',(#489),#513,.T.);
#541=ADVANCED_FACE('',(#490),#514,.T.);
#542=ADVANCED_FACE('',(#491),#515,.T.);
#543=ADVANCED_FACE('',(#492),#516,.T.);
#544=ADVANCED_FACE('',(#493),#517,.T.);
#545=ADVANCED_FACE('',(#494,#495),#17,.T.);
#546=ADVANCED_FACE('',(#496,#497),#18,.F.);
#547=CLOSED_SHELL('',(#518,#519,#520,#521,#522,#523,#524,#525,#526,#527,
#528,#529,#530,#531,#532,#533,#534,#535,#536,#537,#538,#539,#540,#541,#542,
#543,#544,#545,#546));
#548=STYLED_ITEM('',(#549),#556);
#549=PRESENTATION_STYLE_ASSIGNMENT((#550));
#550=SURFACE_STYLE_USAGE(.BOTH.,#551);
#551=SURFACE_SIDE_STYLE('',(#552));
#552=SURFACE_STYLE_FILL_AREA(#553);
#553=FILL_AREA_STYLE('',(#554));
#554=FILL_AREA_STYLE_COLOUR('',#555);
#555=DRAUGHTING_PRE_DEFINED_COLOUR('red');
#556=MANIFOLD_SOLID_BREP('Part 11',#547);
#557=SHAPE_DEFINITION_REPRESENTATION(#1029,#558);
#558=SHAPE_REPRESENTATION('Part 11',(#559),#1024);
#559=AXIS2_PLACEMENT_3D('',#638,#573,#574);
#560=AXIS2_PLACEMENT_3D('',#693,#579,#580);
#561=AXIS2_PLACEMENT_3D('',#694,#581,#582);
#562=AXIS2_PLACEMENT_3D('',#698,#584,#585);
#563=AXIS2_PLACEMENT_3D('',#801,#592,#593);
#564=AXIS2_PLACEMENT_3D('',#802,#594,#595);
#565=AXIS2_PLACEMENT_3D('',#806,#597,#598);
#566=AXIS2_PLACEMENT_3D('',#912,#606,#607);
#567=AXIS2_PLACEMENT_3D('',#918,#611,#612);
#568=AXIS2_PLACEMENT_3D('',#924,#616,#617);
#569=AXIS2_PLACEMENT_3D('',#930,#621,#622);
#570=AXIS2_PLACEMENT_3D('',#936,#626,#627);
#571=AXIS2_PLACEMENT_3D('',#1021,#634,#635);
#572=AXIS2_PLACEMENT_3D('',#1022,#636,#637);
#573=DIRECTION('',(0.,0.,1.));
#574=DIRECTION('',(1.,0.,0.));
#575=DIRECTION('',(0.,0.,-1.));
#576=DIRECTION('',(0.,0.,-1.));
#577=DIRECTION('',(0.,0.,-1.));
#578=DIRECTION('',(0.,0.,-1.));
#579=DIRECTION('',(0.,0.,-1.));
#580=DIRECTION('',(0.255359787755771,-0.966846098816832,0.));
#581=DIRECTION('',(0.,0.,-1.));
#582=DIRECTION('',(-1.,0.,0.));
#583=DIRECTION('',(0.,0.,-1.));
#584=DIRECTION('',(0.,0.,-1.));
#585=DIRECTION('',(-1.,0.,0.));
#586=DIRECTION('',(0.,0.,-1.));
#587=DIRECTION('',(0.,0.,-1.));
#588=DIRECTION('',(0.,0.,-1.));
#589=DIRECTION('',(0.,0.,-1.));
#590=DIRECTION('',(0.,0.,-1.));
#591=DIRECTION('',(0.,0.,-1.));
#592=DIRECTION('',(0.,0.,-1.));
#593=DIRECTION('',(0.254634549655622,0.967037355080805,0.));
#594=DIRECTION('',(0.,0.,-1.));
#595=DIRECTION('',(-1.,0.,0.));
#596=DIRECTION('',(0.,0.,-1.));
#597=DIRECTION('',(0.,0.,-1.));
#598=DIRECTION('',(-1.,0.,0.));
#599=DIRECTION('',(0.,0.,-1.));
#600=DIRECTION('',(0.,0.,-1.));
#601=DIRECTION('',(0.,0.,-1.));
#602=DIRECTION('',(0.,0.,-1.));
#603=DIRECTION('',(0.,0.,-1.));
#604=DIRECTION('',(0.,0.,-1.));
#605=DIRECTION('',(0.,0.,-1.));
#606=DIRECTION('',(-1.,0.,0.));
#607=DIRECTION('',(0.,0.,1.));
#608=DIRECTION('',(0.,1.,0.));
#609=DIRECTION('',(0.,0.,-1.));
#610=DIRECTION('',(0.,1.,0.));
#611=DIRECTION('',(0.,-1.,0.));
#612=DIRECTION('',(0.,0.,-1.));
#613=DIRECTION('',(-1.,0.,0.));
#614=DIRECTION('',(0.,0.,-1.));
#615=DIRECTION('',(-1.,0.,0.));
#616=DIRECTION('',(1.,0.,0.));
#617=DIRECTION('',(0.,0.,-1.));
#618=DIRECTION('',(0.,-1.,0.));
#619=DIRECTION('',(0.,0.,-1.));
#620=DIRECTION('',(0.,-1.,0.));
#621=DIRECTION('',(0.,1.,0.));
#622=DIRECTION('',(0.,0.,1.));
#623=DIRECTION('',(1.,0.,0.));
#624=DIRECTION('',(0.,0.,-1.));
#625=DIRECTION('',(1.,0.,0.));
#626=DIRECTION('',(-1.,0.,0.));
#627=DIRECTION('',(0.,0.,1.));
#628=DIRECTION('',(0.,1.,0.));
#629=DIRECTION('',(0.,0.,-1.));
#630=DIRECTION('',(0.,1.,0.));
#631=DIRECTION('',(0.,0.,-1.));
#632=DIRECTION('',(0.,0.,-1.));
#633=DIRECTION('',(0.,0.,-1.));
#634=DIRECTION('',(0.,0.,1.));
#635=DIRECTION('',(1.,0.,0.));
#636=DIRECTION('',(0.,0.,1.));
#637=DIRECTION('',(1.,0.,0.));
#638=CARTESIAN_POINT('',(0.,0.,0.));
#639=CARTESIAN_POINT('',(-0.00150224249955499,0.0944695281796157,0.008));
#640=CARTESIAN_POINT('',(-0.00150224249955499,0.0944695281796157,0.005));
#641=CARTESIAN_POINT('',(-0.00150224249955499,0.095092227498147,0.008));
#642=CARTESIAN_POINT('',(-0.00150224249955499,0.095092227498147,0.005));
#643=CARTESIAN_POINT('',(-0.00162772347054366,0.0956345405696387,0.008));
#644=CARTESIAN_POINT('',(-0.00162772347054366,0.0956345405696387,0.005));
#645=CARTESIAN_POINT('',(-0.001878685412521,0.0960964673940907,0.008));
#646=CARTESIAN_POINT('',(-0.001878685412521,0.0960964673940907,0.005));
#647=CARTESIAN_POINT('',(-0.00150224249955499,0.0944695281796157,0.005));
#648=CARTESIAN_POINT('',(-0.00150224249955499,0.0954035771574127,0.005));
#649=CARTESIAN_POINT('',(-0.001878685412521,0.0960964673940907,0.005));
#650=CARTESIAN_POINT('',(-0.00150224249955499,0.0944695281796157,0.005));
#651=CARTESIAN_POINT('',(-0.001878685412521,0.0960964673940907,0.005));
#652=CARTESIAN_POINT('',(-0.00150224249955499,0.0944695281796157,0.008));
#653=CARTESIAN_POINT('',(-0.00150224249955499,0.0944695281796157,0.008));
#654=CARTESIAN_POINT('',(-0.00150224249955499,0.0944695281796157,0.008));
#655=CARTESIAN_POINT('',(-0.00150224249955499,0.0954035771574127,0.008));
#656=CARTESIAN_POINT('',(-0.001878685412521,0.0960964673940907,0.008));
#657=CARTESIAN_POINT('',(-0.001878685412521,0.0960964673940907,0.008));
#658=CARTESIAN_POINT('',(-0.001878685412521,0.0960964673940907,0.008));
#659=CARTESIAN_POINT('',(-0.001878685412521,0.0928355306605226,0.008));
#660=CARTESIAN_POINT('',(-0.001878685412521,0.0928355306605226,0.005));
#661=CARTESIAN_POINT('',(-0.00162772347054366,0.0933021630213867,0.008));
#662=CARTESIAN_POINT('',(-0.00162772347054366,0.0933021630213867,0.005));
#663=CARTESIAN_POINT('',(-0.00150224249955499,0.0938468288610844,0.008));
#664=CARTESIAN_POINT('',(-0.00150224249955499,0.0938468288610844,0.005));
#665=CARTESIAN_POINT('',(-0.00150224249955499,0.0944695281796157,0.008));
#666=CARTESIAN_POINT('',(-0.00150224249955499,0.0944695281796157,0.005));
#667=CARTESIAN_POINT('',(-0.001878685412521,0.0928355306605226,0.005));
#668=CARTESIAN_POINT('',(-0.00150224249955499,0.0935354792018188,0.005));
#669=CARTESIAN_POINT('',(-0.00150224249955499,0.0944695281796157,0.005));
#670=CARTESIAN_POINT('',(-0.001878685412521,0.0928355306605226,0.005));
#671=CARTESIAN_POINT('',(-0.001878685412521,0.0928355306605226,0.008));
#672=CARTESIAN_POINT('',(-0.001878685412521,0.0928355306605226,0.008));
#673=CARTESIAN_POINT('',(-0.001878685412521,0.0928355306605226,0.008));
#674=CARTESIAN_POINT('',(-0.00150224249955499,0.0935354792018188,0.008));
#675=CARTESIAN_POINT('',(-0.00150224249955499,0.0944695281796157,0.008));
#676=CARTESIAN_POINT('',(-0.00289508127752924,0.0917661975108786,0.008));
#677=CARTESIAN_POINT('',(-0.00289508127752924,0.0917661975108786,0.005));
#678=CARTESIAN_POINT('',(-0.00246844597616776,0.0920124539164439,0.008));
#679=CARTESIAN_POINT('',(-0.00246844597616776,0.0920124539164439,0.005));
#680=CARTESIAN_POINT('',(-0.00212964735449835,0.0923688982996585,0.008));
#681=CARTESIAN_POINT('',(-0.00212964735449835,0.0923688982996585,0.005));
#682=CARTESIAN_POINT('',(-0.001878685412521,0.0928355306605226,0.008));
#683=CARTESIAN_POINT('',(-0.001878685412521,0.0928355306605226,0.005));
#684=CARTESIAN_POINT('',(-0.00289508127752924,0.0917661975108786,0.005));
#685=CARTESIAN_POINT('',(-0.00225512832548702,0.0921355821192265,0.005));
#686=CARTESIAN_POINT('',(-0.001878685412521,0.0928355306605226,0.005));
#687=CARTESIAN_POINT('',(-0.00289508127752924,0.0917661975108786,0.005));
#688=CARTESIAN_POINT('',(-0.00289508127752924,0.0917661975108786,0.008));
#689=CARTESIAN_POINT('',(-0.00289508127752924,0.0917661975108786,0.008));
#690=CARTESIAN_POINT('',(-0.00289508127752924,0.0917661975108786,0.008));
#691=CARTESIAN_POINT('',(-0.00225512832548702,0.0921355821192265,0.008));
#692=CARTESIAN_POINT('',(-0.001878685412521,0.0928355306605226,0.008));
#693=CARTESIAN_POINT('',(-0.00427384129711352,0.0941639526137938,0.008));
#694=CARTESIAN_POINT('',(-0.00427384129711352,0.0941639526137938,0.005));
#695=CARTESIAN_POINT('',(-0.00430438943294575,0.0913968129025307,0.005));
#696=CARTESIAN_POINT('',(-0.00430438943294575,0.0913968129025307,0.008));
#697=CARTESIAN_POINT('',(-0.00430438943294575,0.0913968129025307,0.008));
#698=CARTESIAN_POINT('',(-0.00427384129711352,0.0941639526137938,0.008));
#699=CARTESIAN_POINT('',(-0.00570428651553811,0.0917661975108786,0.008));
#700=CARTESIAN_POINT('',(-0.00570428651553811,0.0917661975108786,0.005));
#701=CARTESIAN_POINT('',(-0.0052823567505887,0.0915199411053133,0.008));
#702=CARTESIAN_POINT('',(-0.0052823567505887,0.0915199411053133,0.005));
#703=CARTESIAN_POINT('',(-0.00481572438972458,0.0913968129025307,0.008));
#704=CARTESIAN_POINT('',(-0.00481572438972458,0.0913968129025307,0.005));
#705=CARTESIAN_POINT('',(-0.00430438943294575,0.0913968129025307,0.008));
#706=CARTESIAN_POINT('',(-0.00430438943294575,0.0913968129025307,0.005));
#707=CARTESIAN_POINT('',(-0.00570428651553811,0.0917661975108786,0.005));
#708=CARTESIAN_POINT('',(-0.005071391868114,0.0913968129025307,0.005));
#709=CARTESIAN_POINT('',(-0.00430438943294575,0.0913968129025307,0.005));
#710=CARTESIAN_POINT('',(-0.00570428651553811,0.0917661975108786,0.005));
#711=CARTESIAN_POINT('',(-0.00570428651553811,0.0917661975108786,0.008));
#712=CARTESIAN_POINT('',(-0.00570428651553811,0.0917661975108786,0.008));
#713=CARTESIAN_POINT('',(-0.00570428651553811,0.0917661975108786,0.008));
#714=CARTESIAN_POINT('',(-0.005071391868114,0.0913968129025307,0.008));
#715=CARTESIAN_POINT('',(-0.00430438943294575,0.0913968129025307,0.008));
#716=CARTESIAN_POINT('',(-0.00671362407592823,0.0928355306605226,0.008));
#717=CARTESIAN_POINT('',(-0.00671362407592823,0.0928355306605226,0.005));
#718=CARTESIAN_POINT('',(-0.00646266213395089,0.0923688982996585,0.008));
#719=CARTESIAN_POINT('',(-0.00646266213395089,0.0923688982996585,0.005));
#720=CARTESIAN_POINT('',(-0.00612621628048752,0.0920124539164439,0.008));
#721=CARTESIAN_POINT('',(-0.00612621628048752,0.0920124539164439,0.005));
#722=CARTESIAN_POINT('',(-0.00570428651553811,0.0917661975108786,0.008));
#723=CARTESIAN_POINT('',(-0.00570428651553811,0.0917661975108786,0.005));
#724=CARTESIAN_POINT('',(-0.00671362407592823,0.0928355306605226,0.005));
#725=CARTESIAN_POINT('',(-0.00633718116296222,0.0921355821192265,0.005));
#726=CARTESIAN_POINT('',(-0.00570428651553811,0.0917661975108786,0.005));
#727=CARTESIAN_POINT('',(-0.00671362407592823,0.0928355306605226,0.005));
#728=CARTESIAN_POINT('',(-0.00671362407592823,0.0928355306605226,0.008));
#729=CARTESIAN_POINT('',(-0.00671362407592823,0.0928355306605226,0.008));
#730=CARTESIAN_POINT('',(-0.00671362407592823,0.0928355306605226,0.008));
#731=CARTESIAN_POINT('',(-0.00633718116296222,0.0921355821192265,0.008));
#732=CARTESIAN_POINT('',(-0.00570428651553811,0.0917661975108786,0.008));
#733=CARTESIAN_POINT('',(-0.00709006698889425,0.094483644788852,0.008));
#734=CARTESIAN_POINT('',(-0.00709006698889425,0.094483644788852,0.005));
#735=CARTESIAN_POINT('',(-0.00709006698889425,0.0938515343974965,0.008));
#736=CARTESIAN_POINT('',(-0.00709006698889425,0.0938515343974965,0.005));
#737=CARTESIAN_POINT('',(-0.00696458601790558,0.0933021630213867,0.008));
#738=CARTESIAN_POINT('',(-0.00696458601790558,0.0933021630213867,0.005));
#739=CARTESIAN_POINT('',(-0.00671362407592823,0.0928355306605226,0.008));
#740=CARTESIAN_POINT('',(-0.00671362407592823,0.0928355306605226,0.005));
#741=CARTESIAN_POINT('',(-0.00709006698889425,0.094483644788852,0.005));
#742=CARTESIAN_POINT('',(-0.00709006698889425,0.0935354792018188,0.005));
#743=CARTESIAN_POINT('',(-0.00671362407592823,0.0928355306605226,0.005));
#744=CARTESIAN_POINT('',(-0.00709006698889425,0.094483644788852,0.005));
#745=CARTESIAN_POINT('',(-0.00709006698889425,0.094483644788852,0.008));
#746=CARTESIAN_POINT('',(-0.00709006698889425,0.094483644788852,0.008));
#747=CARTESIAN_POINT('',(-0.00709006698889425,0.094483644788852,0.008));
#748=CARTESIAN_POINT('',(-0.00709006698889425,0.0935354792018188,0.008));
#749=CARTESIAN_POINT('',(-0.00671362407592823,0.0928355306605226,0.008));
#750=CARTESIAN_POINT('',(-0.00671362407592823,0.0961105840033269,0.008));
#751=CARTESIAN_POINT('',(-0.00671362407592823,0.0961105840033269,0.005));
#752=CARTESIAN_POINT('',(-0.00696458601790558,0.0956486571788749,0.008));
#753=CARTESIAN_POINT('',(-0.00696458601790558,0.0956486571788749,0.005));
#754=CARTESIAN_POINT('',(-0.00709006698889425,0.0951063441073833,0.008));
#755=CARTESIAN_POINT('',(-0.00709006698889425,0.0951063441073833,0.005));
#756=CARTESIAN_POINT('',(-0.00709006698889425,0.094483644788852,0.008));
#757=CARTESIAN_POINT('',(-0.00709006698889425,0.094483644788852,0.005));
#758=CARTESIAN_POINT('',(-0.00671362407592823,0.0961105840033269,0.005));
#759=CARTESIAN_POINT('',(-0.00709006698889425,0.0954176937666489,0.005));
#760=CARTESIAN_POINT('',(-0.00709006698889425,0.094483644788852,0.005));
#761=CARTESIAN_POINT('',(-0.00671362407592823,0.0961105840033269,0.005));
#762=CARTESIAN_POINT('',(-0.00671362407592823,0.0961105840033269,0.008));
#763=CARTESIAN_POINT('',(-0.00671362407592823,0.0961105840033269,0.008));
#764=CARTESIAN_POINT('',(-0.00671362407592823,0.0961105840033269,0.008));
#765=CARTESIAN_POINT('',(-0.00709006698889425,0.0954176937666489,0.008));
#766=CARTESIAN_POINT('',(-0.00709006698889425,0.094483644788852,0.008));
#767=CARTESIAN_POINT('',(-0.00570428651553811,0.0971646241596318,0.008));
#768=CARTESIAN_POINT('',(-0.00570428651553811,0.0971646241596318,0.005));
#769=CARTESIAN_POINT('',(-0.00612621628048752,0.0969238575465473,0.008));
#770=CARTESIAN_POINT('',(-0.00612621628048752,0.0969238575465473,0.005));
#771=CARTESIAN_POINT('',(-0.00646266213395089,0.096572510827779,0.008));
#772=CARTESIAN_POINT('',(-0.00646266213395089,0.096572510827779,0.005));
#773=CARTESIAN_POINT('',(-0.00671362407592823,0.0961105840033269,0.008));
#774=CARTESIAN_POINT('',(-0.00671362407592823,0.0961105840033269,0.005));
#775=CARTESIAN_POINT('',(-0.00570428651553811,0.0971646241596318,0.005));
#776=CARTESIAN_POINT('',(-0.00633718116296222,0.096803474240005,0.005));
#777=CARTESIAN_POINT('',(-0.00671362407592823,0.0961105840033269,0.005));
#778=CARTESIAN_POINT('',(-0.00570428651553811,0.0971646241596318,0.005));
#779=CARTESIAN_POINT('',(-0.00570428651553811,0.0971646241596318,0.008));
#780=CARTESIAN_POINT('',(-0.00570428651553811,0.0971646241596318,0.008));
#781=CARTESIAN_POINT('',(-0.00570428651553811,0.0971646241596318,0.008));
#782=CARTESIAN_POINT('',(-0.00633718116296222,0.096803474240005,0.008));
#783=CARTESIAN_POINT('',(-0.00671362407592823,0.0961105840033269,0.008));
#784=CARTESIAN_POINT('',(-0.00430438943294575,0.0975257740792586,0.008));
#785=CARTESIAN_POINT('',(-0.00430438943294575,0.0975257740792586,0.005));
#786=CARTESIAN_POINT('',(-0.00481572438972458,0.0975257740792586,0.008));
#787=CARTESIAN_POINT('',(-0.00481572438972458,0.0975257740792586,0.005));
#788=CARTESIAN_POINT('',(-0.0052823567505887,0.0974053907727163,0.008));
#789=CARTESIAN_POINT('',(-0.0052823567505887,0.0974053907727163,0.005));
#790=CARTESIAN_POINT('',(-0.00570428651553811,0.0971646241596318,0.008));
#791=CARTESIAN_POINT('',(-0.00570428651553811,0.0971646241596318,0.005));
#792=CARTESIAN_POINT('',(-0.00430438943294575,0.0975257740792586,0.005));
#793=CARTESIAN_POINT('',(-0.005071391868114,0.0975257740792586,0.005));
#794=CARTESIAN_POINT('',(-0.00570428651553811,0.0971646241596318,0.005));
#795=CARTESIAN_POINT('',(-0.00430438943294575,0.0975257740792586,0.005));
#796=CARTESIAN_POINT('',(-0.00430438943294575,0.0975257740792586,0.008));
#797=CARTESIAN_POINT('',(-0.00430438943294575,0.0975257740792586,0.008));
#798=CARTESIAN_POINT('',(-0.00430438943294575,0.0975257740792586,0.008));
#799=CARTESIAN_POINT('',(-0.005071391868114,0.0975257740792586,0.008));
#800=CARTESIAN_POINT('',(-0.00570428651553811,0.0971646241596318,0.008));
#801=CARTESIAN_POINT('',(-0.00427358946966827,0.0947517359998141,0.008));
#802=CARTESIAN_POINT('',(-0.00427358946966827,0.0947517359998141,0.005));
#803=CARTESIAN_POINT('',(-0.00289508127752924,0.0971575658550137,0.005));
#804=CARTESIAN_POINT('',(-0.00289508127752924,0.0971575658550137,0.008));
#805=CARTESIAN_POINT('',(-0.00289508127752924,0.0971575658550137,0.008));
#806=CARTESIAN_POINT('',(-0.00427358946966827,0.0947517359998141,0.008));
#807=CARTESIAN_POINT('',(-0.00848996407148661,0.094483644788852,0.008));
#808=CARTESIAN_POINT('',(-0.00848996407148661,0.094483644788852,0.005));
#809=CARTESIAN_POINT('',(-0.00848996407148661,0.0953275043187508,0.008));
#810=CARTESIAN_POINT('',(-0.00848996407148661,0.0953275043187508,0.005));
#811=CARTESIAN_POINT('',(-0.00831938837654888,0.0960682341756183,0.008));
#812=CARTESIAN_POINT('',(-0.00831938837654888,0.0960682341756183,0.005));
#813=CARTESIAN_POINT('',(-0.00797823698667343,0.0967058343594545,0.008));
#814=CARTESIAN_POINT('',(-0.00797823698667343,0.0967058343594545,0.005));
#815=CARTESIAN_POINT('',(-0.00848996407148661,0.094483644788852,0.005));
#816=CARTESIAN_POINT('',(-0.00848996407148661,0.0957494340837002,0.005));
#817=CARTESIAN_POINT('',(-0.00797823698667343,0.0967058343594545,0.005));
#818=CARTESIAN_POINT('',(-0.00848996407148661,0.094483644788852,0.005));
#819=CARTESIAN_POINT('',(-0.00797823698667343,0.0967058343594545,0.005));
#820=CARTESIAN_POINT('',(-0.00848996407148661,0.094483644788852,0.008));
#821=CARTESIAN_POINT('',(-0.00848996407148661,0.094483644788852,0.008));
#822=CARTESIAN_POINT('',(-0.00848996407148661,0.094483644788852,0.008));
#823=CARTESIAN_POINT('',(-0.00848996407148661,0.0957494340837002,0.008));
#824=CARTESIAN_POINT('',(-0.00797823698667343,0.0967058343594545,0.008));
#825=CARTESIAN_POINT('',(-0.00797823698667343,0.0967058343594545,0.008));
#826=CARTESIAN_POINT('',(-0.00797823698667343,0.0967058343594545,0.008));
#827=CARTESIAN_POINT('',(-0.00797823698667343,0.0922555732977344,0.008));
#828=CARTESIAN_POINT('',(-0.00797823698667343,0.0922555732977344,0.005));
#829=CARTESIAN_POINT('',(-0.00831938837654888,0.0929080743468755,0.008));
#830=CARTESIAN_POINT('',(-0.00831938837654888,0.0929080743468755,0.005));
#831=CARTESIAN_POINT('',(-0.00848996407148661,0.0936507648439147,0.008));
#832=CARTESIAN_POINT('',(-0.00848996407148661,0.0936507648439147,0.005));
#833=CARTESIAN_POINT('',(-0.00848996407148661,0.094483644788852,0.008));
#834=CARTESIAN_POINT('',(-0.00848996407148661,0.094483644788852,0.005));
#835=CARTESIAN_POINT('',(-0.00797823698667343,0.0922555732977344,0.005));
#836=CARTESIAN_POINT('',(-0.00848996407148661,0.093234324871446,0.005));
#837=CARTESIAN_POINT('',(-0.00848996407148661,0.094483644788852,0.005));
#838=CARTESIAN_POINT('',(-0.00797823698667343,0.0922555732977344,0.005));
#839=CARTESIAN_POINT('',(-0.00797823698667343,0.0922555732977344,0.008));
#840=CARTESIAN_POINT('',(-0.00797823698667343,0.0922555732977344,0.008));
#841=CARTESIAN_POINT('',(-0.00797823698667343,0.0922555732977344,0.008));
#842=CARTESIAN_POINT('',(-0.00848996407148661,0.093234324871446,0.008));
#843=CARTESIAN_POINT('',(-0.00848996407148661,0.094483644788852,0.008));
#844=CARTESIAN_POINT('',(-0.00657716351997805,0.0907345086525311,0.008));
#845=CARTESIAN_POINT('',(-0.00657716351997805,0.0907345086525311,0.005));
#846=CARTESIAN_POINT('',(-0.00717006110789952,0.0910960507001922,0.008));
#847=CARTESIAN_POINT('',(-0.00717006110789952,0.0910960507001922,0.005));
#848=CARTESIAN_POINT('',(-0.00763708559679798,0.0916030722485933,0.008));
#849=CARTESIAN_POINT('',(-0.00763708559679798,0.0916030722485933,0.005));
#850=CARTESIAN_POINT('',(-0.00797823698667343,0.0922555732977344,0.008));
#851=CARTESIAN_POINT('',(-0.00797823698667343,0.0922555732977344,0.005));
#852=CARTESIAN_POINT('',(-0.00657716351997805,0.0907345086525311,0.005));
#853=CARTESIAN_POINT('',(-0.00746650990186026,0.0912768217240227,0.005));
#854=CARTESIAN_POINT('',(-0.00797823698667343,0.0922555732977344,0.005));
#855=CARTESIAN_POINT('',(-0.00657716351997805,0.0907345086525311,0.005));
#856=CARTESIAN_POINT('',(-0.00657716351997805,0.0907345086525311,0.008));
#857=CARTESIAN_POINT('',(-0.00657716351997805,0.0907345086525311,0.008));
#858=CARTESIAN_POINT('',(-0.00657716351997805,0.0907345086525311,0.008));
#859=CARTESIAN_POINT('',(-0.00746650990186026,0.0912768217240227,0.008));
#860=CARTESIAN_POINT('',(-0.00797823698667343,0.0922555732977344,0.008));
#861=CARTESIAN_POINT('',(-0.0045890743858763,0.0901921955810394,0.008));
#862=CARTESIAN_POINT('',(-0.0045890743858763,0.0901921955810394,0.005));
#863=CARTESIAN_POINT('',(-0.00532156955402267,0.0901921955810394,0.008));
#864=CARTESIAN_POINT('',(-0.00532156955402267,0.0901921955810394,0.005));
#865=CARTESIAN_POINT('',(-0.00598426593205658,0.09037296660487,0.008));
#866=CARTESIAN_POINT('',(-0.00598426593205658,0.09037296660487,0.005));
#867=CARTESIAN_POINT('',(-0.00657716351997805,0.0907345086525311,0.008));
#868=CARTESIAN_POINT('',(-0.00657716351997805,0.0907345086525311,0.005));
#869=CARTESIAN_POINT('',(-0.0045890743858763,0.0901921955810394,0.005));
#870=CARTESIAN_POINT('',(-0.00568781713809585,0.0901921955810394,0.005));
#871=CARTESIAN_POINT('',(-0.00657716351997805,0.0907345086525311,0.005));
#872=CARTESIAN_POINT('',(-0.0045890743858763,0.0901921955810394,0.005));
#873=CARTESIAN_POINT('',(-0.0045890743858763,0.0901921955810394,0.008));
#874=CARTESIAN_POINT('',(-0.0045890743858763,0.0901921955810394,0.008));
#875=CARTESIAN_POINT('',(-0.0045890743858763,0.0901921955810394,0.008));
#876=CARTESIAN_POINT('',(-0.00568781713809585,0.0901921955810394,0.008));
#877=CARTESIAN_POINT('',(-0.00657716351997805,0.0907345086525311,0.008));
#878=CARTESIAN_POINT('',(-0.00271509450976736,0.090667454758659,0.008));
#879=CARTESIAN_POINT('',(-0.00271509450976736,0.090667454758659,0.005));
#880=CARTESIAN_POINT('',(-0.00325230991681261,0.0903506153069126,0.008));
#881=CARTESIAN_POINT('',(-0.00325230991681261,0.0903506153069126,0.005));
#882=CARTESIAN_POINT('',(-0.00387696987551559,0.0901921955810394,0.008));
#883=CARTESIAN_POINT('',(-0.00387696987551559,0.0901921955810394,0.005));
#884=CARTESIAN_POINT('',(-0.0045890743858763,0.0901921955810394,0.008));
#885=CARTESIAN_POINT('',(-0.0045890743858763,0.0901921955810394,0.005));
#886=CARTESIAN_POINT('',(-0.00271509450976736,0.090667454758659,0.005));
#887=CARTESIAN_POINT('',(-0.00352091762033523,0.0901921955810394,0.005));
#888=CARTESIAN_POINT('',(-0.0045890743858763,0.0901921955810394,0.005));
#889=CARTESIAN_POINT('',(-0.00271509450976736,0.090667454758659,0.005));
#890=CARTESIAN_POINT('',(-0.00271509450976736,0.090667454758659,0.008));
#891=CARTESIAN_POINT('',(-0.00271509450976736,0.090667454758659,0.008));
#892=CARTESIAN_POINT('',(-0.00271509450976736,0.090667454758659,0.008));
#893=CARTESIAN_POINT('',(-0.00352091762033523,0.0901921955810394,0.008));
#894=CARTESIAN_POINT('',(-0.0045890743858763,0.0901921955810394,0.008));
#895=CARTESIAN_POINT('',(-0.00150224249955499,0.0918650137755321,0.008));
#896=CARTESIAN_POINT('',(-0.00150224249955499,0.0918650137755321,0.005));
#897=CARTESIAN_POINT('',(-0.00177359509931799,0.0913834805493631,0.008));
#898=CARTESIAN_POINT('',(-0.00177359509931799,0.0913834805493631,0.005));
#899=CARTESIAN_POINT('',(-0.00217787910272212,0.0909842942104054,0.008));
#900=CARTESIAN_POINT('',(-0.00217787910272212,0.0909842942104054,0.005));
#901=CARTESIAN_POINT('',(-0.00271509450976736,0.090667454758659,0.008));
#902=CARTESIAN_POINT('',(-0.00271509450976736,0.090667454758659,0.005));
#903=CARTESIAN_POINT('',(-0.00150224249955499,0.0918650137755321,0.005));
#904=CARTESIAN_POINT('',(-0.0019092713991995,0.0911427139362786,0.005));
#905=CARTESIAN_POINT('',(-0.00271509450976736,0.090667454758659,0.005));
#906=CARTESIAN_POINT('',(-0.00150224249955499,0.0918650137755321,0.005));
#907=CARTESIAN_POINT('',(-0.00150224249955499,0.0918650137755321,0.008));
#908=CARTESIAN_POINT('',(-0.00150224249955499,0.0918650137755321,0.008));
#909=CARTESIAN_POINT('',(-0.00150224249955499,0.0918650137755321,0.008));
#910=CARTESIAN_POINT('',(-0.0019092713991995,0.0911427139362786,0.008));
#911=CARTESIAN_POINT('',(-0.00271509450976736,0.090667454758659,0.008));
#912=CARTESIAN_POINT('',(-0.00150224249955499,0.0910968349562609,0.008));
#913=CARTESIAN_POINT('',(-0.00150224249955499,0.0910968349562609,0.005));
#914=CARTESIAN_POINT('',(-0.00150224249955499,0.0903286561369896,0.005));
#915=CARTESIAN_POINT('',(-0.00150224249955499,0.0903286561369896,0.008));
#916=CARTESIAN_POINT('',(-0.00150224249955499,0.0903286561369896,0.008));
#917=CARTESIAN_POINT('',(-0.00150224249955499,0.0910968349562609,0.008));
#918=CARTESIAN_POINT('',(-0.000809352262876924,0.0903286561369896,0.008));
#919=CARTESIAN_POINT('',(-0.000809352262876924,0.0903286561369896,0.005));
#920=CARTESIAN_POINT('',(-0.000116462026198857,0.0903286561369896,0.005));
#921=CARTESIAN_POINT('',(-0.000116462026198857,0.0903286561369896,0.008));
#922=CARTESIAN_POINT('',(-0.000116462026198857,0.0903286561369896,0.008));
#923=CARTESIAN_POINT('',(-0.000809352262876924,0.0903286561369896,0.008));
#924=CARTESIAN_POINT('',(-0.000116462026198857,0.0944542351862765,0.008));
#925=CARTESIAN_POINT('',(-0.000116462026198857,0.0944542351862765,0.005));
#926=CARTESIAN_POINT('',(-0.000116462026198857,0.0985798142355634,0.005));
#927=CARTESIAN_POINT('',(-0.000116462026198857,0.0985798142355634,0.008));
#928=CARTESIAN_POINT('',(-0.000116462026198857,0.0985798142355634,0.008));
#929=CARTESIAN_POINT('',(-0.000116462026198857,0.0944542351862765,0.008));
#930=CARTESIAN_POINT('',(-0.000809352262876924,0.0985798142355634,0.008));
#931=CARTESIAN_POINT('',(-0.000809352262876924,0.0985798142355634,0.005));
#932=CARTESIAN_POINT('',(-0.00150224249955499,0.0985798142355634,0.005));
#933=CARTESIAN_POINT('',(-0.00150224249955499,0.0985798142355634,0.008));
#934=CARTESIAN_POINT('',(-0.00150224249955499,0.0985798142355634,0.008));
#935=CARTESIAN_POINT('',(-0.000809352262876924,0.0985798142355634,0.008));
#936=CARTESIAN_POINT('',(-0.00150224249955499,0.0978269284096314,0.008));
#937=CARTESIAN_POINT('',(-0.00150224249955499,0.0978269284096314,0.005));
#938=CARTESIAN_POINT('',(-0.00150224249955499,0.0970740425836993,0.005));
#939=CARTESIAN_POINT('',(-0.00150224249955499,0.0970740425836993,0.008));
#940=CARTESIAN_POINT('',(-0.00150224249955499,0.0970740425836993,0.008));
#941=CARTESIAN_POINT('',(-0.00150224249955499,0.0978269284096314,0.008));
#942=CARTESIAN_POINT('',(-0.00269274321181001,0.0982492503026151,0.008));
#943=CARTESIAN_POINT('',(-0.00269274321181001,0.0982492503026151,0.005));
#944=CARTESIAN_POINT('',(-0.00216101759724552,0.0979379006433495,0.008));
#945=CARTESIAN_POINT('',(-0.00216101759724552,0.0979379006433495,0.005));
#946=CARTESIAN_POINT('',(-0.00176418402649384,0.0975461647370442,0.008));
#947=CARTESIAN_POINT('',(-0.00176418402649384,0.0975461647370442,0.005));
#948=CARTESIAN_POINT('',(-0.00150224249955499,0.0970740425836993,0.008));
#949=CARTESIAN_POINT('',(-0.00150224249955499,0.0970740425836993,0.005));
#950=CARTESIAN_POINT('',(-0.00269274321181001,0.0982492503026151,0.005));
#951=CARTESIAN_POINT('',(-0.00189515478996327,0.0977822258137167,0.005));
#952=CARTESIAN_POINT('',(-0.00150224249955499,0.0970740425836993,0.005));
#953=CARTESIAN_POINT('',(-0.00269274321181001,0.0982492503026151,0.005));
#954=CARTESIAN_POINT('',(-0.00269274321181001,0.0982492503026151,0.008));
#955=CARTESIAN_POINT('',(-0.00269274321181001,0.0982492503026151,0.008));
#956=CARTESIAN_POINT('',(-0.00269274321181001,0.0982492503026151,0.008));
#957=CARTESIAN_POINT('',(-0.00189515478996327,0.0977822258137167,0.008));
#958=CARTESIAN_POINT('',(-0.00150224249955499,0.0970740425836993,0.008));
#959=CARTESIAN_POINT('',(-0.00457495777664007,0.0987162747915136,0.008));
#960=CARTESIAN_POINT('',(-0.00457495777664007,0.0987162747915136,0.005));
#961=CARTESIAN_POINT('',(-0.00385187368131786,0.0987162747915136,0.008));
#962=CARTESIAN_POINT('',(-0.00385187368131786,0.0987162747915136,0.005));
#963=CARTESIAN_POINT('',(-0.0032244688263745,0.0985605999618808,0.008));
#964=CARTESIAN_POINT('',(-0.0032244688263745,0.0985605999618808,0.005));
#965=CARTESIAN_POINT('',(-0.00269274321181001,0.0982492503026151,0.008));
#966=CARTESIAN_POINT('',(-0.00269274321181001,0.0982492503026151,0.005));
#967=CARTESIAN_POINT('',(-0.00457495777664007,0.0987162747915136,0.005));
#968=CARTESIAN_POINT('',(-0.00349033163365675,0.0987162747915136,0.005));
#969=CARTESIAN_POINT('',(-0.00269274321181001,0.0982492503026151,0.005));
#970=CARTESIAN_POINT('',(-0.00457495777664007,0.0987162747915136,0.005));
#971=CARTESIAN_POINT('',(-0.00457495777664007,0.0987162747915136,0.008));
#972=CARTESIAN_POINT('',(-0.00457495777664007,0.0987162747915136,0.008));
#973=CARTESIAN_POINT('',(-0.00457495777664007,0.0987162747915136,0.008));
#974=CARTESIAN_POINT('',(-0.00349033163365675,0.0987162747915136,0.008));
#975=CARTESIAN_POINT('',(-0.00269274321181001,0.0982492503026151,0.008));
#976=CARTESIAN_POINT('',(-0.00657010521535994,0.0981892547133612,0.008));
#977=CARTESIAN_POINT('',(-0.00657010521535994,0.0981892547133612,0.005));
#978=CARTESIAN_POINT('',(-0.00597250209102639,0.0985406014321295,0.008));
#979=CARTESIAN_POINT('',(-0.00597250209102639,0.0985406014321295,0.005));
#980=CARTESIAN_POINT('',(-0.00530745294478644,0.0987162747915136,0.008));
#981=CARTESIAN_POINT('',(-0.00530745294478644,0.0987162747915136,0.005));
#982=CARTESIAN_POINT('',(-0.00457495777664007,0.0987162747915136,0.008));
#983=CARTESIAN_POINT('',(-0.00457495777664007,0.0987162747915136,0.005));
#984=CARTESIAN_POINT('',(-0.00657010521535994,0.0981892547133612,0.005));
#985=CARTESIAN_POINT('',(-0.00567370052885962,0.0987162747915136,0.005));
#986=CARTESIAN_POINT('',(-0.00457495777664007,0.0987162747915136,0.005));
#987=CARTESIAN_POINT('',(-0.00657010521535994,0.0981892547133612,0.005));
#988=CARTESIAN_POINT('',(-0.00657010521535994,0.0981892547133612,0.008));
#989=CARTESIAN_POINT('',(-0.00657010521535994,0.0981892547133612,0.008));
#990=CARTESIAN_POINT('',(-0.00657010521535994,0.0981892547133612,0.008));
#991=CARTESIAN_POINT('',(-0.00567370052885962,0.0987162747915136,0.008));
#992=CARTESIAN_POINT('',(-0.00457495777664007,0.0987162747915136,0.008));
#993=CARTESIAN_POINT('',(-0.00797823698667343,0.0967058343594545,0.008));
#994=CARTESIAN_POINT('',(-0.00797823698667343,0.0967058343594545,0.005));
#995=CARTESIAN_POINT('',(-0.00763708559679798,0.0973434345432906,0.008));
#996=CARTESIAN_POINT('',(-0.00763708559679798,0.0973434345432906,0.005));
#997=CARTESIAN_POINT('',(-0.00716770833969349,0.0978379079945929,0.008));
#998=CARTESIAN_POINT('',(-0.00716770833969349,0.0978379079945929,0.005));
#999=CARTESIAN_POINT('',(-0.00657010521535994,0.0981892547133612,0.008));
#1000=CARTESIAN_POINT('',(-0.00657010521535994,0.0981892547133612,0.005));
#1001=CARTESIAN_POINT('',(-0.00797823698667343,0.0967058343594545,0.005));
#1002=CARTESIAN_POINT('',(-0.00746650990186026,0.0976622346352087,0.005));
#1003=CARTESIAN_POINT('',(-0.00657010521535994,0.0981892547133612,0.005));
#1004=CARTESIAN_POINT('',(-0.00797823698667343,0.0967058343594545,0.008));
#1005=CARTESIAN_POINT('',(-0.00746650990186026,0.0976622346352087,0.008));
#1006=CARTESIAN_POINT('',(-0.00657010521535994,0.0981892547133612,0.008));
#1007=CARTESIAN_POINT('',(-0.001878685412521,0.0960964673940907,0.008));
#1008=CARTESIAN_POINT('',(-0.001878685412521,0.0960964673940907,0.005));
#1009=CARTESIAN_POINT('',(-0.00212964735449835,0.0965583942185428,0.008));
#1010=CARTESIAN_POINT('',(-0.00212964735449835,0.0965583942185428,0.005));
#1011=CARTESIAN_POINT('',(-0.00246844597616776,0.0969120937055171,0.008));
#1012=CARTESIAN_POINT('',(-0.00246844597616776,0.0969120937055171,0.005));
#1013=CARTESIAN_POINT('',(-0.00289508127752924,0.0971575658550137,0.008));
#1014=CARTESIAN_POINT('',(-0.00289508127752924,0.0971575658550137,0.005));
#1015=CARTESIAN_POINT('',(-0.001878685412521,0.0960964673940907,0.005));
#1016=CARTESIAN_POINT('',(-0.00225512832548702,0.0967893576307688,0.005));
#1017=CARTESIAN_POINT('',(-0.00289508127752924,0.0971575658550137,0.005));
#1018=CARTESIAN_POINT('',(-0.001878685412521,0.0960964673940907,0.008));
#1019=CARTESIAN_POINT('',(-0.00225512832548702,0.0967893576307688,0.008));
#1020=CARTESIAN_POINT('',(-0.00289508127752924,0.0971575658550137,0.008));
#1021=CARTESIAN_POINT('',(4.16333634234434E-16,0.0415391394652619,0.008));
#1022=CARTESIAN_POINT('',(4.16333634234434E-16,0.0415391394652619,0.005));
#1023=MECHANICAL_DESIGN_GEOMETRIC_PRESENTATION_REPRESENTATION('',(#548),
#1024);
#1024=(
GEOMETRIC_REPRESENTATION_CONTEXT(3)
GLOBAL_UNCERTAINTY_ASSIGNED_CONTEXT((#1025))
GLOBAL_UNIT_ASSIGNED_CONTEXT((#1028,#1027,#1026))
REPRESENTATION_CONTEXT('Part 11','TOP_LEVEL_ASSEMBLY_PART')
);
#1025=UNCERTAINTY_MEASURE_WITH_UNIT(LENGTH_MEASURE(2.E-5),#1028,
'DISTANCE_ACCURACY_VALUE','Maximum Tolerance applied to model');
#1026=(
NAMED_UNIT(*)
SI_UNIT($,.STERADIAN.)
SOLID_ANGLE_UNIT()
);
#1027=(
NAMED_UNIT(*)
PLANE_ANGLE_UNIT()
SI_UNIT($,.RADIAN.)
);
#1028=(
LENGTH_UNIT()
NAMED_UNIT(*)
SI_UNIT($,.METRE.)
);
#1029=PRODUCT_DEFINITION_SHAPE('','',#1030);
#1030=PRODUCT_DEFINITION('','',#1032,#1031);
#1031=PRODUCT_DEFINITION_CONTEXT('',#1038,'design');
#1032=PRODUCT_DEFINITION_FORMATION_WITH_SPECIFIED_SOURCE('','',#1034,
 .NOT_KNOWN.);
#1033=PRODUCT_RELATED_PRODUCT_CATEGORY('','',(#1034));
#1034=PRODUCT('Part 11','Part 11','Part 11',(#1036));
#1035=PRODUCT_CATEGORY('','');
#1036=PRODUCT_CONTEXT('',#1038,'mechanical');
#1037=APPLICATION_PROTOCOL_DEFINITION('international standard',
'ap242_managed_model_based_3d_engineering',2020,#1038);
#1038=APPLICATION_CONTEXT('managed model based 3d engineering');
ENDSEC;
END-ISO-10303-21;
